<?xml version="1.0" encoding="UTF-8" standalone="no"?>
<!-- Created with Inkscape (http://www.inkscape.org/) -->

<svg
   xmlns:dc="http://purl.org/dc/elements/1.1/"
   xmlns:cc="http://creativecommons.org/ns#"
   xmlns:rdf="http://www.w3.org/1999/02/22-rdf-syntax-ns#"
   xmlns:svg="http://www.w3.org/2000/svg"
   xmlns="http://www.w3.org/2000/svg"
   xmlns:sodipodi="http://sodipodi.sourceforge.net/DTD/sodipodi-0.dtd"
   xmlns:inkscape="http://www.inkscape.org/namespaces/inkscape"
   width="1052.3622"
   height="400"
   viewBox="0 0 1052.3622 400"
   id="svg4239"
   version="1.1"
   inkscape:version="0.91 r13725"
   sodipodi:docname="logo.svg"
   inkscape:export-filename="/home/kinow/Pictures/logos/biojava/v2/logo.png"
   inkscape:export-xdpi="90"
   inkscape:export-ydpi="90">
  <defs
     id="defs4241" />
  <sodipodi:namedview
     id="base"
     pagecolor="#ffffff"
     bordercolor="#666666"
     borderopacity="1.0"
     inkscape:pageopacity="0.0"
     inkscape:pageshadow="2"
     inkscape:zoom="0.49497475"
     inkscape:cx="-95.296815"
     inkscape:cy="297.27623"
     inkscape:document-units="px"
     inkscape:current-layer="layer1"
     showgrid="false"
     units="px"
     inkscape:window-width="1600"
     inkscape:window-height="851"
     inkscape:window-x="0"
     inkscape:window-y="25"
     inkscape:window-maximized="1" />
  <metadata
     id="metadata4244">
    <rdf:RDF>
      <cc:Work
         rdf:about="">
        <dc:format>image/svg+xml</dc:format>
        <dc:type
           rdf:resource="http://purl.org/dc/dcmitype/StillImage" />
        <dc:title />
      </cc:Work>
    </rdf:RDF>
  </metadata>
  <g
     inkscape:label="Layer 1"
     inkscape:groupmode="layer"
     id="layer1"
     transform="translate(0,-652.3622)">
    <g
       id="g4622"
       transform="matrix(3.2441942,0,0,3.2318239,1129.1732,-361.38157)">
      <path
         sodipodi:nodetypes="cccccccscscscscscccsccss"
         d="m -273.01255,362.2629 3.04418,-3.38143 10.18582,3.38143 3.0389,49.0026 -3.0389,3.3774 -13.23,0 z m 6.93,-22.32 c 1.44,0 2.73,0.3 3.87,0.9 1.2,0.54 2.19,1.26 2.97,2.16 0.78,0.9 1.38,1.92 1.8,3.06 0.42,1.08 0.63,2.13 0.63,3.15 0,1.38 -0.27,2.67 -0.81,3.87 -0.48,1.14 -1.17,2.16 -2.07,3.06 -0.84,0.84 -1.83,1.53 -2.97,2.07 -1.08,0.48 -2.25,0.72 -3.51,0.72 -1.56,0 -2.94,-0.24 -4.14,-0.72 -1.2,-0.54 -2.22,-1.2 -3.06,-1.98 -0.78,-0.84 -1.38,-1.8 -1.8,-2.88 -0.36,-1.08 -0.54,-2.19 -0.54,-3.33 0,-1.14 0.21,-2.31 0.63,-3.51 0.48,-1.2 1.11,-2.28 1.89,-3.24 0.84,-1.02 1.86,-1.83 3.06,-2.43 1.2,-0.6 2.55,-0.9 4.05,-0.9 z"
         style="font-style:normal;font-variant:normal;font-weight:normal;font-stretch:normal;font-size:90px;line-height:125%;font-family:Ranchers;-inkscape-font-specification:Ranchers;letter-spacing:0px;word-spacing:0px;display:inline;fill:#241c1c;fill-opacity:1;stroke:none;stroke-width:1px;stroke-linecap:butt;stroke-linejoin:miter;stroke-opacity:1"
         id="path4450"
         inkscape:connector-curvature="0" />
      <path
         d="m -235.10858,360.19003 q 10.98,0 15.66,7.2 4.77,7.2 4.77,20.7 0,13.59 -4.77,20.79 -4.68,7.11 -15.66,7.11 -11.07,0 -15.84,-7.11 -4.68,-7.2 -4.68,-20.79 0,-13.5 4.68,-20.7 4.77,-7.2 15.84,-7.2 z m 0,34.65 q 1.8,0 3.15,-0.72 1.44,-0.72 2.34,-1.89 0.9,-1.17 1.35,-2.61 0.45,-1.53 0.45,-3.15 0,-1.62 -0.45,-3.15 -0.45,-1.53 -1.35,-2.7 -0.9,-1.17 -2.34,-1.89 -1.35,-0.72 -3.15,-0.72 -3.69,0 -5.58,2.61 -1.8,2.61 -1.8,5.85 0,1.62 0.45,3.15 0.45,1.44 1.35,2.61 0.99,1.17 2.34,1.89 1.35,0.72 3.24,0.72 z"
         style="font-style:normal;font-variant:normal;font-weight:normal;font-stretch:normal;font-size:90px;line-height:125%;font-family:Ranchers;-inkscape-font-specification:Ranchers;letter-spacing:0px;word-spacing:0px;display:inline;fill:#241c1c;fill-opacity:1;stroke:none;stroke-width:1px;stroke-linecap:butt;stroke-linejoin:miter;stroke-opacity:1"
         id="path4452"
         inkscape:connector-curvature="0" />
      <path
         sodipodi:nodetypes="scssccscccssccsccsscccccs"
         d="m -183.03361,376.48004 c 0,4.26 -0.03,7.8 -0.09,10.62 0,2.82 -0.03,5.13 -0.09,6.93 -0.06,1.8 -0.15,3.21 -0.27,4.23 -0.12,1.02 -0.24,1.92 -0.36,2.7 -0.78,4.5 -2.73,8.13 -5.85,10.89 -3.06,2.76 -7.41,4.14 -13.05,4.14 -1.44,0 -3.21,-0.12 -5.31,-0.36 -2.04,-0.18 -4.05,-0.54 -6.03,-1.08 -0.12,-2.04 -0.21,-4.11 -0.27,-6.21 -0.06,-2.16 -0.09,-4.29 -0.09,-6.39 0,-2.16 0.03,-4.32 0.09,-6.48 0.06,-2.16 0.15,-4.32 0.27,-6.48 1.67781,-1.62871 1.5524,-1.62686 3.39998,-3.74327 1.41231,1.25951 3.72593,5.63327 4.43002,5.63327 1.86,0 3.36,-0.3 4.5,-0.9 1.2,-0.66 2.13,-1.65 2.79,-2.97 0.72,-1.32 1.2,-3.03 1.44,-5.13 0.24,-2.1 0.36,-4.59 0.36,-7.47 l 0,-17.64 -12.51,0 0,-15.39 3.39719,-3.73437 23.24281,3.73437 z"
         style="font-style:normal;font-variant:normal;font-weight:normal;font-stretch:normal;font-size:90px;line-height:125%;font-family:Ranchers;-inkscape-font-specification:Ranchers;letter-spacing:0px;word-spacing:0px;display:inline;fill:#241c1c;fill-opacity:1;stroke:none;stroke-width:1px;stroke-linecap:butt;stroke-linejoin:miter;stroke-opacity:1"
         id="path4454"
         inkscape:connector-curvature="0" />
      <path
         sodipodi:nodetypes="ccccsscsssccscccccccscscsccssss"
         d="m -133.73061,415.35718 -12.33,0 0,-4.41 c -2.16,1.74 -4.44,3.09 -6.84,4.05 -2.4,0.9 -4.74,1.35 -7.02,1.35 -2.7,0 -5.19,-0.66 -7.47,-1.98 -2.28,-1.32 -4.26,-3.15 -5.94,-5.49 -1.62,-2.4 -2.91,-5.25 -3.87,-8.55 -0.96,-3.3 -1.44,-6.9 -1.44,-10.8 0,-4.08 0.51,-7.89 1.53,-11.43 1.02,-3.54 2.4,-6.6 4.14,-9.18 1.8,-2.64 3.9,-4.68 6.3,-6.12 2.46,-1.5 5.1,-2.25 7.92,-2.25 2.46,0 4.8,0.54 7.02,1.62 2.22,1.02 4.11,2.31 5.67,3.87 l 0.0442,-4.54419 2.30763,-4 10.42818,4.04419 1.87355,49.71917 z m -27.72,-32.49 c 0,2.46 0.66,4.44 1.98,5.94 1.38,1.5 3.12,2.25 5.22,2.25 2.28,0 4.2,-0.81 5.76,-2.43 1.62,-1.62 2.43,-3.69 2.43,-6.21 0,-1.14 -0.21,-2.22 -0.63,-3.24 -0.36,-1.02 -0.9,-1.89 -1.62,-2.61 -0.72,-0.78 -1.56,-1.38 -2.52,-1.8 -0.96,-0.42 -1.98,-0.63 -3.06,-0.63 -2.16,0 -3.96,0.81 -5.4,2.43 -1.44,1.62 -2.16,3.72 -2.16,6.3 z"
         style="font-style:normal;font-variant:normal;font-weight:normal;font-stretch:normal;font-size:90px;line-height:125%;font-family:Ranchers;-inkscape-font-specification:Ranchers;letter-spacing:0px;word-spacing:0px;display:inline;fill:#241c1c;fill-opacity:1;stroke:none;stroke-width:1px;stroke-linecap:butt;stroke-linejoin:miter;stroke-opacity:1"
         id="path4456"
         inkscape:connector-curvature="0" />
      <path
         d="m -91.315428,359.67412 -8.49598,51.57884 -3.654022,4.17866 -17.06469,-0.043 -12.42391,-55.68016 3.81718,-2.26819 9.59282,2.26819 c 4.35346,19.10714 4.33943,19.04575 7.56,32.4 2.77559,-13.30524 2.78352,-13.24989 7.16469,-32.35703 l 3.7444,-2.3028 z"
         style="font-style:normal;font-variant:normal;font-weight:normal;font-stretch:normal;font-size:90px;line-height:125%;font-family:Ranchers;-inkscape-font-specification:Ranchers;letter-spacing:0px;word-spacing:0px;display:inline;fill:#241c1c;fill-opacity:1;stroke:none;stroke-width:1px;stroke-linecap:butt;stroke-linejoin:miter;stroke-opacity:1"
         id="path4458"
         inkscape:connector-curvature="0"
         sodipodi:nodetypes="ccccccccccc" />
      <path
         sodipodi:nodetypes="csssscsccccccssccccsscccscsccccsscscscccc"
         inkscape:connector-curvature="0"
         id="path4462"
         style="font-style:normal;font-variant:normal;font-weight:normal;font-stretch:normal;font-size:90px;line-height:125%;font-family:Ranchers;-inkscape-font-specification:Ranchers;letter-spacing:0px;word-spacing:0px;display:inline;fill:#241c1c;fill-opacity:1;stroke:none;stroke-width:1px;stroke-linecap:butt;stroke-linejoin:miter;stroke-opacity:1"
         d="m -312.09348,364.38962 c 0.85981,0.12283 1.56609,0.18424 2.11883,0.18424 l 1.75035,0 c 3.31644,0 5.95731,-0.61415 7.9226,-1.84246 1.9653,-1.22831 2.94795,-2.85583 2.94795,-4.88254 0,-1.84247 -0.85982,-3.25502 -2.57945,-4.23767 -1.65822,-0.98265 -4.11484,-1.47398 -7.36987,-1.47398 -1.04407,0 -1.99601,0.0614 -2.85582,0.18425 -0.79841,0.0614 -1.44327,0.18423 -1.93459,0.36849 z m -14.46336,50.94419 c 0.0614,-2.82511 0.0921,-5.5581 0.0921,-8.19897 0.0614,-2.70229 0.0921,-5.34316 0.0921,-7.92261 0.0614,-2.64087 0.0921,-5.28173 0.0921,-7.9226 l 0,-8.19898 c 0,-8.04543 -0.13171,-15.82339 -0.25456,-23.19326 -0.0614,-7.36987 -0.21494,-13.94133 -0.46062,-19.71439 1.52449,-1.98332 1.51976,-1.9813 3.1199,-4.03021 2.48262,-0.0841 5.56746,3.11381 7.47428,3.01685 3.62352,-0.24566 6.87855,-0.36849 9.76508,-0.36849 17.07352,0 25.68059,5.01426 25.68059,14.90216 0,3.86918 -3.28276,5.79666 -5.55513,8.56036 -2.21096,2.70229 -12.10371,2.97155 -15.78864,3.5857 5.95731,1.10548 19.40918,6.18648 22.17288,9.68717 2.7637,3.43927 4.14555,8.3218 4.14555,14.64761 0,8.90525 -2.7637,15.50742 -8.2911,19.80651 -5.5274,4.23767 -14.12558,6.35651 -25.79453,6.35651 -2.27237,0 -4.82112,-0.0921 -7.64624,-0.27637 -2.76369,-0.12283 -5.71164,-0.3685 -8.84383,-0.73699 z m 14.46336,-24.78117 c 0.61415,0.18425 1.53539,0.33779 2.7637,0.46062 1.22831,0.12283 2.42591,0.18424 3.59281,0.18424 3.86918,0 6.78642,-0.61415 8.75171,-1.84246 2.02671,-1.22831 3.04007,-2.97866 3.04007,-5.25103 0,-2.33379 -1.07477,-4.11485 -3.22431,-5.34316 -2.08813,-1.22831 -5.00537,-1.84246 -8.75172,-1.84246 -0.7984,0 -1.68893,0.0307 -2.67158,0.0921 -0.92123,0.0614 -2.08813,0.15352 -3.50068,0.27637 l 0,13.26576 z" />
      <path
         inkscape:connector-curvature="0"
         id="path4626"
         style="font-style:normal;font-variant:normal;font-weight:normal;font-stretch:normal;font-size:90px;line-height:125%;font-family:Ranchers;-inkscape-font-specification:Ranchers;letter-spacing:0px;word-spacing:0px;display:inline;fill:#241c1c;fill-opacity:1;stroke:none;stroke-width:1px;stroke-linecap:butt;stroke-linejoin:miter;stroke-opacity:1"
         d="m -47.562448,415.35718 -12.33,0 0,-4.41 c -2.16,1.74 -4.44,3.09 -6.84,4.05 -2.4,0.9 -4.74,1.35 -7.02,1.35 -2.7,0 -5.19,-0.66 -7.47,-1.98 -2.28,-1.32 -4.26,-3.15 -5.94,-5.49 -1.62,-2.4 -2.91,-5.25 -3.87,-8.55 -0.96,-3.3 -1.44,-6.9 -1.44,-10.8 0,-4.08 0.51,-7.89 1.53,-11.43 1.02,-3.54 2.4,-6.6 4.14,-9.18 1.8,-2.64 3.9,-4.68 6.3,-6.12 2.46,-1.5 5.1,-2.25 7.92,-2.25 2.46,0 4.8,0.54 7.02,1.62 2.22,1.02 4.11,2.31 5.67,3.87 l 0.0442,-4.54419 2.30763,-4 10.42818,4.04419 1.87355,49.71917 z m -27.72,-32.49 c 0,2.46 0.66,4.44 1.98,5.94 1.38,1.5 3.12,2.25 5.22,2.25 2.28,0 4.2,-0.81 5.76,-2.43 1.62,-1.62 2.43,-3.69 2.43,-6.21 0,-1.14 -0.21,-2.22 -0.63,-3.24 -0.36,-1.02 -0.9,-1.89 -1.62,-2.61 -0.72,-0.78 -1.56,-1.38 -2.52,-1.8 -0.96,-0.42 -1.98,-0.63 -3.06,-0.63 -2.16,0 -3.96,0.81 -5.4,2.43 -1.44,1.62 -2.16,3.72 -2.16,6.3 z"
         sodipodi:nodetypes="ccccsscsssccscccccccscscsccssss" />
      <path
         inkscape:connector-curvature="0"
         id="path4394"
         style="font-style:normal;font-variant:normal;font-weight:normal;font-stretch:normal;font-size:90px;line-height:125%;font-family:Ranchers;-inkscape-font-specification:Ranchers;letter-spacing:0px;word-spacing:0px;display:inline;opacity:1;fill:#ffdd55;fill-opacity:1;stroke:none;stroke-width:1px;stroke-linecap:butt;stroke-linejoin:miter;stroke-opacity:1"
         d="m -308.21905,361.48852 q 1.26,0.18 2.07,0.18 0.81,0 1.71,0 4.86,0 7.74,-1.8 2.88,-1.8 2.88,-4.77 0,-2.7 -2.52,-4.14 -2.43,-1.44 -7.2,-1.44 -1.53,0 -2.79,0.18 -1.17,0.09 -1.89,0.36 l 0,11.43 z m -14.13,49.77 q 0.09,-4.14 0.09,-8.01 0.09,-3.96 0.09,-7.74 0.09,-3.87 0.09,-7.74 0,-3.87 0,-8.01 0,-11.79 -0.18,-22.59 -0.09,-10.8 -0.45,-19.26 5.04,-0.72 10.35,-0.99 5.31,-0.36 9.54,-0.36 25.02,0 25.02,14.49 0,5.67 -3.33,9.72 -3.24,3.96 -8.64,4.86 8.73,1.62 12.78,6.75 4.05,5.04 4.05,14.31 0,13.05 -8.1,19.35 -8.1,6.21 -25.2,6.21 -3.33,0 -7.47,-0.27 -4.05,-0.18 -8.64,-0.72 z m 14.13,-24.21 q 0.9,0.27 2.7,0.45 1.8,0.18 3.51,0.18 5.67,0 8.55,-1.8 2.97,-1.8 2.97,-5.13 0,-3.42 -3.15,-5.22 -3.06,-1.8 -8.55,-1.8 -1.17,0 -2.61,0.09 -1.35,0.09 -3.42,0.27 l 0,12.96 z" />
      <path
         inkscape:connector-curvature="0"
         id="path4396"
         style="font-style:normal;font-variant:normal;font-weight:normal;font-stretch:normal;font-size:90px;line-height:125%;font-family:Ranchers;-inkscape-font-specification:Ranchers;letter-spacing:0px;word-spacing:0px;display:inline;opacity:1;fill:#ffdd55;fill-opacity:1;stroke:none;stroke-width:1px;stroke-linecap:butt;stroke-linejoin:miter;stroke-opacity:1"
         d="m -269.97046,358.87852 13.23,0 0,52.38 -13.23,0 0,-52.38 z m 6.93,-22.32 q 2.16,0 3.87,0.9 1.8,0.81 2.97,2.16 1.17,1.35 1.8,3.06 0.63,1.62 0.63,3.15 0,2.07 -0.81,3.87 -0.72,1.71 -2.07,3.06 -1.26,1.26 -2.97,2.07 -1.62,0.72 -3.51,0.72 -2.34,0 -4.14,-0.72 -1.8,-0.81 -3.06,-1.98 -1.17,-1.26 -1.8,-2.88 -0.54,-1.62 -0.54,-3.33 0,-1.71 0.63,-3.51 0.72,-1.8 1.89,-3.24 1.26,-1.53 3.06,-2.43 1.8,-0.9 4.05,-0.9 z" />
      <path
         inkscape:connector-curvature="0"
         id="path4398"
         style="font-style:normal;font-variant:normal;font-weight:normal;font-stretch:normal;font-size:90px;line-height:125%;font-family:Ranchers;-inkscape-font-specification:Ranchers;letter-spacing:0px;word-spacing:0px;display:inline;opacity:1;fill:#ffdd55;fill-opacity:1;stroke:none;stroke-width:1px;stroke-linecap:butt;stroke-linejoin:miter;stroke-opacity:1"
         d="m -232.78077,356.44852 q 10.98,0 15.66,7.2 4.77,7.2 4.77,20.7 0,13.59 -4.77,20.79 -4.68,7.11 -15.66,7.11 -11.07,0 -15.84,-7.11 -4.68,-7.2 -4.68,-20.79 0,-13.5 4.68,-20.7 4.77,-7.2 15.84,-7.2 z m 0,34.65 q 1.8,0 3.15,-0.72 1.44,-0.72 2.34,-1.89 0.9,-1.17 1.35,-2.61 0.45,-1.53 0.45,-3.15 0,-1.62 -0.45,-3.15 -0.45,-1.53 -1.35,-2.7 -0.9,-1.17 -2.34,-1.89 -1.35,-0.72 -3.15,-0.72 -3.69,0 -5.58,2.61 -1.8,2.61 -1.8,5.85 0,1.62 0.45,3.15 0.45,1.44 1.35,2.61 0.99,1.17 2.34,1.89 1.35,0.72 3.24,0.72 z" />
      <path
         inkscape:connector-curvature="0"
         id="path4400"
         style="font-style:normal;font-variant:normal;font-weight:normal;font-stretch:normal;font-size:90px;line-height:125%;font-family:Ranchers;-inkscape-font-specification:Ranchers;letter-spacing:0px;word-spacing:0px;display:inline;opacity:1;fill:#ffdd55;fill-opacity:1;stroke:none;stroke-width:1px;stroke-linecap:butt;stroke-linejoin:miter;stroke-opacity:1"
         d="m -179.63437,372.73852 q 0,6.39 -0.09,10.62 0,4.23 -0.09,6.93 -0.09,2.7 -0.27,4.23 -0.18,1.53 -0.36,2.7 -1.17,6.75 -5.85,10.89 -4.59,4.14 -13.05,4.14 -2.16,0 -5.31,-0.36 -3.06,-0.27 -6.03,-1.08 -0.18,-3.06 -0.27,-6.21 -0.09,-3.24 -0.09,-6.39 0,-3.24 0.09,-6.48 0.09,-3.24 0.27,-6.48 2.25,0.99 4.05,1.44 1.8,0.45 3.78,0.45 2.79,0 4.5,-0.9 1.8,-0.99 2.79,-2.97 1.08,-1.98 1.44,-5.13 0.36,-3.15 0.36,-7.47 l 0,-17.64 -12.51,0 0,-15.39 26.64,0 0,35.1 z" />
      <path
         inkscape:connector-curvature="0"
         id="path4402"
         style="font-style:normal;font-variant:normal;font-weight:normal;font-stretch:normal;font-size:90px;line-height:125%;font-family:Ranchers;-inkscape-font-specification:Ranchers;letter-spacing:0px;word-spacing:0px;display:inline;opacity:1;fill:#ffdd55;fill-opacity:1;stroke:none;stroke-width:1px;stroke-linecap:butt;stroke-linejoin:miter;stroke-opacity:1"
         d="m -131.4028,411.25852 -12.33,0 0,-4.41 q -3.24,2.61 -6.84,4.05 -3.6,1.35 -7.02,1.35 -4.05,0 -7.47,-1.98 -3.42,-1.98 -5.94,-5.49 -2.43,-3.6 -3.87,-8.55 -1.44,-4.95 -1.44,-10.8 0,-6.12 1.53,-11.43 1.53,-5.31 4.14,-9.18 2.7,-3.96 6.3,-6.12 3.69,-2.25 7.92,-2.25 3.69,0 7.02,1.62 3.33,1.53 5.67,3.87 l 0,-4.5 12.78,0 -0.45,53.82 z m -27.72,-32.49 q 0,3.69 1.98,5.94 2.07,2.25 5.22,2.25 3.42,0 5.76,-2.43 2.43,-2.43 2.43,-6.21 0,-1.71 -0.63,-3.24 -0.54,-1.53 -1.62,-2.61 -1.08,-1.17 -2.52,-1.8 -1.44,-0.63 -3.06,-0.63 -3.24,0 -5.4,2.43 -2.16,2.43 -2.16,6.3 z" />
      <path
         sodipodi:nodetypes="cccccccc"
         inkscape:connector-curvature="0"
         id="path4404"
         style="font-style:normal;font-variant:normal;font-weight:normal;font-stretch:normal;font-size:90px;line-height:125%;font-family:Ranchers;-inkscape-font-specification:Ranchers;letter-spacing:0px;word-spacing:0px;display:inline;opacity:1;fill:#ffdd55;fill-opacity:1;stroke:none;stroke-width:1px;stroke-linecap:butt;stroke-linejoin:miter;stroke-opacity:1"
         d="m -87.652958,357.43852 -12.15,53.82 -17.010002,0 -12.33,-53.82 13.41,0 c 4.35346,19.10714 4.33943,19.04575 7.56,32.4 2.77559,-13.30524 2.72883,-13.29286 7.11,-32.4 z" />
      <path
         d="m -309.05139,360.29097 q 1.28972,0.18424 2.11883,0.18424 0.82911,0 1.75035,0 4.97466,0 7.9226,-1.84246 2.94795,-1.84247 2.94795,-4.88254 0,-2.7637 -2.57945,-4.23767 -2.48733,-1.47398 -7.36987,-1.47398 -1.5661,0 -2.85582,0.18425 -1.19761,0.0921 -1.93459,0.36849 l 0,11.69967 z m -14.46336,50.94419 q 0.0921,-4.23767 0.0921,-8.19897 0.0921,-4.05343 0.0921,-7.92261 0.0921,-3.9613 0.0921,-7.9226 0,-3.96131 0,-8.19898 0,-12.06815 -0.18425,-23.12295 -0.0921,-11.0548 -0.46062,-19.71439 5.15891,-0.73699 10.59418,-1.01336 5.43528,-0.36849 9.76508,-0.36849 25.61028,0 25.61028,14.83185 0,5.80377 -3.40856,9.94932 -3.31644,4.05343 -8.84384,4.97466 8.93596,1.65822 13.08151,6.90925 4.14555,5.1589 4.14555,14.64761 0,13.35788 -8.2911,19.80651 -8.2911,6.35651 -25.79453,6.35651 -3.40856,0 -7.64624,-0.27637 -4.14554,-0.18425 -8.84383,-0.73699 z m 14.46336,-24.78117 q 0.92123,0.27637 2.7637,0.46062 1.84246,0.18424 3.59281,0.18424 5.80377,0 8.75171,-1.84246 3.04007,-1.84247 3.04007,-5.25103 0,-3.50069 -3.22431,-5.34316 -3.1322,-1.84246 -8.75172,-1.84246 -1.1976,0 -2.67158,0.0921 -1.38185,0.0921 -3.50068,0.27637 l 0,13.26576 z"
         style="font-style:normal;font-variant:normal;font-weight:normal;font-stretch:normal;font-size:90px;line-height:125%;font-family:Ranchers;-inkscape-font-specification:Ranchers;letter-spacing:0px;word-spacing:0px;display:inline;opacity:1;fill:#ffdd55;fill-opacity:1;stroke:none;stroke-width:1px;stroke-linecap:butt;stroke-linejoin:miter;stroke-opacity:1"
         id="path4408"
         inkscape:connector-curvature="0" />
      <path
         d="m -45.190418,411.25852 -12.33,0 0,-4.41 q -3.24,2.61 -6.84,4.05 -3.6,1.35 -7.02,1.35 -4.05,0 -7.47,-1.98 -3.42,-1.98 -5.94,-5.49 -2.43,-3.6 -3.87,-8.55 -1.44,-4.95 -1.44,-10.8 0,-6.12 1.53,-11.43 1.53,-5.31 4.14,-9.18 2.7,-3.96 6.3,-6.12 3.69,-2.25 7.92,-2.25 3.69,0 7.02,1.62 3.33,1.53 5.67,3.87 l 0,-4.5 12.78,0 -0.45,53.82 z m -27.72,-32.49 q 0,3.69 1.98,5.94 2.07,2.25 5.22,2.25 3.42,0 5.76,-2.43 2.43,-2.43 2.43,-6.21 0,-1.71 -0.63,-3.24 -0.54,-1.53 -1.62,-2.61 -1.08,-1.17 -2.52,-1.8 -1.44,-0.63 -3.06,-0.63 -3.24,0 -5.4,2.43 -2.16,2.43 -2.16,6.3 z"
         style="font-style:normal;font-variant:normal;font-weight:normal;font-stretch:normal;font-size:90px;line-height:125%;font-family:Ranchers;-inkscape-font-specification:Ranchers;letter-spacing:0px;word-spacing:0px;display:inline;opacity:1;fill:#ffdd55;fill-opacity:1;stroke:none;stroke-width:1px;stroke-linecap:butt;stroke-linejoin:miter;stroke-opacity:1"
         id="path4628"
         inkscape:connector-curvature="0" />
    </g>
  </g>
</svg>
