<?xml version="1.0" encoding="UTF-8" standalone="no"?>
<!-- Created with Inkscape (http://www.inkscape.org/) -->

<svg
   xmlns:dc="http://purl.org/dc/elements/1.1/"
   xmlns:cc="http://creativecommons.org/ns#"
   xmlns:rdf="http://www.w3.org/1999/02/22-rdf-syntax-ns#"
   xmlns:svg="http://www.w3.org/2000/svg"
   xmlns="http://www.w3.org/2000/svg"
   xmlns:sodipodi="http://sodipodi.sourceforge.net/DTD/sodipodi-0.dtd"
   xmlns:inkscape="http://www.inkscape.org/namespaces/inkscape"
   width="500"
   height="500"
   viewBox="0 0 500 500"
   id="svg4440"
   version="1.1"
   inkscape:version="0.91 r13725"
   sodipodi:docname="logo_favicon.svg"
   inkscape:export-filename="/home/kinow/Pictures/logos/biojava/v6/logo_favicon.png"
   inkscape:export-xdpi="90"
   inkscape:export-ydpi="90">
  <defs
     id="defs4442" />
  <sodipodi:namedview
     id="base"
     pagecolor="#ffffff"
     bordercolor="#666666"
     borderopacity="1.0"
     inkscape:pageopacity="0.0"
     inkscape:pageshadow="2"
     inkscape:zoom="0.98994949"
     inkscape:cx="57.599686"
     inkscape:cy="242.55803"
     inkscape:document-units="px"
     inkscape:current-layer="layer1"
     showgrid="false"
     units="px"
     inkscape:window-width="1600"
     inkscape:window-height="851"
     inkscape:window-x="0"
     inkscape:window-y="25"
     inkscape:window-maximized="1" />
  <metadata
     id="metadata4445">
    <rdf:RDF>
      <cc:Work
         rdf:about="">
        <dc:format>image/svg+xml</dc:format>
        <dc:type
           rdf:resource="http://purl.org/dc/dcmitype/StillImage" />
        <dc:title />
      </cc:Work>
    </rdf:RDF>
  </metadata>
  <g
     inkscape:label="Layer 1"
     inkscape:groupmode="layer"
     id="layer1"
     transform="translate(0,-552.3622)">
    <g
       transform="matrix(9.6868164,0,0,10.043448,-8446.8331,-75.14709)"
       style="display:inline"
       id="g10785">
      <rect
         style="display:inline;opacity:1;fill:#ececec;stroke:#808080;stroke-width:0.1;stroke-miterlimit:4;stroke-dasharray:0.80000001, 0.80000001;stroke-dashoffset:0;stroke-opacity:1"
         id="rect6127"
         width="48"
         height="48"
         x="873.80096"
         y="371.63904"
         transform="translate(0,-308.26772)" />
      <g
         transform="matrix(0.45832729,0,0,0.45760751,514.62036,49.237425)"
         id="g10623">
        <path
           transform="translate(0,-308.26772)"
           sodipodi:nodetypes="ccccssccccscscscscccsccccccssssccccccccscssccccc"
           inkscape:connector-curvature="0"
           id="path10466"
           d="m 830.87507,352.86361 c -2.88654,0 -6.14211,0.12152 -9.76563,0.36718 -3.62351,0.18425 -7.02948,0.64735 -10.46875,1.13867 0.24568,5.77306 0.27454,12.21998 0.33594,19.58985 0.12283,7.36986 0.18359,15.07761 0.18359,23.12304 l 0,8.19922 c 0,2.64087 -0.0304,5.28101 -0.0918,7.92188 0,2.57945 -0.0304,5.22154 -0.0918,7.92383 0,2.64086 -0.0304,5.37215 -0.0918,8.19726 3.13219,0.3685 6.08006,0.61545 8.84375,0.73828 2.82512,0.18425 5.37411,0.27539 7.64649,0.27539 0.16876,0 0.33057,-0.005 0.49804,-0.006 0.0911,3e-4 0.19691,0.006 0.28711,0.006 11.4,0 19.80117,-2.06898 25.20117,-6.20898 5.4,-4.2 8.09961,-10.64961 8.09961,-19.34961 0,-0.0858 -0.007,-0.16478 -0.008,-0.25 10e-4,-0.11896 0.008,-0.23372 0.008,-0.35351 0,-6.32581 -1.38278,-11.20918 -4.14648,-14.64844 -2.35211,-2.97933 -5.87181,-5.08174 -10.53711,-6.32617 2.61338,-0.81135 4.78176,-2.25128 6.49219,-4.3418 2.22,-2.7 3.33007,-5.9407 3.33007,-9.7207 0,-0.67865 -0.0446,-1.33192 -0.12695,-1.96289 -0.29786,-9.53979 -8.82738,-14.3125 -25.59765,-14.3125 z m -0.0137,14.74609 c 3.18,0 5.57922,0.47945 7.19922,1.43945 0.8707,0.49754 1.5122,1.10886 1.93164,1.83203 0.0571,0.30723 0.0957,0.6232 0.0957,0.95899 0,2.02671 -0.98197,3.6545 -2.94727,4.88281 -1.96529,1.22831 -4.60739,1.8418 -7.92383,1.8418 l -1.75,0 c -0.35718,0 -0.8017,-0.0346 -1.28711,-0.0859 l 0,-10.33008 c 0.48,-0.18 1.11063,-0.29937 1.89063,-0.35937 0.84,-0.12 1.77101,-0.17969 2.79101,-0.17969 z m 1.34961,24.20898 c 3.66,0 6.50883,0.60078 8.54883,1.80078 1.00508,0.57433 1.76307,1.27594 2.28711,2.09766 0.29866,0.71632 0.44922,1.509 0.44922,2.37891 0,2.27237 -1.01235,4.02168 -3.03906,5.25 -1.9653,1.2283 -4.88278,1.84375 -8.75196,1.84375 -1.1669,0 -2.36544,-0.0627 -3.59375,-0.18555 -0.78484,-0.0785 -1.39754,-0.17379 -1.93164,-0.27734 l 0,-12.54883 c 1.38,-0.12 2.51993,-0.20953 3.41992,-0.26953 0.96001,-0.06 1.83133,-0.0898 2.61133,-0.0898 z"
           style="font-style:normal;font-variant:normal;font-weight:normal;font-stretch:normal;font-size:90px;line-height:125%;font-family:Ranchers;-inkscape-font-specification:Ranchers;letter-spacing:0px;word-spacing:0px;display:inline;opacity:1;fill:#241c1c;fill-opacity:1;stroke:#241c1c;stroke-width:1px;stroke-linecap:butt;stroke-linejoin:miter;stroke-opacity:1" />
        <g
           transform="translate(688.99852,-402.9325)"
           id="g10468"
           style="display:inline;stroke:none">
          <path
             sodipodi:nodetypes="ssssssss"
             inkscape:connector-curvature="0"
             id="path10470"
             d="m 150.79382,510.83798 c -0.58121,0.90216 -2.56724,1.28436 -4.24376,1.31186 -1.37916,0.0226 -2.9837,-0.34622 -4.68087,-0.8182 -2.15369,-0.59889 -3.91664,-1.61855 -5.28978,-2.34465 -0.6015,-0.31807 -1.15696,-0.84152 -1.52475,-1.33362 -0.40833,-0.54636 -0.60372,-1.0456 -0.47367,-1.49617 0.45177,-1.56521 1.778,-2.37995 8.92463,-0.49366 4.53605,1.19726 7.96874,4.1181 7.2882,5.17444 z"
             style="fill:#ff5555;fill-rule:evenodd;stroke:none;stroke-width:0.1;stroke-linecap:butt;stroke-linejoin:miter;stroke-miterlimit:4;stroke-dasharray:none;stroke-opacity:1" />
          <g
             id="g10472"
             style="stroke:none">
            <path
               sodipodi:nodetypes="ssssssss"
               inkscape:connector-curvature="0"
               id="path10474"
               d="m 150.37102,510.68328 c -0.55097,0.85521 -2.43364,1.21753 -4.02291,1.24359 -1.30739,0.0214 -2.82842,-0.3282 -4.43727,-0.77562 -2.04159,-0.56777 -3.71281,-1.53431 -5.01449,-2.22263 -0.5702,-0.30151 -1.09675,-0.79773 -1.4454,-1.26421 -0.38708,-0.51793 -0.5723,-0.99118 -0.44902,-1.41832 0.42826,-1.48375 1.68547,-2.25608 8.46018,-0.46795 4.29998,1.13494 7.55404,3.90378 6.90891,4.90514 z"
               style="fill:none;fill-rule:evenodd;stroke:none;stroke-width:0.1;stroke-linecap:butt;stroke-linejoin:miter;stroke-miterlimit:4;stroke-dasharray:none;stroke-opacity:1" />
            <path
               style="fill:none;fill-rule:evenodd;stroke:none;stroke-width:0.2;stroke-linecap:butt;stroke-linejoin:miter;stroke-miterlimit:4;stroke-dasharray:none;stroke-opacity:1"
               d="m 136.74195,506.71071 c -0.0375,0.3661 -0.0737,0.80251 0.13043,1.08165 0.12869,0.17602 0.38827,0.32597 0.58706,0.2334 0.23557,-0.10969 0.10649,-0.62517 0.33372,-0.75591 0.33818,-0.19463 0.89261,-0.12169 1.09443,0.20945 0.2595,0.42576 -0.48735,1.08662 -0.29507,1.55537 0.16086,0.39214 0.63718,0.71481 1.03417,0.61818 0.54184,-0.1319 0.50315,-1.44245 1.05192,-1.44341 0.31807,-6e-4 0.45307,0.50245 0.52899,0.83452 0.0878,0.38394 -0.31734,0.87853 -0.11612,1.20223 0.18007,0.28967 0.64511,0.44568 0.94167,0.27187 0.33615,-0.19701 0.0818,-0.92301 0.394,-1.16462 0.24198,-0.18731 0.65361,-0.20473 0.86766,-0.005 0.32684,0.3047 -0.10293,1.07199 0.18739,1.4177 0.27774,0.33072 0.84102,0.53721 1.21955,0.30942 0.39566,-0.23807 0.0757,-1.14396 0.47423,-1.37582 0.22977,-0.13369 0.55198,0.0206 0.72846,0.21031 0.22088,0.23746 0.0186,0.76808 0.25333,0.98931 0.25819,0.24331 0.71079,0.31548 1.03472,0.14959 0.52668,-0.26974 1.06806,-0.99374 0.96161,-1.59733 -0.0569,-0.32258 -0.46304,-0.62728 -0.75557,-0.51642 -0.13176,0.0499 -0.0309,0.36498 -0.16046,0.42241 -0.22652,0.10046 -0.5044,-0.12127 -0.63541,-0.33259 -0.20841,-0.33625 0.13006,-0.90796 -0.085,-1.23899 -0.30036,-0.46231 -0.93153,-0.87144 -1.44208,-0.67202 -0.40834,0.15951 -0.24607,1.05746 -0.64693,1.24075 -0.19277,0.0881 -0.45424,-0.0204 -0.58064,-0.18898 -0.29157,-0.38873 0.16164,-1.14701 -0.13556,-1.53057 -0.25756,-0.33238 -0.79116,-0.52557 -1.17264,-0.33855 -0.44208,0.21676 -0.24052,1.2101 -0.69235,1.39808 -0.19638,0.0817 -0.42668,-0.0876 -0.56361,-0.24796 -0.27772,-0.32528 -0.0546,-1.01422 -0.38063,-1.28174 -0.18304,-0.15016 -0.50629,-0.18489 -0.70281,-0.0325 -0.26998,0.20946 -0.0106,0.8391 -0.29525,1.02267 -0.15339,0.0989 -0.38712,0.0105 -0.50317,-0.12393 -0.27417,-0.31775 0.10717,-1.03185 -0.19802,-1.31423 -0.33772,-0.31249 -0.97734,-0.29539 -1.36368,-0.0102 -0.31232,0.23051 -0.11121,0.90472 -0.42387,1.13469 -0.0653,0.0481 -0.17795,0.0557 -0.23025,-0.003 -0.17253,-0.19221 0.23307,-0.71391 0.008,-0.82856 -0.1102,-0.0562 -0.22852,0.14117 -0.30406,0.25311 -0.087,0.12885 -0.13245,0.2915 -0.14837,0.44722 z"
               id="path10476"
               inkscape:connector-curvature="0"
               sodipodi:nodetypes="ssssssssssssssssssssssssssssssssssssssssss" />
          </g>
        </g>
        <g
           transform="matrix(0.77671325,-0.17009256,0.11455338,0.71714601,667.423,-242.78267)"
           id="g10478"
           style="display:inline;stroke:none">
          <path
             style="fill:#ff5555;fill-rule:evenodd;stroke:none;stroke-width:1px;stroke-linecap:butt;stroke-linejoin:miter;stroke-opacity:1"
             d="m 155.0625,479.50073 c -0.30817,1.02798 -2.11025,1.94607 -3.71336,2.43752 -1.31877,0.40428 -2.96265,0.49498 -4.72414,0.51228 -2.2353,0.022 -4.21191,-0.46864 -5.73257,-0.78537 -0.66613,-0.13874 -1.34499,-0.48758 -1.83484,-0.85835 -0.54386,-0.41166 -0.87006,-0.83711 -0.87009,-1.30608 -1.2e-4,-1.6291 1.04808,-2.77974 8.4375,-2.94979 4.69015,-0.10793 8.79833,1.74614 8.4375,2.94979 z"
             id="path10480"
             inkscape:connector-curvature="0"
             sodipodi:nodetypes="ssssssss" />
          <path
             sodipodi:nodetypes="ssssssss"
             inkscape:connector-curvature="0"
             id="path10482"
             d="m 154.61338,479.46938 c -0.29214,0.97448 -2.00043,1.8448 -3.52011,2.31067 -1.25014,0.38324 -2.80847,0.46922 -4.47829,0.48562 -2.11897,0.0208 -3.99271,-0.44425 -5.43424,-0.7445 -0.63146,-0.13152 -1.27499,-0.46221 -1.73935,-0.81368 -0.51555,-0.39024 -0.82478,-0.79354 -0.82481,-1.23811 -1.1e-4,-1.54432 0.99354,-2.63507 7.9984,-2.79627 4.44606,-0.10232 8.34046,1.65526 7.9984,2.79627 z"
             style="fill:none;fill-rule:evenodd;stroke:none;stroke-width:0.09479585;stroke-linecap:butt;stroke-linejoin:miter;stroke-miterlimit:4;stroke-dasharray:none;stroke-opacity:1" />
          <path
             style="fill:none;fill-rule:evenodd;stroke:none;stroke-width:0.18799999;stroke-linecap:butt;stroke-linejoin:miter;stroke-miterlimit:4;stroke-dasharray:none;stroke-opacity:1"
             d="m 140.4172,479.43312 c 0.0655,0.36214 0.15184,0.79145 0.42534,1.00303 0.17246,0.13341 0.46345,0.20548 0.62876,0.0614 0.1959,-0.17073 -0.0711,-0.63018 0.11095,-0.81882 0.27092,-0.28079 0.82383,-0.3645 1.10958,-0.10234 0.36742,0.33708 -0.16682,1.17917 0.14794,1.57619 0.26332,0.33213 0.81045,0.51002 1.16506,0.30706 0.48399,-0.27702 0.0833,-1.52541 0.61027,-1.67855 0.30542,-0.0888 0.57466,0.35706 0.73971,0.65504 0.19085,0.34452 -0.0612,0.93208 0.22191,1.18727 0.25335,0.22835 0.74342,0.24925 0.98013,0 0.26832,-0.28252 -0.17739,-0.90949 0.0555,-1.22821 0.18053,-0.24708 0.57118,-0.37799 0.83218,-0.24564 0.39853,0.20209 0.19846,1.05848 0.57328,1.31009 0.35857,0.24071 0.95703,0.28285 1.25752,-0.041 0.3141,-0.33847 -0.24458,-1.12006 0.074,-1.45337 0.18367,-0.19218 0.53602,-0.13334 0.75821,0 0.27808,0.16687 0.2309,0.73278 0.5178,0.88022 0.31555,0.16214 0.77041,0.10594 1.03561,-0.14329 0.43119,-0.40525 0.75051,-1.25101 0.48081,-1.80138 -0.14414,-0.29414 -0.61886,-0.47423 -0.86916,-0.28658 -0.11275,0.0845 0.0715,0.35924 -0.037,0.45034 -0.18977,0.15935 -0.51824,0.0234 -0.70273,-0.14329 -0.2935,-0.26524 -0.12689,-0.90841 -0.42534,-1.16679 -0.41681,-0.36086 -1.1367,-0.57886 -1.5719,-0.24565 -0.34807,0.26652 0.0569,1.08422 -0.27739,1.37151 -0.16076,0.13814 -0.44208,0.10637 -0.61027,-0.0205 -0.38796,-0.2926 -0.16286,-1.14684 -0.55479,-1.43291 -0.33965,-0.2479 -0.9059,-0.2855 -1.22053,0 -0.36461,0.33088 0.10457,1.22933 -0.27739,1.53526 -0.16601,0.13296 -0.43423,0.0342 -0.61027,-0.0819 -0.35705,-0.23548 -0.33381,-0.95927 -0.72122,-1.12586 -0.21751,-0.0935 -0.53771,-0.0372 -0.68424,0.16376 -0.20129,0.27613 0.22258,0.80911 0,1.06444 -0.11993,0.13758 -0.369,0.1175 -0.5178,0.0205 -0.35155,-0.22923 -0.18325,-1.02109 -0.55479,-1.20774 -0.41115,-0.20655 -1.02092,-0.0127 -1.313,0.36846 -0.23612,0.3081 0.14411,0.90007 -0.0925,1.20774 -0.0494,0.0643 -0.15551,0.10289 -0.22192,0.0614 -0.21908,-0.13681 0.0259,-0.75055 -0.22191,-0.79834 -0.12146,-0.0234 -0.1804,0.19902 -0.22192,0.32752 -0.0478,0.14791 -0.0464,0.3168 -0.0185,0.47083 z"
             id="path10484"
             inkscape:connector-curvature="0"
             sodipodi:nodetypes="ssssssssssssssssssssssssssssssssssssssssss" />
        </g>
        <path
           style="display:inline;fill:#8787de;stroke:none;stroke-width:0.2;stroke-miterlimit:4;stroke-dasharray:none;stroke-dashoffset:0;stroke-opacity:1"
           d="m 817.08193,96.649416 c 2.26806,-0.0143 3.74827,1.27481 4.53539,2.62293 -1.28305,1.433824 -3.66717,1.965324 -5.14829,1.857554 -0.56743,-1.158634 -0.20072,-3.438384 0.6129,-4.480484 z"
           id="path10486"
           inkscape:connector-curvature="0"
           sodipodi:nodetypes="cccc" />
        <path
           sodipodi:nodetypes="cccc"
           inkscape:connector-curvature="0"
           id="path10488"
           d="m 838.70977,51.753026 c 1.80427,1.37438 1.50098,2.54927 1.30046,4.09742 -1.89175,0.3512 -3.41639,0.0653 -4.52308,-0.92488 0.25867,-1.26392 1.94183,-2.84465 3.22262,-3.17254 z"
           style="display:inline;fill:#8787de;stroke:none;stroke-width:0.2;stroke-miterlimit:4;stroke-dasharray:none;stroke-dashoffset:0;stroke-opacity:1" />
        <circle
           style="display:inline;fill:#ff7f2a;stroke:none;stroke-width:0.2;stroke-miterlimit:4;stroke-dasharray:none;stroke-dashoffset:0;stroke-opacity:1"
           id="circle10490"
           cx="818.13391"
           cy="51.42498"
           r="2.8284271" />
        <circle
           r="2.1027815"
           cy="62.429344"
           cx="847.52307"
           id="circle10492"
           style="display:inline;fill:#ff7f2a;stroke:none;stroke-width:0.14868912;stroke-miterlimit:4;stroke-dasharray:none;stroke-dashoffset:0;stroke-opacity:1" />
        <circle
           style="display:inline;fill:#ff7f2a;stroke:none;stroke-width:0.11850625;stroke-miterlimit:4;stroke-dasharray:none;stroke-dashoffset:0;stroke-opacity:1"
           id="circle10494"
           cx="818.26648"
           cy="87.796806"
           r="1.6759312" />
        <circle
           r="2.3588917"
           cy="90.094933"
           cx="852.47278"
           id="circle10496"
           style="display:inline;fill:#ff7f2a;stroke:none;stroke-width:0.16679886;stroke-miterlimit:4;stroke-dasharray:none;stroke-dashoffset:0;stroke-opacity:1" />
        <circle
           style="display:inline;fill:#ff7f2a;stroke:none;stroke-width:0.20948389;stroke-miterlimit:4;stroke-dasharray:none;stroke-dashoffset:0;stroke-opacity:1"
           id="circle10498"
           cx="824.59778"
           cy="113.9699"
           r="2.9625492" />
        <circle
           r="1.5137713"
           cy="106.7199"
           cx="844.59778"
           id="circle10500"
           style="display:inline;fill:#ff7f2a;stroke:none;stroke-width:0.10703981;stroke-miterlimit:4;stroke-dasharray:none;stroke-dashoffset:0;stroke-opacity:1" />
        <g
           transform="translate(688.99852,-402.9325)"
           id="g10502"
           style="display:inline;fill:#916f6f;stroke:none">
          <circle
             r="4.8613591"
             cy="478.13394"
             cx="129.84248"
             id="circle10504"
             style="fill:#916f6f;stroke:none;stroke-width:0.30000001;stroke-linecap:round;stroke-linejoin:round;stroke-miterlimit:4;stroke-dasharray:none;stroke-opacity:1" />
          <ellipse
             ry="1.6130873"
             rx="1.6572815"
             cy="478.81897"
             cx="132.11848"
             id="ellipse10506"
             style="fill:#916f6f;stroke:none;stroke-width:0.30000001;stroke-linecap:round;stroke-linejoin:round;stroke-miterlimit:4;stroke-dasharray:none;stroke-opacity:1" />
        </g>
        <g
           id="g10508"
           transform="translate(729.87352,-366.6825)"
           style="display:inline;fill:#808080;stroke:none">
          <ellipse
             transform="matrix(0.874638,-0.48477662,0.48477662,0.874638,0,0)"
             ry="0.34375"
             rx="0.65625"
             cy="470.5614"
             cx="-117.78978"
             id="ellipse10510"
             style="fill:#808080;stroke:none;stroke-width:0.1;stroke-linecap:round;stroke-linejoin:round;stroke-miterlimit:4;stroke-dasharray:none;stroke-opacity:1" />
          <ellipse
             style="fill:#808080;stroke:none;stroke-width:0.0772841;stroke-linecap:round;stroke-linejoin:round;stroke-miterlimit:4;stroke-dasharray:none;stroke-opacity:1"
             id="ellipse10512"
             cx="-10.113874"
             cy="486.43735"
             rx="0.50717688"
             ry="0.26566407"
             transform="matrix(0.96073727,-0.27745973,0.27745973,0.96073727,0,0)" />
          <ellipse
             transform="matrix(0.93461505,-0.35566094,0.21409127,0.97681366,0,0)"
             ry="0.3406215"
             rx="0.51578605"
             cy="488.70169"
             cx="22.601"
             id="ellipse10514"
             style="fill:#808080;stroke:none;stroke-width:0.08825003;stroke-linecap:round;stroke-linejoin:round;stroke-miterlimit:4;stroke-dasharray:none;stroke-opacity:1" />
          <ellipse
             style="fill:#808080;stroke:none;stroke-width:0.08825003;stroke-linecap:round;stroke-linejoin:round;stroke-miterlimit:4;stroke-dasharray:none;stroke-opacity:1"
             id="ellipse10516"
             cx="309.4025"
             cy="424.00363"
             rx="0.51578605"
             ry="0.3406215"
             transform="matrix(0.96422767,0.26507546,-0.40423464,0.91465532,0,0)" />
          <ellipse
             transform="matrix(0.76718275,-0.64142858,0.64142858,0.76718275,0,0)"
             ry="0.26566407"
             rx="0.50717688"
             cy="442.09879"
             cx="-205.06822"
             id="ellipse10518"
             style="fill:#808080;stroke:none;stroke-width:0.0772841;stroke-linecap:round;stroke-linejoin:round;stroke-miterlimit:4;stroke-dasharray:none;stroke-opacity:1" />
          <ellipse
             inkscape:transform-center-y="-0.31251221"
             inkscape:transform-center-x="0.62499397"
             style="fill:#808080;stroke:none;stroke-width:0.08477594;stroke-linecap:round;stroke-linejoin:round;stroke-miterlimit:4;stroke-dasharray:none;stroke-opacity:1"
             id="ellipse10520"
             cx="-370.26978"
             cy="581.95868"
             rx="0.39428997"
             ry="0.41118899"
             transform="matrix(-0.98683044,0.16175812,-0.414419,0.9100862,0,0)" />
          <ellipse
             transform="matrix(0.96529991,0.26114379,-0.40968614,0.91222654,0,0)"
             ry="0.38303283"
             rx="0.58717644"
             cy="427.29742"
             cx="310.14813"
             id="ellipse10522"
             style="fill:#808080;stroke:none;stroke-width:0.0998496;stroke-linecap:round;stroke-linejoin:round;stroke-miterlimit:4;stroke-dasharray:none;stroke-opacity:1" />
          <ellipse
             style="fill:#808080;stroke:none;stroke-width:0.0772841;stroke-linecap:round;stroke-linejoin:round;stroke-miterlimit:4;stroke-dasharray:none;stroke-opacity:1"
             id="ellipse10524"
             cx="-205.94778"
             cy="439.20453"
             rx="0.50717688"
             ry="0.26566407"
             transform="matrix(0.76718275,-0.64142858,0.64142858,0.76718275,0,0)" />
          <ellipse
             transform="matrix(0.64045329,0.76799712,-0.85396981,0.52032256,0,0)"
             ry="0.3406215"
             rx="0.51578605"
             cy="205.05881"
             cx="471.08472"
             id="ellipse10526"
             style="fill:#808080;stroke:none;stroke-width:0.08825003;stroke-linecap:round;stroke-linejoin:round;stroke-miterlimit:4;stroke-dasharray:none;stroke-opacity:1" />
        </g>
        <g
           transform="translate(694.3414,-409.46246)"
           id="g10528"
           style="display:inline;fill:#808080;stroke:none">
          <ellipse
             style="fill:#808080;stroke:none;stroke-width:0.1;stroke-linecap:round;stroke-linejoin:round;stroke-miterlimit:4;stroke-dasharray:none;stroke-opacity:1"
             id="ellipse10530"
             cx="-117.78978"
             cy="470.5614"
             rx="0.65625"
             ry="0.34375"
             transform="matrix(0.874638,-0.48477662,0.48477662,0.874638,0,0)" />
          <ellipse
             transform="matrix(0.96073727,-0.27745973,0.27745973,0.96073727,0,0)"
             ry="0.26566407"
             rx="0.50717688"
             cy="486.43735"
             cx="-10.113874"
             id="ellipse10532"
             style="fill:#808080;stroke:none;stroke-width:0.0772841;stroke-linecap:round;stroke-linejoin:round;stroke-miterlimit:4;stroke-dasharray:none;stroke-opacity:1" />
          <ellipse
             style="fill:#808080;stroke:none;stroke-width:0.08825003;stroke-linecap:round;stroke-linejoin:round;stroke-miterlimit:4;stroke-dasharray:none;stroke-opacity:1"
             id="ellipse10534"
             cx="22.601"
             cy="488.70169"
             rx="0.51578605"
             ry="0.3406215"
             transform="matrix(0.93461505,-0.35566094,0.21409127,0.97681366,0,0)" />
          <ellipse
             transform="matrix(0.96422767,0.26507546,-0.40423464,0.91465532,0,0)"
             ry="0.3406215"
             rx="0.51578605"
             cy="424.00363"
             cx="309.4025"
             id="ellipse10536"
             style="fill:#808080;stroke:none;stroke-width:0.08825003;stroke-linecap:round;stroke-linejoin:round;stroke-miterlimit:4;stroke-dasharray:none;stroke-opacity:1" />
          <ellipse
             style="fill:#808080;stroke:none;stroke-width:0.0772841;stroke-linecap:round;stroke-linejoin:round;stroke-miterlimit:4;stroke-dasharray:none;stroke-opacity:1"
             id="ellipse10538"
             cx="-205.06822"
             cy="442.09879"
             rx="0.50717688"
             ry="0.26566407"
             transform="matrix(0.76718275,-0.64142858,0.64142858,0.76718275,0,0)" />
          <ellipse
             transform="matrix(-0.98683044,0.16175812,-0.414419,0.9100862,0,0)"
             ry="0.41118899"
             rx="0.39428997"
             cy="581.95868"
             cx="-370.26978"
             id="ellipse10540"
             style="fill:#808080;stroke:none;stroke-width:0.08477594;stroke-linecap:round;stroke-linejoin:round;stroke-miterlimit:4;stroke-dasharray:none;stroke-opacity:1"
             inkscape:transform-center-x="0.62499397"
             inkscape:transform-center-y="-0.31251221" />
          <ellipse
             style="fill:#808080;stroke:none;stroke-width:0.0998496;stroke-linecap:round;stroke-linejoin:round;stroke-miterlimit:4;stroke-dasharray:none;stroke-opacity:1"
             id="ellipse10542"
             cx="310.14813"
             cy="427.29742"
             rx="0.58717644"
             ry="0.38303283"
             transform="matrix(0.96529991,0.26114379,-0.40968614,0.91222654,0,0)" />
          <ellipse
             transform="matrix(0.76718275,-0.64142858,0.64142858,0.76718275,0,0)"
             ry="0.26566407"
             rx="0.50717688"
             cy="439.20453"
             cx="-205.94778"
             id="ellipse10544"
             style="fill:#808080;stroke:none;stroke-width:0.0772841;stroke-linecap:round;stroke-linejoin:round;stroke-miterlimit:4;stroke-dasharray:none;stroke-opacity:1" />
          <ellipse
             style="fill:#808080;stroke:none;stroke-width:0.08825003;stroke-linecap:round;stroke-linejoin:round;stroke-miterlimit:4;stroke-dasharray:none;stroke-opacity:1"
             id="ellipse10546"
             cx="471.08472"
             cy="205.05881"
             rx="0.51578605"
             ry="0.3406215"
             transform="matrix(0.64045329,0.76799712,-0.85396981,0.52032256,0,0)" />
        </g>
        <g
           id="g10548"
           transform="translate(707.2461,-352.54036)"
           style="display:inline;fill:#808080;stroke:none">
          <ellipse
             transform="matrix(0.874638,-0.48477662,0.48477662,0.874638,0,0)"
             ry="0.34375"
             rx="0.65625"
             cy="470.5614"
             cx="-117.78978"
             id="ellipse10550"
             style="fill:#808080;stroke:none;stroke-width:0.1;stroke-linecap:round;stroke-linejoin:round;stroke-miterlimit:4;stroke-dasharray:none;stroke-opacity:1" />
          <ellipse
             style="fill:#808080;stroke:none;stroke-width:0.0772841;stroke-linecap:round;stroke-linejoin:round;stroke-miterlimit:4;stroke-dasharray:none;stroke-opacity:1"
             id="ellipse10552"
             cx="-10.113874"
             cy="486.43735"
             rx="0.50717688"
             ry="0.26566407"
             transform="matrix(0.96073727,-0.27745973,0.27745973,0.96073727,0,0)" />
          <ellipse
             transform="matrix(0.93461505,-0.35566094,0.21409127,0.97681366,0,0)"
             ry="0.3406215"
             rx="0.51578605"
             cy="488.70169"
             cx="22.601"
             id="ellipse10554"
             style="fill:#808080;stroke:none;stroke-width:0.08825003;stroke-linecap:round;stroke-linejoin:round;stroke-miterlimit:4;stroke-dasharray:none;stroke-opacity:1" />
          <ellipse
             style="fill:#808080;stroke:none;stroke-width:0.08825003;stroke-linecap:round;stroke-linejoin:round;stroke-miterlimit:4;stroke-dasharray:none;stroke-opacity:1"
             id="ellipse10556"
             cx="309.4025"
             cy="424.00363"
             rx="0.51578605"
             ry="0.3406215"
             transform="matrix(0.96422767,0.26507546,-0.40423464,0.91465532,0,0)" />
          <ellipse
             transform="matrix(0.76718275,-0.64142858,0.64142858,0.76718275,0,0)"
             ry="0.26566407"
             rx="0.50717688"
             cy="442.09879"
             cx="-205.06822"
             id="ellipse10558"
             style="fill:#808080;stroke:none;stroke-width:0.0772841;stroke-linecap:round;stroke-linejoin:round;stroke-miterlimit:4;stroke-dasharray:none;stroke-opacity:1" />
          <ellipse
             inkscape:transform-center-y="-0.31251221"
             inkscape:transform-center-x="0.62499397"
             style="fill:#808080;stroke:none;stroke-width:0.08477594;stroke-linecap:round;stroke-linejoin:round;stroke-miterlimit:4;stroke-dasharray:none;stroke-opacity:1"
             id="ellipse10560"
             cx="-370.26978"
             cy="581.95868"
             rx="0.39428997"
             ry="0.41118899"
             transform="matrix(-0.98683044,0.16175812,-0.414419,0.9100862,0,0)" />
          <ellipse
             transform="matrix(0.96529991,0.26114379,-0.40968614,0.91222654,0,0)"
             ry="0.38303283"
             rx="0.58717644"
             cy="427.29742"
             cx="310.14813"
             id="ellipse10562"
             style="fill:#808080;stroke:none;stroke-width:0.0998496;stroke-linecap:round;stroke-linejoin:round;stroke-miterlimit:4;stroke-dasharray:none;stroke-opacity:1" />
          <ellipse
             style="fill:#808080;stroke:none;stroke-width:0.0772841;stroke-linecap:round;stroke-linejoin:round;stroke-miterlimit:4;stroke-dasharray:none;stroke-opacity:1"
             id="ellipse10564"
             cx="-205.94778"
             cy="439.20453"
             rx="0.50717688"
             ry="0.26566407"
             transform="matrix(0.76718275,-0.64142858,0.64142858,0.76718275,0,0)" />
          <ellipse
             transform="matrix(0.64045329,0.76799712,-0.85396981,0.52032256,0,0)"
             ry="0.3406215"
             rx="0.51578605"
             cy="205.05881"
             cx="471.08472"
             id="ellipse10566"
             style="fill:#808080;stroke:none;stroke-width:0.08825003;stroke-linecap:round;stroke-linejoin:round;stroke-miterlimit:4;stroke-dasharray:none;stroke-opacity:1" />
        </g>
        <path
           style="fill:#ff7f2a;stroke:#ff7f2a;stroke-width:0.30000001;stroke-linecap:round;stroke-linejoin:round;stroke-miterlimit:4;stroke-dasharray:none;stroke-opacity:1"
           id="path10568"
           d="m 840.36797,101.14595 c 0.16626,-0.22308 0.87124,-1.158224 0.96435,-1.335624 0.16127,-0.30726 0.2139,-0.66361 0.37358,-0.9717 0.17406,-0.33582 0.42977,-0.6233 0.62197,-0.94907 0.93516,-1.58503 0.0166,-0.33372 1.0166,-1.60408 0.2432,-0.47204 0.23683,-0.39058 0.35761,-0.83719 0.0253,-0.0935 0.0252,-0.19453 0.0631,-0.28366 0.0281,-0.066 0.0703,-0.21039 0.13046,-0.17127 0.83702,0.54421 0.62884,0.55809 0.3775,1.24983 -0.29272,2.22245 0.14597,-0.56678 -0.44748,1.67707 -0.0699,0.26435 -0.0493,0.54547 -0.0996,0.81424 -0.2341,1.25077 -0.12904,0.20027 -0.36254,1.352034 -0.0324,0.15961 -0.0344,0.32389 -0.0517,0.48583 -0.26215,0.85474 -0.0568,0.0409 -0.15127,0.93548 -0.01,0.091 -0.0409,0.17837 -0.0666,0.26616 -0.0297,0.10159 -0.0278,0.2235 -0.0992,0.30161 -0.1156,0.12645 -0.28927,0.37433 -0.43165,0.27903 -0.20616,-0.13799 -0.14379,-0.47487 -0.21568,-0.71231 0.1776,-0.83891 -0.0677,0.068 0.5017,-1.00937 0.73815,-1.396704 -0.20935,-0.0205 0.62592,-1.382774 0.1238,-0.20192 0.28101,-0.38137 0.41899,-0.57389 0.1339,-0.18683 0.26441,-0.37608 0.39662,-0.56412 0.0903,-0.14508 0.19898,-0.28025 0.27099,-0.43524 0.0875,-0.18838 0.417,-1.86378 1.06603,-1.27737 0.16509,0.14916 0.0215,0.44445 0.0323,0.66668 0.0499,0.46177 -0.28521,0.83739 -0.33361,1.27355 -0.0307,0.27687 0.0543,0.55473 0.0673,0.83299 0.0125,0.26689 0.0185,0.53447 0.009,0.8015 -0.008,0.248864 -0.0761,0.495854 -0.0619,0.744444 0.0135,0.23478 0.0961,0.46041 0.14416,0.69061 -0.065,0.43198 0.0237,0.84863 0.075,1.27357 0.006,0.0469 0.0178,0.0938 0.0151,0.14092 -0.004,0.0661 -0.0496,0.0393 -0.012,0.0567 -0.20353,-0.10965 -0.42322,-0.19353 -0.61058,-0.32897 -0.0255,-0.0185 0.0543,-0.0343 0.0737,-0.0591 0.0298,-0.0382 0.0415,-0.0883 0.0711,-0.12657 0.0815,-0.10517 0.17525,-0.20023 0.26092,-0.30201 0.35832,-0.42571 0.22846,-0.26065 0.55009,-0.78551 0.49466,-1.03665 0.0407,-0.17063 0.70889,-1.19929 0.13859,-0.213354 0.2612,-0.436674 0.39262,-0.654524 0.12411,-0.20575 0.26878,-0.40022 0.37396,-0.61626 0.0864,-0.17754 0.12284,-0.37572 0.1979,-0.55836 0.063,-0.15323 0.14373,-0.29853 0.2156,-0.4478 0.0133,-0.1541 0.009,-0.3107 0.0399,-0.46231 0.0559,-0.27636 0.42796,-1.26342 0.97827,-0.48976 0.15169,0.21325 -0.0849,0.51647 -0.12525,0.77505 -0.0497,0.31884 -0.0967,0.63811 -0.14497,0.95717 0.01,0.38817 0.0191,0.77634 0.0287,1.16451 -0.031,0.389674 -0.0923,0.778114 -0.093,1.169014 -5.8e-4,0.35947 0.0856,0.71526 0.0894,1.07472 0.004,0.35535 -0.0756,0.70877 -0.0666,1.06402 0.0997,3.93255 0.17777,-1.87652 0.0988,1.89086 0.0113,0.12422 0.0285,0.68106 0.12011,0.90469 0.0109,0.0267 0.0927,0.0575 0.0639,0.0582 -0.28186,0.007 -0.57031,0.0254 -0.84497,-0.0383 -0.05,-0.0116 0.005,-0.10405 0.0226,-0.15241 0.0484,-0.1353 0.11537,-0.26321 0.17305,-0.39482 0.29337,-0.9228 -0.0464,-0.0157 0.46157,-0.91113 0.37742,-0.66531 0.13909,-0.54293 0.65834,-1.14333 1.61037,-1.86201 -0.55761,0.92606 0.95469,-1.06416 0.67799,-1.31383 0.0823,-0.0547 0.57231,-1.41383 0.28819,-0.799284 0.3014,-0.56215 0.48768,-1.298954 0.15588,-0.61655 -0.0713,-0.25191 0.28722,-0.68738 0.12315,-0.20473 0.1466,-0.28535 0.32112,-0.43577 0.0267,-0.023 -0.0366,0.061 -0.0614,0.086 -0.006,0.006 0.007,-0.0209 -1.8e-4,-0.0238 -0.0205,-0.008 -0.0442,-0.002 -0.0662,-0.003 0.0249,-0.54995 0.8027,-0.51467 0.77775,0.0353 l 0,0 c 0.007,0.0721 0.0429,0.28619 -0.009,0.35916 -0.23011,0.32267 -0.2629,0.0419 -0.38011,0.33978 -0.0358,0.0773 -0.0638,0.15881 -0.10747,0.23204 -0.15618,0.2621 -0.41567,0.5227 -0.53056,0.800564 -0.10181,0.24621 -0.11909,0.52036 -0.20506,0.77253 -0.0724,0.21237 -0.56831,1.33713 -0.65689,1.54012 -0.43941,0.66701 -0.35147,0.58622 -0.8449,1.14953 -0.1363,0.15561 -0.30318,0.28594 -0.4208,0.4561 -0.11318,0.16373 -0.17003,0.36014 -0.26452,0.53532 -0.3654,0.67749 -0.20175,0.19595 -0.37021,0.85102 -0.007,0.073 -0.0271,0.14606 -0.0196,0.21895 0.005,0.0478 0.10273,0.12218 0.0559,0.133 -0.24497,0.0566 -0.50232,0.0305 -0.75372,0.0282 -0.0172,-1.6e-4 -0.0422,-0.019 -0.0374,-0.0355 0.0249,-0.0853 0.0942,-0.15349 0.11763,-0.2392 0.059,-0.21562 0.0852,-0.43888 0.12776,-0.65831 -0.0325,-0.44193 -0.11529,-1.45433 -0.11269,-1.88913 0.002,-0.35585 0.0524,-0.71022 0.0571,-1.06605 0.005,-0.35969 -0.0407,-0.71926 -0.0289,-1.07879 0.0129,-0.3924 0.10686,-0.78076 0.10273,-1.173364 -0.004,-0.39261 -0.0849,-0.78066 -0.12738,-1.17099 -0.007,-0.3176 -0.008,-0.63539 -0.0209,-0.95281 -0.005,-0.11822 -0.12626,-0.28248 -0.0316,-0.35353 0.16066,-0.12065 0.39753,-0.0756 0.59841,-0.0721 0.0392,6.8e-4 -0.0643,0.048 -0.0853,0.0811 -0.15792,0.24851 -0.16083,0.40919 -0.237,0.7188 -0.0942,0.20253 -0.41799,0.91214 -0.52593,1.0877 -0.12413,0.20189 -0.295,0.37252 -0.41823,0.57496 -0.13263,0.21792 -0.22831,0.456324 -0.34695,0.682174 -0.37274,0.70957 -0.28773,0.54778 -0.70043,1.18813 -0.0845,0.1702 -0.15752,0.34656 -0.2534,0.5106 -0.38178,0.65316 -0.15981,0.0686 -0.36208,0.66801 -0.0371,0.10987 -0.0632,0.22381 -0.10869,0.33046 -0.0241,0.0564 -0.038,0.16497 -0.0986,0.15523 -0.2538,-0.0409 -0.47738,-0.19091 -0.71607,-0.28637 -0.003,-0.0168 -10e-4,-0.0358 -0.0102,-0.0505 -0.0135,-0.0223 -0.0554,-0.0302 -0.0542,-0.0562 0.002,-0.048 0.0486,-0.0839 0.0626,-0.12996 0.0245,-0.0809 0.0435,-0.16418 0.052,-0.24832 0.0216,-0.21169 0.0155,-0.82596 0.0157,-0.98907 0.0532,-1.36846 0.0144,-5.8e-4 0.009,-1.444514 -10e-4,-0.35405 0.0232,-1.3385 0.0341,-1.68381 0.008,-0.26412 0.01,-0.5287 0.03,-0.79219 0.0141,-0.18489 0.0485,-0.36769 0.0727,-0.55153 0.3412,0.2093 -0.12787,-0.0222 0.50396,-0.14678 0.0636,-0.0125 -0.0615,0.11442 -0.0845,0.17496 -0.19726,0.51882 -0.33131,1.06011 -0.69708,1.49878 -0.14279,0.15695 -0.30348,0.29932 -0.42838,0.47086 -0.13112,0.18007 -0.22411,0.38504 -0.33536,0.57802 -0.19688,0.34152 -0.55716,0.948974 -0.70658,1.311594 -0.0308,0.0747 -0.25636,0.87799 -0.2925,1.00553 -0.66724,-0.4648 -0.0607,-0.21143 -0.66457,-0.007 -0.0529,0.0179 0.038,-0.10506 0.0581,-0.15718 0.0386,-0.10028 0.0915,-0.19587 0.1179,-0.30002 0.0804,-0.31695 0.0813,-0.65063 0.17231,-0.96573 0.049,-0.17246 0.087,-0.34846 0.14712,-0.517384 0.18033,-0.50681 0.35976,-0.71573 0.4777,-1.26894 0.058,-0.27192 0.0305,-0.5572 0.086,-0.82963 0.10962,-0.5381 0.37915,-1.03568 0.44754,-1.5855 -0.14467,-1.11694 -0.26171,-0.37551 0.558,-0.61713 0.0691,-0.0204 0.0824,-0.25477 0.0224,-0.21501 -0.0922,0.061 -0.10785,0.19394 -0.14686,0.29739 -0.3011,0.79845 0.12147,0.0688 -0.49355,0.95922 -0.20426,0.1809 -0.43526,0.3355 -0.61277,0.54271 -0.22138,0.25842 -0.39664,0.55372 -0.57483,0.84362 -0.67064,1.09099 -1.1319,2.280604 -1.61995,3.458804 -0.23994,0.41988 -0.83374,0.0806 -0.59381,-0.33932 z"
           inkscape:connector-curvature="0" />
        <path
           style="fill:#ff7f2a;stroke:#ff7f2a;stroke-width:0.30000001;stroke-linecap:round;stroke-linejoin:round;stroke-miterlimit:4;stroke-dasharray:none;stroke-opacity:1"
           id="path10570"
           d="m 815.64393,66.412306 c 0.23913,0.37817 0.50944,0.73494 0.8213,1.05641 0.0873,0.09 0.18156,0.1729 0.27054,0.26119 0.0759,0.0753 0.14936,0.15307 0.22404,0.2296 0.41983,0.45664 -0.002,0.0313 0.33085,0.30068 0.0201,0.0163 0.0695,0.0443 0.049,0.06 -0.30208,0.23216 -0.30688,-0.0336 -0.33891,-0.23985 0.025,-0.37006 0.0666,-0.74599 0.004,-1.11546 -0.024,-0.14231 -0.0731,-0.27926 -0.11136,-0.41842 -0.17147,-0.62338 -0.0655,-0.18449 -0.19696,-0.76686 -0.0255,-0.10777 -0.0554,-0.21458 -0.0765,-0.3233 -0.0156,-0.0809 -0.0304,-0.16256 -0.0335,-0.24489 -0.003,-0.0666 0.0127,-0.13264 0.0167,-0.19912 0.003,-0.0476 0.003,-0.0953 0.004,-0.143 0.002,-0.0876 0.007,-0.0568 -0.008,-0.11237 0.0168,0.0417 0.006,0.1181 0.0504,0.12501 0.0752,0.0117 0.14403,-0.11807 0.21211,-0.0841 0.0751,0.0374 0.0474,0.16298 0.0905,0.23497 0.0698,0.11646 0.16553,0.2153 0.2452,0.32523 0.76712,1.05849 -0.20291,-0.24273 0.62538,0.85996 0.82747,0.69342 0.0121,0.0228 0.80113,0.63756 0.0972,0.0757 0.18864,0.15876 0.2862,0.23406 0.0456,0.0351 0.0911,0.0718 0.14279,0.097 0.0178,0.009 0.0706,-0.0148 0.0595,0.002 -0.0458,0.0678 -0.11737,0.11401 -0.17606,0.17101 -0.0312,-0.0274 -0.0699,-0.0481 -0.0935,-0.0821 -0.11938,-0.17161 -0.0663,-0.42304 -0.11822,-0.61024 -0.0331,-0.11936 -0.0986,-0.2273 -0.14348,-0.34276 -0.0479,-0.12326 -0.0897,-0.24879 -0.13447,-0.37319 -0.20086,-0.42941 -0.10881,-0.20848 -0.26532,-0.63336 -0.0345,-0.0936 -0.074,-0.18552 -0.10373,-0.28073 -0.0265,-0.0846 -0.0437,-0.17182 -0.0647,-0.25795 -0.0646,-0.26481 -0.0459,-0.1638 -0.0743,-0.39961 -4.5e-4,-0.0541 -0.0183,-0.14633 0.0509,-0.18074 0.14978,-0.0745 0.25568,0.0541 0.35432,0.14681 0.11614,0.10916 0.22313,0.22781 0.32924,0.34674 0.14679,0.16451 0.28613,0.33551 0.4292,0.50327 0.43068,0.48282 0.90593,0.92173 1.3724,1.36884 0.24233,0.23227 0.28727,0.32114 0.57142,0.46687 0.0532,0.0273 0.11423,0.0353 0.17134,0.0529 0.019,-0.004 0.0725,-0.0237 0.0568,-0.0123 -0.0462,0.034 -0.0945,0.0747 -0.15139,0.0817 -0.0225,0.003 -0.0251,-0.038 -0.0345,-0.0586 -0.1648,-0.36154 0.0226,0.056 -0.0675,-0.26453 -0.01,-0.0356 -0.0343,-0.0656 -0.0515,-0.0984 -0.0208,-0.037 -0.0803,-0.12842 -0.0855,-0.18149 -0.004,-0.0393 0.0133,-0.0793 0.007,-0.11833 -0.009,-0.0568 -0.0375,-0.10888 -0.0515,-0.16466 -0.21671,-0.86583 0.12945,0.40884 -0.12077,-0.49717 -0.19757,-0.78149 0.0581,0.27045 -0.0959,-0.49661 -0.0157,-0.0781 -0.0374,-0.15517 -0.0631,-0.23059 -0.0224,-0.0658 -0.0639,-0.12476 -0.0811,-0.19209 -0.0162,-0.0633 -0.0101,-0.13029 -0.0178,-0.19515 -0.006,-0.0515 -0.0161,-0.1025 -0.0241,-0.15375 -0.0161,-0.0439 -0.0413,-0.0854 -0.0484,-0.13156 -0.006,-0.0425 0.006,-0.0858 0.009,-0.12877 0.005,-0.0804 0.004,-0.064 0.003,-0.13299 0.0626,-0.18684 0.32687,-0.0983 0.26423,0.0886 l 0,0 c -0.007,-0.003 -0.0174,-0.0162 -0.0196,-0.009 -0.005,0.0157 0.008,0.0325 0.007,0.0489 -0.0147,0.19813 -0.0371,-0.003 0.005,0.22195 0.005,0.0553 0.0112,0.11045 0.0141,0.16586 0.003,0.058 -0.009,0.11755 0.004,0.17409 0.0162,0.0696 0.0588,0.13045 0.0826,0.19784 0.0261,0.0738 0.0508,0.14855 0.0667,0.22521 0.0344,0.16571 0.0281,0.3384 0.0772,0.50187 0.0133,0.0866 0.014,0.17612 0.0398,0.25987 0.0235,0.0763 0.0778,0.13996 0.10634,0.21446 0.0235,0.0612 0.0224,0.1305 0.0489,0.19046 0.0151,0.0343 0.0568,0.0517 0.073,0.0854 0.018,0.0374 -0.002,0.14675 -0.006,0.17792 0.0609,0.10357 0.0743,0.11117 0.10726,0.22417 0.0119,0.0407 0.0135,0.0842 0.0277,0.12414 0.0543,0.15313 0.16996,0.19147 -0.0812,0.33767 -0.0338,0.0197 -0.0687,-0.0375 -0.10307,-0.0563 -0.0539,-0.0466 -0.10737,-0.0937 -0.16167,-0.13984 -0.0826,-0.0702 -0.17043,-0.13454 -0.24912,-0.20912 -0.4777,-0.45282 -0.13109,-0.17472 -0.63819,-0.74545 -0.30579,-0.34416 -0.66714,-0.63628 -0.9618,-0.99121 -0.16776,-0.14154 -0.33049,-0.28927 -0.50328,-0.42464 -0.12068,-0.0946 -0.253,-0.17336 -0.3763,-0.26449 -0.0334,-0.0247 -0.0818,-0.0426 -0.0933,-0.0825 -0.006,-0.0215 0.0486,-0.007 0.0625,-0.0245 0.0115,-0.0145 0.0163,-0.0452 9.1e-4,-0.0555 -0.013,-0.009 -0.0205,0.0237 -0.0308,0.0356 0.005,0.0476 0.0148,0.0949 0.0152,0.14283 7.2e-4,0.0734 -0.0201,0.14693 -0.0117,0.21982 0.01,0.0836 0.0398,0.16357 0.0651,0.24376 0.0976,0.30846 0.23474,0.60361 0.3342,0.91147 0.10262,0.24133 0.19927,0.48521 0.30431,0.72551 0.1989,0.45504 0.0828,0.11448 0.17409,0.45152 0.018,0.0664 0.0267,0.0312 0.003,0.0797 -0.0338,0.0651 -0.0633,0.13268 -0.10149,0.19537 -0.004,0.007 0.004,-0.0191 -0.002,-0.0255 -0.038,-0.0436 -0.0808,-0.0829 -0.12498,-0.1202 -0.095,-0.0803 -0.19847,-0.15028 -0.29201,-0.23224 -0.33991,-0.29782 -0.41058,-0.395 -0.72241,-0.73606 -0.85719,-0.9535 0.0957,0.11405 -0.70635,-0.80706 -0.0918,-0.10543 -0.18712,-0.20777 -0.27996,-0.3123 -0.0492,-0.0554 -0.14496,-0.0934 -0.1462,-0.16751 -0.002,-0.1002 0.0501,-0.22018 0.13893,-0.2666 0.0513,-0.0268 0.0388,0.10907 0.0581,0.1636 -0.0968,-0.003 -0.0189,-0.016 -0.0284,0.0662 -0.005,0.0396 -0.0323,0.0733 -0.0414,0.11206 -0.0559,0.23883 -0.0244,0.48514 0.023,0.72186 0.0958,0.31954 0.13517,0.43601 0.21575,0.77142 0.0345,0.14357 0.0706,0.28704 0.0946,0.43272 0.17305,1.0499 -0.0367,-0.11564 0.0321,0.82999 0.007,0.0895 0.0433,0.17413 0.0649,0.2612 -10e-4,0.0472 -0.0157,0.0957 -0.005,0.14158 0.006,0.0243 0.0638,0.0319 0.052,0.0539 -0.0419,0.0783 -0.12628,0.12522 -0.18396,0.19276 -0.006,0.007 0.0288,0.001 0.0253,-0.007 -0.0219,-0.0504 -0.0543,-0.0962 -0.0888,-0.13907 -0.0583,-0.0725 -0.12582,-0.13707 -0.18873,-0.20561 -0.066,-0.0868 -0.12688,-0.17772 -0.19794,-0.26041 -0.0995,-0.1158 -0.43007,-0.44219 -0.53426,-0.54536 -0.0875,-0.0867 -0.18499,-0.16423 -0.26355,-0.25913 -0.0683,-0.0825 -0.10827,-0.18555 -0.1743,-0.26985 -0.058,-0.074 -0.13066,-0.1353 -0.19599,-0.20294 -0.0906,-0.12075 0.0802,-0.24881 0.17076,-0.12807 z"
           inkscape:connector-curvature="0" />
      </g>
    </g>
  </g>
</svg>
