<?xml version="1.0" encoding="UTF-8" standalone="no"?>
<!-- Created with Inkscape (http://www.inkscape.org/) -->

<svg
   xmlns:dc="http://purl.org/dc/elements/1.1/"
   xmlns:cc="http://creativecommons.org/ns#"
   xmlns:rdf="http://www.w3.org/1999/02/22-rdf-syntax-ns#"
   xmlns:svg="http://www.w3.org/2000/svg"
   xmlns="http://www.w3.org/2000/svg"
   xmlns:sodipodi="http://sodipodi.sourceforge.net/DTD/sodipodi-0.dtd"
   xmlns:inkscape="http://www.inkscape.org/namespaces/inkscape"
   width="1052.3622"
   height="400"
   viewBox="0 0 1052.3622 400"
   id="svg4239"
   version="1.1"
   inkscape:version="0.91 r13725"
   sodipodi:docname="logo.svg"
   inkscape:export-filename="/home/kinow/Pictures/logos/biojava/v5/logo.png"
   inkscape:export-xdpi="90"
   inkscape:export-ydpi="90">
  <defs
     id="defs4241" />
  <sodipodi:namedview
     id="base"
     pagecolor="#ffffff"
     bordercolor="#666666"
     borderopacity="1.0"
     inkscape:pageopacity="0.0"
     inkscape:pageshadow="2"
     inkscape:zoom="0.49497475"
     inkscape:cx="-79.131415"
     inkscape:cy="702.62783"
     inkscape:document-units="px"
     inkscape:current-layer="layer1"
     showgrid="false"
     units="px"
     inkscape:window-width="1600"
     inkscape:window-height="851"
     inkscape:window-x="0"
     inkscape:window-y="25"
     inkscape:window-maximized="1" />
  <metadata
     id="metadata4244">
    <rdf:RDF>
      <cc:Work
         rdf:about="">
        <dc:format>image/svg+xml</dc:format>
        <dc:type
           rdf:resource="http://purl.org/dc/dcmitype/StillImage" />
        <dc:title></dc:title>
      </cc:Work>
    </rdf:RDF>
  </metadata>
  <g
     inkscape:label="Layer 1"
     inkscape:groupmode="layer"
     id="layer1"
     transform="translate(0,-652.3622)">
    <g
       id="g7756"
       transform="translate(136.56559,409.91807)">
      <path
         sodipodi:nodetypes="cccccscscscscscccsccss"
         inkscape:connector-curvature="0"
         id="path6073"
         style="font-style:normal;font-variant:normal;font-weight:normal;font-stretch:normal;font-size:90px;line-height:125%;font-family:Ranchers;-inkscape-font-specification:Ranchers;letter-spacing:0px;word-spacing:0px;display:inline;opacity:1;fill:#241c1c;fill-opacity:1;stroke:#241c1c;stroke-width:2.92064738px;stroke-linecap:butt;stroke-linejoin:miter;stroke-opacity:1"
         d="m 109.98078,404.33533 43.21213,0 0,136.79743 -43.21213,0 z m 22.63492,-58.29169 c 4.70336,0 8.91679,0.78349 12.64029,2.35048 3.91946,1.41028 7.15302,3.29065 9.70068,5.64113 2.54765,2.35047 4.50739,5.01434 5.8792,7.9916 1.37181,2.82056 2.05772,5.56278 2.05772,8.22665 0,3.60405 -0.88188,6.97306 -2.64564,10.10703 -1.56779,2.97726 -3.82148,5.64113 -6.76108,7.9916 -2.74363,2.19377 -5.97719,3.9958 -9.70068,5.40608 -3.52752,1.25359 -7.34901,1.88038 -11.46445,1.88038 -5.0953,0 -9.60269,-0.62679 -13.52216,-1.88038 -3.91947,-1.41028 -7.25101,-3.13396 -9.99464,-5.17104 -2.54766,-2.19377 -4.50739,-4.70094 -5.8792,-7.5215 -1.17584,-2.82057 -1.76376,-5.71948 -1.76376,-8.69675 0,-2.97726 0.6859,-6.03287 2.05772,-9.16684 1.56778,-3.13396 3.6255,-5.95452 6.17316,-8.46169 2.74363,-2.66387 6.07517,-4.77929 9.99464,-6.34627 3.91947,-1.56699 8.32887,-2.35048 13.2282,-2.35048 z" />
      <path
         inkscape:connector-curvature="0"
         id="path6075"
         style="font-style:normal;font-variant:normal;font-weight:normal;font-stretch:normal;font-size:90px;line-height:125%;font-family:Ranchers;-inkscape-font-specification:Ranchers;letter-spacing:0px;word-spacing:0px;display:inline;opacity:1;fill:#241c1c;fill-opacity:1;stroke:#241c1c;stroke-width:2.92064738px;stroke-linecap:butt;stroke-linejoin:miter;stroke-opacity:1"
         d="m 231.4506,397.98906 q 35.86311,0 51.14904,18.80377 15.57988,18.80377 15.57988,54.06084 0,35.49212 -15.57988,54.29589 -15.28593,18.56872 -51.14904,18.56872 -36.15709,0 -51.73697,-18.56872 -15.28593,-18.80377 -15.28593,-54.29589 0,-35.25707 15.28593,-54.06084 15.57988,-18.80377 51.73697,-18.80377 z m 0,90.49315 q 5.8792,0 10.2886,-1.88038 4.70336,-1.88038 7.64296,-4.93599 2.9396,-3.05561 4.4094,-6.81637 1.4698,-3.9958 1.4698,-8.22665 0,-4.23085 -1.4698,-8.22665 -1.4698,-3.9958 -4.4094,-7.05141 -2.9396,-3.05561 -7.64296,-4.93599 -4.4094,-1.88038 -10.2886,-1.88038 -12.05237,0 -18.22553,6.81637 -5.8792,6.81637 -5.8792,15.27806 0,4.23085 1.4698,8.22665 1.4698,3.76076 4.4094,6.81637 3.23356,3.05561 7.64296,4.93599 4.4094,1.88038 10.58257,1.88038 z" />
      <path
         inkscape:connector-curvature="0"
         id="path6077"
         style="font-style:normal;font-variant:normal;font-weight:normal;font-stretch:normal;font-size:90px;line-height:125%;font-family:Ranchers;-inkscape-font-specification:Ranchers;letter-spacing:0px;word-spacing:0px;display:inline;opacity:1;fill:#241c1c;fill-opacity:1;stroke:#241c1c;stroke-width:2.92064738px;stroke-linecap:butt;stroke-linejoin:miter;stroke-opacity:1"
         d="m 405.03857,440.53259 q 0,16.68835 -0.29396,27.73556 0,11.04722 -0.29396,18.09863 -0.29396,7.05142 -0.88188,11.04722 -0.58792,3.9958 -1.17584,7.05141 -3.82148,17.62854 -19.1074,28.4407 -14.99196,10.81217 -42.62421,10.81217 -7.05504,0 -17.34364,-0.94019 -9.99465,-0.70514 -19.69533,-2.82056 -0.58792,-7.9916 -0.88188,-16.21825 -0.29396,-8.4617 -0.29396,-16.68835 0,-8.4617 0.29396,-16.92339 0.29396,-8.4617 0.88188,-16.9234 7.349,2.58552 13.22821,3.76076 5.8792,1.17523 12.34632,1.17523 9.11276,0 14.698,-2.35047 5.8792,-2.58552 9.11276,-7.75655 3.52752,-5.17104 4.70336,-13.39769 1.17584,-8.22665 1.17584,-19.50891 l 0,-46.06924 -40.86044,0 0,-40.19306 87.01217,0 0,91.66838 z" />
      <path
         inkscape:connector-curvature="0"
         id="path6079"
         style="font-style:normal;font-variant:normal;font-weight:normal;font-stretch:normal;font-size:90px;line-height:125%;font-family:Ranchers;-inkscape-font-specification:Ranchers;letter-spacing:0px;word-spacing:0px;display:inline;opacity:1;fill:#241c1c;fill-opacity:1;stroke:#241c1c;stroke-width:2.92064738px;stroke-linecap:butt;stroke-linejoin:miter;stroke-opacity:1"
         d="m 562.57363,541.13276 -40.27253,0 0,-11.51731 q -10.58256,6.81637 -22.34096,10.57712 -11.7584,3.52571 -22.92888,3.52571 -13.22821,0 -24.39869,-5.17104 -11.17048,-5.17103 -19.40136,-14.33787 -7.93693,-9.40189 -12.64029,-22.32948 -4.70336,-12.92759 -4.70336,-28.20565 0,-15.98321 4.99732,-29.85099 4.99732,-13.86778 13.52217,-23.97481 8.8188,-10.34207 20.5772,-15.9832 12.05236,-5.87618 25.86849,-5.87618 12.05236,0 22.92888,4.23085 10.87652,3.9958 18.51948,10.10703 l 0,-11.75236 41.74233,0 -1.4698,140.55818 z m -90.5397,-84.85201 q 0,9.63693 6.46713,15.51311 6.76108,5.87618 17.04968,5.87618 11.17048,0 18.81344,-6.34627 7.93692,-6.34628 7.93692,-16.21826 0,-4.46589 -2.05772,-8.46169 -1.76376,-3.9958 -5.29128,-6.81637 -3.52752,-3.05561 -8.23088,-4.70094 -4.70336,-1.64533 -9.99464,-1.64533 -10.58256,0 -17.6376,6.34627 -7.05505,6.34627 -7.05505,16.4533 z" />
      <path
         sodipodi:nodetypes="cccccccc"
         inkscape:connector-curvature="0"
         id="path6081"
         style="font-style:normal;font-variant:normal;font-weight:normal;font-stretch:normal;font-size:90px;line-height:125%;font-family:Ranchers;-inkscape-font-specification:Ranchers;letter-spacing:0px;word-spacing:0px;display:inline;opacity:1;fill:#241c1c;fill-opacity:1;stroke:#241c1c;stroke-width:2.92064738px;stroke-linecap:butt;stroke-linejoin:miter;stroke-opacity:1"
         d="m 705.47036,400.57458 -39.68461,140.55818 -55.55845,0 -40.27253,-140.55818 43.80005,0 c 14.21937,49.90087 14.17355,49.74054 24.69265,84.61697 9.06569,-34.74843 8.91297,-34.7161 23.22284,-84.61697 z" />
      <path
         sodipodi:nodetypes="ccccssccccscscscscccsccccccssssccccccccscssccccc"
         inkscape:connector-curvature="0"
         id="path6129"
         d="m 0.25700141,341.16999 c -9.42808301,0 -20.06150041,0.31737 -31.89672441,0.95894 -11.835191,0.4812 -22.959848,1.69065 -34.193271,2.97379 0.802446,15.07713 0.896709,31.91413 1.097255,51.16154 0.40119,19.24738 0.599646,39.37721 0.599646,60.38893 l 0,21.41337 c 0,6.89699 -0.09929,13.79207 -0.299839,20.68906 0,6.73658 -0.09929,13.63676 -0.29984,20.69415 0,6.89696 -0.09929,14.03009 -0.299839,21.40825 10.230431,0.96239 19.858831,1.60733 28.885659,1.92812 9.227471,0.48119 17.553041,0.71922 24.975141,0.71922 0.551207,0 1.079715,-0.0131 1.6267093,-0.0157 0.2975529,7.8e-4 0.6431519,0.0157 0.9377652,0.0157 37.2349575,0 64.6750515,-5.40342 82.3126545,-16.21559 17.637604,-10.96887 26.455132,-27.8129 26.455132,-50.53412 0,-0.22408 -0.0229,-0.43034 -0.0261,-0.65291 0.003,-0.31068 0.0261,-0.61039 0.0261,-0.92324 0,-16.5207 -4.516468,-29.27428 -13.543328,-38.25637 -7.682515,-7.78092 -19.17864,-13.27165 -34.41655,-16.52165 8.535882,-2.11895 15.618294,-5.87952 21.20494,-11.33919 7.251015,-7.05142 10.876751,-15.51494 10.876751,-25.38692 0,-1.77239 -0.145674,-3.47849 -0.414647,-5.12635 C 82.891739,353.63457 55.032425,341.16999 0.25696875,341.16999 Z m -0.0447472,38.51141 c 10.38658879,0 18.22299279,1.25214 23.51427379,3.75931 2.8439,1.2994 4.939182,2.89594 6.309167,4.7846 0.186501,0.80237 0.312577,1.62757 0.312577,2.50453 0,5.29302 -3.207333,9.54422 -9.626441,12.75211 -6.419075,3.2079 -15.0487787,4.81011 -25.8810109,4.81011 l -5.7158901,0 c -1.16663,0 -2.618531,-0.0904 -4.203988,-0.22434 l 0,-26.97839 c 1.567787,-0.4701 3.627565,-0.78185 6.1752188,-0.93855 2.7436273,-0.31339 5.7845134,-0.46928 9.11606075,-0.46928 z m 4.40812709,63.22501 c 11.9543917,0 21.2593057,1.56902 27.9224007,4.70298 3.282815,1.49994 5.75858,3.33229 7.470211,5.47832 0.97549,1.87077 1.467253,3.94096 1.467253,6.21285 0,5.9346 -3.306561,10.50316 -9.926248,13.71108 -6.419108,3.20787 -15.948248,4.8152 -28.5858683,4.8152 -3.81135542,0 -7.7260543,-0.16375 -11.7379885,-0.48459 -2.5634622,-0.20501 -4.5646772,-0.45387 -6.3091672,-0.72431 l 0,-32.77296 c 4.507388,-0.3134 8.2306535,-0.54722 11.1702214,-0.70391 3.1356067,-0.1567 5.981532,-0.23453 8.5291858,-0.23453 z"
         style="font-style:normal;font-variant:normal;font-weight:normal;font-stretch:normal;font-size:90px;line-height:125%;font-family:Ranchers;-inkscape-font-specification:Ranchers;letter-spacing:0px;word-spacing:0px;display:inline;opacity:1;fill:#241c1c;fill-opacity:1;stroke:#241c1c;stroke-width:2.92064738px;stroke-linecap:butt;stroke-linejoin:miter;stroke-opacity:1" />
      <path
         d="m 843.64984,541.13276 -40.27253,0 0,-11.51731 q -10.58256,6.81637 -22.34096,10.57712 -11.7584,3.52571 -22.92888,3.52571 -13.22821,0 -24.39869,-5.17104 -11.17048,-5.17103 -19.40136,-14.33787 -7.93693,-9.40189 -12.64029,-22.32948 -4.70336,-12.92759 -4.70336,-28.20565 0,-15.98321 4.99732,-29.85099 4.99732,-13.86778 13.52217,-23.97481 8.8188,-10.34207 20.5772,-15.9832 12.05236,-5.87618 25.86849,-5.87618 12.05236,0 22.92888,4.23085 10.87652,3.9958 18.51948,10.10703 l 0,-11.75236 41.74233,0 -1.4698,140.55818 z m -90.5397,-84.85201 q 0,9.63693 6.46713,15.51311 6.76108,5.87618 17.04968,5.87618 11.17048,0 18.81344,-6.34627 7.93692,-6.34628 7.93692,-16.21826 0,-4.46589 -2.05772,-8.46169 -1.76376,-3.9958 -5.29128,-6.81637 -3.52752,-3.05561 -8.23088,-4.70094 -4.70336,-1.64533 -9.99464,-1.64533 -10.58256,0 -17.6376,6.34627 -7.05505,6.34627 -7.05505,16.4533 z"
         style="font-style:normal;font-variant:normal;font-weight:normal;font-stretch:normal;font-size:90px;line-height:125%;font-family:Ranchers;-inkscape-font-specification:Ranchers;letter-spacing:0px;word-spacing:0px;display:inline;opacity:1;fill:#241c1c;fill-opacity:1;stroke:#241c1c;stroke-width:2.92064738px;stroke-linecap:butt;stroke-linejoin:miter;stroke-opacity:1"
         id="path6131"
         inkscape:connector-curvature="0" />
      <g
         transform="matrix(3.2662229,0,0,2.6116348,-463.14344,-827.61072)"
         id="g6137"
         style="display:inline;stroke:none">
        <path
           sodipodi:nodetypes="ssssssss"
           inkscape:connector-curvature="0"
           id="path6139"
           d="m 150.79382,510.83798 c -0.58121,0.90216 -2.56724,1.28436 -4.24376,1.31186 -1.37916,0.0226 -2.9837,-0.34622 -4.68087,-0.8182 -2.15369,-0.59889 -3.91664,-1.61855 -5.28978,-2.34465 -0.6015,-0.31807 -1.15696,-0.84152 -1.52475,-1.33362 -0.40833,-0.54636 -0.60372,-1.0456 -0.47367,-1.49617 0.45177,-1.56521 1.778,-2.37995 8.92463,-0.49366 4.53605,1.19726 7.96874,4.1181 7.2882,5.17444 z"
           style="fill:#ff5555;fill-rule:evenodd;stroke:none;stroke-width:0.1;stroke-linecap:butt;stroke-linejoin:miter;stroke-miterlimit:4;stroke-dasharray:none;stroke-opacity:1" />
        <g
           id="g6141"
           style="stroke:none">
          <path
             sodipodi:nodetypes="ssssssss"
             inkscape:connector-curvature="0"
             id="path6143"
             d="m 150.37102,510.68328 c -0.55097,0.85521 -2.43364,1.21753 -4.02291,1.24359 -1.30739,0.0214 -2.82842,-0.3282 -4.43727,-0.77562 -2.04159,-0.56777 -3.71281,-1.53431 -5.01449,-2.22263 -0.5702,-0.30151 -1.09675,-0.79773 -1.4454,-1.26421 -0.38708,-0.51793 -0.5723,-0.99118 -0.44902,-1.41832 0.42826,-1.48375 1.68547,-2.25608 8.46018,-0.46795 4.29998,1.13494 7.55404,3.90378 6.90891,4.90514 z"
             style="fill:none;fill-rule:evenodd;stroke:none;stroke-width:0.1;stroke-linecap:butt;stroke-linejoin:miter;stroke-miterlimit:4;stroke-dasharray:none;stroke-opacity:1" />
          <path
             style="fill:none;fill-rule:evenodd;stroke:none;stroke-width:0.2;stroke-linecap:butt;stroke-linejoin:miter;stroke-miterlimit:4;stroke-dasharray:none;stroke-opacity:1"
             d="m 136.74195,506.71071 c -0.0375,0.3661 -0.0737,0.80251 0.13043,1.08165 0.12869,0.17602 0.38827,0.32597 0.58706,0.2334 0.23557,-0.10969 0.10649,-0.62517 0.33372,-0.75591 0.33818,-0.19463 0.89261,-0.12169 1.09443,0.20945 0.2595,0.42576 -0.48735,1.08662 -0.29507,1.55537 0.16086,0.39214 0.63718,0.71481 1.03417,0.61818 0.54184,-0.1319 0.50315,-1.44245 1.05192,-1.44341 0.31807,-6e-4 0.45307,0.50245 0.52899,0.83452 0.0878,0.38394 -0.31734,0.87853 -0.11612,1.20223 0.18007,0.28967 0.64511,0.44568 0.94167,0.27187 0.33615,-0.19701 0.0818,-0.92301 0.394,-1.16462 0.24198,-0.18731 0.65361,-0.20473 0.86766,-0.005 0.32684,0.3047 -0.10293,1.07199 0.18739,1.4177 0.27774,0.33072 0.84102,0.53721 1.21955,0.30942 0.39566,-0.23807 0.0757,-1.14396 0.47423,-1.37582 0.22977,-0.13369 0.55198,0.0206 0.72846,0.21031 0.22088,0.23746 0.0186,0.76808 0.25333,0.98931 0.25819,0.24331 0.71079,0.31548 1.03472,0.14959 0.52668,-0.26974 1.06806,-0.99374 0.96161,-1.59733 -0.0569,-0.32258 -0.46304,-0.62728 -0.75557,-0.51642 -0.13176,0.0499 -0.0309,0.36498 -0.16046,0.42241 -0.22652,0.10046 -0.5044,-0.12127 -0.63541,-0.33259 -0.20841,-0.33625 0.13006,-0.90796 -0.085,-1.23899 -0.30036,-0.46231 -0.93153,-0.87144 -1.44208,-0.67202 -0.40834,0.15951 -0.24607,1.05746 -0.64693,1.24075 -0.19277,0.0881 -0.45424,-0.0204 -0.58064,-0.18898 -0.29157,-0.38873 0.16164,-1.14701 -0.13556,-1.53057 -0.25756,-0.33238 -0.79116,-0.52557 -1.17264,-0.33855 -0.44208,0.21676 -0.24052,1.2101 -0.69235,1.39808 -0.19638,0.0817 -0.42668,-0.0876 -0.56361,-0.24796 -0.27772,-0.32528 -0.0546,-1.01422 -0.38063,-1.28174 -0.18304,-0.15016 -0.50629,-0.18489 -0.70281,-0.0325 -0.26998,0.20946 -0.0106,0.8391 -0.29525,1.02267 -0.15339,0.0989 -0.38712,0.0105 -0.50317,-0.12393 -0.27417,-0.31775 0.10717,-1.03185 -0.19802,-1.31423 -0.33772,-0.31249 -0.97734,-0.29539 -1.36368,-0.0102 -0.31232,0.23051 -0.11121,0.90472 -0.42387,1.13469 -0.0653,0.0481 -0.17795,0.0557 -0.23025,-0.003 -0.17253,-0.19221 0.23307,-0.71391 0.008,-0.82856 -0.1102,-0.0562 -0.22852,0.14117 -0.30406,0.25311 -0.087,0.12885 -0.13245,0.2915 -0.14837,0.44722 z"
             id="path6145"
             inkscape:connector-curvature="0"
             sodipodi:nodetypes="ssssssssssssssssssssssssssssssssssssssssss" />
        </g>
      </g>
      <g
         transform="matrix(2.5369186,-0.44421965,0.37415687,1.8729235,-533.61389,-409.35784)"
         id="g6147"
         style="display:inline;stroke:none">
        <path
           style="fill:#ff5555;fill-rule:evenodd;stroke:none;stroke-width:1px;stroke-linecap:butt;stroke-linejoin:miter;stroke-opacity:1"
           d="m 155.0625,479.50073 c -0.30817,1.02798 -2.11025,1.94607 -3.71336,2.43752 -1.31877,0.40428 -2.96265,0.49498 -4.72414,0.51228 -2.2353,0.022 -4.21191,-0.46864 -5.73257,-0.78537 -0.66613,-0.13874 -1.34499,-0.48758 -1.83484,-0.85835 -0.54386,-0.41166 -0.87006,-0.83711 -0.87009,-1.30608 -1.2e-4,-1.6291 1.04808,-2.77974 8.4375,-2.94979 4.69015,-0.10793 8.79833,1.74614 8.4375,2.94979 z"
           id="path6149"
           inkscape:connector-curvature="0"
           sodipodi:nodetypes="ssssssss" />
        <path
           sodipodi:nodetypes="ssssssss"
           inkscape:connector-curvature="0"
           id="path6151"
           d="m 154.61338,479.46938 c -0.29214,0.97448 -2.00043,1.8448 -3.52011,2.31067 -1.25014,0.38324 -2.80847,0.46922 -4.47829,0.48562 -2.11897,0.0208 -3.99271,-0.44425 -5.43424,-0.7445 -0.63146,-0.13152 -1.27499,-0.46221 -1.73935,-0.81368 -0.51555,-0.39024 -0.82478,-0.79354 -0.82481,-1.23811 -1.1e-4,-1.54432 0.99354,-2.63507 7.9984,-2.79627 4.44606,-0.10232 8.34046,1.65526 7.9984,2.79627 z"
           style="fill:none;fill-rule:evenodd;stroke:none;stroke-width:0.09479585;stroke-linecap:butt;stroke-linejoin:miter;stroke-miterlimit:4;stroke-dasharray:none;stroke-opacity:1" />
        <path
           style="fill:none;fill-rule:evenodd;stroke:none;stroke-width:0.18799999;stroke-linecap:butt;stroke-linejoin:miter;stroke-miterlimit:4;stroke-dasharray:none;stroke-opacity:1"
           d="m 140.4172,479.43312 c 0.0655,0.36214 0.15184,0.79145 0.42534,1.00303 0.17246,0.13341 0.46345,0.20548 0.62876,0.0614 0.1959,-0.17073 -0.0711,-0.63018 0.11095,-0.81882 0.27092,-0.28079 0.82383,-0.3645 1.10958,-0.10234 0.36742,0.33708 -0.16682,1.17917 0.14794,1.57619 0.26332,0.33213 0.81045,0.51002 1.16506,0.30706 0.48399,-0.27702 0.0833,-1.52541 0.61027,-1.67855 0.30542,-0.0888 0.57466,0.35706 0.73971,0.65504 0.19085,0.34452 -0.0612,0.93208 0.22191,1.18727 0.25335,0.22835 0.74342,0.24925 0.98013,0 0.26832,-0.28252 -0.17739,-0.90949 0.0555,-1.22821 0.18053,-0.24708 0.57118,-0.37799 0.83218,-0.24564 0.39853,0.20209 0.19846,1.05848 0.57328,1.31009 0.35857,0.24071 0.95703,0.28285 1.25752,-0.041 0.3141,-0.33847 -0.24458,-1.12006 0.074,-1.45337 0.18367,-0.19218 0.53602,-0.13334 0.75821,0 0.27808,0.16687 0.2309,0.73278 0.5178,0.88022 0.31555,0.16214 0.77041,0.10594 1.03561,-0.14329 0.43119,-0.40525 0.75051,-1.25101 0.48081,-1.80138 -0.14414,-0.29414 -0.61886,-0.47423 -0.86916,-0.28658 -0.11275,0.0845 0.0715,0.35924 -0.037,0.45034 -0.18977,0.15935 -0.51824,0.0234 -0.70273,-0.14329 -0.2935,-0.26524 -0.12689,-0.90841 -0.42534,-1.16679 -0.41681,-0.36086 -1.1367,-0.57886 -1.5719,-0.24565 -0.34807,0.26652 0.0569,1.08422 -0.27739,1.37151 -0.16076,0.13814 -0.44208,0.10637 -0.61027,-0.0205 -0.38796,-0.2926 -0.16286,-1.14684 -0.55479,-1.43291 -0.33965,-0.2479 -0.9059,-0.2855 -1.22053,0 -0.36461,0.33088 0.10457,1.22933 -0.27739,1.53526 -0.16601,0.13296 -0.43423,0.0342 -0.61027,-0.0819 -0.35705,-0.23548 -0.33381,-0.95927 -0.72122,-1.12586 -0.21751,-0.0935 -0.53771,-0.0372 -0.68424,0.16376 -0.20129,0.27613 0.22258,0.80911 0,1.06444 -0.11993,0.13758 -0.369,0.1175 -0.5178,0.0205 -0.35155,-0.22923 -0.18325,-1.02109 -0.55479,-1.20774 -0.41115,-0.20655 -1.02092,-0.0127 -1.313,0.36846 -0.23612,0.3081 0.14411,0.90007 -0.0925,1.20774 -0.0494,0.0643 -0.15551,0.10289 -0.22192,0.0614 -0.21908,-0.13681 0.0259,-0.75055 -0.22191,-0.79834 -0.12146,-0.0234 -0.1804,0.19902 -0.22192,0.32752 -0.0478,0.14791 -0.0464,0.3168 -0.0185,0.47083 z"
           id="path6153"
           inkscape:connector-curvature="0"
           sodipodi:nodetypes="ssssssssssssssssssssssssssssssssssssssssss" />
      </g>
      <g
         id="g6155"
         transform="matrix(2.1235854,0,0,1.6979948,32.59736,-354.14911)"
         style="display:inline;stroke:none">
        <path
           style="fill:#ff5555;fill-rule:evenodd;stroke:none;stroke-width:0.1;stroke-linecap:butt;stroke-linejoin:miter;stroke-miterlimit:4;stroke-dasharray:none;stroke-opacity:1"
           d="m 150.79382,510.83798 c -0.58121,0.90216 -2.56724,1.28436 -4.24376,1.31186 -1.37916,0.0226 -2.9837,-0.34622 -4.68087,-0.8182 -2.15369,-0.59889 -3.91664,-1.61855 -5.28978,-2.34465 -0.6015,-0.31807 -1.15696,-0.84152 -1.52475,-1.33362 -0.40833,-0.54636 -0.60372,-1.0456 -0.47367,-1.49617 0.45177,-1.56521 1.778,-2.37995 8.92463,-0.49366 4.53605,1.19726 7.96874,4.1181 7.2882,5.17444 z"
           id="path6157"
           inkscape:connector-curvature="0"
           sodipodi:nodetypes="ssssssss" />
        <g
           id="g6159"
           style="stroke:none">
          <path
             style="fill:none;fill-rule:evenodd;stroke:none;stroke-width:0.1;stroke-linecap:butt;stroke-linejoin:miter;stroke-miterlimit:4;stroke-dasharray:none;stroke-opacity:1"
             d="m 150.37102,510.68328 c -0.55097,0.85521 -2.43364,1.21753 -4.02291,1.24359 -1.30739,0.0214 -2.82842,-0.3282 -4.43727,-0.77562 -2.04159,-0.56777 -3.71281,-1.53431 -5.01449,-2.22263 -0.5702,-0.30151 -1.09675,-0.79773 -1.4454,-1.26421 -0.38708,-0.51793 -0.5723,-0.99118 -0.44902,-1.41832 0.42826,-1.48375 1.68547,-2.25608 8.46018,-0.46795 4.29998,1.13494 7.55404,3.90378 6.90891,4.90514 z"
             id="path6161"
             inkscape:connector-curvature="0"
             sodipodi:nodetypes="ssssssss" />
          <path
             sodipodi:nodetypes="ssssssssssssssssssssssssssssssssssssssssss"
             inkscape:connector-curvature="0"
             id="path6163"
             d="m 136.74195,506.71071 c -0.0375,0.3661 -0.0737,0.80251 0.13043,1.08165 0.12869,0.17602 0.38827,0.32597 0.58706,0.2334 0.23557,-0.10969 0.10649,-0.62517 0.33372,-0.75591 0.33818,-0.19463 0.89261,-0.12169 1.09443,0.20945 0.2595,0.42576 -0.48735,1.08662 -0.29507,1.55537 0.16086,0.39214 0.63718,0.71481 1.03417,0.61818 0.54184,-0.1319 0.50315,-1.44245 1.05192,-1.44341 0.31807,-6e-4 0.45307,0.50245 0.52899,0.83452 0.0878,0.38394 -0.31734,0.87853 -0.11612,1.20223 0.18007,0.28967 0.64511,0.44568 0.94167,0.27187 0.33615,-0.19701 0.0818,-0.92301 0.394,-1.16462 0.24198,-0.18731 0.65361,-0.20473 0.86766,-0.005 0.32684,0.3047 -0.10293,1.07199 0.18739,1.4177 0.27774,0.33072 0.84102,0.53721 1.21955,0.30942 0.39566,-0.23807 0.0757,-1.14396 0.47423,-1.37582 0.22977,-0.13369 0.55198,0.0206 0.72846,0.21031 0.22088,0.23746 0.0186,0.76808 0.25333,0.98931 0.25819,0.24331 0.71079,0.31548 1.03472,0.14959 0.52668,-0.26974 1.06806,-0.99374 0.96161,-1.59733 -0.0569,-0.32258 -0.46304,-0.62728 -0.75557,-0.51642 -0.13176,0.0499 -0.0309,0.36498 -0.16046,0.42241 -0.22652,0.10046 -0.5044,-0.12127 -0.63541,-0.33259 -0.20841,-0.33625 0.13006,-0.90796 -0.085,-1.23899 -0.30036,-0.46231 -0.93153,-0.87144 -1.44208,-0.67202 -0.40834,0.15951 -0.24607,1.05746 -0.64693,1.24075 -0.19277,0.0881 -0.45424,-0.0204 -0.58064,-0.18898 -0.29157,-0.38873 0.16164,-1.14701 -0.13556,-1.53057 -0.25756,-0.33238 -0.79116,-0.52557 -1.17264,-0.33855 -0.44208,0.21676 -0.24052,1.2101 -0.69235,1.39808 -0.19638,0.0817 -0.42668,-0.0876 -0.56361,-0.24796 -0.27772,-0.32528 -0.0546,-1.01422 -0.38063,-1.28174 -0.18304,-0.15016 -0.50629,-0.18489 -0.70281,-0.0325 -0.26998,0.20946 -0.0106,0.8391 -0.29525,1.02267 -0.15339,0.0989 -0.38712,0.0105 -0.50317,-0.12393 -0.27417,-0.31775 0.10717,-1.03185 -0.19802,-1.31423 -0.33772,-0.31249 -0.97734,-0.29539 -1.36368,-0.0102 -0.31232,0.23051 -0.11121,0.90472 -0.42387,1.13469 -0.0653,0.0481 -0.17795,0.0557 -0.23025,-0.003 -0.17253,-0.19221 0.23307,-0.71391 0.008,-0.82856 -0.1102,-0.0562 -0.22852,0.14117 -0.30406,0.25311 -0.087,0.12885 -0.13245,0.2915 -0.14837,0.44722 z"
             style="fill:none;fill-rule:evenodd;stroke:none;stroke-width:0.2;stroke-linecap:butt;stroke-linejoin:miter;stroke-miterlimit:4;stroke-dasharray:none;stroke-opacity:1" />
        </g>
      </g>
      <g
         id="g6165"
         transform="matrix(1.8582992,0.82180401,-1.0277835,1.485875,599.87018,-503.94533)"
         style="display:inline;stroke:none">
        <path
           style="fill:#ff5555;fill-rule:evenodd;stroke:none;stroke-width:0.1;stroke-linecap:butt;stroke-linejoin:miter;stroke-miterlimit:4;stroke-dasharray:none;stroke-opacity:1"
           d="m 150.79382,510.83798 c -0.58121,0.90216 -2.56724,1.28436 -4.24376,1.31186 -1.37916,0.0226 -2.9837,-0.34622 -4.68087,-0.8182 -2.15369,-0.59889 -3.91664,-1.61855 -5.28978,-2.34465 -0.6015,-0.31807 -1.15696,-0.84152 -1.52475,-1.33362 -0.40833,-0.54636 -0.60372,-1.0456 -0.47367,-1.49617 0.45177,-1.56521 1.778,-2.37995 8.92463,-0.49366 4.53605,1.19726 7.96874,4.1181 7.2882,5.17444 z"
           id="path6167"
           inkscape:connector-curvature="0"
           sodipodi:nodetypes="ssssssss" />
        <g
           id="g6169"
           style="stroke:none">
          <path
             style="fill:none;fill-rule:evenodd;stroke:none;stroke-width:0.1;stroke-linecap:butt;stroke-linejoin:miter;stroke-miterlimit:4;stroke-dasharray:none;stroke-opacity:1"
             d="m 150.37102,510.68328 c -0.55097,0.85521 -2.43364,1.21753 -4.02291,1.24359 -1.30739,0.0214 -2.82842,-0.3282 -4.43727,-0.77562 -2.04159,-0.56777 -3.71281,-1.53431 -5.01449,-2.22263 -0.5702,-0.30151 -1.09675,-0.79773 -1.4454,-1.26421 -0.38708,-0.51793 -0.5723,-0.99118 -0.44902,-1.41832 0.42826,-1.48375 1.68547,-2.25608 8.46018,-0.46795 4.29998,1.13494 7.55404,3.90378 6.90891,4.90514 z"
             id="path6171"
             inkscape:connector-curvature="0"
             sodipodi:nodetypes="ssssssss" />
          <path
             sodipodi:nodetypes="ssssssssssssssssssssssssssssssssssssssssss"
             inkscape:connector-curvature="0"
             id="path6173"
             d="m 136.74195,506.71071 c -0.0375,0.3661 -0.0737,0.80251 0.13043,1.08165 0.12869,0.17602 0.38827,0.32597 0.58706,0.2334 0.23557,-0.10969 0.10649,-0.62517 0.33372,-0.75591 0.33818,-0.19463 0.89261,-0.12169 1.09443,0.20945 0.2595,0.42576 -0.48735,1.08662 -0.29507,1.55537 0.16086,0.39214 0.63718,0.71481 1.03417,0.61818 0.54184,-0.1319 0.50315,-1.44245 1.05192,-1.44341 0.31807,-6e-4 0.45307,0.50245 0.52899,0.83452 0.0878,0.38394 -0.31734,0.87853 -0.11612,1.20223 0.18007,0.28967 0.64511,0.44568 0.94167,0.27187 0.33615,-0.19701 0.0818,-0.92301 0.394,-1.16462 0.24198,-0.18731 0.65361,-0.20473 0.86766,-0.005 0.32684,0.3047 -0.10293,1.07199 0.18739,1.4177 0.27774,0.33072 0.84102,0.53721 1.21955,0.30942 0.39566,-0.23807 0.0757,-1.14396 0.47423,-1.37582 0.22977,-0.13369 0.55198,0.0206 0.72846,0.21031 0.22088,0.23746 0.0186,0.76808 0.25333,0.98931 0.25819,0.24331 0.71079,0.31548 1.03472,0.14959 0.52668,-0.26974 1.06806,-0.99374 0.96161,-1.59733 -0.0569,-0.32258 -0.46304,-0.62728 -0.75557,-0.51642 -0.13176,0.0499 -0.0309,0.36498 -0.16046,0.42241 -0.22652,0.10046 -0.5044,-0.12127 -0.63541,-0.33259 -0.20841,-0.33625 0.13006,-0.90796 -0.085,-1.23899 -0.30036,-0.46231 -0.93153,-0.87144 -1.44208,-0.67202 -0.40834,0.15951 -0.24607,1.05746 -0.64693,1.24075 -0.19277,0.0881 -0.45424,-0.0204 -0.58064,-0.18898 -0.29157,-0.38873 0.16164,-1.14701 -0.13556,-1.53057 -0.25756,-0.33238 -0.79116,-0.52557 -1.17264,-0.33855 -0.44208,0.21676 -0.24052,1.2101 -0.69235,1.39808 -0.19638,0.0817 -0.42668,-0.0876 -0.56361,-0.24796 -0.27772,-0.32528 -0.0546,-1.01422 -0.38063,-1.28174 -0.18304,-0.15016 -0.50629,-0.18489 -0.70281,-0.0325 -0.26998,0.20946 -0.0106,0.8391 -0.29525,1.02267 -0.15339,0.0989 -0.38712,0.0105 -0.50317,-0.12393 -0.27417,-0.31775 0.10717,-1.03185 -0.19802,-1.31423 -0.33772,-0.31249 -0.97734,-0.29539 -1.36368,-0.0102 -0.31232,0.23051 -0.11121,0.90472 -0.42387,1.13469 -0.0653,0.0481 -0.17795,0.0557 -0.23025,-0.003 -0.17253,-0.19221 0.23307,-0.71391 0.008,-0.82856 -0.1102,-0.0562 -0.22852,0.14117 -0.30406,0.25311 -0.087,0.12885 -0.13245,0.2915 -0.14837,0.44722 z"
             style="fill:none;fill-rule:evenodd;stroke:none;stroke-width:0.2;stroke-linecap:butt;stroke-linejoin:miter;stroke-miterlimit:4;stroke-dasharray:none;stroke-opacity:1" />
        </g>
      </g>
      <path
         style="display:inline;fill:#8787de;stroke:none;stroke-width:0.2;stroke-miterlimit:4;stroke-dasharray:none;stroke-dashoffset:0;stroke-opacity:1"
         d="m -44.794468,477.1148 c 7.407989,-0.0373 12.242685,3.32934 14.813594,6.85014 -4.190727,3.74461 -11.977794,5.1327 -16.815462,4.85124 -1.853353,-3.02592 -0.655597,-8.97979 2.001868,-11.70138 z"
         id="path6201"
         inkscape:connector-curvature="0"
         sodipodi:nodetypes="cccc" />
      <path
         sodipodi:nodetypes="cccc"
         inkscape:connector-curvature="0"
         id="path6203"
         d="m 25.846894,359.86183 c 5.893148,3.58938 4.902536,6.65776 4.247593,10.70096 -6.178878,0.91721 -11.158692,0.17054 -14.773388,-2.41544 0.844874,-3.3009 6.34245,-7.42919 10.525795,-8.28552 z"
         style="display:inline;fill:#8787de;stroke:none;stroke-width:0.2;stroke-miterlimit:4;stroke-dasharray:none;stroke-dashoffset:0;stroke-opacity:1" />
      <path
         sodipodi:nodetypes="cccc"
         inkscape:connector-curvature="0"
         id="path6205"
         d="m 369.77307,514.97225 c 7.40799,-0.0373 12.24268,3.32934 14.81359,6.85014 -4.19072,3.74461 -11.97779,5.1327 -16.81546,4.85124 -1.85335,-3.02592 -0.6556,-8.97979 2.00187,-11.70138 z"
         style="display:inline;fill:#8787de;stroke:none;stroke-width:0.2;stroke-miterlimit:4;stroke-dasharray:none;stroke-dashoffset:0;stroke-opacity:1" />
      <path
         style="display:inline;fill:#8787de;stroke:none;stroke-width:0.2;stroke-miterlimit:4;stroke-dasharray:none;stroke-dashoffset:0;stroke-opacity:1"
         d="m 387.29433,390.79414 c 5.89315,3.58938 4.90253,6.65776 4.24759,10.70096 -6.17888,0.91721 -11.15869,0.17054 -14.77339,-2.41545 0.84488,-3.30089 6.34245,-7.42918 10.5258,-8.28551 z"
         id="path6207"
         inkscape:connector-curvature="0"
         sodipodi:nodetypes="cccc" />
      <ellipse
         ry="7.3868184"
         rx="9.2382736"
         style="display:inline;fill:#ff7f2a;stroke:none;stroke-width:0.2;stroke-miterlimit:4;stroke-dasharray:none;stroke-dashoffset:0;stroke-opacity:1"
         id="circle6215"
         cx="-41.358498"
         cy="359.00507" />
      <ellipse
         ry="5.4916973"
         rx="6.8681531"
         cy="387.74454"
         cx="54.633049"
         id="circle6217"
         style="display:inline;fill:#ff7f2a;stroke:none;stroke-width:0.14868912;stroke-miterlimit:4;stroke-dasharray:none;stroke-dashoffset:0;stroke-opacity:1" />
      <ellipse
         ry="4.3769202"
         rx="5.4739647"
         style="display:inline;fill:#ff7f2a;stroke:none;stroke-width:0.11850625;stroke-miterlimit:4;stroke-dasharray:none;stroke-dashoffset:0;stroke-opacity:1"
         id="circle6219"
         cx="-40.925499"
         cy="453.995" />
      <ellipse
         ry="6.1605639"
         rx="7.7046661"
         cy="459.99695"
         cx="70.799896"
         id="circle6221"
         style="display:inline;fill:#ff7f2a;stroke:none;stroke-width:0.16679886;stroke-miterlimit:4;stroke-dasharray:none;stroke-dashoffset:0;stroke-opacity:1" />
      <ellipse
         ry="7.7370968"
         rx="9.6763458"
         style="display:inline;fill:#ff7f2a;stroke:none;stroke-width:0.20948389;stroke-miterlimit:4;stroke-dasharray:none;stroke-dashoffset:0;stroke-opacity:1"
         id="circle6223"
         cx="-20.246067"
         cy="522.34955" />
      <ellipse
         ry="3.9534178"
         rx="4.9443145"
         cy="503.41522"
         cx="45.078392"
         id="circle6225"
         style="display:inline;fill:#ff7f2a;stroke:none;stroke-width:0.10703981;stroke-miterlimit:4;stroke-dasharray:none;stroke-dashoffset:0;stroke-opacity:1" />
      <ellipse
         ry="7.3868184"
         rx="9.2382736"
         cy="424.10147"
         cx="385.33411"
         id="circle6227"
         style="display:inline;fill:#ff7f2a;stroke:none;stroke-width:0.2;stroke-miterlimit:4;stroke-dasharray:none;stroke-dashoffset:0;stroke-opacity:1" />
      <ellipse
         ry="5.4916973"
         rx="6.8681531"
         style="display:inline;fill:#ff7f2a;stroke:none;stroke-width:0.14868912;stroke-miterlimit:4;stroke-dasharray:none;stroke-dashoffset:0;stroke-opacity:1"
         id="circle6229"
         cx="329.47165"
         cy="529.47894" />
      <ellipse
         ry="3.9534178"
         rx="4.9443145"
         style="display:inline;fill:#ff7f2a;stroke:none;stroke-width:0.10703981;stroke-miterlimit:4;stroke-dasharray:none;stroke-dashoffset:0;stroke-opacity:1"
         id="circle6231"
         cx="371.30493"
         cy="450.78418" />
      <g
         transform="matrix(3.2662229,0,0,2.6116348,-463.14344,-827.61072)"
         id="g6247"
         style="display:inline;fill:#916f6f;stroke:none">
        <circle
           r="4.8613591"
           cy="478.13394"
           cx="129.84248"
           id="circle6249"
           style="fill:#916f6f;stroke:none;stroke-width:0.30000001;stroke-linecap:round;stroke-linejoin:round;stroke-miterlimit:4;stroke-dasharray:none;stroke-opacity:1" />
        <ellipse
           ry="1.6130873"
           rx="1.6572815"
           cy="478.81897"
           cx="132.11848"
           id="ellipse6251"
           style="fill:#916f6f;stroke:none;stroke-width:0.30000001;stroke-linecap:round;stroke-linejoin:round;stroke-miterlimit:4;stroke-dasharray:none;stroke-opacity:1" />
      </g>
      <g
         id="g6253"
         transform="matrix(2.6325312,0,0,2.1049421,39.189415,-640.97574)"
         style="display:inline;fill:#916f6f;stroke:none">
        <circle
           style="fill:#916f6f;stroke:none;stroke-width:0.30000001;stroke-linecap:round;stroke-linejoin:round;stroke-miterlimit:4;stroke-dasharray:none;stroke-opacity:1"
           id="circle6255"
           cx="129.84248"
           cy="478.13394"
           r="4.8613591" />
        <ellipse
           style="fill:#916f6f;stroke:none;stroke-width:0.30000001;stroke-linecap:round;stroke-linejoin:round;stroke-miterlimit:4;stroke-dasharray:none;stroke-opacity:1"
           id="ellipse6257"
           cx="132.11848"
           cy="478.81897"
           rx="1.6572815"
           ry="1.6130873" />
      </g>
      <g
         id="g6267"
         transform="matrix(3.2662229,0,0,2.6116348,-329.63657,-732.93895)"
         style="display:inline;fill:#808080;stroke:none">
        <ellipse
           transform="matrix(0.874638,-0.48477662,0.48477662,0.874638,0,0)"
           ry="0.34375"
           rx="0.65625"
           cy="470.5614"
           cx="-117.78978"
           id="ellipse6269"
           style="fill:#808080;stroke:none;stroke-width:0.1;stroke-linecap:round;stroke-linejoin:round;stroke-miterlimit:4;stroke-dasharray:none;stroke-opacity:1" />
        <ellipse
           style="fill:#808080;stroke:none;stroke-width:0.0772841;stroke-linecap:round;stroke-linejoin:round;stroke-miterlimit:4;stroke-dasharray:none;stroke-opacity:1"
           id="ellipse6271"
           cx="-10.113874"
           cy="486.43735"
           rx="0.50717688"
           ry="0.26566407"
           transform="matrix(0.96073727,-0.27745973,0.27745973,0.96073727,0,0)" />
        <ellipse
           transform="matrix(0.93461505,-0.35566094,0.21409127,0.97681366,0,0)"
           ry="0.3406215"
           rx="0.51578605"
           cy="488.70169"
           cx="22.601"
           id="ellipse6273"
           style="fill:#808080;stroke:none;stroke-width:0.08825003;stroke-linecap:round;stroke-linejoin:round;stroke-miterlimit:4;stroke-dasharray:none;stroke-opacity:1" />
        <ellipse
           style="fill:#808080;stroke:none;stroke-width:0.08825003;stroke-linecap:round;stroke-linejoin:round;stroke-miterlimit:4;stroke-dasharray:none;stroke-opacity:1"
           id="ellipse6275"
           cx="309.4025"
           cy="424.00363"
           rx="0.51578605"
           ry="0.3406215"
           transform="matrix(0.96422767,0.26507546,-0.40423464,0.91465532,0,0)" />
        <ellipse
           transform="matrix(0.76718275,-0.64142858,0.64142858,0.76718275,0,0)"
           ry="0.26566407"
           rx="0.50717688"
           cy="442.09879"
           cx="-205.06822"
           id="ellipse6277"
           style="fill:#808080;stroke:none;stroke-width:0.0772841;stroke-linecap:round;stroke-linejoin:round;stroke-miterlimit:4;stroke-dasharray:none;stroke-opacity:1" />
        <ellipse
           inkscape:transform-center-y="-0.31251221"
           inkscape:transform-center-x="0.62499397"
           style="fill:#808080;stroke:none;stroke-width:0.08477594;stroke-linecap:round;stroke-linejoin:round;stroke-miterlimit:4;stroke-dasharray:none;stroke-opacity:1"
           id="ellipse6279"
           cx="-370.26978"
           cy="581.95868"
           rx="0.39428997"
           ry="0.41118899"
           transform="matrix(-0.98683044,0.16175812,-0.414419,0.9100862,0,0)" />
        <ellipse
           transform="matrix(0.96529991,0.26114379,-0.40968614,0.91222654,0,0)"
           ry="0.38303283"
           rx="0.58717644"
           cy="427.29742"
           cx="310.14813"
           id="ellipse6281"
           style="fill:#808080;stroke:none;stroke-width:0.0998496;stroke-linecap:round;stroke-linejoin:round;stroke-miterlimit:4;stroke-dasharray:none;stroke-opacity:1" />
        <ellipse
           style="fill:#808080;stroke:none;stroke-width:0.0772841;stroke-linecap:round;stroke-linejoin:round;stroke-miterlimit:4;stroke-dasharray:none;stroke-opacity:1"
           id="ellipse6283"
           cx="-205.94778"
           cy="439.20453"
           rx="0.50717688"
           ry="0.26566407"
           transform="matrix(0.76718275,-0.64142858,0.64142858,0.76718275,0,0)" />
        <ellipse
           transform="matrix(0.64045329,0.76799712,-0.85396981,0.52032256,0,0)"
           ry="0.3406215"
           rx="0.51578605"
           cy="205.05881"
           cx="471.08472"
           id="ellipse6285"
           style="fill:#808080;stroke:none;stroke-width:0.08825003;stroke-linecap:round;stroke-linejoin:round;stroke-miterlimit:4;stroke-dasharray:none;stroke-opacity:1" />
      </g>
      <g
         transform="matrix(3.2662229,0,0,2.6116348,-445.6924,-844.66459)"
         id="g6287"
         style="display:inline;fill:#808080;stroke:none">
        <ellipse
           style="fill:#808080;stroke:none;stroke-width:0.1;stroke-linecap:round;stroke-linejoin:round;stroke-miterlimit:4;stroke-dasharray:none;stroke-opacity:1"
           id="ellipse6289"
           cx="-117.78978"
           cy="470.5614"
           rx="0.65625"
           ry="0.34375"
           transform="matrix(0.874638,-0.48477662,0.48477662,0.874638,0,0)" />
        <ellipse
           transform="matrix(0.96073727,-0.27745973,0.27745973,0.96073727,0,0)"
           ry="0.26566407"
           rx="0.50717688"
           cy="486.43735"
           cx="-10.113874"
           id="ellipse6291"
           style="fill:#808080;stroke:none;stroke-width:0.0772841;stroke-linecap:round;stroke-linejoin:round;stroke-miterlimit:4;stroke-dasharray:none;stroke-opacity:1" />
        <ellipse
           style="fill:#808080;stroke:none;stroke-width:0.08825003;stroke-linecap:round;stroke-linejoin:round;stroke-miterlimit:4;stroke-dasharray:none;stroke-opacity:1"
           id="ellipse6293"
           cx="22.601"
           cy="488.70169"
           rx="0.51578605"
           ry="0.3406215"
           transform="matrix(0.93461505,-0.35566094,0.21409127,0.97681366,0,0)" />
        <ellipse
           transform="matrix(0.96422767,0.26507546,-0.40423464,0.91465532,0,0)"
           ry="0.3406215"
           rx="0.51578605"
           cy="424.00363"
           cx="309.4025"
           id="ellipse6295"
           style="fill:#808080;stroke:none;stroke-width:0.08825003;stroke-linecap:round;stroke-linejoin:round;stroke-miterlimit:4;stroke-dasharray:none;stroke-opacity:1" />
        <ellipse
           style="fill:#808080;stroke:none;stroke-width:0.0772841;stroke-linecap:round;stroke-linejoin:round;stroke-miterlimit:4;stroke-dasharray:none;stroke-opacity:1"
           id="ellipse6297"
           cx="-205.06822"
           cy="442.09879"
           rx="0.50717688"
           ry="0.26566407"
           transform="matrix(0.76718275,-0.64142858,0.64142858,0.76718275,0,0)" />
        <ellipse
           transform="matrix(-0.98683044,0.16175812,-0.414419,0.9100862,0,0)"
           ry="0.41118899"
           rx="0.39428997"
           cy="581.95868"
           cx="-370.26978"
           id="ellipse6299"
           style="fill:#808080;stroke:none;stroke-width:0.08477594;stroke-linecap:round;stroke-linejoin:round;stroke-miterlimit:4;stroke-dasharray:none;stroke-opacity:1"
           inkscape:transform-center-x="0.62499397"
           inkscape:transform-center-y="-0.31251221" />
        <ellipse
           style="fill:#808080;stroke:none;stroke-width:0.0998496;stroke-linecap:round;stroke-linejoin:round;stroke-miterlimit:4;stroke-dasharray:none;stroke-opacity:1"
           id="ellipse6301"
           cx="310.14813"
           cy="427.29742"
           rx="0.58717644"
           ry="0.38303283"
           transform="matrix(0.96529991,0.26114379,-0.40968614,0.91222654,0,0)" />
        <ellipse
           transform="matrix(0.76718275,-0.64142858,0.64142858,0.76718275,0,0)"
           ry="0.26566407"
           rx="0.50717688"
           cy="439.20453"
           cx="-205.94778"
           id="ellipse6303"
           style="fill:#808080;stroke:none;stroke-width:0.0772841;stroke-linecap:round;stroke-linejoin:round;stroke-miterlimit:4;stroke-dasharray:none;stroke-opacity:1" />
        <ellipse
           style="fill:#808080;stroke:none;stroke-width:0.08825003;stroke-linecap:round;stroke-linejoin:round;stroke-miterlimit:4;stroke-dasharray:none;stroke-opacity:1"
           id="ellipse6305"
           cx="471.08472"
           cy="205.05881"
           rx="0.51578605"
           ry="0.3406215"
           transform="matrix(0.64045329,0.76799712,-0.85396981,0.52032256,0,0)" />
      </g>
      <g
         id="g6307"
         transform="matrix(3.2662229,0,0,2.6116348,-403.54277,-696.00485)"
         style="display:inline;fill:#808080;stroke:none">
        <ellipse
           transform="matrix(0.874638,-0.48477662,0.48477662,0.874638,0,0)"
           ry="0.34375"
           rx="0.65625"
           cy="470.5614"
           cx="-117.78978"
           id="ellipse6309"
           style="fill:#808080;stroke:none;stroke-width:0.1;stroke-linecap:round;stroke-linejoin:round;stroke-miterlimit:4;stroke-dasharray:none;stroke-opacity:1" />
        <ellipse
           style="fill:#808080;stroke:none;stroke-width:0.0772841;stroke-linecap:round;stroke-linejoin:round;stroke-miterlimit:4;stroke-dasharray:none;stroke-opacity:1"
           id="ellipse6311"
           cx="-10.113874"
           cy="486.43735"
           rx="0.50717688"
           ry="0.26566407"
           transform="matrix(0.96073727,-0.27745973,0.27745973,0.96073727,0,0)" />
        <ellipse
           transform="matrix(0.93461505,-0.35566094,0.21409127,0.97681366,0,0)"
           ry="0.3406215"
           rx="0.51578605"
           cy="488.70169"
           cx="22.601"
           id="ellipse6313"
           style="fill:#808080;stroke:none;stroke-width:0.08825003;stroke-linecap:round;stroke-linejoin:round;stroke-miterlimit:4;stroke-dasharray:none;stroke-opacity:1" />
        <ellipse
           style="fill:#808080;stroke:none;stroke-width:0.08825003;stroke-linecap:round;stroke-linejoin:round;stroke-miterlimit:4;stroke-dasharray:none;stroke-opacity:1"
           id="ellipse6315"
           cx="309.4025"
           cy="424.00363"
           rx="0.51578605"
           ry="0.3406215"
           transform="matrix(0.96422767,0.26507546,-0.40423464,0.91465532,0,0)" />
        <ellipse
           transform="matrix(0.76718275,-0.64142858,0.64142858,0.76718275,0,0)"
           ry="0.26566407"
           rx="0.50717688"
           cy="442.09879"
           cx="-205.06822"
           id="ellipse6317"
           style="fill:#808080;stroke:none;stroke-width:0.0772841;stroke-linecap:round;stroke-linejoin:round;stroke-miterlimit:4;stroke-dasharray:none;stroke-opacity:1" />
        <ellipse
           inkscape:transform-center-y="-0.31251221"
           inkscape:transform-center-x="0.62499397"
           style="fill:#808080;stroke:none;stroke-width:0.08477594;stroke-linecap:round;stroke-linejoin:round;stroke-miterlimit:4;stroke-dasharray:none;stroke-opacity:1"
           id="ellipse6319"
           cx="-370.26978"
           cy="581.95868"
           rx="0.39428997"
           ry="0.41118899"
           transform="matrix(-0.98683044,0.16175812,-0.414419,0.9100862,0,0)" />
        <ellipse
           transform="matrix(0.96529991,0.26114379,-0.40968614,0.91222654,0,0)"
           ry="0.38303283"
           rx="0.58717644"
           cy="427.29742"
           cx="310.14813"
           id="ellipse6321"
           style="fill:#808080;stroke:none;stroke-width:0.0998496;stroke-linecap:round;stroke-linejoin:round;stroke-miterlimit:4;stroke-dasharray:none;stroke-opacity:1" />
        <ellipse
           style="fill:#808080;stroke:none;stroke-width:0.0772841;stroke-linecap:round;stroke-linejoin:round;stroke-miterlimit:4;stroke-dasharray:none;stroke-opacity:1"
           id="ellipse6323"
           cx="-205.94778"
           cy="439.20453"
           rx="0.50717688"
           ry="0.26566407"
           transform="matrix(0.76718275,-0.64142858,0.64142858,0.76718275,0,0)" />
        <ellipse
           transform="matrix(0.64045329,0.76799712,-0.85396981,0.52032256,0,0)"
           ry="0.3406215"
           rx="0.51578605"
           cy="205.05881"
           cx="471.08472"
           id="ellipse6325"
           style="fill:#808080;stroke:none;stroke-width:0.08825003;stroke-linecap:round;stroke-linejoin:round;stroke-miterlimit:4;stroke-dasharray:none;stroke-opacity:1" />
      </g>
      <g
         transform="matrix(3.2662229,0,0,2.6116348,-90.385747,-738.16222)"
         id="g6327"
         style="display:inline;fill:#808080;stroke:none">
        <ellipse
           style="fill:#808080;stroke:none;stroke-width:0.1;stroke-linecap:round;stroke-linejoin:round;stroke-miterlimit:4;stroke-dasharray:none;stroke-opacity:1"
           id="ellipse6329"
           cx="-117.78978"
           cy="470.5614"
           rx="0.65625"
           ry="0.34375"
           transform="matrix(0.874638,-0.48477662,0.48477662,0.874638,0,0)" />
        <ellipse
           transform="matrix(0.96073727,-0.27745973,0.27745973,0.96073727,0,0)"
           ry="0.26566407"
           rx="0.50717688"
           cy="486.43735"
           cx="-10.113874"
           id="ellipse6331"
           style="fill:#808080;stroke:none;stroke-width:0.0772841;stroke-linecap:round;stroke-linejoin:round;stroke-miterlimit:4;stroke-dasharray:none;stroke-opacity:1" />
        <ellipse
           style="fill:#808080;stroke:none;stroke-width:0.08825003;stroke-linecap:round;stroke-linejoin:round;stroke-miterlimit:4;stroke-dasharray:none;stroke-opacity:1"
           id="ellipse6333"
           cx="22.601"
           cy="488.70169"
           rx="0.51578605"
           ry="0.3406215"
           transform="matrix(0.93461505,-0.35566094,0.21409127,0.97681366,0,0)" />
        <ellipse
           transform="matrix(0.96422767,0.26507546,-0.40423464,0.91465532,0,0)"
           ry="0.3406215"
           rx="0.51578605"
           cy="424.00363"
           cx="309.4025"
           id="ellipse6335"
           style="fill:#808080;stroke:none;stroke-width:0.08825003;stroke-linecap:round;stroke-linejoin:round;stroke-miterlimit:4;stroke-dasharray:none;stroke-opacity:1" />
        <ellipse
           style="fill:#808080;stroke:none;stroke-width:0.0772841;stroke-linecap:round;stroke-linejoin:round;stroke-miterlimit:4;stroke-dasharray:none;stroke-opacity:1"
           id="ellipse6337"
           cx="-205.06822"
           cy="442.09879"
           rx="0.50717688"
           ry="0.26566407"
           transform="matrix(0.76718275,-0.64142858,0.64142858,0.76718275,0,0)" />
        <ellipse
           transform="matrix(-0.98683044,0.16175812,-0.414419,0.9100862,0,0)"
           ry="0.41118899"
           rx="0.39428997"
           cy="581.95868"
           cx="-370.26978"
           id="ellipse6339"
           style="fill:#808080;stroke:none;stroke-width:0.08477594;stroke-linecap:round;stroke-linejoin:round;stroke-miterlimit:4;stroke-dasharray:none;stroke-opacity:1"
           inkscape:transform-center-x="0.62499397"
           inkscape:transform-center-y="-0.31251221" />
        <ellipse
           style="fill:#808080;stroke:none;stroke-width:0.0998496;stroke-linecap:round;stroke-linejoin:round;stroke-miterlimit:4;stroke-dasharray:none;stroke-opacity:1"
           id="ellipse6341"
           cx="310.14813"
           cy="427.29742"
           rx="0.58717644"
           ry="0.38303283"
           transform="matrix(0.96529991,0.26114379,-0.40968614,0.91222654,0,0)" />
        <ellipse
           transform="matrix(0.76718275,-0.64142858,0.64142858,0.76718275,0,0)"
           ry="0.26566407"
           rx="0.50717688"
           cy="439.20453"
           cx="-205.94778"
           id="ellipse6343"
           style="fill:#808080;stroke:none;stroke-width:0.0772841;stroke-linecap:round;stroke-linejoin:round;stroke-miterlimit:4;stroke-dasharray:none;stroke-opacity:1" />
        <ellipse
           style="fill:#808080;stroke:none;stroke-width:0.08825003;stroke-linecap:round;stroke-linejoin:round;stroke-miterlimit:4;stroke-dasharray:none;stroke-opacity:1"
           id="ellipse6345"
           cx="471.08472"
           cy="205.05881"
           rx="0.51578605"
           ry="0.3406215"
           transform="matrix(0.64045329,0.76799712,-0.85396981,0.52032256,0,0)" />
      </g>
      <g
         id="g6347"
         transform="matrix(3.2662229,0,0,2.6116348,-18.422233,-764.7946)"
         style="display:inline;fill:#808080;stroke:none">
        <ellipse
           transform="matrix(0.874638,-0.48477662,0.48477662,0.874638,0,0)"
           ry="0.34375"
           rx="0.65625"
           cy="470.5614"
           cx="-117.78978"
           id="ellipse6349"
           style="fill:#808080;stroke:none;stroke-width:0.1;stroke-linecap:round;stroke-linejoin:round;stroke-miterlimit:4;stroke-dasharray:none;stroke-opacity:1" />
        <ellipse
           style="fill:#808080;stroke:none;stroke-width:0.0772841;stroke-linecap:round;stroke-linejoin:round;stroke-miterlimit:4;stroke-dasharray:none;stroke-opacity:1"
           id="ellipse6351"
           cx="-10.113874"
           cy="486.43735"
           rx="0.50717688"
           ry="0.26566407"
           transform="matrix(0.96073727,-0.27745973,0.27745973,0.96073727,0,0)" />
        <ellipse
           transform="matrix(0.93461505,-0.35566094,0.21409127,0.97681366,0,0)"
           ry="0.3406215"
           rx="0.51578605"
           cy="488.70169"
           cx="22.601"
           id="ellipse6353"
           style="fill:#808080;stroke:none;stroke-width:0.08825003;stroke-linecap:round;stroke-linejoin:round;stroke-miterlimit:4;stroke-dasharray:none;stroke-opacity:1" />
        <ellipse
           style="fill:#808080;stroke:none;stroke-width:0.08825003;stroke-linecap:round;stroke-linejoin:round;stroke-miterlimit:4;stroke-dasharray:none;stroke-opacity:1"
           id="ellipse6355"
           cx="309.4025"
           cy="424.00363"
           rx="0.51578605"
           ry="0.3406215"
           transform="matrix(0.96422767,0.26507546,-0.40423464,0.91465532,0,0)" />
        <ellipse
           transform="matrix(0.76718275,-0.64142858,0.64142858,0.76718275,0,0)"
           ry="0.26566407"
           rx="0.50717688"
           cy="442.09879"
           cx="-205.06822"
           id="ellipse6357"
           style="fill:#808080;stroke:none;stroke-width:0.0772841;stroke-linecap:round;stroke-linejoin:round;stroke-miterlimit:4;stroke-dasharray:none;stroke-opacity:1" />
        <ellipse
           inkscape:transform-center-y="-0.31251221"
           inkscape:transform-center-x="0.62499397"
           style="fill:#808080;stroke:none;stroke-width:0.08477594;stroke-linecap:round;stroke-linejoin:round;stroke-miterlimit:4;stroke-dasharray:none;stroke-opacity:1"
           id="ellipse6359"
           cx="-370.26978"
           cy="581.95868"
           rx="0.39428997"
           ry="0.41118899"
           transform="matrix(-0.98683044,0.16175812,-0.414419,0.9100862,0,0)" />
        <ellipse
           transform="matrix(0.96529991,0.26114379,-0.40968614,0.91222654,0,0)"
           ry="0.38303283"
           rx="0.58717644"
           cy="427.29742"
           cx="310.14813"
           id="ellipse6361"
           style="fill:#808080;stroke:none;stroke-width:0.0998496;stroke-linecap:round;stroke-linejoin:round;stroke-miterlimit:4;stroke-dasharray:none;stroke-opacity:1" />
        <ellipse
           style="fill:#808080;stroke:none;stroke-width:0.0772841;stroke-linecap:round;stroke-linejoin:round;stroke-miterlimit:4;stroke-dasharray:none;stroke-opacity:1"
           id="ellipse6363"
           cx="-205.94778"
           cy="439.20453"
           rx="0.50717688"
           ry="0.26566407"
           transform="matrix(0.76718275,-0.64142858,0.64142858,0.76718275,0,0)" />
        <ellipse
           transform="matrix(0.64045329,0.76799712,-0.85396981,0.52032256,0,0)"
           ry="0.3406215"
           rx="0.51578605"
           cy="205.05881"
           cx="471.08472"
           id="ellipse6365"
           style="fill:#808080;stroke:none;stroke-width:0.08825003;stroke-linecap:round;stroke-linejoin:round;stroke-miterlimit:4;stroke-dasharray:none;stroke-opacity:1" />
      </g>
      <path
         style="display:inline;fill:#ff7f2a;stroke:#ff7f2a;stroke-width:0.87619424;stroke-linecap:round;stroke-linejoin:round;stroke-miterlimit:4;stroke-dasharray:none;stroke-opacity:1"
         id="path6429"
         d="m 31.262945,488.8581 c 0.543042,-0.58261 2.845664,-3.02485 3.149782,-3.48815 0.526744,-0.80245 0.698645,-1.73311 1.220196,-2.53773 0.568518,-0.87704 1.403724,-1.62783 2.031492,-2.47862 3.054441,-4.13952 0.05422,-0.87156 3.320443,-4.18927 0.794345,-1.2328 0.773539,-1.02006 1.168034,-2.18644 0.08263,-0.24419 0.08231,-0.50804 0.206098,-0.74082 0.09178,-0.17236 0.229616,-0.54946 0.426112,-0.44729 2.733894,1.42128 2.053931,1.45753 1.232999,3.2641 -0.956089,5.80423 0.47677,-1.48022 -1.46157,4.37989 -0.228309,0.69039 -0.161024,1.42457 -0.325315,2.1265 -0.764623,3.26656 -0.421474,0.52303 -1.184137,3.53101 -0.105826,0.41684 -0.112358,0.84588 -0.168864,1.26881 -0.85624,2.23227 -0.185521,0.10682 -0.494081,2.44313 -0.03266,0.23766 -0.133589,0.46584 -0.217531,0.69512 -0.09701,0.26531 -0.0908,0.5837 -0.324009,0.78769 -0.377575,0.33024 -0.94482,0.97761 -1.409865,0.72873 -0.673365,-0.36038 -0.46965,-1.24019 -0.704459,-1.8603 0.580081,-2.19092 -0.221123,0.17759 1.638664,-2.6361 2.410962,-3.64767 -0.683784,-0.0535 2.044394,-3.61129 0.404359,-0.52735 0.917842,-0.996 1.368515,-1.4988 0.437347,-0.48793 0.863622,-0.98218 1.295449,-1.47327 0.29494,-0.3789 0.649913,-0.73191 0.885114,-1.13669 0.285795,-0.49198 1.362015,-4.86751 3.481892,-3.33602 0.53922,0.38955 0.07022,1.16074 0.105499,1.74112 0.162984,1.20598 -0.93156,2.18696 -1.089645,3.32605 -0.100273,0.72308 0.177356,1.44875 0.219817,2.17547 0.04083,0.69701 0.06043,1.39584 0.0294,2.09322 -0.02613,0.64993 -0.24856,1.29498 -0.202179,1.94421 0.04409,0.61316 0.313884,1.20242 0.470858,1.80362 -0.212304,1.12817 0.07741,2.21631 0.244967,3.3261 0.0196,0.12248 0.05814,0.24497 0.04932,0.36803 -0.01306,0.17263 -0.162005,0.10264 -0.03919,0.14808 -0.664774,-0.28637 -1.38233,-0.50543 -1.99429,-0.85915 -0.08329,-0.0483 0.177356,-0.0896 0.240721,-0.15435 0.09733,-0.0998 0.135548,-0.23061 0.232228,-0.33055 0.266197,-0.27467 0.572406,-0.52293 0.852223,-0.78874 1.170353,-1.1118 0.746201,-0.68073 1.796717,-2.05147 1.615669,-2.70735 0.132935,-0.44562 2.315392,-3.13211 0.452666,-0.55719 0.853138,-1.14042 1.282385,-1.70936 0.405371,-0.53735 0.877895,-1.04523 1.221436,-1.60945 0.282202,-0.46367 0.401223,-0.98124 0.646386,-1.45823 0.205772,-0.40018 0.469454,-0.77965 0.704198,-1.16949 0.04344,-0.40246 0.0294,-0.81144 0.130322,-1.20739 0.182582,-0.72175 1.397813,-3.29959 3.195248,-1.27907 0.495453,0.55693 -0.277303,1.34883 -0.409095,2.02415 -0.162331,0.83269 -0.315843,1.66651 -0.473504,2.49977 0.03266,1.01376 0.06238,2.02752 0.09374,3.04128 -0.101253,1.01768 -0.301473,2.03214 -0.303759,3.05303 -0.0019,0.9388 0.279589,1.86799 0.292,2.80677 0.01306,0.92805 -0.246926,1.85105 -0.21753,2.77883 0.325642,10.27039 0.580636,-4.90078 0.322703,4.93824 0.03691,0.32442 0.09309,1.77868 0.392306,2.36272 0.0356,0.0697 0.302778,0.15017 0.208711,0.152 -0.920617,0.0183 -1.862759,0.0663 -2.75986,-0.10003 -0.163311,-0.0303 0.01633,-0.27174 0.07382,-0.39804 0.158085,-0.35335 0.376824,-0.68741 0.565219,-1.03112 0.958212,-2.41002 -0.151552,-0.041 1.507591,-2.37954 1.232738,-1.73755 0.454299,-1.41794 2.150285,-2.98596 5.259827,-4.86289 -1.821278,2.41853 3.11823,-2.7792 2.214467,-3.43124 0.268811,-0.14286 1.869292,-3.69241 0.941293,-2.08742 0.98444,-1.46813 1.592872,-3.39238 0.509139,-1.6102 -0.232882,-0.6579 0.938125,-1.79519 0.402235,-0.53468 0.478828,-0.74523 1.048849,-1.13807 0.08721,-0.0601 -0.119544,0.15931 -0.200546,0.2246 -0.0196,0.0157 0.02286,-0.0546 -5.88e-4,-0.0622 -0.06696,-0.0209 -0.144367,-0.005 -0.216224,-0.008 0.08133,-1.43627 2.621797,-1.34413 2.540305,0.0922 l 0,0 c 0.02286,0.1883 0.140121,0.74743 -0.0294,0.938 -0.751591,0.84269 -0.85869,0.10942 -1.241524,0.88738 -0.116931,0.20188 -0.208385,0.41475 -0.351021,0.606 -0.510119,0.68451 -1.357671,1.3651 -1.732927,2.09077 -0.332534,0.64301 -0.388975,1.35899 -0.669772,2.01757 -0.236474,0.55463 -1.856227,3.49209 -2.145549,4.02223 -1.435211,1.74199 -1.147979,1.53099 -2.759632,3.00215 -0.445186,0.4064 -0.990253,0.74677 -1.374426,1.19117 -0.369671,0.4276 -0.555356,0.94055 -0.863982,1.39806 -1.193477,1.76935 -0.65896,0.51175 -1.209188,2.22255 -0.02286,0.19065 -0.08852,0.38146 -0.06402,0.57182 0.01633,0.12484 0.335539,0.31909 0.182582,0.34735 -0.800127,0.14782 -1.640689,0.0797 -2.461818,0.0736 -0.05618,-4.1e-4 -0.137834,-0.0496 -0.122156,-0.0927 0.08133,-0.22277 0.307678,-0.40086 0.384205,-0.6247 0.192708,-0.56312 0.278283,-1.1462 0.417293,-1.71927 -0.106152,-1.15416 -0.376563,-3.79818 -0.368071,-4.93371 0.0065,-0.92935 0.17115,-1.85484 0.186502,-2.78414 0.01633,-0.93938 -0.132936,-1.87844 -0.09439,-2.8174 0.04213,-1.02481 0.349028,-2.03906 0.335539,-3.06439 -0.01306,-1.02535 -0.277302,-2.0388 -0.416052,-3.0582 -0.02286,-0.82945 -0.02613,-1.65941 -0.06826,-2.48839 -0.01633,-0.30875 -0.412393,-0.73774 -0.103212,-0.92329 0.524751,-0.3151 1.298421,-0.19744 1.95454,-0.1883 0.128036,0.002 -0.210018,0.12536 -0.278609,0.2118 -0.515802,0.64902 -0.525306,1.06866 -0.774094,1.87725 -0.307679,0.52893 -1.365249,2.38217 -1.717805,2.84067 -0.405436,0.52726 -0.963536,0.97289 -1.366032,1.50159 -0.4332,0.56912 -0.745712,1.19174 -1.133216,1.78158 -1.217452,1.85313 -0.939791,1.4306 -2.287761,3.10296 -0.275996,0.4445 -0.514495,0.90509 -0.827661,1.3335 -1.246978,1.70581 -0.521975,0.17916 -1.182634,1.7446 -0.121177,0.28694 -0.206425,0.58451 -0.355006,0.86304 -0.07872,0.14729 -0.124116,0.43084 -0.322049,0.4054 -0.828968,-0.10682 -1.55923,-0.49859 -2.338844,-0.74789 -0.0098,-0.0439 -0.0033,-0.0935 -0.03332,-0.13189 -0.04409,-0.0582 -0.180949,-0.0789 -0.177029,-0.14677 0.0065,-0.12536 0.158738,-0.21912 0.204465,-0.33941 0.08002,-0.21128 0.142081,-0.42878 0.169844,-0.64852 0.07055,-0.55286 0.05063,-2.15711 0.05128,-2.58309 0.173763,-3.57392 0.04703,-0.002 0.0294,-3.77254 -0.0033,-0.92465 0.07578,-3.49567 0.111378,-4.39749 0.02613,-0.68979 0.03266,-1.38077 0.09799,-2.06891 0.04605,-0.48287 0.158411,-0.96028 0.237454,-1.4404 1.114435,0.54662 -0.417652,-0.058 1.646046,-0.38333 0.207731,-0.0326 -0.200873,0.29882 -0.275996,0.45693 -0.644295,1.35497 -1.082132,2.76862 -2.276819,3.91426 -0.466384,0.4099 -0.991233,0.78172 -1.399184,1.22972 -0.428268,0.47027 -0.731994,1.00558 -1.095361,1.50957 -0.643054,0.89193 -1.819809,2.47837 -2.307848,3.4254 -0.100599,0.19509 -0.837329,2.29299 -0.95537,2.62608 -2.179354,-1.21389 -0.19826,-0.55218 -2.170634,-0.0183 -0.172783,0.0468 0.124117,-0.27437 0.189768,-0.41049 0.126076,-0.2619 0.298859,-0.51154 0.385088,-0.78354 0.262604,-0.82776 0.265544,-1.69921 0.562802,-2.52214 0.160045,-0.4504 0.284162,-0.91005 0.480527,-1.35121 0.588998,-1.3236 1.175057,-1.86922 1.560275,-3.314 0.189441,-0.71016 0.09962,-1.45521 0.280895,-2.16669 0.358043,-1.40533 1.238388,-2.70482 1.461765,-4.14075 -0.472524,-2.91704 -0.854803,-0.9807 1.822553,-1.61172 0.225696,-0.0533 0.269137,-0.66537 0.07316,-0.56153 -0.301146,0.15931 -0.352262,0.5065 -0.479677,0.77668 -0.98346,2.08526 0.396748,0.17968 -1.612045,2.50513 -0.667158,0.47244 -1.421656,0.8762 -2.001443,1.41736 -0.723076,0.6749 -1.295515,1.44611 -1.877523,2.20323 -2.19046,2.84926 -3.697038,5.95609 -5.291118,9.03312 -0.783697,1.09657 -2.72318,0.2105 -1.939516,-0.88618 z"
         inkscape:connector-curvature="0" />
      <path
         style="display:inline;fill:#ff7f2a;stroke:#ff7f2a;stroke-width:0.87619424;stroke-linecap:round;stroke-linejoin:round;stroke-miterlimit:4;stroke-dasharray:none;stroke-opacity:1"
         id="path6431"
         d="m -49.491297,398.14652 c 0.781052,0.98764 1.663945,1.91939 2.682549,2.75895 0.285141,0.23505 0.593015,0.45155 0.883644,0.68214 0.247906,0.19665 0.487843,0.39976 0.731765,0.59963 1.371258,1.19257 -0.0065,0.0817 1.080629,0.78526 0.06565,0.0426 0.227003,0.1157 0.160045,0.1567 -0.98666,0.60632 -1.002338,-0.0878 -1.106955,-0.6264 0.08166,-0.96646 0.21753,-1.94825 0.01307,-2.91317 -0.07839,-0.37167 -0.238761,-0.72933 -0.363727,-1.09276 -0.560059,-1.62804 -0.213938,-0.48182 -0.643315,-2.00276 -0.08329,-0.28146 -0.180949,-0.56041 -0.249866,-0.84434 -0.05095,-0.21128 -0.09929,-0.42455 -0.109419,-0.63957 -0.0098,-0.17393 0.04148,-0.3464 0.05455,-0.52003 0.0098,-0.12431 0.0098,-0.24888 0.01307,-0.37346 0.0065,-0.22878 0.02286,-0.14834 -0.02613,-0.29347 0.05487,0.10891 0.0196,0.30844 0.164618,0.32648 0.24562,0.0306 0.470434,-0.30835 0.692798,-0.21964 0.245294,0.0977 0.154819,0.42565 0.295594,0.61366 0.227982,0.30415 0.540657,0.56228 0.800877,0.84938 2.505585,2.76439 -0.662749,-0.63392 2.042631,2.2459 2.702701,1.81096 0.03952,0.0596 2.616669,1.66508 0.317477,0.1977 0.61614,0.41462 0.934793,0.61128 0.14894,0.0917 0.297553,0.18751 0.466384,0.25332 0.05814,0.0235 0.230595,-0.0387 0.19434,0.005 -0.149593,0.17707 -0.383356,0.29775 -0.575051,0.44661 -0.101906,-0.0716 -0.228309,-0.12562 -0.305392,-0.21441 -0.389921,-0.44818 -0.21655,-1.10483 -0.386133,-1.59373 -0.108112,-0.31172 -0.322049,-0.59362 -0.468637,-0.89516 -0.156452,-0.32191 -0.29298,-0.64975 -0.439209,-0.97464 -0.656054,-1.12146 -0.355398,-0.54447 -0.866595,-1.6541 -0.112684,-0.24445 -0.2417,-0.48451 -0.338805,-0.73317 -0.08656,-0.22094 -0.142734,-0.44873 -0.211324,-0.67367 -0.210998,-0.69158 -0.14992,-0.42778 -0.242681,-1.04363 -0.0015,-0.14129 -0.05977,-0.38216 0.166251,-0.47203 0.489215,-0.19457 0.835108,0.14129 1.157288,0.38342 0.379339,0.28508 0.728792,0.59495 1.075371,0.90555 0.479449,0.42964 0.934565,0.87623 1.401863,1.31436 1.406697,1.26095 2.958969,2.40722 4.482564,3.57491 0.791504,0.60661 0.938288,0.8387 1.866386,1.2193 0.173763,0.0713 0.3731,0.0922 0.559634,0.13815 0.06206,-0.0104 0.236801,-0.0619 0.185522,-0.0321 -0.1509,0.0888 -0.308658,0.19509 -0.494474,0.21337 -0.07349,0.008 -0.08198,-0.0992 -0.112685,-0.15304 -0.538273,-0.94421 0.07382,0.14625 -0.22047,-0.69086 -0.03266,-0.093 -0.112031,-0.17132 -0.16821,-0.25698 -0.06794,-0.0966 -0.262278,-0.33539 -0.279262,-0.47399 -0.01307,-0.10264 0.04344,-0.2071 0.02286,-0.30903 -0.0294,-0.14835 -0.122483,-0.28436 -0.16821,-0.43004 -0.707823,-2.26123 0.422813,1.06774 -0.394462,-1.29842 -0.645307,-2.04097 0.189768,0.70631 -0.313231,-1.29697 -0.05128,-0.20397 -0.122156,-0.40524 -0.206098,-0.60221 -0.07316,-0.17185 -0.208712,-0.32583 -0.264891,-0.50167 -0.05291,-0.16532 -0.03299,-0.34027 -0.05814,-0.50966 -0.0196,-0.1345 -0.05259,-0.2677 -0.07872,-0.40154 -0.05259,-0.11465 -0.134895,-0.22304 -0.158085,-0.34359 -0.0196,-0.11099 0.0196,-0.22408 0.0294,-0.3363 0.01633,-0.20997 0.01306,-0.16714 0.0098,-0.34732 0.204465,-0.48796 1.06763,-0.25672 0.863034,0.23139 l 0,0 c -0.02286,-0.008 -0.05683,-0.0423 -0.06402,-0.0235 -0.01633,0.041 0.02613,0.0849 0.02286,0.1277 -0.04801,0.51745 -0.121177,-0.008 0.01633,0.57966 0.01633,0.14442 0.03658,0.28845 0.04605,0.43316 0.0098,0.15148 -0.0294,0.307 0.01307,0.45466 0.05291,0.18177 0.192054,0.34069 0.26979,0.51669 0.08525,0.19274 0.165924,0.38796 0.217857,0.58816 0.112358,0.43278 0.09178,0.88378 0.252153,1.31071 0.04344,0.22616 0.04573,0.45996 0.129995,0.67868 0.07676,0.19927 0.254113,0.36553 0.347331,0.56009 0.07676,0.15983 0.07316,0.34082 0.159718,0.49741 0.04932,0.0896 0.185521,0.13503 0.238434,0.22304 0.05879,0.0977 -0.0065,0.38326 -0.0196,0.46466 0.198913,0.27049 0.24268,0.29034 0.350335,0.58545 0.03887,0.10629 0.04409,0.2199 0.09047,0.32421 0.177356,0.39992 0.555127,0.50005 -0.265217,0.88187 -0.110398,0.0514 -0.22439,-0.0979 -0.33665,-0.14704 -0.176049,-0.1217 -0.350694,-0.24471 -0.52805,-0.36521 -0.26979,-0.18333 -0.556662,-0.35137 -0.813681,-0.54614 -1.560275,-1.1826 -0.42817,-0.45631 -2.084471,-1.94684 -0.998778,-0.89883 -2.179028,-1.66174 -3.141453,-2.58868 -0.547942,-0.36965 -1.079454,-0.75547 -1.643825,-1.10901 -0.394168,-0.24706 -0.826354,-0.45275 -1.22908,-0.69075 -0.109092,-0.0645 -0.267177,-0.11125 -0.304738,-0.21546 -0.0196,-0.0562 0.158738,-0.0183 0.204139,-0.064 0.03756,-0.0379 0.05324,-0.11805 0.003,-0.14495 -0.04246,-0.0235 -0.06696,0.0619 -0.1006,0.093 0.01633,0.12432 0.04834,0.24785 0.04965,0.37302 0.0024,0.1917 -0.06565,0.38373 -0.03822,0.57409 0.03266,0.21834 0.129996,0.42719 0.212631,0.63662 0.318784,0.80558 0.766713,1.5764 1.091572,2.38042 0.33518,0.63027 0.65086,1.26719 0.993944,1.89477 0.649652,1.1884 0.270443,0.29898 0.568617,1.1792 0.05879,0.17342 0.08721,0.0815 0.0098,0.20815 -0.110399,0.17002 -0.206752,0.34651 -0.331489,0.51024 -0.01307,0.0183 0.01306,-0.0499 -0.0065,-0.0666 -0.124116,-0.11387 -0.263911,-0.2165 -0.408212,-0.31392 -0.310292,-0.20971 -0.648248,-0.39247 -0.95377,-0.60652 -1.110222,-0.7778 -1.341046,-1.0316 -2.359552,-1.92232 -2.799774,-2.4902 0.312577,0.29785 -2.307097,-2.10775 -0.299839,-0.27534 -0.611175,-0.54262 -0.914412,-0.81561 -0.160698,-0.14469 -0.473471,-0.24393 -0.477521,-0.43748 -0.0065,-0.26168 0.163637,-0.57503 0.453776,-0.69626 0.167557,-0.07 0.126729,0.28485 0.189768,0.42726 -0.316171,-0.008 -0.06173,-0.0418 -0.09276,0.17289 -0.01633,0.10342 -0.105499,0.19144 -0.135222,0.29266 -0.182582,0.62374 -0.0797,1.26701 0.07512,1.88524 0.312904,0.83452 0.441496,1.1387 0.704688,2.01467 0.112685,0.37495 0.230595,0.74964 0.308985,1.1301 0.565219,2.74196 -0.119871,-0.30201 0.104845,2.16763 0.02286,0.23374 0.141428,0.45477 0.211978,0.68216 -0.0033,0.12327 -0.05128,0.24994 -0.01633,0.36976 0.0196,0.0635 0.208385,0.0833 0.169844,0.14076 -0.136855,0.2045 -0.412459,0.32703 -0.600855,0.50342 -0.0196,0.0183 0.09407,0.003 0.08264,-0.0183 -0.07153,-0.13163 -0.177356,-0.25124 -0.290041,-0.3632 -0.190421,-0.18934 -0.410956,-0.35798 -0.616434,-0.53698 -0.215571,-0.22669 -0.414418,-0.46414 -0.646516,-0.68009 -0.324989,-0.30243 -1.404705,-1.15484 -1.745012,-1.42428 -0.285795,-0.22643 -0.604219,-0.42891 -0.860814,-0.67676 -0.223083,-0.21546 -0.353633,-0.48459 -0.569302,-0.70475 -0.189441,-0.19326 -0.426765,-0.35335 -0.640147,-0.53 -0.29592,-0.31536 0.261951,-0.6498 0.55774,-0.33447 z"
         inkscape:connector-curvature="0" />
      <path
         inkscape:connector-curvature="0"
         d="m 355.74088,492.22026 c 1.11382,1.40846 2.37288,2.73718 3.82547,3.93446 0.40664,0.33518 0.84569,0.64392 1.26014,0.97275 0.35354,0.28044 0.69571,0.5701 1.04353,0.85513 1.95552,1.70067 -0.01,0.11648 1.54107,1.11982 0.0937,0.0609 0.32368,0.16505 0.2283,0.22355 -1.40702,0.86464 -1.42939,-0.12509 -1.57856,-0.89328 0.1166,-1.37824 0.31029,-2.77833 0.0196,-4.15438 -0.11171,-0.53 -0.34047,-1.04006 -0.51868,-1.55833 -0.79869,-2.3217 -0.30507,-0.68713 -0.91742,-2.85606 -0.11889,-0.40138 -0.25803,-0.79919 -0.35634,-1.2041 -0.0725,-0.3013 -0.14176,-0.60543 -0.15613,-0.91206 -0.0131,-0.2481 0.0591,-0.49399 0.0777,-0.74157 0.0131,-0.17733 0.0131,-0.35495 0.0196,-0.53259 0.01,-0.32625 0.0327,-0.21154 -0.0372,-0.41852 0.0784,0.1554 0.0294,0.43985 0.23484,0.46561 0.35027,0.0436 0.67085,-0.43975 0.98797,-0.31324 0.34981,0.1392 0.2208,0.60699 0.42154,0.87513 0.32499,0.43371 0.77099,0.80185 1.1421,1.21125 3.57312,3.94221 -0.94515,-0.90399 2.91291,3.2028 3.85421,2.58254 0.0562,0.0849 3.73153,2.3745 0.45273,0.28193 0.87865,0.59128 1.33308,0.87171 0.21231,0.13085 0.42432,0.26743 0.6651,0.36127 0.083,0.0334 0.32885,-0.0551 0.27698,0.008 -0.21329,0.25254 -0.5467,0.42462 -0.82009,0.63689 -0.14534,-0.10211 -0.32564,-0.17915 -0.43548,-0.30574 -0.55608,-0.63914 -0.30866,-1.57557 -0.55065,-2.27275 -0.15417,-0.44455 -0.45927,-0.84656 -0.66831,-1.27657 -0.22308,-0.45907 -0.41781,-0.92658 -0.62636,-1.38988 -0.93558,-1.59929 -0.50682,-0.77647 -1.23581,-2.35886 -0.1607,-0.3486 -0.34468,-0.69096 -0.48314,-1.04554 -0.12346,-0.31509 -0.20348,-0.63993 -0.30147,-0.96071 -0.30082,-0.98624 -0.21394,-0.61003 -0.34609,-1.48827 -0.002,-0.20162 -0.0852,-0.545 0.23713,-0.67315 0.69763,-0.27746 1.1909,0.20136 1.65036,0.54677 0.54095,0.40656 1.03931,0.84844 1.53355,1.29138 0.68372,0.61269 1.33275,1.24956 1.99913,1.87437 2.00605,1.79819 4.2197,3.43284 6.39242,5.09804 1.12874,0.86505 1.33807,1.19602 2.66158,1.73877 0.24791,0.1016 0.53207,0.13137 0.79807,0.19692 0.0885,-0.0157 0.33769,-0.0883 0.26456,-0.0457 -0.21524,0.12666 -0.44015,0.27822 -0.70514,0.30428 -0.10485,0.0105 -0.11693,-0.14155 -0.1607,-0.21833 -0.76759,-1.34651 0.10517,0.20867 -0.31454,-0.98519 -0.0467,-0.13267 -0.15972,-0.24445 -0.23974,-0.36649 -0.097,-0.1379 -0.37401,-0.47827 -0.39825,-0.67592 -0.0196,-0.14625 0.0621,-0.29535 0.0327,-0.44071 -0.0418,-0.21154 -0.17474,-0.40551 -0.23974,-0.61327 -1.00939,-3.22463 0.60298,1.52269 -0.56251,-1.85162 -0.92025,-2.91054 0.27077,1.00726 -0.44668,-1.84956 -0.0732,-0.29086 -0.17409,-0.5779 -0.29396,-0.85878 -0.1042,-0.24497 -0.29756,-0.46466 -0.37774,-0.71541 -0.0755,-0.23583 -0.047,-0.48527 -0.083,-0.72682 -0.0294,-0.19169 -0.0751,-0.38174 -0.11235,-0.57262 -0.0751,-0.16349 -0.19238,-0.31805 -0.22537,-0.48997 -0.0294,-0.15827 0.0294,-0.31956 0.0418,-0.47958 0.0229,-0.29945 0.0196,-0.23844 0.0131,-0.49532 0.29167,-0.69584 1.52252,-0.3661 1.23075,0.32998 l 0,0 c -0.0327,-0.0105 -0.081,-0.0603 -0.0915,-0.0334 -0.0229,0.0585 0.0372,0.12092 0.0327,0.18203 -0.0686,0.73792 -0.17278,-0.0104 0.0229,0.82664 0.0229,0.20606 0.0523,0.41136 0.0656,0.6177 0.0131,0.21598 -0.0418,0.43782 0.0196,0.64839 0.0754,0.25908 0.27403,0.48585 0.38472,0.73682 0.12151,0.27485 0.2368,0.55325 0.31062,0.83876 0.16037,0.61715 0.13098,1.26032 0.35958,1.86914 0.0621,0.32254 0.0653,0.65594 0.18552,0.96785 0.10942,0.28417 0.36239,0.52125 0.49532,0.79871 0.10942,0.228 0.1042,0.48603 0.22766,0.70935 0.0702,0.12771 0.26456,0.19248 0.34005,0.31807 0.0839,0.1392 -0.01,0.54654 -0.0294,0.66263 0.28351,0.38573 0.34609,0.41404 0.4996,0.83488 0.0555,0.15148 0.0627,0.31361 0.12902,0.46234 0.2528,0.57033 0.79166,0.71311 -0.3782,1.25761 -0.15743,0.0734 -0.32009,-0.13972 -0.4801,-0.20972 -0.25117,-0.17341 -0.50012,-0.34896 -0.75303,-0.52081 -0.38473,-0.26145 -0.79382,-0.50107 -1.16036,-0.77881 -2.22505,-1.68647 -0.61058,-0.65075 -2.97259,-2.77633 -1.4243,-1.28179 -3.10742,-2.36974 -4.47991,-3.69162 -0.78138,-0.52714 -1.53938,-1.07735 -2.34417,-1.5815 -0.56212,-0.35234 -1.17846,-0.64565 -1.75276,-0.98506 -0.15547,-0.0919 -0.381,-0.15853 -0.43457,-0.30726 -0.0294,-0.0802 0.22635,-0.0261 0.29102,-0.0911 0.0536,-0.0541 0.0758,-0.16845 0.003,-0.20684 -0.0604,-0.0334 -0.0954,0.0883 -0.14339,0.13267 0.0229,0.17733 0.0689,0.35346 0.0709,0.53197 0.003,0.27336 -0.0937,0.54721 -0.0546,0.81867 0.0467,0.31136 0.18552,0.60919 0.30311,0.90785 0.45459,1.14881 1.09337,2.24807 1.55665,3.39463 0.47798,0.8988 0.92816,1.8071 1.41741,2.70208 0.92646,1.69471 0.38567,0.42635 0.8109,1.6816 0.0839,0.24733 0.12445,0.11622 0.0131,0.29684 -0.15743,0.24236 -0.29494,0.49415 -0.47272,0.72763 -0.0196,0.0261 0.0196,-0.071 -0.01,-0.0951 -0.17703,-0.16245 -0.37634,-0.30875 -0.58214,-0.44766 -0.44248,-0.29906 -0.92444,-0.5597 -1.36012,-0.86495 -1.58324,-1.10919 -1.91241,-1.47111 -3.36486,-2.74136 -3.99267,-3.55117 0.44574,0.42479 -3.29007,-3.00575 -0.42758,-0.39266 -0.87159,-0.77383 -1.30401,-1.16312 -0.22929,-0.20632 -0.67519,-0.34787 -0.68097,-0.62387 -0.01,-0.37317 0.23321,-0.82003 0.6471,-0.99292 0.23909,-0.0998 0.18062,0.40622 0.27077,0.6093 -0.45087,-0.0104 -0.0879,-0.0596 -0.13228,0.24654 -0.0229,0.14755 -0.15057,0.27299 -0.19271,0.41734 -0.26031,0.88949 -0.11366,1.80683 0.10714,2.68847 0.44623,1.19007 0.62962,1.62386 1.00495,2.87303 0.16069,0.53471 0.32884,1.06905 0.44061,1.61161 0.80604,3.91019 -0.17082,-0.43068 0.14959,3.09119 0.0327,0.33332 0.20153,0.64852 0.30213,0.97278 -0.003,0.17576 -0.0732,0.35643 -0.0229,0.52731 0.0294,0.0904 0.29722,0.11883 0.24235,0.20084 -0.19532,0.29161 -0.58822,0.46636 -0.85686,0.71791 -0.0294,0.0261 0.13424,0.003 0.11791,-0.0261 -0.10191,-0.18777 -0.25281,-0.35829 -0.41364,-0.51796 -0.27142,-0.27002 -0.58602,-0.5105 -0.87907,-0.76576 -0.30735,-0.32327 -0.59099,-0.66189 -0.92195,-0.96986 -0.46348,-0.43128 -2.00321,-1.64687 -2.48851,-2.03112 -0.40756,-0.3229 -0.86166,-0.61164 -1.22757,-0.96507 -0.31813,-0.30726 -0.50431,-0.69107 -0.81186,-1.00504 -0.27011,-0.27558 -0.60859,-0.50389 -0.91291,-0.75581 -0.42199,-0.44972 0.37356,-0.92666 0.7954,-0.47699 z"
         id="path6433"
         style="display:inline;fill:#ff7f2a;stroke:#ff7f2a;stroke-width:1.24950743;stroke-linecap:round;stroke-linejoin:round;stroke-miterlimit:4;stroke-dasharray:none;stroke-opacity:1" />
    </g>
  </g>
</svg>
