<?xml version="1.0" encoding="UTF-8" standalone="no"?>
<!-- Created with Inkscape (http://www.inkscape.org/) -->

<svg
   xmlns:dc="http://purl.org/dc/elements/1.1/"
   xmlns:cc="http://creativecommons.org/ns#"
   xmlns:rdf="http://www.w3.org/1999/02/22-rdf-syntax-ns#"
   xmlns:svg="http://www.w3.org/2000/svg"
   xmlns="http://www.w3.org/2000/svg"
   xmlns:sodipodi="http://sodipodi.sourceforge.net/DTD/sodipodi-0.dtd"
   xmlns:inkscape="http://www.inkscape.org/namespaces/inkscape"
   width="500"
   height="500"
   viewBox="0 0 500 500"
   id="svg4440"
   version="1.1"
   inkscape:version="0.91 r13725"
   sodipodi:docname="logo_favicon.svg"
   inkscape:export-filename="/home/kinow/Pictures/logos/biojava/v5/logo_favicon.png"
   inkscape:export-xdpi="90"
   inkscape:export-ydpi="90">
  <defs
     id="defs4442" />
  <sodipodi:namedview
     id="base"
     pagecolor="#ffffff"
     bordercolor="#666666"
     borderopacity="1.0"
     inkscape:pageopacity="0.0"
     inkscape:pageshadow="2"
     inkscape:zoom="0.98994949"
     inkscape:cx="219.72917"
     inkscape:cy="242.55803"
     inkscape:document-units="px"
     inkscape:current-layer="layer1"
     showgrid="false"
     units="px"
     inkscape:window-width="1600"
     inkscape:window-height="851"
     inkscape:window-x="0"
     inkscape:window-y="25"
     inkscape:window-maximized="1" />
  <metadata
     id="metadata4445">
    <rdf:RDF>
      <cc:Work
         rdf:about="">
        <dc:format>image/svg+xml</dc:format>
        <dc:type
           rdf:resource="http://purl.org/dc/dcmitype/StillImage" />
        <dc:title></dc:title>
      </cc:Work>
    </rdf:RDF>
  </metadata>
  <g
     inkscape:label="Layer 1"
     inkscape:groupmode="layer"
     id="layer1"
     transform="translate(0,-552.3622)">
    <g
       id="g8328"
       transform="matrix(9.7775745,0,0,10.000566,2640.1959,-4994.074)">
      <g
         id="g5185"
         transform="translate(-1162.2579,163.97176)"
         style="display:inline;opacity:1">
        <g
           id="g5187">
          <rect
             y="83.37133"
             x="893.80096"
             height="48"
             width="48"
             id="rect5189"
             style="display:inline;fill:#ececec;stroke:#808080;stroke-width:0.1;stroke-miterlimit:4;stroke-dasharray:0.80000001, 0.80000001;stroke-dashoffset:0;stroke-opacity:1"
             transform="translate(0,308.26772)" />
          <path
             sodipodi:nodetypes="csssscsccccccssccccsscccscsccccsscscscccc"
             inkscape:connector-curvature="0"
             id="path5191"
             style="font-style:normal;font-variant:normal;font-weight:normal;font-stretch:normal;font-size:90px;line-height:125%;font-family:Ranchers;-inkscape-font-specification:Ranchers;letter-spacing:0px;word-spacing:0px;display:inline;fill:#241c1c;fill-opacity:1;stroke:none;stroke-width:1px;stroke-linecap:butt;stroke-linejoin:miter;stroke-opacity:1"
             d="m 912.45585,410.71522 c 0.379,0.0541 0.69032,0.0812 0.93397,0.0812 l 0.77154,0 c 1.46187,0 2.62595,-0.27071 3.49224,-0.81215 0.86629,-0.54143 1.29944,-1.25883 1.29944,-2.15219 0,-0.81215 -0.37901,-1.43479 -1.13701,-1.86794 -0.73093,-0.43315 -1.8138,-0.64972 -3.2486,-0.64972 -0.46022,0 -0.87982,0.0271 -1.25882,0.0812 -0.35194,0.0271 -0.63619,0.0812 -0.85276,0.16242 z m -6.37536,22.45589 c 0.0271,-1.24529 0.0406,-2.44998 0.0406,-3.61406 0.0271,-1.19115 0.0406,-2.35523 0.0406,-3.49223 0.0271,-1.16408 0.0406,-2.32816 0.0406,-3.49224 l 0,-3.61406 c 0,-3.54638 -0.0581,-6.97486 -0.11221,-10.22345 -0.0271,-3.24859 -0.0947,-6.14525 -0.20304,-8.68998 0.67199,-0.87424 0.6699,-0.87335 1.37524,-1.7765 1.09432,-0.0371 2.4541,1.37255 3.29461,1.32981 1.59723,-0.10828 3.03203,-0.16243 4.30439,-0.16243 7.52591,0 11.31985,2.21026 11.31985,6.56879 0,1.70551 -1.44702,2.55513 -2.44867,3.77335 -0.97457,1.19116 -5.33524,1.30984 -6.95953,1.58056 2.62594,0.48729 8.55545,2.72696 9.77367,4.27004 1.21822,1.51601 1.82733,3.6682 1.82733,6.45658 0,3.92538 -1.21822,6.83558 -3.65466,8.73059 -2.43645,1.86794 -6.22648,2.80191 -11.37008,2.80191 -1.00165,0 -2.12512,-0.0406 -3.37042,-0.12182 -1.21821,-0.0541 -2.51765,-0.16243 -3.8983,-0.32486 z m 6.37536,-10.92339 c 0.27071,0.0812 0.67679,0.1489 1.21822,0.20304 0.54143,0.0541 1.06933,0.0812 1.58369,0.0812 1.70551,0 2.99142,-0.27071 3.8577,-0.81214 0.89336,-0.54144 1.34005,-1.31298 1.34005,-2.31463 0,-1.02872 -0.47375,-1.8138 -1.42126,-2.35523 -0.92043,-0.54143 -2.20634,-0.81215 -3.8577,-0.81215 -0.35193,0 -0.74447,0.0135 -1.17762,0.0406 -0.40607,0.0271 -0.92044,0.0677 -1.54308,0.12182 l 0,5.84747 z" />
          <path
             inkscape:connector-curvature="0"
             id="path5193"
             style="font-style:normal;font-variant:normal;font-weight:normal;font-stretch:normal;font-size:90px;line-height:125%;font-family:Ranchers;-inkscape-font-specification:Ranchers;letter-spacing:0px;word-spacing:0px;fill:#ffdd55;fill-opacity:1;stroke:none;stroke-width:1px;stroke-linecap:butt;stroke-linejoin:miter;stroke-opacity:1"
             d="m 914.16368,409.43643 q 0.5554,0.0793 0.91244,0.0793 0.35704,0 0.75376,0 2.14226,0 3.41174,-0.79343 1.26949,-0.79343 1.26949,-2.10258 0,-1.19015 -1.1108,-1.82489 -1.07113,-0.63474 -3.17372,-0.63474 -0.67441,0 -1.22981,0.0793 -0.51573,0.0397 -0.8331,0.15868 l 0,5.03828 z m -6.22842,21.93832 q 0.0397,-1.82489 0.0397,-3.53076 0.0397,-1.74555 0.0397,-3.41175 0.0397,-1.70587 0.0397,-3.41174 0,-1.70588 0,-3.53076 0,-5.19697 -0.0793,-9.95754 -0.0397,-4.76058 -0.19836,-8.48969 2.2216,-0.31737 4.56222,-0.43639 2.34062,-0.15868 4.20517,-0.15868 11.02867,0 11.02867,6.3871 0,2.4993 -1.46784,4.28452 -1.42818,1.74554 -3.80846,2.14226 3.84813,0.71408 5.63334,2.97536 1.78522,2.2216 1.78522,6.30776 0,5.75236 -3.57043,8.52936 -3.57043,2.73733 -11.10801,2.73733 -1.46785,0 -3.29273,-0.11901 -1.78522,-0.0793 -3.80846,-0.31737 z m 6.22842,-10.67163 q 0.39671,0.11902 1.19014,0.19836 0.79343,0.0793 1.54719,0.0793 2.4993,0 3.76879,-0.79343 1.30915,-0.79342 1.30915,-2.26127 0,-1.50751 -1.3885,-2.30094 -1.34883,-0.79343 -3.76879,-0.79343 -0.51572,0 -1.15047,0.0397 -0.59507,0.0397 -1.50751,0.11901 l 0,5.71269 z" />
          <path
             d="m 913.79679,408.90856 q 0.5685,0.0812 0.93396,0.0812 0.36547,0 0.77155,0 2.1928,0 3.49223,-0.81215 1.29944,-0.81215 1.29944,-2.15219 0,-1.21822 -1.13701,-1.86794 -1.0964,-0.64972 -3.24859,-0.64972 -0.69033,0 -1.25883,0.0812 -0.5279,0.0406 -0.85275,0.16243 l 0,5.15715 z m -6.37537,22.45589 q 0.0406,-1.86794 0.0406,-3.61406 0.0406,-1.78673 0.0406,-3.49224 0.0406,-1.74611 0.0406,-3.49223 0,-1.74612 0,-3.61406 0,-5.31957 -0.0812,-10.19246 -0.0406,-4.87289 -0.20304,-8.68998 2.27402,-0.32486 4.66985,-0.44669 2.39584,-0.16243 4.30439,-0.16243 11.28886,0 11.28886,6.5378 0,2.55826 -1.50248,4.3856 -1.46186,1.78672 -3.89831,2.1928 3.93892,0.73093 5.76625,3.04555 1.82734,2.27401 1.82734,6.45658 0,5.88807 -3.65467,8.73059 -3.65467,2.80191 -11.37007,2.80191 -1.50248,0 -3.37042,-0.12182 -1.82733,-0.0812 -3.89831,-0.32486 z m 6.37537,-10.92339 q 0.40607,0.12182 1.21822,0.20304 0.81214,0.0812 1.58369,0.0812 2.55826,0 3.8577,-0.81215 1.34004,-0.81215 1.34004,-2.31462 0,-1.54308 -1.42125,-2.35523 -1.38066,-0.81215 -3.85771,-0.81215 -0.52789,0 -1.17762,0.0406 -0.60911,0.0406 -1.54307,0.12182 l 0,5.84747 z"
             style="font-style:normal;font-variant:normal;font-weight:normal;font-stretch:normal;font-size:90px;line-height:125%;font-family:Ranchers;-inkscape-font-specification:Ranchers;letter-spacing:0px;word-spacing:0px;fill:#ffdd55;fill-opacity:1;stroke:none;stroke-width:1px;stroke-linecap:butt;stroke-linejoin:miter;stroke-opacity:1"
             id="path5195"
             inkscape:connector-curvature="0" />
        </g>
      </g>
      <path
         inkscape:connector-curvature="0"
         id="path4695"
         d="m -245.97679,561.83004 c -1.25757,0 -2.67593,0.053 -4.25459,0.15997 -1.57865,0.0802 -3.11699,0.22757 -4.61537,0.44162 0.10704,2.51515 0.17407,5.37833 0.20082,8.58916 0.0536,3.21082 0.08,6.56885 0.08,10.074 l 0,3.57214 c 0,1.15055 -0.0133,2.30078 -0.04,3.45133 0,1.12379 -0.0133,2.27486 -0.04,3.45217 0,1.15054 -0.0133,2.34048 -0.0399,3.57129 1.3646,0.16055 2.6489,0.26814 3.85295,0.32165 1.23082,0.0802 2.34134,0.11998 3.33134,0.11998 0.0735,0 0.14402,-0.003 0.21698,-0.003 0.0397,1.4e-4 0.0858,0.003 0.12509,0.003 4.96663,0 8.62676,-0.9014 10.97938,-2.70506 2.35261,-1.82981 3.52875,-4.63971 3.52875,-8.43004 0,-0.0374 -0.003,-0.0718 -0.003,-0.10892 4.3e-4,-0.0518 0.003,-0.10182 0.003,-0.15401 0,-2.75595 -0.60244,-4.8835 -1.80649,-6.38187 -1.02475,-1.29801 -2.55817,-2.21396 -4.5907,-2.75612 1.13857,-0.35348 2.08327,-0.98082 2.82844,-1.89159 0.96719,-1.17631 1.45081,-2.58819 1.45081,-4.23502 0,-0.29566 -0.0194,-0.58027 -0.0553,-0.85516 -0.12976,-4.1562 -3.84582,-6.23552 -11.15211,-6.23552 z m -0.006,6.42441 c 1.38543,0 2.4307,0.20889 3.13648,0.62713 0.37934,0.21676 0.65882,0.4831 0.84156,0.79816 0.0249,0.13385 0.0417,0.27151 0.0417,0.4178 0,0.88298 -0.42782,1.59215 -1.28404,2.12729 -0.85622,0.53515 -2.0073,0.80242 -3.45217,0.80242 l -0.76241,0 c -0.15562,0 -0.34928,-0.0151 -0.56076,-0.0374 l 0,-4.50049 c 0.20912,-0.0784 0.48387,-0.13043 0.82368,-0.15657 0.36597,-0.0523 0.77158,-0.0783 1.21596,-0.0783 z m 0.58799,10.54712 c 1.59455,0 2.8357,0.26174 3.72446,0.78454 0.43789,0.25022 0.76811,0.55589 0.99643,0.91389 0.13011,0.31208 0.1957,0.65742 0.1957,1.03642 0,0.99 -0.44104,1.75212 -1.32402,2.28727 -0.85622,0.53512 -2.12728,0.80326 -3.81296,0.80326 -0.50838,0 -1.03055,-0.0273 -1.56568,-0.0808 -0.34194,-0.0342 -0.60887,-0.0757 -0.84157,-0.12083 l 0,-5.46714 c 0.60123,-0.0523 1.09786,-0.0913 1.48996,-0.11743 0.41824,-0.0262 0.79786,-0.0391 1.13768,-0.0391 z"
         style="font-style:normal;font-variant:normal;font-weight:normal;font-stretch:normal;font-size:90px;line-height:125%;font-family:Ranchers;-inkscape-font-specification:Ranchers;letter-spacing:0px;word-spacing:0px;display:inline;opacity:1;fill:#ffdd55;fill-opacity:1;stroke:none;stroke-width:1px;stroke-linecap:butt;stroke-linejoin:miter;stroke-opacity:1" />
      <g
         transform="matrix(0.43566941,0,0,0.43566941,-307.80526,366.82032)"
         id="g4697"
         style="display:inline">
        <path
           sodipodi:nodetypes="ssssssss"
           inkscape:connector-curvature="0"
           id="path4699"
           d="m 150.79382,510.83798 c -0.58121,0.90216 -2.56724,1.28436 -4.24376,1.31186 -1.37916,0.0226 -2.9837,-0.34622 -4.68087,-0.8182 -2.15369,-0.59889 -3.91664,-1.61855 -5.28978,-2.34465 -0.6015,-0.31807 -1.15696,-0.84152 -1.52475,-1.33362 -0.40833,-0.54636 -0.60372,-1.0456 -0.47367,-1.49617 0.45177,-1.56521 1.778,-2.37995 8.92463,-0.49366 4.53605,1.19726 7.96874,4.1181 7.2882,5.17444 z"
           style="fill:#ff5555;fill-rule:evenodd;stroke:none;stroke-width:0.1;stroke-linecap:butt;stroke-linejoin:miter;stroke-miterlimit:4;stroke-dasharray:none;stroke-opacity:1" />
        <g
           id="g4701">
          <path
             sodipodi:nodetypes="ssssssss"
             inkscape:connector-curvature="0"
             id="path4703"
             d="m 150.37102,510.68328 c -0.55097,0.85521 -2.43364,1.21753 -4.02291,1.24359 -1.30739,0.0214 -2.82842,-0.3282 -4.43727,-0.77562 -2.04159,-0.56777 -3.71281,-1.53431 -5.01449,-2.22263 -0.5702,-0.30151 -1.09675,-0.79773 -1.4454,-1.26421 -0.38708,-0.51793 -0.5723,-0.99118 -0.44902,-1.41832 0.42826,-1.48375 1.68547,-2.25608 8.46018,-0.46795 4.29998,1.13494 7.55404,3.90378 6.90891,4.90514 z"
             style="fill:none;fill-rule:evenodd;stroke:#000000;stroke-width:0.1;stroke-linecap:butt;stroke-linejoin:miter;stroke-miterlimit:4;stroke-dasharray:none;stroke-opacity:1" />
          <path
             style="fill:none;fill-rule:evenodd;stroke:#000000;stroke-width:0.2;stroke-linecap:butt;stroke-linejoin:miter;stroke-miterlimit:4;stroke-dasharray:none;stroke-opacity:1"
             d="m 136.74195,506.71071 c -0.0375,0.3661 -0.0737,0.80251 0.13043,1.08165 0.12869,0.17602 0.38827,0.32597 0.58706,0.2334 0.23557,-0.10969 0.10649,-0.62517 0.33372,-0.75591 0.33818,-0.19463 0.89261,-0.12169 1.09443,0.20945 0.2595,0.42576 -0.48735,1.08662 -0.29507,1.55537 0.16086,0.39214 0.63718,0.71481 1.03417,0.61818 0.54184,-0.1319 0.50315,-1.44245 1.05192,-1.44341 0.31807,-6e-4 0.45307,0.50245 0.52899,0.83452 0.0878,0.38394 -0.31734,0.87853 -0.11612,1.20223 0.18007,0.28967 0.64511,0.44568 0.94167,0.27187 0.33615,-0.19701 0.0818,-0.92301 0.394,-1.16462 0.24198,-0.18731 0.65361,-0.20473 0.86766,-0.005 0.32684,0.3047 -0.10293,1.07199 0.18739,1.4177 0.27774,0.33072 0.84102,0.53721 1.21955,0.30942 0.39566,-0.23807 0.0757,-1.14396 0.47423,-1.37582 0.22977,-0.13369 0.55198,0.0206 0.72846,0.21031 0.22088,0.23746 0.0186,0.76808 0.25333,0.98931 0.25819,0.24331 0.71079,0.31548 1.03472,0.14959 0.52668,-0.26974 1.06806,-0.99374 0.96161,-1.59733 -0.0569,-0.32258 -0.46304,-0.62728 -0.75557,-0.51642 -0.13176,0.0499 -0.0309,0.36498 -0.16046,0.42241 -0.22652,0.10046 -0.5044,-0.12127 -0.63541,-0.33259 -0.20841,-0.33625 0.13006,-0.90796 -0.085,-1.23899 -0.30036,-0.46231 -0.93153,-0.87144 -1.44208,-0.67202 -0.40834,0.15951 -0.24607,1.05746 -0.64693,1.24075 -0.19277,0.0881 -0.45424,-0.0204 -0.58064,-0.18898 -0.29157,-0.38873 0.16164,-1.14701 -0.13556,-1.53057 -0.25756,-0.33238 -0.79116,-0.52557 -1.17264,-0.33855 -0.44208,0.21676 -0.24052,1.2101 -0.69235,1.39808 -0.19638,0.0817 -0.42668,-0.0876 -0.56361,-0.24796 -0.27772,-0.32528 -0.0546,-1.01422 -0.38063,-1.28174 -0.18304,-0.15016 -0.50629,-0.18489 -0.70281,-0.0325 -0.26998,0.20946 -0.0106,0.8391 -0.29525,1.02267 -0.15339,0.0989 -0.38712,0.0105 -0.50317,-0.12393 -0.27417,-0.31775 0.10717,-1.03185 -0.19802,-1.31423 -0.33772,-0.31249 -0.97734,-0.29539 -1.36368,-0.0102 -0.31232,0.23051 -0.11121,0.90472 -0.42387,1.13469 -0.0653,0.0481 -0.17795,0.0557 -0.23025,-0.003 -0.17253,-0.19221 0.23307,-0.71391 0.008,-0.82856 -0.1102,-0.0562 -0.22852,0.14117 -0.30406,0.25311 -0.087,0.12885 -0.13245,0.2915 -0.14837,0.44722 z"
             id="path4705"
             inkscape:connector-curvature="0"
             sodipodi:nodetypes="ssssssssssssssssssssssssssssssssssssssssss" />
        </g>
      </g>
      <g
         transform="matrix(0.3383902,-0.07410412,0.0499074,0.31243858,-317.20505,436.5927)"
         id="g4707"
         style="display:inline">
        <path
           style="fill:#ff5555;fill-rule:evenodd;stroke:none;stroke-width:1px;stroke-linecap:butt;stroke-linejoin:miter;stroke-opacity:1"
           d="m 155.0625,479.50073 c -0.30817,1.02798 -2.11025,1.94607 -3.71336,2.43752 -1.31877,0.40428 -2.96265,0.49498 -4.72414,0.51228 -2.2353,0.022 -4.21191,-0.46864 -5.73257,-0.78537 -0.66613,-0.13874 -1.34499,-0.48758 -1.83484,-0.85835 -0.54386,-0.41166 -0.87006,-0.83711 -0.87009,-1.30608 -1.2e-4,-1.6291 1.04808,-2.77974 8.4375,-2.94979 4.69015,-0.10793 8.79833,1.74614 8.4375,2.94979 z"
           id="path4709"
           inkscape:connector-curvature="0"
           sodipodi:nodetypes="ssssssss" />
        <path
           sodipodi:nodetypes="ssssssss"
           inkscape:connector-curvature="0"
           id="path4711"
           d="m 154.61338,479.46938 c -0.29214,0.97448 -2.00043,1.8448 -3.52011,2.31067 -1.25014,0.38324 -2.80847,0.46922 -4.47829,0.48562 -2.11897,0.0208 -3.99271,-0.44425 -5.43424,-0.7445 -0.63146,-0.13152 -1.27499,-0.46221 -1.73935,-0.81368 -0.51555,-0.39024 -0.82478,-0.79354 -0.82481,-1.23811 -1.1e-4,-1.54432 0.99354,-2.63507 7.9984,-2.79627 4.44606,-0.10232 8.34046,1.65526 7.9984,2.79627 z"
           style="fill:none;fill-rule:evenodd;stroke:#000000;stroke-width:0.09479585;stroke-linecap:butt;stroke-linejoin:miter;stroke-miterlimit:4;stroke-dasharray:none;stroke-opacity:1" />
        <path
           style="fill:none;fill-rule:evenodd;stroke:#000000;stroke-width:0.18799999;stroke-linecap:butt;stroke-linejoin:miter;stroke-miterlimit:4;stroke-dasharray:none;stroke-opacity:1"
           d="m 140.4172,479.43312 c 0.0655,0.36214 0.15184,0.79145 0.42534,1.00303 0.17246,0.13341 0.46345,0.20548 0.62876,0.0614 0.1959,-0.17073 -0.0711,-0.63018 0.11095,-0.81882 0.27092,-0.28079 0.82383,-0.3645 1.10958,-0.10234 0.36742,0.33708 -0.16682,1.17917 0.14794,1.57619 0.26332,0.33213 0.81045,0.51002 1.16506,0.30706 0.48399,-0.27702 0.0833,-1.52541 0.61027,-1.67855 0.30542,-0.0888 0.57466,0.35706 0.73971,0.65504 0.19085,0.34452 -0.0612,0.93208 0.22191,1.18727 0.25335,0.22835 0.74342,0.24925 0.98013,0 0.26832,-0.28252 -0.17739,-0.90949 0.0555,-1.22821 0.18053,-0.24708 0.57118,-0.37799 0.83218,-0.24564 0.39853,0.20209 0.19846,1.05848 0.57328,1.31009 0.35857,0.24071 0.95703,0.28285 1.25752,-0.041 0.3141,-0.33847 -0.24458,-1.12006 0.074,-1.45337 0.18367,-0.19218 0.53602,-0.13334 0.75821,0 0.27808,0.16687 0.2309,0.73278 0.5178,0.88022 0.31555,0.16214 0.77041,0.10594 1.03561,-0.14329 0.43119,-0.40525 0.75051,-1.25101 0.48081,-1.80138 -0.14414,-0.29414 -0.61886,-0.47423 -0.86916,-0.28658 -0.11275,0.0845 0.0715,0.35924 -0.037,0.45034 -0.18977,0.15935 -0.51824,0.0234 -0.70273,-0.14329 -0.2935,-0.26524 -0.12689,-0.90841 -0.42534,-1.16679 -0.41681,-0.36086 -1.1367,-0.57886 -1.5719,-0.24565 -0.34807,0.26652 0.0569,1.08422 -0.27739,1.37151 -0.16076,0.13814 -0.44208,0.10637 -0.61027,-0.0205 -0.38796,-0.2926 -0.16286,-1.14684 -0.55479,-1.43291 -0.33965,-0.2479 -0.9059,-0.2855 -1.22053,0 -0.36461,0.33088 0.10457,1.22933 -0.27739,1.53526 -0.16601,0.13296 -0.43423,0.0342 -0.61027,-0.0819 -0.35705,-0.23548 -0.33381,-0.95927 -0.72122,-1.12586 -0.21751,-0.0935 -0.53771,-0.0372 -0.68424,0.16376 -0.20129,0.27613 0.22258,0.80911 0,1.06444 -0.11993,0.13758 -0.369,0.1175 -0.5178,0.0205 -0.35155,-0.22923 -0.18325,-1.02109 -0.55479,-1.20774 -0.41115,-0.20655 -1.02092,-0.0127 -1.313,0.36846 -0.23612,0.3081 0.14411,0.90007 -0.0925,1.20774 -0.0494,0.0643 -0.15551,0.10289 -0.22192,0.0614 -0.21908,-0.13681 0.0259,-0.75055 -0.22191,-0.79834 -0.12146,-0.0234 -0.1804,0.19902 -0.22192,0.32752 -0.0478,0.14791 -0.0464,0.3168 -0.0185,0.47083 z"
           id="path4713"
           inkscape:connector-curvature="0"
           sodipodi:nodetypes="ssssssssssssssssssssssssssssssssssssssssss" />
      </g>
      <path
         style="display:inline;fill:#8787de;stroke:none;stroke-width:0.2;stroke-miterlimit:4;stroke-dasharray:none;stroke-dashoffset:0;stroke-opacity:1"
         d="m -252.00323,584.47288 c 0.98812,-0.006 1.633,0.55539 1.97592,1.14273 -0.55898,0.62467 -1.59767,0.85623 -2.24295,0.80928 -0.24721,-0.50478 -0.0874,-1.498 0.26703,-1.95201 z"
         id="path4715"
         inkscape:connector-curvature="0"
         sodipodi:nodetypes="cccc" />
      <path
         sodipodi:nodetypes="cccc"
         inkscape:connector-curvature="0"
         id="path4717"
         d="m -242.58065,564.9129 c 0.78607,0.59878 0.65394,1.11064 0.56658,1.78512 -0.82419,0.15301 -1.48842,0.0285 -1.97058,-0.40294 0.1127,-0.55066 0.846,-1.23933 1.404,-1.38218 z"
         style="display:inline;fill:#8787de;stroke:none;stroke-width:0.2;stroke-miterlimit:4;stroke-dasharray:none;stroke-dashoffset:0;stroke-opacity:1" />
      <circle
         style="display:inline;fill:#ff7f2a;stroke:#c83737;stroke-width:0.08713388;stroke-miterlimit:4;stroke-dasharray:none;stroke-dashoffset:0;stroke-opacity:1"
         id="circle4719"
         cx="-251.54494"
         cy="564.77002"
         r="1.2322592" />
      <circle
         r="0.91611755"
         cy="569.56421"
         cx="-238.74098"
         id="circle4721"
         style="display:inline;fill:#ff7f2a;stroke:#c83737;stroke-width:0.0647793;stroke-miterlimit:4;stroke-dasharray:none;stroke-dashoffset:0;stroke-opacity:1" />
      <circle
         style="display:inline;fill:#ff7f2a;stroke:#c83737;stroke-width:0.05162955;stroke-miterlimit:4;stroke-dasharray:none;stroke-dashoffset:0;stroke-opacity:1"
         id="circle4723"
         cx="-251.4872"
         cy="580.61609"
         r="0.73015201" />
      <circle
         r="1.027697"
         cy="581.61731"
         cx="-236.58455"
         id="circle4725"
         style="display:inline;fill:#ff7f2a;stroke:#c83737;stroke-width:0.07266916;stroke-miterlimit:4;stroke-dasharray:none;stroke-dashoffset:0;stroke-opacity:1" />
      <circle
         style="display:inline;fill:#ff7f2a;stroke:#c83737;stroke-width:0.09126572;stroke-miterlimit:4;stroke-dasharray:none;stroke-dashoffset:0;stroke-opacity:1"
         id="circle4727"
         cx="-248.72884"
         cy="592.01892"
         r="1.2906921" />
      <circle
         r="0.65950388"
         cy="588.86029"
         cx="-240.01546"
         id="circle4729"
         style="display:inline;fill:#ff7f2a;stroke:#c83737;stroke-width:0.04663397;stroke-miterlimit:4;stroke-dasharray:none;stroke-dashoffset:0;stroke-opacity:1" />
      <g
         transform="matrix(0.43566941,0,0,0.43566941,-307.80526,366.82032)"
         id="g4731"
         style="display:inline">
        <circle
           r="4.8613591"
           cy="478.13394"
           cx="129.84248"
           id="circle4733"
           style="fill:#672178;stroke:#53536c;stroke-width:0.30000001;stroke-linecap:round;stroke-linejoin:round;stroke-miterlimit:4;stroke-dasharray:none;stroke-opacity:1" />
        <ellipse
           ry="1.6130873"
           rx="1.6572815"
           cy="478.81897"
           cx="132.11848"
           id="ellipse4735"
           style="fill:#c8ab37;stroke:#447821;stroke-width:0.30000001;stroke-linecap:round;stroke-linejoin:round;stroke-miterlimit:4;stroke-dasharray:none;stroke-opacity:1" />
      </g>
      <g
         id="g4737"
         transform="matrix(0.43566941,0,0,0.43566941,-289.99727,382.61333)"
         style="display:inline">
        <ellipse
           transform="matrix(0.874638,-0.48477662,0.48477662,0.874638,0,0)"
           ry="0.34375"
           rx="0.65625"
           cy="470.5614"
           cx="-117.78978"
           id="ellipse4739"
           style="fill:#c8b7b7;stroke:#483737;stroke-width:0.1;stroke-linecap:round;stroke-linejoin:round;stroke-miterlimit:4;stroke-dasharray:none;stroke-opacity:1" />
        <ellipse
           style="fill:#c8b7b7;stroke:#483737;stroke-width:0.0772841;stroke-linecap:round;stroke-linejoin:round;stroke-miterlimit:4;stroke-dasharray:none;stroke-opacity:1"
           id="ellipse4741"
           cx="-10.113874"
           cy="486.43735"
           rx="0.50717688"
           ry="0.26566407"
           transform="matrix(0.96073727,-0.27745973,0.27745973,0.96073727,0,0)" />
        <ellipse
           transform="matrix(0.93461505,-0.35566094,0.21409127,0.97681366,0,0)"
           ry="0.3406215"
           rx="0.51578605"
           cy="488.70169"
           cx="22.601"
           id="ellipse4743"
           style="fill:#c8b7b7;stroke:#483737;stroke-width:0.08825003;stroke-linecap:round;stroke-linejoin:round;stroke-miterlimit:4;stroke-dasharray:none;stroke-opacity:1" />
        <ellipse
           style="fill:#c8b7b7;stroke:#483737;stroke-width:0.08825003;stroke-linecap:round;stroke-linejoin:round;stroke-miterlimit:4;stroke-dasharray:none;stroke-opacity:1"
           id="ellipse4745"
           cx="309.4025"
           cy="424.00363"
           rx="0.51578605"
           ry="0.3406215"
           transform="matrix(0.96422767,0.26507546,-0.40423464,0.91465532,0,0)" />
        <ellipse
           transform="matrix(0.76718275,-0.64142858,0.64142858,0.76718275,0,0)"
           ry="0.26566407"
           rx="0.50717688"
           cy="442.09879"
           cx="-205.06822"
           id="ellipse4747"
           style="fill:#c8b7b7;stroke:#483737;stroke-width:0.0772841;stroke-linecap:round;stroke-linejoin:round;stroke-miterlimit:4;stroke-dasharray:none;stroke-opacity:1" />
        <ellipse
           inkscape:transform-center-y="-0.31251221"
           inkscape:transform-center-x="0.62499397"
           style="fill:#c8b7b7;stroke:#483737;stroke-width:0.08477594;stroke-linecap:round;stroke-linejoin:round;stroke-miterlimit:4;stroke-dasharray:none;stroke-opacity:1"
           id="ellipse4749"
           cx="-370.26978"
           cy="581.95868"
           rx="0.39428997"
           ry="0.41118899"
           transform="matrix(-0.98683044,0.16175812,-0.414419,0.9100862,0,0)" />
        <ellipse
           transform="matrix(0.96529991,0.26114379,-0.40968614,0.91222654,0,0)"
           ry="0.38303283"
           rx="0.58717644"
           cy="427.29742"
           cx="310.14813"
           id="ellipse4751"
           style="fill:#c8b7b7;stroke:#483737;stroke-width:0.0998496;stroke-linecap:round;stroke-linejoin:round;stroke-miterlimit:4;stroke-dasharray:none;stroke-opacity:1" />
        <ellipse
           style="fill:#c8b7b7;stroke:#483737;stroke-width:0.0772841;stroke-linecap:round;stroke-linejoin:round;stroke-miterlimit:4;stroke-dasharray:none;stroke-opacity:1"
           id="ellipse4753"
           cx="-205.94778"
           cy="439.20453"
           rx="0.50717688"
           ry="0.26566407"
           transform="matrix(0.76718275,-0.64142858,0.64142858,0.76718275,0,0)" />
        <ellipse
           transform="matrix(0.64045329,0.76799712,-0.85396981,0.52032256,0,0)"
           ry="0.3406215"
           rx="0.51578605"
           cy="205.05881"
           cx="471.08472"
           id="ellipse4755"
           style="fill:#c8b7b7;stroke:#483737;stroke-width:0.08825003;stroke-linecap:round;stroke-linejoin:round;stroke-miterlimit:4;stroke-dasharray:none;stroke-opacity:1" />
      </g>
      <g
         transform="matrix(0.43566941,0,0,0.43566941,-305.47753,363.97541)"
         id="g4757"
         style="display:inline">
        <ellipse
           style="fill:#c8b7b7;stroke:#483737;stroke-width:0.1;stroke-linecap:round;stroke-linejoin:round;stroke-miterlimit:4;stroke-dasharray:none;stroke-opacity:1"
           id="ellipse4759"
           cx="-117.78978"
           cy="470.5614"
           rx="0.65625"
           ry="0.34375"
           transform="matrix(0.874638,-0.48477662,0.48477662,0.874638,0,0)" />
        <ellipse
           transform="matrix(0.96073727,-0.27745973,0.27745973,0.96073727,0,0)"
           ry="0.26566407"
           rx="0.50717688"
           cy="486.43735"
           cx="-10.113874"
           id="ellipse4761"
           style="fill:#c8b7b7;stroke:#483737;stroke-width:0.0772841;stroke-linecap:round;stroke-linejoin:round;stroke-miterlimit:4;stroke-dasharray:none;stroke-opacity:1" />
        <ellipse
           style="fill:#c8b7b7;stroke:#483737;stroke-width:0.08825003;stroke-linecap:round;stroke-linejoin:round;stroke-miterlimit:4;stroke-dasharray:none;stroke-opacity:1"
           id="ellipse4763"
           cx="22.601"
           cy="488.70169"
           rx="0.51578605"
           ry="0.3406215"
           transform="matrix(0.93461505,-0.35566094,0.21409127,0.97681366,0,0)" />
        <ellipse
           transform="matrix(0.96422767,0.26507546,-0.40423464,0.91465532,0,0)"
           ry="0.3406215"
           rx="0.51578605"
           cy="424.00363"
           cx="309.4025"
           id="ellipse4765"
           style="fill:#c8b7b7;stroke:#483737;stroke-width:0.08825003;stroke-linecap:round;stroke-linejoin:round;stroke-miterlimit:4;stroke-dasharray:none;stroke-opacity:1" />
        <ellipse
           style="fill:#c8b7b7;stroke:#483737;stroke-width:0.0772841;stroke-linecap:round;stroke-linejoin:round;stroke-miterlimit:4;stroke-dasharray:none;stroke-opacity:1"
           id="ellipse4767"
           cx="-205.06822"
           cy="442.09879"
           rx="0.50717688"
           ry="0.26566407"
           transform="matrix(0.76718275,-0.64142858,0.64142858,0.76718275,0,0)" />
        <ellipse
           transform="matrix(-0.98683044,0.16175812,-0.414419,0.9100862,0,0)"
           ry="0.41118899"
           rx="0.39428997"
           cy="581.95868"
           cx="-370.26978"
           id="ellipse4769"
           style="fill:#c8b7b7;stroke:#483737;stroke-width:0.08477594;stroke-linecap:round;stroke-linejoin:round;stroke-miterlimit:4;stroke-dasharray:none;stroke-opacity:1"
           inkscape:transform-center-x="0.62499397"
           inkscape:transform-center-y="-0.31251221" />
        <ellipse
           style="fill:#c8b7b7;stroke:#483737;stroke-width:0.0998496;stroke-linecap:round;stroke-linejoin:round;stroke-miterlimit:4;stroke-dasharray:none;stroke-opacity:1"
           id="ellipse4771"
           cx="310.14813"
           cy="427.29742"
           rx="0.58717644"
           ry="0.38303283"
           transform="matrix(0.96529991,0.26114379,-0.40968614,0.91222654,0,0)" />
        <ellipse
           transform="matrix(0.76718275,-0.64142858,0.64142858,0.76718275,0,0)"
           ry="0.26566407"
           rx="0.50717688"
           cy="439.20453"
           cx="-205.94778"
           id="ellipse4773"
           style="fill:#c8b7b7;stroke:#483737;stroke-width:0.0772841;stroke-linecap:round;stroke-linejoin:round;stroke-miterlimit:4;stroke-dasharray:none;stroke-opacity:1" />
        <ellipse
           style="fill:#c8b7b7;stroke:#483737;stroke-width:0.08825003;stroke-linecap:round;stroke-linejoin:round;stroke-miterlimit:4;stroke-dasharray:none;stroke-opacity:1"
           id="ellipse4775"
           cx="471.08472"
           cy="205.05881"
           rx="0.51578605"
           ry="0.3406215"
           transform="matrix(0.64045329,0.76799712,-0.85396981,0.52032256,0,0)" />
      </g>
      <g
         id="g4777"
         transform="matrix(0.43566941,0,0,0.43566941,-299.85535,388.77463)"
         style="display:inline">
        <ellipse
           transform="matrix(0.874638,-0.48477662,0.48477662,0.874638,0,0)"
           ry="0.34375"
           rx="0.65625"
           cy="470.5614"
           cx="-117.78978"
           id="ellipse4779"
           style="fill:#c8b7b7;stroke:#483737;stroke-width:0.1;stroke-linecap:round;stroke-linejoin:round;stroke-miterlimit:4;stroke-dasharray:none;stroke-opacity:1" />
        <ellipse
           style="fill:#c8b7b7;stroke:#483737;stroke-width:0.0772841;stroke-linecap:round;stroke-linejoin:round;stroke-miterlimit:4;stroke-dasharray:none;stroke-opacity:1"
           id="ellipse4781"
           cx="-10.113874"
           cy="486.43735"
           rx="0.50717688"
           ry="0.26566407"
           transform="matrix(0.96073727,-0.27745973,0.27745973,0.96073727,0,0)" />
        <ellipse
           transform="matrix(0.93461505,-0.35566094,0.21409127,0.97681366,0,0)"
           ry="0.3406215"
           rx="0.51578605"
           cy="488.70169"
           cx="22.601"
           id="ellipse4783"
           style="fill:#c8b7b7;stroke:#483737;stroke-width:0.08825003;stroke-linecap:round;stroke-linejoin:round;stroke-miterlimit:4;stroke-dasharray:none;stroke-opacity:1" />
        <ellipse
           style="fill:#c8b7b7;stroke:#483737;stroke-width:0.08825003;stroke-linecap:round;stroke-linejoin:round;stroke-miterlimit:4;stroke-dasharray:none;stroke-opacity:1"
           id="ellipse4785"
           cx="309.4025"
           cy="424.00363"
           rx="0.51578605"
           ry="0.3406215"
           transform="matrix(0.96422767,0.26507546,-0.40423464,0.91465532,0,0)" />
        <ellipse
           transform="matrix(0.76718275,-0.64142858,0.64142858,0.76718275,0,0)"
           ry="0.26566407"
           rx="0.50717688"
           cy="442.09879"
           cx="-205.06822"
           id="ellipse4787"
           style="fill:#c8b7b7;stroke:#483737;stroke-width:0.0772841;stroke-linecap:round;stroke-linejoin:round;stroke-miterlimit:4;stroke-dasharray:none;stroke-opacity:1" />
        <ellipse
           inkscape:transform-center-y="-0.31251221"
           inkscape:transform-center-x="0.62499397"
           style="fill:#c8b7b7;stroke:#483737;stroke-width:0.08477594;stroke-linecap:round;stroke-linejoin:round;stroke-miterlimit:4;stroke-dasharray:none;stroke-opacity:1"
           id="ellipse4789"
           cx="-370.26978"
           cy="581.95868"
           rx="0.39428997"
           ry="0.41118899"
           transform="matrix(-0.98683044,0.16175812,-0.414419,0.9100862,0,0)" />
        <ellipse
           transform="matrix(0.96529991,0.26114379,-0.40968614,0.91222654,0,0)"
           ry="0.38303283"
           rx="0.58717644"
           cy="427.29742"
           cx="310.14813"
           id="ellipse4791"
           style="fill:#c8b7b7;stroke:#483737;stroke-width:0.0998496;stroke-linecap:round;stroke-linejoin:round;stroke-miterlimit:4;stroke-dasharray:none;stroke-opacity:1" />
        <ellipse
           style="fill:#c8b7b7;stroke:#483737;stroke-width:0.0772841;stroke-linecap:round;stroke-linejoin:round;stroke-miterlimit:4;stroke-dasharray:none;stroke-opacity:1"
           id="ellipse4793"
           cx="-205.94778"
           cy="439.20453"
           rx="0.50717688"
           ry="0.26566407"
           transform="matrix(0.76718275,-0.64142858,0.64142858,0.76718275,0,0)" />
        <ellipse
           transform="matrix(0.64045329,0.76799712,-0.85396981,0.52032256,0,0)"
           ry="0.3406215"
           rx="0.51578605"
           cy="205.05881"
           cx="471.08472"
           id="ellipse4795"
           style="fill:#c8b7b7;stroke:#483737;stroke-width:0.08825003;stroke-linecap:round;stroke-linejoin:round;stroke-miterlimit:4;stroke-dasharray:none;stroke-opacity:1" />
      </g>
      <path
         style="display:inline;fill:#ff7f2a;stroke:#ff7f2a;stroke-width:0.13070083;stroke-linecap:round;stroke-linejoin:round;stroke-miterlimit:4;stroke-dasharray:none;stroke-opacity:1"
         id="path4797"
         d="m -241.85822,586.43188 c 0.0725,-0.0972 0.37957,-0.5046 0.42014,-0.58189 0.0702,-0.13386 0.0932,-0.28911 0.16275,-0.42333 0.0758,-0.14631 0.18725,-0.27156 0.27098,-0.41348 0.40742,-0.69055 0.007,-0.1454 0.4429,-0.69885 0.10596,-0.20566 0.10318,-0.17017 0.1558,-0.36475 0.011,-0.0407 0.0109,-0.0848 0.0275,-0.12358 0.0122,-0.0287 0.0306,-0.0917 0.0568,-0.0746 0.36467,0.23709 0.27396,0.24314 0.16446,0.54451 -0.12752,0.96825 0.0636,-0.24693 -0.19495,0.73064 -0.0305,0.11518 -0.0215,0.23765 -0.0434,0.35475 -0.102,0.54492 -0.0562,0.0872 -0.15795,0.58904 -0.0141,0.0695 -0.015,0.14111 -0.0225,0.21166 -0.11421,0.37238 -0.0247,0.0178 -0.0659,0.40756 -0.004,0.0396 -0.0178,0.0777 -0.029,0.11596 -0.0129,0.0442 -0.0122,0.0974 -0.0432,0.1314 -0.0504,0.0551 -0.12602,0.16308 -0.18805,0.12156 -0.0898,-0.0601 -0.0626,-0.20689 -0.094,-0.31033 0.0773,-0.36549 -0.0295,0.0296 0.21857,-0.43975 0.32159,-0.6085 -0.0912,-0.009 0.2727,-0.60243 0.0539,-0.088 0.12243,-0.16616 0.18254,-0.25003 0.0583,-0.0813 0.1152,-0.16385 0.1728,-0.24577 0.0393,-0.0632 0.0867,-0.1221 0.11806,-0.18963 0.0382,-0.082 0.18167,-0.81199 0.46443,-0.5565 0.072,0.065 0.009,0.19363 0.0141,0.29045 0.0217,0.20118 -0.12426,0.36483 -0.14535,0.55484 -0.0133,0.12063 0.0237,0.24169 0.0293,0.36292 0.005,0.11627 0.008,0.23285 0.004,0.34918 -0.003,0.10842 -0.0332,0.21603 -0.0269,0.32433 0.006,0.10229 0.0418,0.20059 0.0628,0.30088 -0.0283,0.1882 0.0104,0.36972 0.0327,0.55485 0.003,0.0205 0.008,0.0409 0.007,0.0614 -0.002,0.0288 -0.0216,0.0171 -0.005,0.0247 -0.0887,-0.0477 -0.18439,-0.0844 -0.26602,-0.14333 -0.0111,-0.008 0.0237,-0.015 0.0321,-0.0258 0.013,-0.0167 0.0181,-0.0385 0.031,-0.0552 0.0355,-0.0459 0.0763,-0.0872 0.11367,-0.13157 0.15611,-0.18548 0.0995,-0.11357 0.23966,-0.34223 0.21551,-0.45164 0.0177,-0.0743 0.30884,-0.52249 0.0604,-0.0929 0.1138,-0.19025 0.17105,-0.28516 0.0541,-0.0896 0.1171,-0.17436 0.16292,-0.26848 0.0376,-0.0773 0.0536,-0.16369 0.0862,-0.24327 0.0275,-0.0667 0.0626,-0.13005 0.0939,-0.19508 0.006,-0.0672 0.004,-0.13537 0.0174,-0.20142 0.0244,-0.1204 0.18645,-0.55044 0.4262,-0.21337 0.0661,0.0929 -0.0369,0.22501 -0.0546,0.33766 -0.0217,0.13891 -0.0422,0.27801 -0.0631,0.41701 0.004,0.16912 0.009,0.33823 0.0125,0.50734 -0.0135,0.16977 -0.0402,0.339 -0.0405,0.5093 -2.4e-4,0.15661 0.0373,0.31162 0.0389,0.46823 0.002,0.15481 -0.0329,0.30879 -0.029,0.46356 0.0435,1.71329 0.0774,-0.81755 0.043,0.82378 0.005,0.0541 0.0124,0.29672 0.0523,0.39415 0.005,0.0116 0.0404,0.0251 0.0278,0.0253 -0.12279,0.003 -0.24846,0.011 -0.36812,-0.0167 -0.0218,-0.005 0.003,-0.0453 0.01,-0.0664 0.0211,-0.0589 0.0503,-0.11468 0.0754,-0.17202 0.12782,-0.40203 -0.0202,-0.007 0.2011,-0.39694 0.16443,-0.28986 0.0606,-0.23655 0.28682,-0.49812 0.70158,-0.81123 -0.24294,0.40346 0.41593,-0.46362 0.29537,-0.5724 0.0358,-0.0239 0.24933,-0.61597 0.12556,-0.34822 0.13131,-0.24491 0.21247,-0.56591 0.0679,-0.26861 -0.0311,-0.10975 0.12513,-0.29947 0.0536,-0.0892 0.0639,-0.12432 0.1399,-0.18985 0.0116,-0.01 -0.0159,0.0266 -0.0268,0.0375 -0.003,0.003 0.003,-0.009 -8e-5,-0.0103 -0.009,-0.003 -0.0192,-8.6e-4 -0.0288,-0.002 0.0109,-0.2396 0.34971,-0.22423 0.33884,0.0154 l 0,0 c 0.003,0.0314 0.0186,0.12468 -0.004,0.15647 -0.10026,0.14058 -0.11454,0.0182 -0.16561,0.14803 -0.0156,0.0337 -0.0278,0.0692 -0.0468,0.10109 -0.068,0.11419 -0.18109,0.22772 -0.23115,0.34878 -0.0444,0.10727 -0.0519,0.22671 -0.0893,0.33657 -0.0316,0.0925 -0.24759,0.58254 -0.28619,0.67098 -0.19143,0.2906 -0.15312,0.2554 -0.36809,0.50082 -0.0594,0.0678 -0.13209,0.12457 -0.18333,0.1987 -0.0493,0.0713 -0.0741,0.15691 -0.11524,0.23323 -0.1592,0.29516 -0.0879,0.0854 -0.16129,0.37076 -0.003,0.0318 -0.0118,0.0636 -0.009,0.0954 0.003,0.0208 0.0447,0.0532 0.0244,0.0579 -0.10672,0.0246 -0.21885,0.0133 -0.32837,0.0123 -0.008,-8e-5 -0.0184,-0.009 -0.0163,-0.0155 0.0109,-0.0371 0.0411,-0.0669 0.0512,-0.10421 0.0258,-0.0939 0.0371,-0.19121 0.0557,-0.28681 -0.0141,-0.19253 -0.0502,-0.6336 -0.0491,-0.82304 8.6e-4,-0.15503 0.0228,-0.30942 0.0249,-0.46444 0.003,-0.1567 -0.0177,-0.31336 -0.0126,-0.47 0.006,-0.17096 0.0465,-0.34015 0.0447,-0.51119 -0.002,-0.17105 -0.037,-0.34011 -0.0555,-0.51017 -0.003,-0.13837 -0.003,-0.27682 -0.009,-0.41511 -0.003,-0.0515 -0.055,-0.12307 -0.0138,-0.15402 0.07,-0.0525 0.17319,-0.0329 0.2607,-0.0314 0.0171,3e-4 -0.028,0.021 -0.0371,0.0353 -0.0688,0.10826 -0.0701,0.17827 -0.10326,0.31316 -0.0411,0.0882 -0.1821,0.39738 -0.22913,0.47387 -0.0541,0.088 -0.12852,0.1623 -0.18221,0.2505 -0.0577,0.0949 -0.0995,0.1988 -0.15115,0.2972 -0.1624,0.30914 -0.12535,0.23865 -0.30516,0.51763 -0.0368,0.0742 -0.0686,0.15098 -0.11039,0.22246 -0.16634,0.28456 -0.0696,0.0299 -0.15775,0.29103 -0.0162,0.0478 -0.0276,0.0975 -0.0474,0.14396 -0.0105,0.0246 -0.0165,0.0719 -0.043,0.0677 -0.11058,-0.0178 -0.20798,-0.0831 -0.31197,-0.12476 -0.002,-0.008 -4.4e-4,-0.0156 -0.004,-0.022 -0.006,-0.01 -0.0241,-0.0132 -0.0236,-0.0245 8.6e-4,-0.021 0.0212,-0.0365 0.0273,-0.0566 0.0107,-0.0352 0.019,-0.0715 0.0227,-0.10818 0.009,-0.0922 0.007,-0.35984 0.007,-0.4309 0.0232,-0.5962 0.006,-2.6e-4 0.004,-0.62934 -4.3e-4,-0.15425 0.0101,-0.58314 0.0149,-0.73358 0.003,-0.11507 0.004,-0.23034 0.0131,-0.34513 0.006,-0.0806 0.0211,-0.1602 0.0317,-0.24029 0.14865,0.0912 -0.0557,-0.01 0.21956,-0.0639 0.0277,-0.005 -0.0268,0.0499 -0.0368,0.0762 -0.0859,0.22603 -0.14435,0.46186 -0.3037,0.65297 -0.0622,0.0684 -0.13222,0.13041 -0.18664,0.20514 -0.0571,0.0784 -0.0976,0.16775 -0.1461,0.25183 -0.0858,0.14879 -0.24274,0.41343 -0.30783,0.57142 -0.0134,0.0325 -0.11169,0.38251 -0.12744,0.43808 -0.2907,-0.2025 -0.0264,-0.0921 -0.28954,-0.003 -0.023,0.008 0.0166,-0.0458 0.0253,-0.0684 0.0168,-0.0437 0.0399,-0.0854 0.0513,-0.13071 0.035,-0.13809 0.0354,-0.28347 0.075,-0.42074 0.0213,-0.0751 0.0379,-0.15181 0.0641,-0.22541 0.0785,-0.2208 0.15673,-0.31182 0.20812,-0.55284 0.0252,-0.11846 0.0133,-0.24275 0.0375,-0.36144 0.0477,-0.23444 0.16518,-0.45121 0.19498,-0.69075 -0.0631,-0.48663 -0.11403,-0.1636 0.24309,-0.26887 0.0301,-0.009 0.0359,-0.11099 0.01,-0.0937 -0.0401,0.0266 -0.047,0.0845 -0.064,0.12956 -0.13118,0.34786 0.053,0.0299 -0.21502,0.4179 -0.089,0.0788 -0.18963,0.14617 -0.26697,0.23644 -0.0965,0.11259 -0.1728,0.24125 -0.25044,0.36755 -0.29217,0.4753 -0.49313,0.99359 -0.70576,1.50689 -0.10453,0.18293 -0.36323,0.0351 -0.2587,-0.14783 z"
         inkscape:connector-curvature="0" />
      <path
         style="display:inline;fill:#ff7f2a;stroke:#ff7f2a;stroke-width:0.13070083;stroke-linecap:round;stroke-linejoin:round;stroke-miterlimit:4;stroke-dasharray:none;stroke-opacity:1"
         id="path4799"
         d="m -252.62973,571.2995 c 0.10418,0.16475 0.22195,0.32019 0.35782,0.46025 0.0381,0.0392 0.0791,0.0754 0.11787,0.11378 0.033,0.0328 0.0651,0.0667 0.0976,0.10003 0.1829,0.19895 -8.6e-4,0.0136 0.14414,0.131 0.009,0.007 0.0303,0.0193 0.0213,0.0262 -0.1316,0.10114 -0.13369,-0.0146 -0.14765,-0.1045 0.0109,-0.16122 0.029,-0.32501 0.002,-0.48597 -0.0104,-0.062 -0.0318,-0.12166 -0.0485,-0.18229 -0.0747,-0.27159 -0.0286,-0.0804 -0.0858,-0.3341 -0.0111,-0.047 -0.0241,-0.0935 -0.0334,-0.14086 -0.007,-0.0352 -0.0133,-0.0708 -0.0146,-0.10668 -0.002,-0.029 0.005,-0.0577 0.008,-0.0867 0.002,-0.0207 0.002,-0.0415 0.002,-0.0623 8.6e-4,-0.0382 0.003,-0.0247 -0.003,-0.0489 0.008,0.0181 0.003,0.0514 0.022,0.0545 0.0328,0.005 0.0628,-0.0514 0.0924,-0.0366 0.0328,0.0163 0.0206,0.071 0.0394,0.10237 0.0305,0.0507 0.0721,0.0938 0.10682,0.14169 0.33422,0.46115 -0.0884,-0.10575 0.27247,0.37466 0.3605,0.3021 0.005,0.01 0.34902,0.27776 0.0423,0.0329 0.0822,0.0691 0.12469,0.10197 0.0199,0.0153 0.0397,0.0313 0.0622,0.0423 0.008,0.004 0.0308,-0.007 0.0259,8.6e-4 -0.0199,0.0295 -0.0512,0.0497 -0.0767,0.0745 -0.0136,-0.0119 -0.0305,-0.021 -0.0407,-0.0358 -0.052,-0.0748 -0.0289,-0.1843 -0.0515,-0.26586 -0.0144,-0.052 -0.0429,-0.099 -0.0625,-0.14933 -0.0209,-0.0537 -0.0391,-0.10839 -0.0586,-0.16259 -0.0875,-0.18708 -0.0474,-0.0908 -0.11559,-0.27593 -0.0151,-0.0408 -0.0322,-0.0808 -0.0452,-0.12231 -0.0115,-0.0369 -0.0191,-0.0748 -0.0282,-0.11238 -0.0281,-0.11537 -0.02,-0.0713 -0.0323,-0.1741 -2e-4,-0.0236 -0.008,-0.0637 0.0222,-0.0787 0.0653,-0.0324 0.11139,0.0235 0.15437,0.064 0.0505,0.0476 0.0972,0.0992 0.14343,0.15106 0.064,0.0717 0.12466,0.14617 0.187,0.21926 0.18763,0.21035 0.39468,0.40157 0.59791,0.59636 0.10557,0.1012 0.12515,0.13992 0.24895,0.2034 0.0232,0.0119 0.0498,0.0154 0.0747,0.023 0.009,-0.002 0.0316,-0.0104 0.0247,-0.005 -0.0201,0.0148 -0.0412,0.0325 -0.0659,0.0356 -0.01,0.002 -0.0109,-0.0165 -0.0151,-0.0256 -0.0718,-0.15751 0.01,0.0244 -0.0294,-0.11524 -0.004,-0.0155 -0.015,-0.0286 -0.0224,-0.0429 -0.009,-0.0161 -0.035,-0.056 -0.0372,-0.0791 -0.002,-0.0171 0.006,-0.0346 0.003,-0.0516 -0.004,-0.0247 -0.0163,-0.0475 -0.0224,-0.0718 -0.0944,-0.37721 0.0564,0.17812 -0.0526,-0.2166 -0.0861,-0.34047 0.0253,0.11782 -0.0417,-0.21636 -0.007,-0.034 -0.0163,-0.0676 -0.0275,-0.10046 -0.01,-0.0287 -0.0278,-0.0543 -0.0353,-0.0837 -0.007,-0.0275 -0.004,-0.0567 -0.008,-0.085 -0.003,-0.0224 -0.007,-0.0446 -0.0105,-0.067 -0.007,-0.0192 -0.018,-0.0372 -0.0211,-0.0573 -0.003,-0.0185 0.003,-0.0374 0.004,-0.0561 0.003,-0.035 0.002,-0.0279 0.002,-0.0579 0.0273,-0.0814 0.1424,-0.0429 0.11511,0.0386 l 0,0 c -0.003,-0.002 -0.008,-0.007 -0.009,-0.004 -0.003,0.007 0.003,0.0142 0.003,0.0213 -0.006,0.0863 -0.0162,-0.002 0.003,0.0967 0.003,0.0241 0.005,0.0481 0.006,0.0723 0.002,0.0252 -0.004,0.0512 0.002,0.0759 0.007,0.0303 0.0256,0.0568 0.036,0.0862 0.0114,0.0322 0.0222,0.0647 0.0291,0.0981 0.015,0.0722 0.0122,0.14744 0.0336,0.21865 0.006,0.0377 0.006,0.0767 0.0174,0.11322 0.0103,0.0333 0.0339,0.061 0.0464,0.0934 0.0103,0.0267 0.01,0.0569 0.0213,0.083 0.007,0.015 0.0247,0.0225 0.0318,0.0372 0.008,0.0163 -8.5e-4,0.0639 -0.003,0.0775 0.0265,0.0451 0.0323,0.0484 0.0467,0.0977 0.005,0.0177 0.006,0.0367 0.0121,0.0541 0.0236,0.0667 0.074,0.0834 -0.0354,0.14712 -0.0147,0.009 -0.0299,-0.0163 -0.0449,-0.0246 -0.0234,-0.0203 -0.0468,-0.0408 -0.0704,-0.0609 -0.036,-0.0306 -0.0743,-0.0586 -0.10854,-0.0911 -0.20812,-0.19728 -0.0571,-0.0761 -0.27804,-0.32477 -0.13322,-0.14994 -0.29065,-0.27721 -0.41903,-0.43184 -0.0731,-0.0617 -0.14399,-0.12603 -0.21926,-0.185 -0.0526,-0.0412 -0.11023,-0.0755 -0.16394,-0.11523 -0.0145,-0.0108 -0.0357,-0.0186 -0.0406,-0.0359 -0.003,-0.009 0.0211,-0.003 0.0272,-0.0107 0.005,-0.006 0.007,-0.0197 3.9e-4,-0.0242 -0.006,-0.004 -0.009,0.0103 -0.0134,0.0155 0.003,0.0207 0.007,0.0413 0.007,0.0622 3.2e-4,0.032 -0.009,0.064 -0.005,0.0958 0.004,0.0364 0.0174,0.0713 0.0284,0.1062 0.0425,0.13439 0.10227,0.26297 0.1456,0.3971 0.0447,0.10514 0.0868,0.21139 0.13258,0.31608 0.0867,0.19825 0.0361,0.0499 0.0759,0.19671 0.008,0.0289 0.0116,0.0136 0.002,0.0347 -0.0147,0.0284 -0.0275,0.0578 -0.0442,0.0851 -0.002,0.003 0.002,-0.009 -8.6e-4,-0.0111 -0.0166,-0.019 -0.0352,-0.0361 -0.0544,-0.0524 -0.0414,-0.035 -0.0865,-0.0654 -0.12722,-0.10118 -0.14809,-0.12975 -0.17888,-0.17209 -0.31474,-0.32068 -0.37344,-0.41541 0.0417,0.0497 -0.30772,-0.35161 -0.04,-0.0459 -0.0815,-0.0905 -0.12198,-0.13606 -0.0215,-0.0241 -0.0631,-0.0407 -0.0637,-0.073 -8.5e-4,-0.0436 0.0218,-0.0959 0.0606,-0.11615 0.0223,-0.0116 0.0169,0.0475 0.0253,0.0713 -0.0422,-0.002 -0.009,-0.007 -0.0124,0.0288 -0.003,0.0173 -0.0141,0.0319 -0.0181,0.0489 -0.0244,0.10405 -0.0106,0.21136 0.01,0.31448 0.0417,0.13922 0.0589,0.18996 0.094,0.33609 0.0151,0.0625 0.0308,0.12505 0.0412,0.18853 0.0754,0.45741 -0.016,-0.0504 0.0139,0.36159 0.003,0.039 0.0189,0.0759 0.0283,0.1138 -4.4e-4,0.0205 -0.007,0.0417 -0.003,0.0617 0.003,0.0106 0.0278,0.0139 0.0227,0.0234 -0.0182,0.0341 -0.055,0.0546 -0.0802,0.084 -0.003,0.003 0.0126,4.4e-4 0.011,-0.003 -0.01,-0.022 -0.0236,-0.0419 -0.0387,-0.0606 -0.0254,-0.0316 -0.0548,-0.0597 -0.0822,-0.0896 -0.0287,-0.0378 -0.0553,-0.0774 -0.0862,-0.11345 -0.0434,-0.0505 -0.18736,-0.19264 -0.23275,-0.2376 -0.0382,-0.0378 -0.0806,-0.0715 -0.11482,-0.11289 -0.0298,-0.0359 -0.0471,-0.0808 -0.076,-0.11756 -0.0252,-0.0322 -0.0569,-0.0589 -0.0854,-0.0884 -0.0394,-0.0526 0.0349,-0.1084 0.0744,-0.0558 z"
         inkscape:connector-curvature="0" />
    </g>
  </g>
</svg>
