<?xml version="1.0" encoding="UTF-8" standalone="no"?>
<!-- Created with Inkscape (http://www.inkscape.org/) -->

<svg
   xmlns:dc="http://purl.org/dc/elements/1.1/"
   xmlns:cc="http://creativecommons.org/ns#"
   xmlns:rdf="http://www.w3.org/1999/02/22-rdf-syntax-ns#"
   xmlns:svg="http://www.w3.org/2000/svg"
   xmlns="http://www.w3.org/2000/svg"
   xmlns:sodipodi="http://sodipodi.sourceforge.net/DTD/sodipodi-0.dtd"
   xmlns:inkscape="http://www.inkscape.org/namespaces/inkscape"
   width="1052.3622"
   height="400"
   viewBox="0 0 1052.3622 400"
   id="svg4239"
   version="1.1"
   inkscape:version="0.91 r13725"
   sodipodi:docname="logo.svg"
   inkscape:export-filename="/home/kinow/Pictures/logos/biojava/v6/logo.png"
   inkscape:export-xdpi="90"
   inkscape:export-ydpi="90">
  <defs
     id="defs4241" />
  <sodipodi:namedview
     id="base"
     pagecolor="#ffffff"
     bordercolor="#666666"
     borderopacity="1.0"
     inkscape:pageopacity="0.0"
     inkscape:pageshadow="2"
     inkscape:zoom="0.49497475"
     inkscape:cx="486.55401"
     inkscape:cy="460.19122"
     inkscape:document-units="px"
     inkscape:current-layer="layer1"
     showgrid="false"
     units="px"
     inkscape:window-width="1600"
     inkscape:window-height="851"
     inkscape:window-x="0"
     inkscape:window-y="25"
     inkscape:window-maximized="1" />
  <metadata
     id="metadata4244">
    <rdf:RDF>
      <cc:Work
         rdf:about="">
        <dc:format>image/svg+xml</dc:format>
        <dc:type
           rdf:resource="http://purl.org/dc/dcmitype/StillImage" />
        <dc:title></dc:title>
      </cc:Work>
    </rdf:RDF>
  </metadata>
  <g
     inkscape:label="Layer 1"
     inkscape:groupmode="layer"
     id="layer1"
     transform="translate(0,-652.3622)">
    <g
       id="g8991"
       transform="matrix(3.2380614,0,0,2.5163129,421.51115,644.47511)">
      <path
         inkscape:connector-curvature="0"
         id="path5115"
         style="font-style:normal;font-variant:normal;font-weight:normal;font-stretch:normal;font-size:90px;line-height:125%;font-family:Ranchers;-inkscape-font-specification:Ranchers;letter-spacing:0px;word-spacing:0px;display:inline;fill:#241c1c;fill-opacity:1;stroke:none;stroke-width:1px;stroke-linecap:butt;stroke-linejoin:miter;stroke-opacity:1"
         d="m -54.819599,69.358872 3.04418,-3.38143 10.18582,3.38143 3.0389,49.002598 -3.0389,3.3774 -13.23,0 z m 6.93,-22.32 c 1.44,0 2.73,0.3 3.87,0.9 1.2,0.54 2.19,1.26 2.97,2.16 0.78,0.9 1.38,1.92 1.8,3.06 0.42,1.08 0.63,2.13 0.63,3.15 0,1.38 -0.27,2.67 -0.81,3.87 -0.48,1.14 -1.17,2.16 -2.07,3.06 -0.84,0.84 -1.83,1.53 -2.97,2.07 -1.08,0.48 -2.25,0.72 -3.51,0.72 -1.56,0 -2.94,-0.24 -4.14,-0.72 -1.2,-0.54 -2.22,-1.2 -3.06,-1.98 -0.78,-0.84 -1.38,-1.8 -1.8,-2.88 -0.36,-1.08 -0.54,-2.19 -0.54,-3.33 0,-1.14 0.21,-2.31 0.63,-3.51 0.48,-1.2 1.11,-2.28 1.89,-3.24 0.84,-1.02 1.86,-1.83 3.06,-2.43 1.2,-0.6 2.55,-0.9 4.05,-0.9 z"
         sodipodi:nodetypes="cccccccscscscscscccsccss" />
      <path
         inkscape:connector-curvature="0"
         id="path5117"
         style="font-style:normal;font-variant:normal;font-weight:normal;font-stretch:normal;font-size:90px;line-height:125%;font-family:Ranchers;-inkscape-font-specification:Ranchers;letter-spacing:0px;word-spacing:0px;display:inline;fill:#241c1c;fill-opacity:1;stroke:none;stroke-width:1px;stroke-linecap:butt;stroke-linejoin:miter;stroke-opacity:1"
         d="m -16.915629,67.286002 q 10.9800004,0 15.6600004,7.2 4.77,7.2 4.77,20.7 0,13.589998 -4.77,20.789998 -4.68,7.11 -15.6600004,7.11 -11.07,0 -15.84,-7.11 -4.68,-7.2 -4.68,-20.789998 0,-13.5 4.68,-20.7 4.77,-7.2 15.84,-7.2 z m 0,34.649998 q 1.8,0 3.15,-0.72 1.44,-0.72 2.34,-1.889998 0.9,-1.17 1.35,-2.61 0.4500004,-1.53 0.4500004,-3.15 0,-1.62 -0.4500004,-3.15 -0.45,-1.53 -1.35,-2.7 -0.9,-1.17 -2.34,-1.89 -1.35,-0.72 -3.15,-0.72 -3.69,0 -5.58,2.61 -1.8,2.61 -1.8,5.85 0,1.62 0.45,3.15 0.45,1.44 1.35,2.61 0.99,1.169998 2.34,1.889998 1.35,0.72 3.24,0.72 z" />
      <path
         inkscape:connector-curvature="0"
         id="path5119"
         style="font-style:normal;font-variant:normal;font-weight:normal;font-stretch:normal;font-size:90px;line-height:125%;font-family:Ranchers;-inkscape-font-specification:Ranchers;letter-spacing:0px;word-spacing:0px;display:inline;fill:#241c1c;fill-opacity:1;stroke:none;stroke-width:1px;stroke-linecap:butt;stroke-linejoin:miter;stroke-opacity:1"
         d="m 35.159341,83.576012 c 0,4.26 -0.03,7.8 -0.09,10.62 0,2.82 -0.03,5.13 -0.09,6.929998 -0.06,1.8 -0.15,3.21 -0.27,4.23 -0.12,1.02 -0.24,1.92 -0.36,2.7 -0.78,4.5 -2.73,8.13 -5.85,10.89 -3.06,2.76 -7.41,4.14 -13.05,4.14 -1.44,0 -3.21,-0.12 -5.31,-0.36 -2.0399996,-0.18 -4.0499996,-0.54 -6.0299996,-1.08 -0.12,-2.04 -0.21,-4.11 -0.27,-6.21 -0.06,-2.16 -0.09,-4.29 -0.09,-6.39 0,-2.16 0.03,-4.32 0.09,-6.48 0.06,-2.16 0.15,-4.319998 0.27,-6.479998 1.67781,-1.62871 1.5524,-1.62686 3.39998,-3.74327 1.41231,1.25951 3.7259296,5.63327 4.4300196,5.63327 1.86,0 3.36,-0.3 4.5,-0.9 1.2,-0.66 2.13,-1.65 2.79,-2.97 0.72,-1.32 1.2,-3.03 1.44,-5.13 0.24,-2.1 0.36,-4.59 0.36,-7.47 l 0,-17.64 -12.5099996,0 0,-15.39 3.3971896,-3.73437 23.24281,3.73437 z"
         sodipodi:nodetypes="scssccscccssccsccsscccccs" />
      <path
         inkscape:connector-curvature="0"
         id="path5121"
         style="font-style:normal;font-variant:normal;font-weight:normal;font-stretch:normal;font-size:90px;line-height:125%;font-family:Ranchers;-inkscape-font-specification:Ranchers;letter-spacing:0px;word-spacing:0px;display:inline;fill:#241c1c;fill-opacity:1;stroke:none;stroke-width:1px;stroke-linecap:butt;stroke-linejoin:miter;stroke-opacity:1"
         d="m 84.462341,122.45315 -12.33,0 0,-4.41 c -2.16,1.74 -4.44,3.09 -6.84,4.05 -2.4,0.9 -4.74,1.35 -7.02,1.35 -2.7,0 -5.19,-0.66 -7.47,-1.98 -2.28,-1.32 -4.26,-3.15 -5.94,-5.49 -1.62,-2.4 -2.91,-5.25 -3.87,-8.55 -0.96,-3.3 -1.44,-6.9 -1.44,-10.799998 0,-4.08 0.51,-7.89 1.53,-11.43 1.02,-3.54 2.4,-6.6 4.14,-9.18 1.8,-2.64 3.9,-4.68 6.3,-6.12 2.46,-1.5 5.1,-2.25 7.92,-2.25 2.46,0 4.8,0.54 7.02,1.62 2.22,1.02 4.11,2.31 5.67,3.87 l 0.0442,-4.54419 2.30763,-4 10.42818,4.04419 1.87355,49.719168 z m -27.72,-32.489998 c 0,2.46 0.66,4.44 1.98,5.94 1.38,1.5 3.12,2.25 5.22,2.25 2.28,0 4.2,-0.81 5.76,-2.43 1.62,-1.62 2.43,-3.69 2.43,-6.21 0,-1.14 -0.21,-2.22 -0.63,-3.24 -0.36,-1.02 -0.9,-1.89 -1.62,-2.61 -0.72,-0.78 -1.56,-1.38 -2.52,-1.8 -0.96,-0.42 -1.98,-0.63 -3.06,-0.63 -2.16,0 -3.96,0.81 -5.4,2.43 -1.44,1.62 -2.16,3.72 -2.16,6.3 z"
         sodipodi:nodetypes="ccccsscsssccscccccccscscsccssss" />
      <path
         sodipodi:nodetypes="ccccccccccc"
         inkscape:connector-curvature="0"
         id="path5123"
         style="font-style:normal;font-variant:normal;font-weight:normal;font-stretch:normal;font-size:90px;line-height:125%;font-family:Ranchers;-inkscape-font-specification:Ranchers;letter-spacing:0px;word-spacing:0px;display:inline;fill:#241c1c;fill-opacity:1;stroke:none;stroke-width:1px;stroke-linecap:butt;stroke-linejoin:miter;stroke-opacity:1"
         d="m 126.87752,66.770092 -8.49598,51.578838 -3.65402,4.17866 -17.064689,-0.043 -12.42391,-55.680158 3.81718,-2.26819 9.59282,2.26819 c 4.353459,19.10714 4.339429,19.04575 7.559999,32.4 2.77559,-13.30524 2.78352,-13.24989 7.16469,-32.35703 l 3.7444,-2.3028 z" />
      <path
         d="m -93.900529,71.485592 c 0.85981,0.12283 1.56609,0.18424 2.11883,0.18424 l 1.75035,0 c 3.31644,0 5.95731,-0.61415 7.9226,-1.84246 1.9653,-1.22831 2.94795,-2.85583 2.94795,-4.88254 0,-1.84247 -0.85982,-3.25502 -2.57945,-4.23767 -1.65822,-0.98265 -4.11484,-1.47398 -7.36987,-1.47398 -1.04407,0 -1.99601,0.0614 -2.85582,0.18425 -0.79841,0.0614 -1.44327,0.18423 -1.93459,0.36849 z m -14.463361,50.944188 c 0.0614,-2.82511 0.0921,-5.5581 0.0921,-8.19897 0.0614,-2.70229 0.0921,-5.34316 0.0921,-7.92261 0.0614,-2.64087 0.0921,-5.28173 0.0921,-7.922598 l 0,-8.19898 c 0,-8.04543 -0.13171,-15.82339 -0.25456,-23.19326 -0.0614,-7.36987 -0.21494,-13.94133 -0.46062,-19.71439 1.52449,-1.98332 1.51976,-1.9813 3.1199,-4.03021 2.48262,-0.0841 5.56746,3.11381 7.474281,3.01685 3.62352,-0.24566 6.87855,-0.36849 9.76508,-0.36849 17.07352,0 25.68059,5.01426 25.68059,14.90216 0,3.86918 -3.28276,5.79666 -5.55513,8.56036 -2.21096,2.70229 -12.10371,2.97155 -15.78864,3.5857 5.95731,1.10548 19.40918,6.18648 22.17288,9.68717 2.7637,3.43927 4.14555,8.3218 4.14555,14.64761 0,8.905248 -2.7637,15.507418 -8.2911,19.806508 -5.5274,4.23767 -14.12558,6.35651 -25.79453,6.35651 -2.27237,0 -4.82112,-0.0921 -7.64624,-0.27637 -2.763691,-0.12283 -5.711641,-0.3685 -8.843831,-0.73699 z m 14.463361,-24.781168 c 0.61415,0.18425 1.53539,0.33779 2.7637,0.46062 1.22831,0.12283 2.42591,0.18424 3.59281,0.18424 3.86918,0 6.78642,-0.61415 8.75171,-1.84246 2.02671,-1.22831 3.04007,-2.97866 3.04007,-5.25103 0,-2.33379 -1.07477,-4.11485 -3.22431,-5.34316 -2.08813,-1.22831 -5.00537,-1.84246 -8.75172,-1.84246 -0.7984,0 -1.68893,0.0307 -2.67158,0.0921 -0.92123,0.0614 -2.08813,0.15352 -3.50068,0.27637 l 0,13.26576 z"
         style="font-style:normal;font-variant:normal;font-weight:normal;font-stretch:normal;font-size:90px;line-height:125%;font-family:Ranchers;-inkscape-font-specification:Ranchers;letter-spacing:0px;word-spacing:0px;display:inline;fill:#241c1c;fill-opacity:1;stroke:none;stroke-width:1px;stroke-linecap:butt;stroke-linejoin:miter;stroke-opacity:1"
         id="path5125"
         inkscape:connector-curvature="0"
         sodipodi:nodetypes="csssscsccccccssccccsscccscsccccsscscscccc" />
      <path
         sodipodi:nodetypes="ccccsscsssccscccccccscscsccssss"
         d="m 170.6305,122.45315 -12.33,0 0,-4.41 c -2.16,1.74 -4.44,3.09 -6.84,4.05 -2.4,0.9 -4.74,1.35 -7.02,1.35 -2.7,0 -5.19,-0.66 -7.47,-1.98 -2.28,-1.32 -4.26,-3.15 -5.94,-5.49 -1.62,-2.4 -2.91,-5.25 -3.87,-8.55 -0.96,-3.3 -1.44,-6.9 -1.44,-10.799998 0,-4.08 0.51,-7.89 1.53,-11.43 1.02,-3.54 2.4,-6.6 4.14,-9.18 1.8,-2.64 3.9,-4.68 6.3,-6.12 2.46,-1.5 5.1,-2.25 7.92,-2.25 2.46,0 4.8,0.54 7.02,1.62 2.22,1.02 4.11,2.31 5.67,3.87 l 0.0442,-4.54419 2.30763,-4 10.42818,4.04419 1.87355,49.719168 z m -27.72,-32.489998 c 0,2.46 0.66,4.44 1.98,5.94 1.38,1.5 3.12,2.25 5.22,2.25 2.28,0 4.2,-0.81 5.76,-2.43 1.62,-1.62 2.43,-3.69 2.43,-6.21 0,-1.14 -0.21,-2.22 -0.63,-3.24 -0.36,-1.02 -0.9,-1.89 -1.62,-2.61 -0.72,-0.78 -1.56,-1.38 -2.52,-1.8 -0.96,-0.42 -1.98,-0.63 -3.06,-0.63 -2.16,0 -3.96,0.81 -5.4,2.43 -1.44,1.62 -2.16,3.72 -2.16,6.3 z"
         style="font-style:normal;font-variant:normal;font-weight:normal;font-stretch:normal;font-size:90px;line-height:125%;font-family:Ranchers;-inkscape-font-specification:Ranchers;letter-spacing:0px;word-spacing:0px;display:inline;fill:#241c1c;fill-opacity:1;stroke:none;stroke-width:1px;stroke-linecap:butt;stroke-linejoin:miter;stroke-opacity:1"
         id="path5127"
         inkscape:connector-curvature="0" />
      <path
         d="m -51.777509,65.974492 13.23,0 0,52.379998 -13.23,0 0,-52.379998 z m 6.93,-22.32 q 2.16,0 3.87,0.9 1.8,0.81 2.97,2.16 1.17,1.35 1.8,3.06 0.63,1.62 0.63,3.15 0,2.07 -0.81,3.87 -0.72,1.71 -2.07,3.06 -1.26,1.26 -2.97,2.07 -1.62,0.72 -3.51,0.72 -2.34,0 -4.14,-0.72 -1.8,-0.81 -3.06,-1.98 -1.17,-1.26 -1.8,-2.88 -0.54,-1.62 -0.54,-3.33 0,-1.71 0.63,-3.51 0.72,-1.8 1.89,-3.24 1.26,-1.53 3.06,-2.43 1.8,-0.9 4.05,-0.9 z"
         style="font-style:normal;font-variant:normal;font-weight:normal;font-stretch:normal;font-size:90px;line-height:125%;font-family:Ranchers;-inkscape-font-specification:Ranchers;letter-spacing:0px;word-spacing:0px;display:inline;opacity:1;fill:#ffdd55;fill-opacity:1;stroke:none;stroke-width:1px;stroke-linecap:butt;stroke-linejoin:miter;stroke-opacity:1"
         id="path5133"
         inkscape:connector-curvature="0" />
      <path
         d="m -14.587819,63.544492 q 10.9800004,0 15.6600004,7.2 4.77,7.2 4.77,20.7 0,13.589998 -4.77,20.789998 -4.68,7.11 -15.6600004,7.11 -11.07,0 -15.84,-7.11 -4.68,-7.2 -4.68,-20.789998 0,-13.5 4.68,-20.7 4.77,-7.2 15.84,-7.2 z m 0,34.65 q 1.8,0 3.15,-0.72 1.4400004,-0.72 2.3400004,-1.89 0.9,-1.17 1.35,-2.61 0.45,-1.53 0.45,-3.15 0,-1.62 -0.45,-3.15 -0.45,-1.53 -1.35,-2.7 -0.9,-1.17 -2.3400004,-1.89 -1.35,-0.72 -3.15,-0.72 -3.69,0 -5.58,2.61 -1.8,2.61 -1.8,5.85 0,1.62 0.45,3.15 0.45,1.44 1.35,2.61 0.99,1.17 2.34,1.89 1.35,0.72 3.24,0.72 z"
         style="font-style:normal;font-variant:normal;font-weight:normal;font-stretch:normal;font-size:90px;line-height:125%;font-family:Ranchers;-inkscape-font-specification:Ranchers;letter-spacing:0px;word-spacing:0px;display:inline;opacity:1;fill:#ffdd55;fill-opacity:1;stroke:none;stroke-width:1px;stroke-linecap:butt;stroke-linejoin:miter;stroke-opacity:1"
         id="path5135"
         inkscape:connector-curvature="0" />
      <path
         d="m 38.558581,79.834492 q 0,6.39 -0.09,10.62 0,4.23 -0.09,6.93 -0.09,2.699998 -0.27,4.229998 -0.18,1.53 -0.36,2.7 -1.17,6.75 -5.85,10.89 -4.59,4.14 -13.05,4.14 -2.16,0 -5.31,-0.36 -3.06,-0.27 -6.0299996,-1.08 -0.18,-3.06 -0.27,-6.21 -0.09,-3.24 -0.09,-6.39 0,-3.24 0.09,-6.479998 0.09,-3.24 0.27,-6.48 2.25,0.99 4.0499996,1.44 1.8,0.45 3.78,0.45 2.79,0 4.5,-0.9 1.8,-0.99 2.79,-2.97 1.08,-1.98 1.44,-5.13 0.36,-3.15 0.36,-7.47 l 0,-17.64 -12.51,0 0,-15.39 26.64,0 0,35.1 z"
         style="font-style:normal;font-variant:normal;font-weight:normal;font-stretch:normal;font-size:90px;line-height:125%;font-family:Ranchers;-inkscape-font-specification:Ranchers;letter-spacing:0px;word-spacing:0px;display:inline;opacity:1;fill:#ffdd55;fill-opacity:1;stroke:none;stroke-width:1px;stroke-linecap:butt;stroke-linejoin:miter;stroke-opacity:1"
         id="path5137"
         inkscape:connector-curvature="0" />
      <path
         d="m 86.790151,118.35449 -12.33,0 0,-4.41 q -3.24,2.61 -6.84,4.05 -3.6,1.35 -7.02,1.35 -4.05,0 -7.47,-1.98 -3.42,-1.98 -5.94,-5.49 -2.43,-3.6 -3.87,-8.55 -1.44,-4.949998 -1.44,-10.799998 0,-6.12 1.53,-11.43 1.53,-5.31 4.14,-9.18 2.7,-3.96 6.3,-6.12 3.69,-2.25 7.92,-2.25 3.69,0 7.02,1.62 3.33,1.53 5.67,3.87 l 0,-4.5 12.78,0 -0.45,53.819998 z m -27.72,-32.489998 q 0,3.69 1.98,5.94 2.07,2.25 5.22,2.25 3.42,0 5.76,-2.43 2.43,-2.43 2.43,-6.21 0,-1.71 -0.63,-3.24 -0.54,-1.53 -1.62,-2.61 -1.08,-1.17 -2.52,-1.8 -1.44,-0.63 -3.06,-0.63 -3.24,0 -5.4,2.43 -2.16,2.43 -2.16,6.3 z"
         style="font-style:normal;font-variant:normal;font-weight:normal;font-stretch:normal;font-size:90px;line-height:125%;font-family:Ranchers;-inkscape-font-specification:Ranchers;letter-spacing:0px;word-spacing:0px;display:inline;opacity:1;fill:#ffdd55;fill-opacity:1;stroke:none;stroke-width:1px;stroke-linecap:butt;stroke-linejoin:miter;stroke-opacity:1"
         id="path5139"
         inkscape:connector-curvature="0" />
      <path
         d="m 130.53999,64.534492 -12.15,53.819998 -17.01,0 -12.329999,-53.819998 13.409999,0 c 4.35346,19.10714 4.33943,19.04575 7.56,32.4 2.77559,-13.30524 2.72883,-13.29286 7.11,-32.4 z"
         style="font-style:normal;font-variant:normal;font-weight:normal;font-stretch:normal;font-size:90px;line-height:125%;font-family:Ranchers;-inkscape-font-specification:Ranchers;letter-spacing:0px;word-spacing:0px;display:inline;opacity:1;fill:#ffdd55;fill-opacity:1;stroke:none;stroke-width:1px;stroke-linecap:butt;stroke-linejoin:miter;stroke-opacity:1"
         id="path5141"
         inkscape:connector-curvature="0"
         sodipodi:nodetypes="cccccccc" />
      <path
         inkscape:connector-curvature="0"
         id="path5183"
         style="font-style:normal;font-variant:normal;font-weight:normal;font-stretch:normal;font-size:90px;line-height:125%;font-family:Ranchers;-inkscape-font-specification:Ranchers;letter-spacing:0px;word-spacing:0px;display:inline;opacity:1;fill:#ffdd55;fill-opacity:1;stroke:none;stroke-width:1px;stroke-linecap:butt;stroke-linejoin:miter;stroke-opacity:1"
         d="m 173.00253,118.35449 -12.33,0 0,-4.41 q -3.24,2.61 -6.84,4.05 -3.6,1.35 -7.02,1.35 -4.05,0 -7.47,-1.98 -3.42,-1.98 -5.94,-5.49 -2.43,-3.6 -3.87,-8.55 -1.44,-4.949998 -1.44,-10.799998 0,-6.12 1.53,-11.43 1.53,-5.31 4.14,-9.18 2.7,-3.96 6.3,-6.12 3.69,-2.25 7.92,-2.25 3.69,0 7.02,1.62 3.33,1.53 5.67,3.87 l 0,-4.5 12.78,0 -0.45,53.819998 z m -27.72,-32.489998 q 0,3.69 1.98,5.94 2.07,2.25 5.22,2.25 3.42,0 5.76,-2.43 2.43,-2.43 2.43,-6.21 0,-1.71 -0.63,-3.24 -0.54,-1.53 -1.62,-2.61 -1.08,-1.17 -2.52,-1.8 -1.44,-0.63 -3.06,-0.63 -3.24,0 -5.4,2.43 -2.16,2.43 -2.16,6.3 z" />
      <path
         style="font-style:normal;font-variant:normal;font-weight:normal;font-stretch:normal;font-size:90px;line-height:125%;font-family:Ranchers;-inkscape-font-specification:Ranchers;letter-spacing:0px;word-spacing:0px;display:inline;opacity:1;fill:#ffdd55;fill-opacity:1;stroke:none;stroke-width:1px;stroke-linecap:butt;stroke-linejoin:miter;stroke-opacity:1"
         d="m -85.370979,41.788362 c -2.88654,0 -6.14211,0.12152 -9.76563,0.36718 -3.62351,0.18425 -7.154481,0.52235 -10.593751,1.01367 0.24568,5.77306 0.39954,12.34498 0.46094,19.71485 0.12283,7.36986 0.18359,15.07761 0.18359,23.12304 l 0,8.19922 c 0,2.64087 -0.0304,5.28101 -0.0918,7.921878 0,2.57945 -0.0304,5.22154 -0.0918,7.92383 0,2.64086 -0.0304,5.37215 -0.0918,8.19726 3.13219,0.3685 6.080061,0.61545 8.843751,0.73828 2.82512,0.18425 5.37411,0.27539 7.64649,0.27539 0.16876,0 0.33057,-0.005 0.49804,-0.006 0.0911,3e-4 0.19691,0.006 0.28711,0.006 11.4,0 19.80117,-2.06898 25.20117,-6.20898 5.4,-4.2 8.09961,-10.64961 8.09961,-19.349608 0,-0.0858 -0.007,-0.16478 -0.008,-0.25 10e-4,-0.11896 0.008,-0.23372 0.008,-0.35351 0,-6.32581 -1.38278,-11.20918 -4.14648,-14.64844 -2.35211,-2.97933 -5.87181,-5.08174 -10.53711,-6.32617 2.61338,-0.81135 4.78176,-2.25128 6.49219,-4.3418 2.22,-2.7 3.33007,-5.9407 3.33007,-9.7207 0,-0.67865 -0.0446,-1.33192 -0.12695,-1.96289 -0.29786,-9.53979 -8.82738,-14.3125 -25.59765,-14.3125 z m -0.0137,14.74609 c 3.18,0 5.57922,0.47945 7.19922,1.43945 0.8707,0.49754 1.5122,1.10886 1.93164,1.83203 0.0571,0.30723 0.0957,0.6232 0.0957,0.95899 0,2.02671 -0.98197,3.6545 -2.94727,4.88281 -1.96529,1.22831 -4.60739,1.8418 -7.92383,1.8418 l -1.75,0 c -0.35718,0 -0.8017,-0.0346 -1.28711,-0.0859 l 0,-10.33008 c 0.48,-0.18 1.11063,-0.29937 1.89063,-0.35937 0.84,-0.12 1.77101,-0.17969 2.79101,-0.17969 z m 1.34961,24.20898 c 3.66,0 6.50883,0.60078 8.54883,1.80078 1.00508,0.57433 1.76307,1.27594 2.28711,2.09766 0.29866,0.71632 0.44922,1.509 0.44922,2.37891 0,2.27237 -1.01235,4.02168 -3.03906,5.25 -1.9653,1.2283 -4.88278,1.84375 -8.75196,1.84375 -1.1669,0 -2.36544,-0.0627 -3.59375,-0.18555 -0.78484,-0.0785 -1.39754,-0.17379 -1.93164,-0.27734 l 0,-12.54883 c 1.38,-0.12 2.51993,-0.20953 3.41992,-0.26953 0.96001,-0.06 1.83133,-0.0898 2.61133,-0.0898 z"
         id="path5131"
         inkscape:connector-curvature="0" />
      <g
         transform="translate(-227.24753,-405.74003)"
         id="g4621"
         style="display:inline">
        <path
           style="fill:#ff5555;fill-rule:evenodd;stroke:none;stroke-width:0.1;stroke-linecap:butt;stroke-linejoin:miter;stroke-miterlimit:4;stroke-dasharray:none;stroke-opacity:1"
           d="m 150.79382,510.83798 c -0.58121,0.90216 -2.56724,1.28436 -4.24376,1.31186 -1.37916,0.0226 -2.9837,-0.34622 -4.68087,-0.8182 -2.15369,-0.59889 -3.91664,-1.61855 -5.28978,-2.34465 -0.6015,-0.31807 -1.15696,-0.84152 -1.52475,-1.33362 -0.40833,-0.54636 -0.60372,-1.0456 -0.47367,-1.49617 0.45177,-1.56521 1.778,-2.37995 8.92463,-0.49366 4.53605,1.19726 7.96874,4.1181 7.2882,5.17444 z"
           id="path3485"
           inkscape:connector-curvature="0"
           sodipodi:nodetypes="ssssssss" />
        <g
           id="g4603">
          <path
             style="fill:none;fill-rule:evenodd;stroke:#000000;stroke-width:0.1;stroke-linecap:butt;stroke-linejoin:miter;stroke-miterlimit:4;stroke-dasharray:none;stroke-opacity:1"
             d="m 150.37102,510.68328 c -0.55097,0.85521 -2.43364,1.21753 -4.02291,1.24359 -1.30739,0.0214 -2.82842,-0.3282 -4.43727,-0.77562 -2.04159,-0.56777 -3.71281,-1.53431 -5.01449,-2.22263 -0.5702,-0.30151 -1.09675,-0.79773 -1.4454,-1.26421 -0.38708,-0.51793 -0.5723,-0.99118 -0.44902,-1.41832 0.42826,-1.48375 1.68547,-2.25608 8.46018,-0.46795 4.29998,1.13494 7.55404,3.90378 6.90891,4.90514 z"
             id="path4288"
             inkscape:connector-curvature="0"
             sodipodi:nodetypes="ssssssss" />
          <path
             sodipodi:nodetypes="ssssssssssssssssssssssssssssssssssssssssss"
             inkscape:connector-curvature="0"
             id="path4297"
             d="m 136.74195,506.71071 c -0.0375,0.3661 -0.0737,0.80251 0.13043,1.08165 0.12869,0.17602 0.38827,0.32597 0.58706,0.2334 0.23557,-0.10969 0.10649,-0.62517 0.33372,-0.75591 0.33818,-0.19463 0.89261,-0.12169 1.09443,0.20945 0.2595,0.42576 -0.48735,1.08662 -0.29507,1.55537 0.16086,0.39214 0.63718,0.71481 1.03417,0.61818 0.54184,-0.1319 0.50315,-1.44245 1.05192,-1.44341 0.31807,-6e-4 0.45307,0.50245 0.52899,0.83452 0.0878,0.38394 -0.31734,0.87853 -0.11612,1.20223 0.18007,0.28967 0.64511,0.44568 0.94167,0.27187 0.33615,-0.19701 0.0818,-0.92301 0.394,-1.16462 0.24198,-0.18731 0.65361,-0.20473 0.86766,-0.005 0.32684,0.3047 -0.10293,1.07199 0.18739,1.4177 0.27774,0.33072 0.84102,0.53721 1.21955,0.30942 0.39566,-0.23807 0.0757,-1.14396 0.47423,-1.37582 0.22977,-0.13369 0.55198,0.0206 0.72846,0.21031 0.22088,0.23746 0.0186,0.76808 0.25333,0.98931 0.25819,0.24331 0.71079,0.31548 1.03472,0.14959 0.52668,-0.26974 1.06806,-0.99374 0.96161,-1.59733 -0.0569,-0.32258 -0.46304,-0.62728 -0.75557,-0.51642 -0.13176,0.0499 -0.0309,0.36498 -0.16046,0.42241 -0.22652,0.10046 -0.5044,-0.12127 -0.63541,-0.33259 -0.20841,-0.33625 0.13006,-0.90796 -0.085,-1.23899 -0.30036,-0.46231 -0.93153,-0.87144 -1.44208,-0.67202 -0.40834,0.15951 -0.24607,1.05746 -0.64693,1.24075 -0.19277,0.0881 -0.45424,-0.0204 -0.58064,-0.18898 -0.29157,-0.38873 0.16164,-1.14701 -0.13556,-1.53057 -0.25756,-0.33238 -0.79116,-0.52557 -1.17264,-0.33855 -0.44208,0.21676 -0.24052,1.2101 -0.69235,1.39808 -0.19638,0.0817 -0.42668,-0.0876 -0.56361,-0.24796 -0.27772,-0.32528 -0.0546,-1.01422 -0.38063,-1.28174 -0.18304,-0.15016 -0.50629,-0.18489 -0.70281,-0.0325 -0.26998,0.20946 -0.0106,0.8391 -0.29525,1.02267 -0.15339,0.0989 -0.38712,0.0105 -0.50317,-0.12393 -0.27417,-0.31775 0.10717,-1.03185 -0.19802,-1.31423 -0.33772,-0.31249 -0.97734,-0.29539 -1.36368,-0.0102 -0.31232,0.23051 -0.11121,0.90472 -0.42387,1.13469 -0.0653,0.0481 -0.17795,0.0557 -0.23025,-0.003 -0.17253,-0.19221 0.23307,-0.71391 0.008,-0.82856 -0.1102,-0.0562 -0.22852,0.14117 -0.30406,0.25311 -0.087,0.12885 -0.13245,0.2915 -0.14837,0.44722 z"
             style="fill:none;fill-rule:evenodd;stroke:#000000;stroke-width:0.2;stroke-linecap:butt;stroke-linejoin:miter;stroke-miterlimit:4;stroke-dasharray:none;stroke-opacity:1" />
        </g>
      </g>
      <g
         id="g4304"
         transform="matrix(0.77671325,-0.17009256,0.11455338,0.71714601,-248.82305,-245.5902)"
         style="display:inline">
        <path
           sodipodi:nodetypes="ssssssss"
           inkscape:connector-curvature="0"
           id="path4306"
           d="m 155.0625,479.50073 c -0.30817,1.02798 -2.11025,1.94607 -3.71336,2.43752 -1.31877,0.40428 -2.96265,0.49498 -4.72414,0.51228 -2.2353,0.022 -4.21191,-0.46864 -5.73257,-0.78537 -0.66613,-0.13874 -1.34499,-0.48758 -1.83484,-0.85835 -0.54386,-0.41166 -0.87006,-0.83711 -0.87009,-1.30608 -1.2e-4,-1.6291 1.04808,-2.77974 8.4375,-2.94979 4.69015,-0.10793 8.79833,1.74614 8.4375,2.94979 z"
           style="fill:#ff5555;fill-rule:evenodd;stroke:none;stroke-width:1px;stroke-linecap:butt;stroke-linejoin:miter;stroke-opacity:1" />
        <path
           style="fill:none;fill-rule:evenodd;stroke:#000000;stroke-width:0.09479585;stroke-linecap:butt;stroke-linejoin:miter;stroke-miterlimit:4;stroke-dasharray:none;stroke-opacity:1"
           d="m 154.61338,479.46938 c -0.29214,0.97448 -2.00043,1.8448 -3.52011,2.31067 -1.25014,0.38324 -2.80847,0.46922 -4.47829,0.48562 -2.11897,0.0208 -3.99271,-0.44425 -5.43424,-0.7445 -0.63146,-0.13152 -1.27499,-0.46221 -1.73935,-0.81368 -0.51555,-0.39024 -0.82478,-0.79354 -0.82481,-1.23811 -1.1e-4,-1.54432 0.99354,-2.63507 7.9984,-2.79627 4.44606,-0.10232 8.34046,1.65526 7.9984,2.79627 z"
           id="path4308"
           inkscape:connector-curvature="0"
           sodipodi:nodetypes="ssssssss" />
        <path
           sodipodi:nodetypes="ssssssssssssssssssssssssssssssssssssssssss"
           inkscape:connector-curvature="0"
           id="path4310"
           d="m 140.4172,479.43312 c 0.0655,0.36214 0.15184,0.79145 0.42534,1.00303 0.17246,0.13341 0.46345,0.20548 0.62876,0.0614 0.1959,-0.17073 -0.0711,-0.63018 0.11095,-0.81882 0.27092,-0.28079 0.82383,-0.3645 1.10958,-0.10234 0.36742,0.33708 -0.16682,1.17917 0.14794,1.57619 0.26332,0.33213 0.81045,0.51002 1.16506,0.30706 0.48399,-0.27702 0.0833,-1.52541 0.61027,-1.67855 0.30542,-0.0888 0.57466,0.35706 0.73971,0.65504 0.19085,0.34452 -0.0612,0.93208 0.22191,1.18727 0.25335,0.22835 0.74342,0.24925 0.98013,0 0.26832,-0.28252 -0.17739,-0.90949 0.0555,-1.22821 0.18053,-0.24708 0.57118,-0.37799 0.83218,-0.24564 0.39853,0.20209 0.19846,1.05848 0.57328,1.31009 0.35857,0.24071 0.95703,0.28285 1.25752,-0.041 0.3141,-0.33847 -0.24458,-1.12006 0.074,-1.45337 0.18367,-0.19218 0.53602,-0.13334 0.75821,0 0.27808,0.16687 0.2309,0.73278 0.5178,0.88022 0.31555,0.16214 0.77041,0.10594 1.03561,-0.14329 0.43119,-0.40525 0.75051,-1.25101 0.48081,-1.80138 -0.14414,-0.29414 -0.61886,-0.47423 -0.86916,-0.28658 -0.11275,0.0845 0.0715,0.35924 -0.037,0.45034 -0.18977,0.15935 -0.51824,0.0234 -0.70273,-0.14329 -0.2935,-0.26524 -0.12689,-0.90841 -0.42534,-1.16679 -0.41681,-0.36086 -1.1367,-0.57886 -1.5719,-0.24565 -0.34807,0.26652 0.0569,1.08422 -0.27739,1.37151 -0.16076,0.13814 -0.44208,0.10637 -0.61027,-0.0205 -0.38796,-0.2926 -0.16286,-1.14684 -0.55479,-1.43291 -0.33965,-0.2479 -0.9059,-0.2855 -1.22053,0 -0.36461,0.33088 0.10457,1.22933 -0.27739,1.53526 -0.16601,0.13296 -0.43423,0.0342 -0.61027,-0.0819 -0.35705,-0.23548 -0.33381,-0.95927 -0.72122,-1.12586 -0.21751,-0.0935 -0.53771,-0.0372 -0.68424,0.16376 -0.20129,0.27613 0.22258,0.80911 0,1.06444 -0.11993,0.13758 -0.369,0.1175 -0.5178,0.0205 -0.35155,-0.22923 -0.18325,-1.02109 -0.55479,-1.20774 -0.41115,-0.20655 -1.02092,-0.0127 -1.313,0.36846 -0.23612,0.3081 0.14411,0.90007 -0.0925,1.20774 -0.0494,0.0643 -0.15551,0.10289 -0.22192,0.0614 -0.21908,-0.13681 0.0259,-0.75055 -0.22191,-0.79834 -0.12146,-0.0234 -0.1804,0.19902 -0.22192,0.32752 -0.0478,0.14791 -0.0464,0.3168 -0.0185,0.47083 z"
           style="fill:none;fill-rule:evenodd;stroke:#000000;stroke-width:0.18799999;stroke-linecap:butt;stroke-linejoin:miter;stroke-miterlimit:4;stroke-dasharray:none;stroke-opacity:1" />
      </g>
      <g
         transform="matrix(0.65016548,0,0,0.65016548,-75.469529,-224.45067)"
         id="g4627"
         style="display:inline">
        <path
           sodipodi:nodetypes="ssssssss"
           inkscape:connector-curvature="0"
           id="path4629"
           d="m 150.79382,510.83798 c -0.58121,0.90216 -2.56724,1.28436 -4.24376,1.31186 -1.37916,0.0226 -2.9837,-0.34622 -4.68087,-0.8182 -2.15369,-0.59889 -3.91664,-1.61855 -5.28978,-2.34465 -0.6015,-0.31807 -1.15696,-0.84152 -1.52475,-1.33362 -0.40833,-0.54636 -0.60372,-1.0456 -0.47367,-1.49617 0.45177,-1.56521 1.778,-2.37995 8.92463,-0.49366 4.53605,1.19726 7.96874,4.1181 7.2882,5.17444 z"
           style="fill:#ff5555;fill-rule:evenodd;stroke:none;stroke-width:0.1;stroke-linecap:butt;stroke-linejoin:miter;stroke-miterlimit:4;stroke-dasharray:none;stroke-opacity:1" />
        <g
           id="g4631">
          <path
             sodipodi:nodetypes="ssssssss"
             inkscape:connector-curvature="0"
             id="path4633"
             d="m 150.37102,510.68328 c -0.55097,0.85521 -2.43364,1.21753 -4.02291,1.24359 -1.30739,0.0214 -2.82842,-0.3282 -4.43727,-0.77562 -2.04159,-0.56777 -3.71281,-1.53431 -5.01449,-2.22263 -0.5702,-0.30151 -1.09675,-0.79773 -1.4454,-1.26421 -0.38708,-0.51793 -0.5723,-0.99118 -0.44902,-1.41832 0.42826,-1.48375 1.68547,-2.25608 8.46018,-0.46795 4.29998,1.13494 7.55404,3.90378 6.90891,4.90514 z"
             style="fill:none;fill-rule:evenodd;stroke:#000000;stroke-width:0.1;stroke-linecap:butt;stroke-linejoin:miter;stroke-miterlimit:4;stroke-dasharray:none;stroke-opacity:1" />
          <path
             style="fill:none;fill-rule:evenodd;stroke:#000000;stroke-width:0.2;stroke-linecap:butt;stroke-linejoin:miter;stroke-miterlimit:4;stroke-dasharray:none;stroke-opacity:1"
             d="m 136.74195,506.71071 c -0.0375,0.3661 -0.0737,0.80251 0.13043,1.08165 0.12869,0.17602 0.38827,0.32597 0.58706,0.2334 0.23557,-0.10969 0.10649,-0.62517 0.33372,-0.75591 0.33818,-0.19463 0.89261,-0.12169 1.09443,0.20945 0.2595,0.42576 -0.48735,1.08662 -0.29507,1.55537 0.16086,0.39214 0.63718,0.71481 1.03417,0.61818 0.54184,-0.1319 0.50315,-1.44245 1.05192,-1.44341 0.31807,-6e-4 0.45307,0.50245 0.52899,0.83452 0.0878,0.38394 -0.31734,0.87853 -0.11612,1.20223 0.18007,0.28967 0.64511,0.44568 0.94167,0.27187 0.33615,-0.19701 0.0818,-0.92301 0.394,-1.16462 0.24198,-0.18731 0.65361,-0.20473 0.86766,-0.005 0.32684,0.3047 -0.10293,1.07199 0.18739,1.4177 0.27774,0.33072 0.84102,0.53721 1.21955,0.30942 0.39566,-0.23807 0.0757,-1.14396 0.47423,-1.37582 0.22977,-0.13369 0.55198,0.0206 0.72846,0.21031 0.22088,0.23746 0.0186,0.76808 0.25333,0.98931 0.25819,0.24331 0.71079,0.31548 1.03472,0.14959 0.52668,-0.26974 1.06806,-0.99374 0.96161,-1.59733 -0.0569,-0.32258 -0.46304,-0.62728 -0.75557,-0.51642 -0.13176,0.0499 -0.0309,0.36498 -0.16046,0.42241 -0.22652,0.10046 -0.5044,-0.12127 -0.63541,-0.33259 -0.20841,-0.33625 0.13006,-0.90796 -0.085,-1.23899 -0.30036,-0.46231 -0.93153,-0.87144 -1.44208,-0.67202 -0.40834,0.15951 -0.24607,1.05746 -0.64693,1.24075 -0.19277,0.0881 -0.45424,-0.0204 -0.58064,-0.18898 -0.29157,-0.38873 0.16164,-1.14701 -0.13556,-1.53057 -0.25756,-0.33238 -0.79116,-0.52557 -1.17264,-0.33855 -0.44208,0.21676 -0.24052,1.2101 -0.69235,1.39808 -0.19638,0.0817 -0.42668,-0.0876 -0.56361,-0.24796 -0.27772,-0.32528 -0.0546,-1.01422 -0.38063,-1.28174 -0.18304,-0.15016 -0.50629,-0.18489 -0.70281,-0.0325 -0.26998,0.20946 -0.0106,0.8391 -0.29525,1.02267 -0.15339,0.0989 -0.38712,0.0105 -0.50317,-0.12393 -0.27417,-0.31775 0.10717,-1.03185 -0.19802,-1.31423 -0.33772,-0.31249 -0.97734,-0.29539 -1.36368,-0.0102 -0.31232,0.23051 -0.11121,0.90472 -0.42387,1.13469 -0.0653,0.0481 -0.17795,0.0557 -0.23025,-0.003 -0.17253,-0.19221 0.23307,-0.71391 0.008,-0.82856 -0.1102,-0.0562 -0.22852,0.14117 -0.30406,0.25311 -0.087,0.12885 -0.13245,0.2915 -0.14837,0.44722 z"
             id="path4635"
             inkscape:connector-curvature="0"
             sodipodi:nodetypes="ssssssssssssssssssssssssssssssssssssssssss" />
        </g>
      </g>
      <g
         transform="matrix(0.5689444,0.31467034,-0.31467034,0.5689444,98.209011,-281.80793)"
         id="g4647"
         style="display:inline">
        <path
           sodipodi:nodetypes="ssssssss"
           inkscape:connector-curvature="0"
           id="path4649"
           d="m 150.79382,510.83798 c -0.58121,0.90216 -2.56724,1.28436 -4.24376,1.31186 -1.37916,0.0226 -2.9837,-0.34622 -4.68087,-0.8182 -2.15369,-0.59889 -3.91664,-1.61855 -5.28978,-2.34465 -0.6015,-0.31807 -1.15696,-0.84152 -1.52475,-1.33362 -0.40833,-0.54636 -0.60372,-1.0456 -0.47367,-1.49617 0.45177,-1.56521 1.778,-2.37995 8.92463,-0.49366 4.53605,1.19726 7.96874,4.1181 7.2882,5.17444 z"
           style="fill:#ff5555;fill-rule:evenodd;stroke:none;stroke-width:0.1;stroke-linecap:butt;stroke-linejoin:miter;stroke-miterlimit:4;stroke-dasharray:none;stroke-opacity:1" />
        <g
           id="g4651">
          <path
             sodipodi:nodetypes="ssssssss"
             inkscape:connector-curvature="0"
             id="path4653"
             d="m 150.37102,510.68328 c -0.55097,0.85521 -2.43364,1.21753 -4.02291,1.24359 -1.30739,0.0214 -2.82842,-0.3282 -4.43727,-0.77562 -2.04159,-0.56777 -3.71281,-1.53431 -5.01449,-2.22263 -0.5702,-0.30151 -1.09675,-0.79773 -1.4454,-1.26421 -0.38708,-0.51793 -0.5723,-0.99118 -0.44902,-1.41832 0.42826,-1.48375 1.68547,-2.25608 8.46018,-0.46795 4.29998,1.13494 7.55404,3.90378 6.90891,4.90514 z"
             style="fill:none;fill-rule:evenodd;stroke:#000000;stroke-width:0.1;stroke-linecap:butt;stroke-linejoin:miter;stroke-miterlimit:4;stroke-dasharray:none;stroke-opacity:1" />
          <path
             style="fill:none;fill-rule:evenodd;stroke:#000000;stroke-width:0.2;stroke-linecap:butt;stroke-linejoin:miter;stroke-miterlimit:4;stroke-dasharray:none;stroke-opacity:1"
             d="m 136.74195,506.71071 c -0.0375,0.3661 -0.0737,0.80251 0.13043,1.08165 0.12869,0.17602 0.38827,0.32597 0.58706,0.2334 0.23557,-0.10969 0.10649,-0.62517 0.33372,-0.75591 0.33818,-0.19463 0.89261,-0.12169 1.09443,0.20945 0.2595,0.42576 -0.48735,1.08662 -0.29507,1.55537 0.16086,0.39214 0.63718,0.71481 1.03417,0.61818 0.54184,-0.1319 0.50315,-1.44245 1.05192,-1.44341 0.31807,-6e-4 0.45307,0.50245 0.52899,0.83452 0.0878,0.38394 -0.31734,0.87853 -0.11612,1.20223 0.18007,0.28967 0.64511,0.44568 0.94167,0.27187 0.33615,-0.19701 0.0818,-0.92301 0.394,-1.16462 0.24198,-0.18731 0.65361,-0.20473 0.86766,-0.005 0.32684,0.3047 -0.10293,1.07199 0.18739,1.4177 0.27774,0.33072 0.84102,0.53721 1.21955,0.30942 0.39566,-0.23807 0.0757,-1.14396 0.47423,-1.37582 0.22977,-0.13369 0.55198,0.0206 0.72846,0.21031 0.22088,0.23746 0.0186,0.76808 0.25333,0.98931 0.25819,0.24331 0.71079,0.31548 1.03472,0.14959 0.52668,-0.26974 1.06806,-0.99374 0.96161,-1.59733 -0.0569,-0.32258 -0.46304,-0.62728 -0.75557,-0.51642 -0.13176,0.0499 -0.0309,0.36498 -0.16046,0.42241 -0.22652,0.10046 -0.5044,-0.12127 -0.63541,-0.33259 -0.20841,-0.33625 0.13006,-0.90796 -0.085,-1.23899 -0.30036,-0.46231 -0.93153,-0.87144 -1.44208,-0.67202 -0.40834,0.15951 -0.24607,1.05746 -0.64693,1.24075 -0.19277,0.0881 -0.45424,-0.0204 -0.58064,-0.18898 -0.29157,-0.38873 0.16164,-1.14701 -0.13556,-1.53057 -0.25756,-0.33238 -0.79116,-0.52557 -1.17264,-0.33855 -0.44208,0.21676 -0.24052,1.2101 -0.69235,1.39808 -0.19638,0.0817 -0.42668,-0.0876 -0.56361,-0.24796 -0.27772,-0.32528 -0.0546,-1.01422 -0.38063,-1.28174 -0.18304,-0.15016 -0.50629,-0.18489 -0.70281,-0.0325 -0.26998,0.20946 -0.0106,0.8391 -0.29525,1.02267 -0.15339,0.0989 -0.38712,0.0105 -0.50317,-0.12393 -0.27417,-0.31775 0.10717,-1.03185 -0.19802,-1.31423 -0.33772,-0.31249 -0.97734,-0.29539 -1.36368,-0.0102 -0.31232,0.23051 -0.11121,0.90472 -0.42387,1.13469 -0.0653,0.0481 -0.17795,0.0557 -0.23025,-0.003 -0.17253,-0.19221 0.23307,-0.71391 0.008,-0.82856 -0.1102,-0.0562 -0.22852,0.14117 -0.30406,0.25311 -0.087,0.12885 -0.13245,0.2915 -0.14837,0.44722 z"
             id="path4655"
             inkscape:connector-curvature="0"
             sodipodi:nodetypes="ssssssssssssssssssssssssssssssssssssssssss" />
        </g>
      </g>
      <path
         sodipodi:nodetypes="cccc"
         inkscape:connector-curvature="0"
         id="rect5380"
         d="m -99.164119,93.841892 c 2.26806,-0.0143 3.74827,1.27481 4.53539,2.62293 -1.28305,1.43382 -3.66717,1.96532 -5.14829,1.85755 -0.567431,-1.15863 -0.20072,-3.43838 0.6129,-4.48048 z"
         style="display:inline;fill:#8787de;stroke:none;stroke-width:0.2;stroke-miterlimit:4;stroke-dasharray:none;stroke-dashoffset:0;stroke-opacity:1" />
      <path
         style="display:inline;fill:#8787de;stroke:none;stroke-width:0.2;stroke-miterlimit:4;stroke-dasharray:none;stroke-dashoffset:0;stroke-opacity:1"
         d="m -77.536279,48.945502 c 1.80427,1.37438 1.50098,2.54927 1.30046,4.09742 -1.89175,0.3512 -3.41639,0.0653 -4.52308,-0.92488 0.25867,-1.26392 1.94183,-2.84465 3.22262,-3.17254 z"
         id="path5383"
         inkscape:connector-curvature="0"
         sodipodi:nodetypes="cccc" />
      <path
         style="display:inline;fill:#8787de;stroke:none;stroke-width:0.2;stroke-miterlimit:4;stroke-dasharray:none;stroke-dashoffset:0;stroke-opacity:1"
         d="m 27.761551,108.33758 c 2.26806,-0.0143 3.74827,1.27481 4.53539,2.62293 -1.28305,1.43382 -3.66717,1.96532 -5.14829,1.85755 -0.56743,-1.15863 -0.20072,-3.43838 0.6129,-4.48048 z"
         id="path4665"
         inkscape:connector-curvature="0"
         sodipodi:nodetypes="cccc" />
      <path
         sodipodi:nodetypes="cccc"
         inkscape:connector-curvature="0"
         id="path4667"
         d="m 33.125931,60.789542 c 1.80427,1.37438 1.50098,2.54927 1.30046,4.09742 -1.89175,0.3512 -3.41639,0.0653 -4.52308,-0.92488 0.25867,-1.26392 1.94183,-2.84465 3.22262,-3.17254 z"
         style="display:inline;fill:#8787de;stroke:none;stroke-width:0.2;stroke-miterlimit:4;stroke-dasharray:none;stroke-dashoffset:0;stroke-opacity:1" />
      <circle
         r="2.8284271"
         cy="48.617447"
         cx="-98.112152"
         id="path5355"
         style="display:inline;fill:#ff7f2a;stroke:#c83737;stroke-width:0.2;stroke-miterlimit:4;stroke-dasharray:none;stroke-dashoffset:0;stroke-opacity:1" />
      <circle
         style="display:inline;fill:#ff7f2a;stroke:#c83737;stroke-width:0.14868912;stroke-miterlimit:4;stroke-dasharray:none;stroke-dashoffset:0;stroke-opacity:1"
         id="circle5357"
         cx="-68.723022"
         cy="59.621841"
         r="2.1027815" />
      <circle
         r="1.6759312"
         cy="84.989273"
         cx="-97.979568"
         id="circle5359"
         style="display:inline;fill:#ff7f2a;stroke:#c83737;stroke-width:0.11850625;stroke-miterlimit:4;stroke-dasharray:none;stroke-dashoffset:0;stroke-opacity:1" />
      <circle
         style="display:inline;fill:#ff7f2a;stroke:#c83737;stroke-width:0.16679886;stroke-miterlimit:4;stroke-dasharray:none;stroke-dashoffset:0;stroke-opacity:1"
         id="circle5361"
         cx="-63.773285"
         cy="87.28743"
         r="2.3588917" />
      <circle
         r="2.9625492"
         cy="111.16237"
         cx="-91.648285"
         id="circle5363"
         style="display:inline;fill:#ff7f2a;stroke:#c83737;stroke-width:0.20948389;stroke-miterlimit:4;stroke-dasharray:none;stroke-dashoffset:0;stroke-opacity:1" />
      <circle
         style="display:inline;fill:#ff7f2a;stroke:#c83737;stroke-width:0.10703981;stroke-miterlimit:4;stroke-dasharray:none;stroke-dashoffset:0;stroke-opacity:1"
         id="circle5365"
         cx="-71.648285"
         cy="103.91237"
         r="1.5137713" />
      <circle
         style="display:inline;fill:#ff7f2a;stroke:#c83737;stroke-width:0.2;stroke-miterlimit:4;stroke-dasharray:none;stroke-dashoffset:0;stroke-opacity:1"
         id="circle4689"
         cx="32.525814"
         cy="73.542984"
         r="2.8284271" />
      <circle
         r="2.1027815"
         cy="113.89223"
         cx="15.42268"
         id="circle4691"
         style="display:inline;fill:#ff7f2a;stroke:#c83737;stroke-width:0.14868912;stroke-miterlimit:4;stroke-dasharray:none;stroke-dashoffset:0;stroke-opacity:1" />
      <circle
         r="1.5137713"
         cy="83.759842"
         cx="28.230541"
         id="circle4693"
         style="display:inline;fill:#ff7f2a;stroke:#c83737;stroke-width:0.10703981;stroke-miterlimit:4;stroke-dasharray:none;stroke-dashoffset:0;stroke-opacity:1" />
      <g
         transform="translate(-227.24753,-405.74003)"
         id="g4577"
         style="display:inline">
        <circle
           style="fill:#672178;stroke:#53536c;stroke-width:0.30000001;stroke-linecap:round;stroke-linejoin:round;stroke-miterlimit:4;stroke-dasharray:none;stroke-opacity:1"
           id="path4429"
           cx="129.84248"
           cy="478.13394"
           r="4.8613591" />
        <ellipse
           style="fill:#c8ab37;stroke:#447821;stroke-width:0.30000001;stroke-linecap:round;stroke-linejoin:round;stroke-miterlimit:4;stroke-dasharray:none;stroke-opacity:1"
           id="path4431"
           cx="132.11848"
           cy="478.81897"
           rx="1.6572815"
           ry="1.6130873" />
      </g>
      <g
         transform="matrix(0.8059864,0,0,0.8059864,-73.451279,-334.27714)"
         id="g4657"
         style="display:inline">
        <circle
           r="4.8613591"
           cy="478.13394"
           cx="129.84248"
           id="circle4659"
           style="fill:#672178;stroke:#53536c;stroke-width:0.30000001;stroke-linecap:round;stroke-linejoin:round;stroke-miterlimit:4;stroke-dasharray:none;stroke-opacity:1" />
        <ellipse
           ry="1.6130873"
           rx="1.6572815"
           cy="478.81897"
           cx="132.11848"
           id="ellipse4661"
           style="fill:#c8ab37;stroke:#447821;stroke-width:0.30000001;stroke-linecap:round;stroke-linejoin:round;stroke-miterlimit:4;stroke-dasharray:none;stroke-opacity:1" />
      </g>
      <g
         transform="translate(-186.37253,-369.49003)"
         id="g4377"
         style="display:inline">
        <ellipse
           style="fill:#c8b7b7;stroke:#483737;stroke-width:0.1;stroke-linecap:round;stroke-linejoin:round;stroke-miterlimit:4;stroke-dasharray:none;stroke-opacity:1"
           id="path4359"
           cx="-117.78978"
           cy="470.5614"
           rx="0.65625"
           ry="0.34375"
           transform="matrix(0.874638,-0.48477662,0.48477662,0.874638,0,0)" />
        <ellipse
           transform="matrix(0.96073727,-0.27745973,0.27745973,0.96073727,0,0)"
           ry="0.26566407"
           rx="0.50717688"
           cy="486.43735"
           cx="-10.113874"
           id="ellipse4361"
           style="fill:#c8b7b7;stroke:#483737;stroke-width:0.0772841;stroke-linecap:round;stroke-linejoin:round;stroke-miterlimit:4;stroke-dasharray:none;stroke-opacity:1" />
        <ellipse
           style="fill:#c8b7b7;stroke:#483737;stroke-width:0.08825003;stroke-linecap:round;stroke-linejoin:round;stroke-miterlimit:4;stroke-dasharray:none;stroke-opacity:1"
           id="ellipse4363"
           cx="22.601"
           cy="488.70169"
           rx="0.51578605"
           ry="0.3406215"
           transform="matrix(0.93461505,-0.35566094,0.21409127,0.97681366,0,0)" />
        <ellipse
           transform="matrix(0.96422767,0.26507546,-0.40423464,0.91465532,0,0)"
           ry="0.3406215"
           rx="0.51578605"
           cy="424.00363"
           cx="309.4025"
           id="ellipse4365"
           style="fill:#c8b7b7;stroke:#483737;stroke-width:0.08825003;stroke-linecap:round;stroke-linejoin:round;stroke-miterlimit:4;stroke-dasharray:none;stroke-opacity:1" />
        <ellipse
           style="fill:#c8b7b7;stroke:#483737;stroke-width:0.0772841;stroke-linecap:round;stroke-linejoin:round;stroke-miterlimit:4;stroke-dasharray:none;stroke-opacity:1"
           id="ellipse4367"
           cx="-205.06822"
           cy="442.09879"
           rx="0.50717688"
           ry="0.26566407"
           transform="matrix(0.76718275,-0.64142858,0.64142858,0.76718275,0,0)" />
        <ellipse
           transform="matrix(-0.98683044,0.16175812,-0.414419,0.9100862,0,0)"
           ry="0.41118899"
           rx="0.39428997"
           cy="581.95868"
           cx="-370.26978"
           id="ellipse4369"
           style="fill:#c8b7b7;stroke:#483737;stroke-width:0.08477594;stroke-linecap:round;stroke-linejoin:round;stroke-miterlimit:4;stroke-dasharray:none;stroke-opacity:1"
           inkscape:transform-center-x="0.62499397"
           inkscape:transform-center-y="-0.31251221" />
        <ellipse
           style="fill:#c8b7b7;stroke:#483737;stroke-width:0.0998496;stroke-linecap:round;stroke-linejoin:round;stroke-miterlimit:4;stroke-dasharray:none;stroke-opacity:1"
           id="ellipse4371"
           cx="310.14813"
           cy="427.29742"
           rx="0.58717644"
           ry="0.38303283"
           transform="matrix(0.96529991,0.26114379,-0.40968614,0.91222654,0,0)" />
        <ellipse
           transform="matrix(0.76718275,-0.64142858,0.64142858,0.76718275,0,0)"
           ry="0.26566407"
           rx="0.50717688"
           cy="439.20453"
           cx="-205.94778"
           id="ellipse4373"
           style="fill:#c8b7b7;stroke:#483737;stroke-width:0.0772841;stroke-linecap:round;stroke-linejoin:round;stroke-miterlimit:4;stroke-dasharray:none;stroke-opacity:1" />
        <ellipse
           style="fill:#c8b7b7;stroke:#483737;stroke-width:0.08825003;stroke-linecap:round;stroke-linejoin:round;stroke-miterlimit:4;stroke-dasharray:none;stroke-opacity:1"
           id="ellipse4375"
           cx="471.08472"
           cy="205.05881"
           rx="0.51578605"
           ry="0.3406215"
           transform="matrix(0.64045329,0.76799712,-0.85396981,0.52032256,0,0)" />
      </g>
      <g
         id="g4388"
         transform="translate(-221.90465,-412.26999)"
         style="display:inline">
        <ellipse
           transform="matrix(0.874638,-0.48477662,0.48477662,0.874638,0,0)"
           ry="0.34375"
           rx="0.65625"
           cy="470.5614"
           cx="-117.78978"
           id="ellipse4390"
           style="fill:#c8b7b7;stroke:#483737;stroke-width:0.1;stroke-linecap:round;stroke-linejoin:round;stroke-miterlimit:4;stroke-dasharray:none;stroke-opacity:1" />
        <ellipse
           style="fill:#c8b7b7;stroke:#483737;stroke-width:0.0772841;stroke-linecap:round;stroke-linejoin:round;stroke-miterlimit:4;stroke-dasharray:none;stroke-opacity:1"
           id="ellipse4392"
           cx="-10.113874"
           cy="486.43735"
           rx="0.50717688"
           ry="0.26566407"
           transform="matrix(0.96073727,-0.27745973,0.27745973,0.96073727,0,0)" />
        <ellipse
           transform="matrix(0.93461505,-0.35566094,0.21409127,0.97681366,0,0)"
           ry="0.3406215"
           rx="0.51578605"
           cy="488.70169"
           cx="22.601"
           id="ellipse4394"
           style="fill:#c8b7b7;stroke:#483737;stroke-width:0.08825003;stroke-linecap:round;stroke-linejoin:round;stroke-miterlimit:4;stroke-dasharray:none;stroke-opacity:1" />
        <ellipse
           style="fill:#c8b7b7;stroke:#483737;stroke-width:0.08825003;stroke-linecap:round;stroke-linejoin:round;stroke-miterlimit:4;stroke-dasharray:none;stroke-opacity:1"
           id="ellipse4396"
           cx="309.4025"
           cy="424.00363"
           rx="0.51578605"
           ry="0.3406215"
           transform="matrix(0.96422767,0.26507546,-0.40423464,0.91465532,0,0)" />
        <ellipse
           transform="matrix(0.76718275,-0.64142858,0.64142858,0.76718275,0,0)"
           ry="0.26566407"
           rx="0.50717688"
           cy="442.09879"
           cx="-205.06822"
           id="ellipse4398"
           style="fill:#c8b7b7;stroke:#483737;stroke-width:0.0772841;stroke-linecap:round;stroke-linejoin:round;stroke-miterlimit:4;stroke-dasharray:none;stroke-opacity:1" />
        <ellipse
           inkscape:transform-center-y="-0.31251221"
           inkscape:transform-center-x="0.62499397"
           style="fill:#c8b7b7;stroke:#483737;stroke-width:0.08477594;stroke-linecap:round;stroke-linejoin:round;stroke-miterlimit:4;stroke-dasharray:none;stroke-opacity:1"
           id="ellipse4400"
           cx="-370.26978"
           cy="581.95868"
           rx="0.39428997"
           ry="0.41118899"
           transform="matrix(-0.98683044,0.16175812,-0.414419,0.9100862,0,0)" />
        <ellipse
           transform="matrix(0.96529991,0.26114379,-0.40968614,0.91222654,0,0)"
           ry="0.38303283"
           rx="0.58717644"
           cy="427.29742"
           cx="310.14813"
           id="ellipse4402"
           style="fill:#c8b7b7;stroke:#483737;stroke-width:0.0998496;stroke-linecap:round;stroke-linejoin:round;stroke-miterlimit:4;stroke-dasharray:none;stroke-opacity:1" />
        <ellipse
           style="fill:#c8b7b7;stroke:#483737;stroke-width:0.0772841;stroke-linecap:round;stroke-linejoin:round;stroke-miterlimit:4;stroke-dasharray:none;stroke-opacity:1"
           id="ellipse4404"
           cx="-205.94778"
           cy="439.20453"
           rx="0.50717688"
           ry="0.26566407"
           transform="matrix(0.76718275,-0.64142858,0.64142858,0.76718275,0,0)" />
        <ellipse
           transform="matrix(0.64045329,0.76799712,-0.85396981,0.52032256,0,0)"
           ry="0.3406215"
           rx="0.51578605"
           cy="205.05881"
           cx="471.08472"
           id="ellipse4406"
           style="fill:#c8b7b7;stroke:#483737;stroke-width:0.08825003;stroke-linecap:round;stroke-linejoin:round;stroke-miterlimit:4;stroke-dasharray:none;stroke-opacity:1" />
      </g>
      <g
         transform="translate(-208.99995,-355.34789)"
         id="g4408"
         style="display:inline">
        <ellipse
           style="fill:#c8b7b7;stroke:#483737;stroke-width:0.1;stroke-linecap:round;stroke-linejoin:round;stroke-miterlimit:4;stroke-dasharray:none;stroke-opacity:1"
           id="ellipse4410"
           cx="-117.78978"
           cy="470.5614"
           rx="0.65625"
           ry="0.34375"
           transform="matrix(0.874638,-0.48477662,0.48477662,0.874638,0,0)" />
        <ellipse
           transform="matrix(0.96073727,-0.27745973,0.27745973,0.96073727,0,0)"
           ry="0.26566407"
           rx="0.50717688"
           cy="486.43735"
           cx="-10.113874"
           id="ellipse4412"
           style="fill:#c8b7b7;stroke:#483737;stroke-width:0.0772841;stroke-linecap:round;stroke-linejoin:round;stroke-miterlimit:4;stroke-dasharray:none;stroke-opacity:1" />
        <ellipse
           style="fill:#c8b7b7;stroke:#483737;stroke-width:0.08825003;stroke-linecap:round;stroke-linejoin:round;stroke-miterlimit:4;stroke-dasharray:none;stroke-opacity:1"
           id="ellipse4414"
           cx="22.601"
           cy="488.70169"
           rx="0.51578605"
           ry="0.3406215"
           transform="matrix(0.93461505,-0.35566094,0.21409127,0.97681366,0,0)" />
        <ellipse
           transform="matrix(0.96422767,0.26507546,-0.40423464,0.91465532,0,0)"
           ry="0.3406215"
           rx="0.51578605"
           cy="424.00363"
           cx="309.4025"
           id="ellipse4416"
           style="fill:#c8b7b7;stroke:#483737;stroke-width:0.08825003;stroke-linecap:round;stroke-linejoin:round;stroke-miterlimit:4;stroke-dasharray:none;stroke-opacity:1" />
        <ellipse
           style="fill:#c8b7b7;stroke:#483737;stroke-width:0.0772841;stroke-linecap:round;stroke-linejoin:round;stroke-miterlimit:4;stroke-dasharray:none;stroke-opacity:1"
           id="ellipse4418"
           cx="-205.06822"
           cy="442.09879"
           rx="0.50717688"
           ry="0.26566407"
           transform="matrix(0.76718275,-0.64142858,0.64142858,0.76718275,0,0)" />
        <ellipse
           transform="matrix(-0.98683044,0.16175812,-0.414419,0.9100862,0,0)"
           ry="0.41118899"
           rx="0.39428997"
           cy="581.95868"
           cx="-370.26978"
           id="ellipse4420"
           style="fill:#c8b7b7;stroke:#483737;stroke-width:0.08477594;stroke-linecap:round;stroke-linejoin:round;stroke-miterlimit:4;stroke-dasharray:none;stroke-opacity:1"
           inkscape:transform-center-x="0.62499397"
           inkscape:transform-center-y="-0.31251221" />
        <ellipse
           style="fill:#c8b7b7;stroke:#483737;stroke-width:0.0998496;stroke-linecap:round;stroke-linejoin:round;stroke-miterlimit:4;stroke-dasharray:none;stroke-opacity:1"
           id="ellipse4422"
           cx="310.14813"
           cy="427.29742"
           rx="0.58717644"
           ry="0.38303283"
           transform="matrix(0.96529991,0.26114379,-0.40968614,0.91222654,0,0)" />
        <ellipse
           transform="matrix(0.76718275,-0.64142858,0.64142858,0.76718275,0,0)"
           ry="0.26566407"
           rx="0.50717688"
           cy="439.20453"
           cx="-205.94778"
           id="ellipse4424"
           style="fill:#c8b7b7;stroke:#483737;stroke-width:0.0772841;stroke-linecap:round;stroke-linejoin:round;stroke-miterlimit:4;stroke-dasharray:none;stroke-opacity:1" />
        <ellipse
           style="fill:#c8b7b7;stroke:#483737;stroke-width:0.08825003;stroke-linecap:round;stroke-linejoin:round;stroke-miterlimit:4;stroke-dasharray:none;stroke-opacity:1"
           id="ellipse4426"
           cx="471.08472"
           cy="205.05881"
           rx="0.51578605"
           ry="0.3406215"
           transform="matrix(0.64045329,0.76799712,-0.85396981,0.52032256,0,0)" />
      </g>
      <g
         id="g4583"
         transform="translate(-113.12253,-371.49003)"
         style="display:inline">
        <ellipse
           transform="matrix(0.874638,-0.48477662,0.48477662,0.874638,0,0)"
           ry="0.34375"
           rx="0.65625"
           cy="470.5614"
           cx="-117.78978"
           id="ellipse4585"
           style="fill:#c8b7b7;stroke:#483737;stroke-width:0.1;stroke-linecap:round;stroke-linejoin:round;stroke-miterlimit:4;stroke-dasharray:none;stroke-opacity:1" />
        <ellipse
           style="fill:#c8b7b7;stroke:#483737;stroke-width:0.0772841;stroke-linecap:round;stroke-linejoin:round;stroke-miterlimit:4;stroke-dasharray:none;stroke-opacity:1"
           id="ellipse4587"
           cx="-10.113874"
           cy="486.43735"
           rx="0.50717688"
           ry="0.26566407"
           transform="matrix(0.96073727,-0.27745973,0.27745973,0.96073727,0,0)" />
        <ellipse
           transform="matrix(0.93461505,-0.35566094,0.21409127,0.97681366,0,0)"
           ry="0.3406215"
           rx="0.51578605"
           cy="488.70169"
           cx="22.601"
           id="ellipse4589"
           style="fill:#c8b7b7;stroke:#483737;stroke-width:0.08825003;stroke-linecap:round;stroke-linejoin:round;stroke-miterlimit:4;stroke-dasharray:none;stroke-opacity:1" />
        <ellipse
           style="fill:#c8b7b7;stroke:#483737;stroke-width:0.08825003;stroke-linecap:round;stroke-linejoin:round;stroke-miterlimit:4;stroke-dasharray:none;stroke-opacity:1"
           id="ellipse4591"
           cx="309.4025"
           cy="424.00363"
           rx="0.51578605"
           ry="0.3406215"
           transform="matrix(0.96422767,0.26507546,-0.40423464,0.91465532,0,0)" />
        <ellipse
           transform="matrix(0.76718275,-0.64142858,0.64142858,0.76718275,0,0)"
           ry="0.26566407"
           rx="0.50717688"
           cy="442.09879"
           cx="-205.06822"
           id="ellipse4593"
           style="fill:#c8b7b7;stroke:#483737;stroke-width:0.0772841;stroke-linecap:round;stroke-linejoin:round;stroke-miterlimit:4;stroke-dasharray:none;stroke-opacity:1" />
        <ellipse
           inkscape:transform-center-y="-0.31251221"
           inkscape:transform-center-x="0.62499397"
           style="fill:#c8b7b7;stroke:#483737;stroke-width:0.08477594;stroke-linecap:round;stroke-linejoin:round;stroke-miterlimit:4;stroke-dasharray:none;stroke-opacity:1"
           id="ellipse4595"
           cx="-370.26978"
           cy="581.95868"
           rx="0.39428997"
           ry="0.41118899"
           transform="matrix(-0.98683044,0.16175812,-0.414419,0.9100862,0,0)" />
        <ellipse
           transform="matrix(0.96529991,0.26114379,-0.40968614,0.91222654,0,0)"
           ry="0.38303283"
           rx="0.58717644"
           cy="427.29742"
           cx="310.14813"
           id="ellipse4597"
           style="fill:#c8b7b7;stroke:#483737;stroke-width:0.0998496;stroke-linecap:round;stroke-linejoin:round;stroke-miterlimit:4;stroke-dasharray:none;stroke-opacity:1" />
        <ellipse
           style="fill:#c8b7b7;stroke:#483737;stroke-width:0.0772841;stroke-linecap:round;stroke-linejoin:round;stroke-miterlimit:4;stroke-dasharray:none;stroke-opacity:1"
           id="ellipse4599"
           cx="-205.94778"
           cy="439.20453"
           rx="0.50717688"
           ry="0.26566407"
           transform="matrix(0.76718275,-0.64142858,0.64142858,0.76718275,0,0)" />
        <ellipse
           transform="matrix(0.64045329,0.76799712,-0.85396981,0.52032256,0,0)"
           ry="0.3406215"
           rx="0.51578605"
           cy="205.05881"
           cx="471.08472"
           id="ellipse4601"
           style="fill:#c8b7b7;stroke:#483737;stroke-width:0.08825003;stroke-linecap:round;stroke-linejoin:round;stroke-miterlimit:4;stroke-dasharray:none;stroke-opacity:1" />
      </g>
      <g
         transform="translate(-91.089889,-381.68762)"
         id="g4669"
         style="display:inline">
        <ellipse
           style="fill:#c8b7b7;stroke:#483737;stroke-width:0.1;stroke-linecap:round;stroke-linejoin:round;stroke-miterlimit:4;stroke-dasharray:none;stroke-opacity:1"
           id="ellipse4671"
           cx="-117.78978"
           cy="470.5614"
           rx="0.65625"
           ry="0.34375"
           transform="matrix(0.874638,-0.48477662,0.48477662,0.874638,0,0)" />
        <ellipse
           transform="matrix(0.96073727,-0.27745973,0.27745973,0.96073727,0,0)"
           ry="0.26566407"
           rx="0.50717688"
           cy="486.43735"
           cx="-10.113874"
           id="ellipse4673"
           style="fill:#c8b7b7;stroke:#483737;stroke-width:0.0772841;stroke-linecap:round;stroke-linejoin:round;stroke-miterlimit:4;stroke-dasharray:none;stroke-opacity:1" />
        <ellipse
           style="fill:#c8b7b7;stroke:#483737;stroke-width:0.08825003;stroke-linecap:round;stroke-linejoin:round;stroke-miterlimit:4;stroke-dasharray:none;stroke-opacity:1"
           id="ellipse4675"
           cx="22.601"
           cy="488.70169"
           rx="0.51578605"
           ry="0.3406215"
           transform="matrix(0.93461505,-0.35566094,0.21409127,0.97681366,0,0)" />
        <ellipse
           transform="matrix(0.96422767,0.26507546,-0.40423464,0.91465532,0,0)"
           ry="0.3406215"
           rx="0.51578605"
           cy="424.00363"
           cx="309.4025"
           id="ellipse4677"
           style="fill:#c8b7b7;stroke:#483737;stroke-width:0.08825003;stroke-linecap:round;stroke-linejoin:round;stroke-miterlimit:4;stroke-dasharray:none;stroke-opacity:1" />
        <ellipse
           style="fill:#c8b7b7;stroke:#483737;stroke-width:0.0772841;stroke-linecap:round;stroke-linejoin:round;stroke-miterlimit:4;stroke-dasharray:none;stroke-opacity:1"
           id="ellipse4679"
           cx="-205.06822"
           cy="442.09879"
           rx="0.50717688"
           ry="0.26566407"
           transform="matrix(0.76718275,-0.64142858,0.64142858,0.76718275,0,0)" />
        <ellipse
           transform="matrix(-0.98683044,0.16175812,-0.414419,0.9100862,0,0)"
           ry="0.41118899"
           rx="0.39428997"
           cy="581.95868"
           cx="-370.26978"
           id="ellipse4681"
           style="fill:#c8b7b7;stroke:#483737;stroke-width:0.08477594;stroke-linecap:round;stroke-linejoin:round;stroke-miterlimit:4;stroke-dasharray:none;stroke-opacity:1"
           inkscape:transform-center-x="0.62499397"
           inkscape:transform-center-y="-0.31251221" />
        <ellipse
           style="fill:#c8b7b7;stroke:#483737;stroke-width:0.0998496;stroke-linecap:round;stroke-linejoin:round;stroke-miterlimit:4;stroke-dasharray:none;stroke-opacity:1"
           id="ellipse4683"
           cx="310.14813"
           cy="427.29742"
           rx="0.58717644"
           ry="0.38303283"
           transform="matrix(0.96529991,0.26114379,-0.40968614,0.91222654,0,0)" />
        <ellipse
           transform="matrix(0.76718275,-0.64142858,0.64142858,0.76718275,0,0)"
           ry="0.26566407"
           rx="0.50717688"
           cy="439.20453"
           cx="-205.94778"
           id="ellipse4685"
           style="fill:#c8b7b7;stroke:#483737;stroke-width:0.0772841;stroke-linecap:round;stroke-linejoin:round;stroke-miterlimit:4;stroke-dasharray:none;stroke-opacity:1" />
        <ellipse
           style="fill:#c8b7b7;stroke:#483737;stroke-width:0.08825003;stroke-linecap:round;stroke-linejoin:round;stroke-miterlimit:4;stroke-dasharray:none;stroke-opacity:1"
           id="ellipse4687"
           cx="471.08472"
           cy="205.05881"
           rx="0.51578605"
           ry="0.3406215"
           transform="matrix(0.64045329,0.76799712,-0.85396981,0.52032256,0,0)" />
      </g>
      <path
         inkscape:connector-curvature="0"
         d="m -75.878079,98.338422 c 0.16626,-0.22308 0.87124,-1.15822 0.96435,-1.33562 0.16127,-0.30726 0.2139,-0.66361 0.37358,-0.9717 0.17406,-0.33582 0.42977,-0.6233 0.62197,-0.94907 0.93516,-1.58503 0.0166,-0.33372 1.0166,-1.60408 0.2432,-0.47204 0.23683,-0.39058 0.35761,-0.83719 0.0253,-0.0935 0.0252,-0.19453 0.0631,-0.28366 0.0281,-0.066 0.0703,-0.21039 0.13046,-0.17127 0.83702,0.54421 0.62884,0.55809 0.3775,1.24983 -0.29272,2.22245 0.14597,-0.56678 -0.44748,1.67707 -0.0699,0.26435 -0.0493,0.54547 -0.0996,0.81424 -0.2341,1.25077 -0.12904,0.20027 -0.36254,1.35203 -0.0324,0.15961 -0.0344,0.32389 -0.0517,0.48583 -0.26215,0.85474 -0.0568,0.0409 -0.15127,0.93548 -0.01,0.091 -0.0409,0.17837 -0.0666,0.26616 -0.0297,0.10159 -0.0278,0.2235 -0.0992,0.30161 -0.1156,0.12645 -0.28927,0.37433 -0.43165,0.27903 -0.20616,-0.13799 -0.14379,-0.47487 -0.21568,-0.71231 0.1776,-0.83891 -0.0677,0.068 0.5017,-1.00937 0.73815,-1.3967 -0.20935,-0.0205 0.62592,-1.38277 0.1238,-0.20192 0.28101,-0.38137 0.41899,-0.57389 0.1339,-0.18683 0.26441,-0.37608 0.39662,-0.56412 0.0903,-0.14508 0.19898,-0.28025 0.27099,-0.43524 0.0875,-0.18838 0.417,-1.86378 1.06603,-1.27737 0.16509,0.14916 0.0215,0.44445 0.0323,0.66668 0.0499,0.46177 -0.28521,0.83739 -0.33361,1.27355 -0.0307,0.27687 0.0543,0.55473 0.0673,0.83299 0.0125,0.26689 0.0185,0.53447 0.009,0.8015 -0.008,0.24886 -0.0761,0.49585 -0.0619,0.74444 0.0135,0.23478 0.0961,0.46041 0.14416,0.69061 -0.065,0.43198 0.0237,0.84863 0.075,1.27357 0.006,0.0469 0.0178,0.0938 0.0151,0.140918 -0.004,0.0661 -0.0496,0.0393 -0.012,0.0567 -0.20353,-0.109648 -0.42322,-0.193528 -0.61058,-0.328968 -0.0255,-0.0185 0.0543,-0.0343 0.0737,-0.0591 0.0298,-0.0382 0.0415,-0.0883 0.0711,-0.12657 0.0815,-0.10517 0.17525,-0.20023 0.26092,-0.30201 0.35832,-0.42571 0.22846,-0.26065 0.55009,-0.78551 0.49466,-1.03665 0.0407,-0.17063 0.70889,-1.19929 0.13859,-0.21335 0.2612,-0.43667 0.39262,-0.65452 0.12411,-0.20575 0.26878,-0.40022 0.37396,-0.61626 0.0864,-0.17754 0.12284,-0.37572 0.1979,-0.55836 0.063,-0.15323 0.14373,-0.29853 0.2156,-0.4478 0.0133,-0.1541 0.009,-0.3107 0.0399,-0.46231 0.0559,-0.27636 0.42796,-1.26342 0.97827,-0.48976 0.15169,0.21325 -0.0849,0.51647 -0.12525,0.77505 -0.0497,0.31884 -0.0967,0.63811 -0.14497,0.95717 0.01,0.38817 0.0191,0.77634 0.0287,1.16451 -0.031,0.38967 -0.0923,0.77811 -0.093,1.16901 -5.8e-4,0.35947 0.0856,0.71526 0.0894,1.07472 0.004,0.35535 -0.0756,0.70877 -0.0666,1.064018 0.0997,3.93255 0.17777,-1.876518 0.0988,1.89086 0.0113,0.12422 0.0285,0.68106 0.12011,0.90469 0.0109,0.0267 0.0927,0.0575 0.0639,0.0582 -0.28186,0.007 -0.57031,0.0254 -0.84497,-0.0383 -0.05,-0.0116 0.005,-0.10405 0.0226,-0.15241 0.0484,-0.1353 0.11537,-0.26321 0.17305,-0.39482 0.29337,-0.9228 -0.0464,-0.0157 0.46157,-0.91113 0.37742,-0.66531 0.13909,-0.54293 0.65834,-1.14333 1.61037,-1.862008 -0.55761,0.92606 0.95469,-1.064158 0.67799,-1.31383 0.0823,-0.0547 0.57231,-1.41383 0.28819,-0.79928 0.3014,-0.56215 0.48768,-1.29895 0.15588,-0.61655 -0.0713,-0.25191 0.28722,-0.68738 0.12315,-0.20473 0.1466,-0.28535 0.32112,-0.43577 0.0267,-0.023 -0.0366,0.061 -0.0614,0.086 -0.006,0.006 0.007,-0.0209 -1.8e-4,-0.0238 -0.0205,-0.008 -0.0442,-0.002 -0.0662,-0.003 0.0249,-0.54995 0.8027,-0.51467 0.77775,0.0353 l 0,0 c 0.007,0.0721 0.0429,0.28619 -0.009,0.35916 -0.23011,0.32267 -0.2629,0.0419 -0.38011,0.33978 -0.0358,0.0773 -0.0638,0.15881 -0.10747,0.23204 -0.15618,0.2621 -0.41567,0.5227 -0.53056,0.80056 -0.10181,0.24621 -0.11909,0.52036 -0.20506,0.77253 -0.0724,0.21237 -0.56831,1.33713 -0.65689,1.54012 -0.43941,0.667008 -0.35147,0.586218 -0.8449,1.149528 -0.1363,0.15561 -0.30318,0.28594 -0.4208,0.4561 -0.11318,0.16373 -0.17003,0.36014 -0.26452,0.53532 -0.3654,0.67749 -0.20175,0.19595 -0.37021,0.85102 -0.007,0.073 -0.0271,0.14606 -0.0196,0.21895 0.005,0.0478 0.10273,0.12218 0.0559,0.133 -0.24497,0.0566 -0.50232,0.0305 -0.75372,0.0282 -0.0172,-1.6e-4 -0.0422,-0.019 -0.0374,-0.0355 0.0249,-0.0853 0.0942,-0.15349 0.11763,-0.2392 0.059,-0.21562 0.0852,-0.43888 0.12776,-0.65831 -0.0325,-0.44193 -0.11529,-1.45433 -0.11269,-1.88913 0.002,-0.355848 0.0524,-0.710218 0.0571,-1.066048 0.005,-0.35969 -0.0407,-0.71926 -0.0289,-1.07879 0.0129,-0.3924 0.10686,-0.78076 0.10273,-1.17336 -0.004,-0.39261 -0.0849,-0.78066 -0.12738,-1.17099 -0.007,-0.3176 -0.008,-0.63539 -0.0209,-0.95281 -0.005,-0.11822 -0.12626,-0.28248 -0.0316,-0.35353 0.16066,-0.12065 0.39753,-0.0756 0.59841,-0.0721 0.0392,6.8e-4 -0.0643,0.048 -0.0853,0.0811 -0.15792,0.24851 -0.16083,0.40919 -0.237,0.7188 -0.0942,0.20253 -0.41799,0.91214 -0.52593,1.0877 -0.12413,0.20189 -0.295,0.37252 -0.41823,0.57496 -0.13263,0.21792 -0.22831,0.45632 -0.34695,0.68217 -0.37274,0.70957 -0.28773,0.54778 -0.70043,1.18813 -0.0845,0.1702 -0.15752,0.34656 -0.2534,0.5106 -0.38178,0.65316 -0.15981,0.0686 -0.36208,0.66801 -0.0371,0.109868 -0.0632,0.223808 -0.10869,0.330458 -0.0241,0.0564 -0.038,0.16497 -0.0986,0.15523 -0.2538,-0.0409 -0.47738,-0.19091 -0.71607,-0.28637 -0.003,-0.0168 -0.001,-0.0358 -0.0102,-0.0505 -0.0135,-0.0223 -0.0554,-0.0302 -0.0542,-0.0562 0.002,-0.048 0.0486,-0.0839 0.0626,-0.12996 0.0245,-0.0809 0.0435,-0.16418 0.052,-0.24832 0.0216,-0.21169 0.0155,-0.82596 0.0157,-0.98907 0.0532,-1.36846 0.0144,-5.8e-4 0.009,-1.44451 -0.001,-0.35405 0.0232,-1.3385 0.0341,-1.68381 0.008,-0.26412 0.01,-0.5287 0.03,-0.79219 0.0141,-0.18489 0.0485,-0.36769 0.0727,-0.55153 0.3412,0.2093 -0.12787,-0.0222 0.50396,-0.14678 0.0636,-0.0125 -0.0615,0.11442 -0.0845,0.17496 -0.19726,0.51882 -0.33131,1.06011 -0.69708,1.49878 -0.14279,0.15695 -0.30348,0.29932 -0.42838,0.47086 -0.13112,0.18007 -0.22411,0.38504 -0.33536,0.57802 -0.19688,0.34152 -0.55716,0.94897 -0.70658,1.31159 -0.0308,0.0747 -0.25636,0.87799 -0.2925,1.00553 -0.66724,-0.4648 -0.0607,-0.21143 -0.66457,-0.007 -0.0529,0.0179 0.038,-0.10506 0.0581,-0.15718 0.0386,-0.10028 0.0915,-0.19587 0.1179,-0.30002 0.0804,-0.31695 0.0813,-0.65063 0.17231,-0.96573 0.049,-0.17246 0.087,-0.34846 0.14712,-0.51738 0.18033,-0.50681 0.35976,-0.71573 0.4777,-1.26894 0.058,-0.27192 0.0305,-0.5572 0.086,-0.82963 0.10962,-0.5381 0.37915,-1.03568 0.44754,-1.5855 -0.14467,-1.11694 -0.26171,-0.37551 0.558,-0.61713 0.0691,-0.0204 0.0824,-0.25477 0.0224,-0.21501 -0.0922,0.061 -0.10785,0.19394 -0.14686,0.29739 -0.3011,0.79845 0.12147,0.0688 -0.49355,0.95922 -0.20426,0.1809 -0.43526,0.3355 -0.61277,0.54271 -0.22138,0.25842 -0.39664,0.55372 -0.57483,0.84362 -0.67064,1.09099 -1.1319,2.2806 -1.61995,3.4588 -0.23994,0.41988 -0.83374,0.0806 -0.59381,-0.33932 z"
         id="path4509"
         style="display:inline;fill:#ff7f2a;stroke:#ff7f2a;stroke-width:0.30000001;stroke-linecap:round;stroke-linejoin:round;stroke-miterlimit:4;stroke-dasharray:none;stroke-opacity:1" />
      <path
         inkscape:connector-curvature="0"
         d="m -100.60212,63.604782 c 0.23913,0.37817 0.50944,0.73494 0.821301,1.05641 0.0873,0.09 0.18156,0.1729 0.27054,0.26119 0.0759,0.0753 0.14936,0.15307 0.22404,0.2296 0.41983,0.45664 -0.002,0.0313 0.33085,0.30068 0.0201,0.0163 0.0695,0.0443 0.049,0.06 -0.30208,0.23216 -0.30688,-0.0336 -0.33891,-0.23985 0.025,-0.37006 0.0666,-0.74599 0.004,-1.11546 -0.024,-0.14231 -0.0731,-0.27926 -0.11136,-0.41842 -0.17147,-0.62338 -0.0655,-0.18449 -0.19696,-0.76686 -0.0255,-0.10777 -0.0554,-0.21458 -0.0765,-0.3233 -0.0156,-0.0809 -0.0304,-0.16256 -0.0335,-0.24489 -0.003,-0.0666 0.0127,-0.13264 0.0167,-0.19912 0.003,-0.0476 0.003,-0.0953 0.004,-0.143 0.002,-0.0876 0.007,-0.0568 -0.008,-0.11237 0.0168,0.0417 0.006,0.1181 0.0504,0.12501 0.0752,0.0117 0.14403,-0.11807 0.21211,-0.0841 0.0751,0.0374 0.0474,0.16298 0.0905,0.23497 0.0698,0.11646 0.16553,0.2153 0.2452,0.32523 0.76712,1.05849 -0.20291,-0.24273 0.62538,0.85996 0.82747,0.69342 0.0121,0.0228 0.80113,0.63756 0.0972,0.0757 0.18864,0.15876 0.2862,0.23406 0.0456,0.0351 0.0911,0.0718 0.14279,0.097 0.0178,0.009 0.0706,-0.0148 0.0595,0.002 -0.0458,0.0678 -0.11737,0.11401 -0.17606,0.17101 -0.0312,-0.0274 -0.0699,-0.0481 -0.0935,-0.0821 -0.11938,-0.17161 -0.0663,-0.42304 -0.11822,-0.61024 -0.0331,-0.11936 -0.0986,-0.2273 -0.14348,-0.34276 -0.0479,-0.12326 -0.0897,-0.24879 -0.13447,-0.37319 -0.20086,-0.42941 -0.10881,-0.20848 -0.26532,-0.63336 -0.0345,-0.0936 -0.074,-0.18552 -0.10373,-0.28073 -0.0265,-0.0846 -0.0437,-0.17182 -0.0647,-0.25795 -0.0646,-0.26481 -0.0459,-0.1638 -0.0743,-0.39961 -4.5e-4,-0.0541 -0.0183,-0.14633 0.0509,-0.18074 0.14978,-0.0745 0.25568,0.0541 0.35432,0.14681 0.11614,0.10916 0.22313,0.22781 0.32924,0.34674 0.14679,0.16451 0.28613,0.33551 0.4292,0.50327 0.43068,0.48282 0.90593,0.92173 1.3724,1.36884 0.24233,0.23227 0.28727,0.32114 0.57142,0.46687 0.0532,0.0273 0.11423,0.0353 0.17134,0.0529 0.019,-0.004 0.0725,-0.0237 0.0568,-0.0123 -0.0462,0.034 -0.0945,0.0747 -0.15139,0.0817 -0.0225,0.003 -0.0251,-0.038 -0.0345,-0.0586 -0.1648,-0.36154 0.0226,0.056 -0.0675,-0.26453 -0.01,-0.0356 -0.0343,-0.0656 -0.0515,-0.0984 -0.0208,-0.037 -0.0803,-0.12842 -0.0855,-0.18149 -0.004,-0.0393 0.0133,-0.0793 0.007,-0.11833 -0.009,-0.0568 -0.0375,-0.10888 -0.0515,-0.16466 -0.21671,-0.86583 0.12945,0.40884 -0.12077,-0.49717 -0.19757,-0.78149 0.0581,0.27045 -0.0959,-0.49661 -0.0157,-0.0781 -0.0374,-0.15517 -0.0631,-0.23059 -0.0224,-0.0658 -0.0639,-0.12476 -0.0811,-0.19209 -0.0162,-0.0633 -0.0101,-0.13029 -0.0178,-0.19515 -0.006,-0.0515 -0.0161,-0.1025 -0.0241,-0.15375 -0.0161,-0.0439 -0.0413,-0.0854 -0.0484,-0.13156 -0.006,-0.0425 0.006,-0.0858 0.009,-0.12877 0.005,-0.0804 0.004,-0.064 0.003,-0.13299 0.0626,-0.18684 0.32687,-0.0983 0.26423,0.0886 l 0,0 c -0.007,-0.003 -0.0174,-0.0162 -0.0196,-0.009 -0.005,0.0157 0.008,0.0325 0.007,0.0489 -0.0147,0.19813 -0.0371,-0.003 0.005,0.22195 0.005,0.0553 0.0112,0.11045 0.0141,0.16586 0.003,0.058 -0.009,0.11755 0.004,0.17409 0.0162,0.0696 0.0588,0.13045 0.0826,0.19784 0.0261,0.0738 0.0508,0.14855 0.0667,0.22521 0.0344,0.16571 0.0281,0.3384 0.0772,0.50187 0.0133,0.0866 0.014,0.17612 0.0398,0.25987 0.0235,0.0763 0.0778,0.13996 0.10634,0.21446 0.0235,0.0612 0.0224,0.1305 0.0489,0.19046 0.0151,0.0343 0.0568,0.0517 0.073,0.0854 0.018,0.0374 -0.002,0.14675 -0.006,0.17792 0.0609,0.10357 0.0743,0.11117 0.10726,0.22417 0.0119,0.0407 0.0135,0.0842 0.0277,0.12414 0.0543,0.15313 0.16996,0.19147 -0.0812,0.33767 -0.0338,0.0197 -0.0687,-0.0375 -0.10307,-0.0563 -0.0539,-0.0466 -0.10737,-0.0937 -0.16167,-0.13984 -0.0826,-0.0702 -0.17043,-0.13454 -0.24912,-0.20912 -0.4777,-0.45282 -0.13109,-0.17472 -0.63819,-0.74545 -0.30579,-0.34416 -0.66714,-0.63628 -0.9618,-0.99121 -0.16776,-0.14154 -0.33049,-0.28927 -0.50328,-0.42464 -0.12068,-0.0946 -0.253,-0.17336 -0.3763,-0.26449 -0.0334,-0.0247 -0.0818,-0.0426 -0.0933,-0.0825 -0.006,-0.0215 0.0486,-0.007 0.0625,-0.0245 0.0115,-0.0145 0.0163,-0.0452 9.1e-4,-0.0555 -0.013,-0.009 -0.0205,0.0237 -0.0308,0.0356 0.005,0.0476 0.0148,0.0949 0.0152,0.14283 7.2e-4,0.0734 -0.0201,0.14693 -0.0117,0.21982 0.01,0.0836 0.0398,0.16357 0.0651,0.24376 0.0976,0.30846 0.23474,0.60361 0.3342,0.91147 0.10262,0.24133 0.19927,0.48521 0.30431,0.72551 0.1989,0.45504 0.0828,0.11448 0.17409,0.45152 0.018,0.0664 0.0267,0.0312 0.003,0.0797 -0.0338,0.0651 -0.0633,0.13268 -0.10149,0.19537 -0.004,0.007 0.004,-0.0191 -0.002,-0.0255 -0.038,-0.0436 -0.0808,-0.0829 -0.12498,-0.1202 -0.095,-0.0803 -0.19847,-0.15028 -0.29201,-0.23224 -0.33991,-0.29782 -0.41058,-0.395 -0.72241,-0.73606 -0.85719,-0.9535 0.0957,0.11405 -0.70635,-0.80706 -0.0918,-0.10543 -0.18712,-0.20777 -0.27996,-0.3123 -0.0492,-0.0554 -0.14496,-0.0934 -0.1462,-0.16751 -0.002,-0.1002 0.0501,-0.22018 0.13893,-0.2666 0.0513,-0.0268 0.0388,0.10907 0.0581,0.1636 -0.0968,-0.003 -0.0189,-0.016 -0.0284,0.0662 -0.005,0.0396 -0.0323,0.0733 -0.0414,0.11206 -0.0559,0.23883 -0.0244,0.48514 0.023,0.72186 0.0958,0.31954 0.13517,0.43601 0.21575,0.77142 0.0345,0.14357 0.0706,0.28704 0.0946,0.43272 0.17305,1.0499 -0.0367,-0.11564 0.0321,0.82999 0.007,0.0895 0.0433,0.17413 0.0649,0.2612 -0.001,0.0472 -0.0157,0.0957 -0.005,0.14158 0.006,0.0243 0.0638,0.0319 0.052,0.0539 -0.0419,0.0783 -0.12628,0.12522 -0.18396,0.19276 -0.006,0.007 0.0288,0.001 0.0253,-0.007 -0.0219,-0.0504 -0.0543,-0.0962 -0.0888,-0.13907 -0.0583,-0.0725 -0.12582,-0.13707 -0.18873,-0.20561 -0.066,-0.0868 -0.12688,-0.17772 -0.19794,-0.26041 -0.0995,-0.1158 -0.430071,-0.44219 -0.534261,-0.54536 -0.0875,-0.0867 -0.18499,-0.16423 -0.26355,-0.25913 -0.0683,-0.0825 -0.10827,-0.18555 -0.1743,-0.26985 -0.058,-0.074 -0.13066,-0.1353 -0.19599,-0.20294 -0.0906,-0.12075 0.0802,-0.24881 0.17076,-0.12807 z"
         id="path4513"
         style="display:inline;fill:#ff7f2a;stroke:#ff7f2a;stroke-width:0.30000001;stroke-linecap:round;stroke-linejoin:round;stroke-miterlimit:4;stroke-dasharray:none;stroke-opacity:1" />
      <path
         style="display:inline;fill:#ff7f2a;stroke:#ff7f2a;stroke-width:0.42781863;stroke-linecap:round;stroke-linejoin:round;stroke-miterlimit:4;stroke-dasharray:none;stroke-opacity:1"
         id="path4663"
         d="m 23.465401,99.625802 c 0.34101,0.539298 0.72649,1.048068 1.17122,1.506508 0.1245,0.12834 0.25892,0.24656 0.38581,0.37247 0.10824,0.10738 0.213,0.21829 0.31949,0.32743 0.59871,0.65119 -0.003,0.0446 0.47182,0.42878 0.0287,0.0233 0.0991,0.0632 0.0699,0.0856 -0.43078,0.33107 -0.43763,-0.0479 -0.4833,-0.34204 0.0357,-0.52773 0.095,-1.06383 0.006,-1.59072 -0.0342,-0.20294 -0.10424,-0.39824 -0.1588,-0.596688 -0.24453,-0.88898 -0.0934,-0.2631 -0.28088,-1.09359 -0.0364,-0.15369 -0.079,-0.30601 -0.1091,-0.46105 -0.0222,-0.11537 -0.0434,-0.23182 -0.0478,-0.34923 -0.004,-0.095 0.0181,-0.18915 0.0238,-0.28395 0.004,-0.0679 0.004,-0.13591 0.006,-0.20393 0.003,-0.12492 0.01,-0.081 -0.0114,-0.16025 0.024,0.0595 0.009,0.16842 0.0719,0.17828 0.10724,0.0167 0.20539,-0.16838 0.30248,-0.11994 0.1071,0.0533 0.0676,0.23242 0.12906,0.33509 0.0995,0.16607 0.23605,0.30703 0.34967,0.46379 1.09396,1.50948 -0.28937,-0.34614 0.89183,1.22636 1.18002,0.988858 0.0172,0.0325 1.14246,0.909198 0.13861,0.10795 0.26901,0.2264 0.40814,0.33378 0.065,0.0501 0.12991,0.1024 0.20363,0.13833 0.0254,0.0128 0.10068,-0.0211 0.0848,0.003 -0.0653,0.0967 -0.16738,0.16259 -0.25108,0.24387 -0.0445,-0.0391 -0.0997,-0.0686 -0.13333,-0.11707 -0.17025,-0.24473 -0.0945,-0.60329 -0.16859,-0.870238 -0.0472,-0.17022 -0.14061,-0.32415 -0.20461,-0.4888 -0.0683,-0.17578 -0.12792,-0.35479 -0.19177,-0.53219 -0.28644,-0.61237 -0.15517,-0.29731 -0.37836,-0.90321 -0.0492,-0.13348 -0.10553,-0.26457 -0.14792,-0.40034 -0.0378,-0.12065 -0.0623,-0.24503 -0.0923,-0.36786 -0.0921,-0.37763 -0.0655,-0.23358 -0.10596,-0.56986 -6.4e-4,-0.0772 -0.0261,-0.20868 0.0726,-0.25775 0.21359,-0.10624 0.36461,0.0771 0.50528,0.20936 0.16562,0.15567 0.3182,0.32487 0.46952,0.49447 0.20933,0.2346 0.40804,0.47846 0.61206,0.7177 0.61418,0.68853 1.29192,1.31444 1.95713,1.95205 0.34558,0.331228 0.40967,0.457958 0.81488,0.665778 0.0759,0.0389 0.1629,0.0503 0.24434,0.0754 0.0271,-0.006 0.10339,-0.0338 0.081,-0.0175 -0.0659,0.0485 -0.13476,0.10653 -0.21589,0.11651 -0.0321,0.004 -0.0358,-0.0542 -0.0492,-0.0836 -0.23501,-0.51558 0.0322,0.0799 -0.0963,-0.37723 -0.0143,-0.0508 -0.0489,-0.0936 -0.0734,-0.14033 -0.0297,-0.0528 -0.11451,-0.183128 -0.12193,-0.258808 -0.006,-0.056 0.019,-0.11309 0.01,-0.16875 -0.0128,-0.081 -0.0535,-0.15527 -0.0734,-0.23482 -0.30904,-1.23472 0.18461,0.583038 -0.17222,-0.70899 -0.28175,-1.11445 0.0829,0.38568 -0.13676,-0.7082 -0.0224,-0.11137 -0.0533,-0.22128 -0.09,-0.32883 -0.0319,-0.0938 -0.0911,-0.17792 -0.11565,-0.27393 -0.0231,-0.0903 -0.0144,-0.18581 -0.0254,-0.2783 -0.009,-0.0734 -0.023,-0.14617 -0.0344,-0.21926 -0.023,-0.0626 -0.0589,-0.12178 -0.069,-0.18761 -0.009,-0.0606 0.009,-0.12236 0.0128,-0.18363 0.007,-0.11466 0.006,-0.0913 0.004,-0.18966 0.0893,-0.26644 0.46614,-0.14018 0.37681,0.12635 l 0,0 c -0.01,-0.004 -0.0248,-0.0231 -0.028,-0.0128 -0.007,0.0224 0.0114,0.0463 0.01,0.0697 -0.021,0.28255 -0.0529,-0.004 0.007,0.31652 0.007,0.0789 0.016,0.15751 0.0201,0.23652 0.004,0.0827 -0.0128,0.16764 0.006,0.24827 0.0231,0.0992 0.0839,0.18603 0.11779,0.28213 0.0372,0.10524 0.0725,0.21184 0.0951,0.32116 0.0491,0.23631 0.0401,0.48258 0.11009,0.7157 0.019,0.1235 0.02,0.25116 0.0568,0.37059 0.0335,0.10881 0.11095,0.19959 0.15165,0.30583 0.0335,0.0873 0.0319,0.1861 0.0697,0.27161 0.0215,0.0489 0.081,0.0737 0.10411,0.12179 0.0257,0.0533 -0.003,0.20927 -0.009,0.25372 0.0868,0.147698 0.10596,0.158538 0.15296,0.319678 0.017,0.058 0.0192,0.12008 0.0395,0.17703 0.0774,0.21838 0.24238,0.27305 -0.11579,0.48154 -0.0482,0.0281 -0.098,-0.0535 -0.14699,-0.0803 -0.0769,-0.0664 -0.15312,-0.13362 -0.23055,-0.19942 -0.11779,-0.10011 -0.24304,-0.19186 -0.35526,-0.29821 -0.68123,-0.645748 -0.18694,-0.24917 -0.9101,-1.063058 -0.43607,-0.4908 -0.95138,-0.90738 -1.37159,-1.41353 -0.23923,-0.20184 -0.4713,-0.41252 -0.7177,-0.60556 -0.1721,-0.13491 -0.3608,-0.24722 -0.53663,-0.37718 -0.0476,-0.0352 -0.11665,-0.0607 -0.13305,-0.11765 -0.009,-0.0307 0.0693,-0.01 0.0891,-0.0349 0.0164,-0.0207 0.0232,-0.0645 10e-4,-0.0792 -0.0185,-0.0128 -0.0292,0.0338 -0.0439,0.0508 0.007,0.0679 0.0211,0.13534 0.0217,0.20369 10e-4,0.10467 -0.0287,0.20953 -0.0167,0.31347 0.0143,0.11922 0.0568,0.23326 0.0928,0.34762 0.13918,0.43988 0.33475,0.86079 0.47659,1.29981 0.14634,0.34415 0.28417,0.69194 0.43396,1.03463 0.28365,0.648908 0.11808,0.163248 0.24827,0.643888 0.0257,0.0947 0.0381,0.0445 0.004,0.11366 -0.0482,0.0928 -0.0903,0.18921 -0.14473,0.27861 -0.006,0.01 0.006,-0.0272 -0.003,-0.0364 -0.0542,-0.0622 -0.11522,-0.11822 -0.17823,-0.17141 -0.13547,-0.11451 -0.28303,-0.21431 -0.41642,-0.33119 -0.48473,-0.42471 -0.58551,-0.563288 -1.0302,-1.049668 -1.22241,-1.35975 0.13647,0.16265 -1.0073,-1.15091 -0.13091,-0.15035 -0.26685,-0.2963 -0.39924,-0.44536 -0.0702,-0.079 -0.20672,-0.1332 -0.20849,-0.23888 -0.003,-0.14289 0.0714,-0.31399 0.19812,-0.38019 0.0732,-0.0382 0.0553,0.15554 0.0829,0.2333 -0.13804,-0.004 -0.0269,-0.0228 -0.0405,0.0944 -0.007,0.0565 -0.0461,0.10453 -0.059,0.1598 -0.0797,0.34059 -0.0348,0.69184 0.0328,1.02942 0.13662,0.45568 0.19277,0.62178 0.30768,1.10009 0.0492,0.20474 0.10068,0.409338 0.1349,0.617088 0.24678,1.49722 -0.0523,-0.16491 0.0458,1.18362 0.01,0.12763 0.0617,0.24832 0.0925,0.37248 -0.001,0.0673 -0.0224,0.13648 -0.007,0.20191 0.009,0.0346 0.091,0.0455 0.0742,0.0769 -0.0598,0.11166 -0.18009,0.17857 -0.26234,0.27489 -0.009,0.01 0.0411,0.001 0.0361,-0.01 -0.0312,-0.0719 -0.0774,-0.13719 -0.12664,-0.19833 -0.0831,-0.10339 -0.17942,-0.19547 -0.26914,-0.29321 -0.0941,-0.12378 -0.18094,-0.25344 -0.28227,-0.37136 -0.1419,-0.16514 -0.61331,-0.63059 -0.76189,-0.77772 -0.12478,-0.12364 -0.26381,-0.2342 -0.37584,-0.36953 -0.0974,-0.11765 -0.1544,-0.26461 -0.24856,-0.38483 -0.0827,-0.105518 -0.18633,-0.192938 -0.2795,-0.289398 -0.1292,-0.1722 0.11437,-0.35482 0.24352,-0.18264 z"
         inkscape:connector-curvature="0" />
    </g>
  </g>
</svg>
