<?xml version="1.0" encoding="UTF-8" standalone="no"?>
<!-- Created with Inkscape (http://www.inkscape.org/) -->

<svg
   xmlns:dc="http://purl.org/dc/elements/1.1/"
   xmlns:cc="http://creativecommons.org/ns#"
   xmlns:rdf="http://www.w3.org/1999/02/22-rdf-syntax-ns#"
   xmlns:svg="http://www.w3.org/2000/svg"
   xmlns="http://www.w3.org/2000/svg"
   xmlns:sodipodi="http://sodipodi.sourceforge.net/DTD/sodipodi-0.dtd"
   xmlns:inkscape="http://www.inkscape.org/namespaces/inkscape"
   width="1052.3622"
   height="400"
   viewBox="0 0 1052.3622 400"
   id="svg4239"
   version="1.1"
   inkscape:version="0.91 r13725"
   sodipodi:docname="logo.svg">
  <defs
     id="defs4241" />
  <sodipodi:namedview
     id="base"
     pagecolor="#ffffff"
     bordercolor="#666666"
     borderopacity="1.0"
     inkscape:pageopacity="0.0"
     inkscape:pageshadow="2"
     inkscape:zoom="0.49497475"
     inkscape:cx="288.56115"
     inkscape:cy="297.27623"
     inkscape:document-units="px"
     inkscape:current-layer="layer1"
     showgrid="false"
     units="px"
     inkscape:window-width="1600"
     inkscape:window-height="851"
     inkscape:window-x="0"
     inkscape:window-y="25"
     inkscape:window-maximized="1" />
  <metadata
     id="metadata4244">
    <rdf:RDF>
      <cc:Work
         rdf:about="">
        <dc:format>image/svg+xml</dc:format>
        <dc:type
           rdf:resource="http://purl.org/dc/dcmitype/StillImage" />
        <dc:title></dc:title>
      </cc:Work>
    </rdf:RDF>
  </metadata>
  <g
     inkscape:label="Layer 1"
     inkscape:groupmode="layer"
     id="layer1"
     transform="translate(0,-652.3622)">
    <g
       id="g4409"
       transform="matrix(1.2046544,0,0,1.2046544,-140.67175,28.538412)">
      <path
         inkscape:connector-curvature="0"
         id="path3426"
         style="font-style:normal;font-variant:normal;font-weight:normal;font-stretch:normal;font-size:90px;line-height:125%;font-family:Ranchers;-inkscape-font-specification:Ranchers;letter-spacing:0px;word-spacing:0px;display:inline;fill:#241c1c;fill-opacity:1;stroke:none;stroke-width:1px;stroke-linecap:butt;stroke-linejoin:miter;stroke-opacity:1"
         d="m 223.18852,644.65669 q 3.3803,0.4829 5.55335,0.4829 2.17305,0 4.58755,0 13.03831,0 20.76472,-4.829 7.72641,-4.82901 7.72641,-12.79686 0,-7.24351 -6.76061,-11.10671 -6.51915,-3.86321 -19.31601,-3.86321 -4.10466,0 -7.48496,0.4829 -3.13885,0.24145 -5.07045,0.9658 l 0,30.66418 z m -37.90768,133.52195 q 0.24145,-11.10671 0.24145,-21.48906 0.24145,-10.62381 0.24145,-20.76472 0.24145,-10.38236 0.24145,-20.76472 0,-10.38235 0,-21.48906 0,-31.62998 -0.4829,-60.604 -0.24145,-28.97402 -1.20725,-51.67034 13.52121,-1.9316 27.76677,-2.65595 14.24556,-0.9658 25.59372,-0.9658 67.12315,0 67.12315,38.87348 0,15.21136 -8.93366,26.07662 -8.6922,10.62381 -23.17922,13.03831 23.42067,4.3461 34.28593,18.10876 10.86526,13.52121 10.86526,38.39058 0,35.01028 -21.73052,51.91179 -21.73051,16.66007 -67.60605,16.66007 -8.93366,0 -20.04037,-0.72436 -10.86525,-0.4829 -23.17921,-1.9316 z m 37.90768,-64.9501 q 2.4145,0.72435 7.2435,1.20725 4.82901,0.4829 9.41656,0.4829 15.21136,0 22.93777,-4.829 7.96785,-4.829 7.96785,-13.76266 0,-9.17511 -8.45075,-14.00411 -8.20931,-4.82901 -22.93777,-4.82901 -3.13885,0 -7.00206,0.24145 -3.62175,0.24145 -9.1751,0.72436 l 0,34.76882 z" />
      <path
         inkscape:connector-curvature="0"
         id="path3428"
         style="font-style:normal;font-variant:normal;font-weight:normal;font-stretch:normal;font-size:90px;line-height:125%;font-family:Ranchers;-inkscape-font-specification:Ranchers;letter-spacing:0px;word-spacing:0px;display:inline;fill:#241c1c;fill-opacity:1;stroke:none;stroke-width:1px;stroke-linecap:butt;stroke-linejoin:miter;stroke-opacity:1"
         d="m 318.13599,648.19415 35.49317,0 0,140.52401 -35.49317,0 0,-140.52401 z m 18.59166,-59.87965 q 5.7948,0 10.38236,2.4145 4.829,2.17306 7.96785,5.79481 3.13886,3.62175 4.82901,8.2093 1.69015,4.34611 1.69015,8.45076 0,5.55336 -2.17305,10.38236 -1.9316,4.58755 -5.55336,8.20931 -3.3803,3.3803 -7.96785,5.55335 -4.34611,1.9316 -9.41656,1.9316 -6.2777,0 -11.10671,-1.9316 -4.829,-2.17305 -8.2093,-5.3119 -3.13886,-3.38031 -4.82901,-7.72641 -1.4487,-4.3461 -1.4487,-8.93366 0,-4.58755 1.69015,-9.41655 1.9316,-4.82901 5.07046,-8.69221 3.3803,-4.10465 8.2093,-6.51916 4.82901,-2.4145 10.86526,-2.4145 z" />
      <path
         inkscape:connector-curvature="0"
         id="path3430"
         style="font-style:normal;font-variant:normal;font-weight:normal;font-stretch:normal;font-size:90px;line-height:125%;font-family:Ranchers;-inkscape-font-specification:Ranchers;letter-spacing:0px;word-spacing:0px;display:inline;fill:#241c1c;fill-opacity:1;stroke:none;stroke-width:1px;stroke-linecap:butt;stroke-linejoin:miter;stroke-opacity:1"
         d="m 419.82399,642.63309 q 29.45693,0 42.01234,19.31602 12.79686,19.31601 12.79686,55.53354 0,36.45898 -12.79686,55.775 -12.55541,19.07456 -42.01234,19.07456 -29.69837,0 -42.49523,-19.07456 -12.55541,-19.31602 -12.55541,-55.775 0,-36.21753 12.55541,-55.53354 12.79686,-19.31602 42.49523,-19.31602 z m 0,92.95833 q 4.82901,0 8.45076,-1.9316 3.8632,-1.93161 6.27771,-5.07046 2.4145,-3.13885 3.62175,-7.00205 1.20725,-4.10466 1.20725,-8.45076 0,-4.3461 -1.20725,-8.45076 -1.20725,-4.10465 -3.62175,-7.2435 -2.41451,-3.13885 -6.27771,-5.07046 -3.62175,-1.9316 -8.45076,-1.9316 -9.89945,0 -14.96991,7.00206 -4.829,7.00205 -4.829,15.69426 0,4.3461 1.20725,8.45076 1.20725,3.8632 3.62175,7.00205 2.65595,3.13885 6.27771,5.07046 3.62175,1.9316 8.6922,1.9316 z" />
      <path
         inkscape:connector-curvature="0"
         id="path3432"
         style="font-style:normal;font-variant:normal;font-weight:normal;font-stretch:normal;font-size:90px;line-height:125%;font-family:Ranchers;-inkscape-font-specification:Ranchers;letter-spacing:0px;word-spacing:0px;display:inline;fill:#241c1c;fill-opacity:1;stroke:none;stroke-width:1px;stroke-linecap:butt;stroke-linejoin:miter;stroke-opacity:1"
         d="m 559.52968,686.33561 q 0,17.14296 -0.24145,28.49112 0,11.34816 -0.24146,18.59166 -0.24145,7.24351 -0.72435,11.34816 -0.4829,4.10465 -0.9658,7.24351 -3.13885,18.10876 -15.69426,29.21547 -12.31396,11.10671 -35.01028,11.10671 -5.7948,0 -14.24556,-0.9658 -8.2093,-0.72435 -16.17716,-2.8974 -0.4829,-8.20931 -0.72435,-16.66007 -0.24145,-8.6922 -0.24145,-17.14296 0,-8.69221 0.24145,-17.38441 0.24145,-8.69221 0.72435,-17.38442 6.03625,2.65595 10.86526,3.8632 4.829,1.20726 10.14091,1.20726 7.48495,0 12.07251,-2.41451 4.829,-2.65595 7.48495,-7.96785 2.8974,-5.31191 3.8632,-13.76266 0.96581,-8.45076 0.96581,-20.04037 l 0,-47.32424 -33.56158,0 0,-41.28798 71.46926,0 0,94.16558 z" />
      <path
         inkscape:connector-curvature="0"
         id="path3434"
         style="font-style:normal;font-variant:normal;font-weight:normal;font-stretch:normal;font-size:90px;line-height:125%;font-family:Ranchers;-inkscape-font-specification:Ranchers;letter-spacing:0px;word-spacing:0px;display:inline;fill:#241c1c;fill-opacity:1;stroke:none;stroke-width:1px;stroke-linecap:butt;stroke-linejoin:miter;stroke-opacity:1"
         d="m 691.79885,790.63441 -33.07875,0 0,-11.83105 q -8.69221,7.00205 -18.35022,10.86525 -9.65801,3.62176 -18.83311,3.62176 -10.86526,0 -20.04037,-5.31191 -9.17511,-5.3119 -15.93571,-14.72846 -6.51916,-9.65801 -10.38236,-22.93777 -3.8632,-13.27976 -3.8632,-28.97402 0,-16.41861 4.10465,-30.66417 4.10465,-14.24556 11.10671,-24.62792 7.2435,-10.62381 16.90151,-16.41862 9.89946,-6.03625 21.24762,-6.03625 9.89946,0 18.83311,4.3461 8.93366,4.10466 15.21137,10.38236 l 0,-12.07251 34.286,0 -1.20725,144.38721 z M 617.43211,703.4709 q 0,9.89945 5.31191,15.93571 5.55335,6.03625 14.00411,6.03625 9.17511,0 15.45281,-6.51915 6.51916,-6.51916 6.51916,-16.66006 0,-4.58756 -1.69016,-8.69221 -1.4487,-4.10465 -4.3461,-7.00206 -2.8974,-3.13885 -6.7606,-4.829 -3.86321,-1.69015 -8.20931,-1.69015 -8.69221,0 -14.48701,6.51915 -5.79481,6.51916 -5.79481,16.90152 z" />
      <path
         sodipodi:nodetypes="cccccccc"
         inkscape:connector-curvature="0"
         id="path3436"
         style="font-style:normal;font-variant:normal;font-weight:normal;font-stretch:normal;font-size:90px;line-height:125%;font-family:Ranchers;-inkscape-font-specification:Ranchers;letter-spacing:0px;word-spacing:0px;display:inline;fill:#241c1c;fill-opacity:1;stroke:none;stroke-width:1px;stroke-linecap:butt;stroke-linejoin:miter;stroke-opacity:1"
         d="m 805.33732,641.45651 -32.59578,144.38721 -45.63409,0 -33.07867,-144.38721 35.97608,0 c 11.67948,51.26025 11.64192,51.09555 20.28181,86.92207 7.44633,-35.69503 7.32104,-35.66182 19.07457,-86.92207 z" />
      <path
         inkscape:connector-curvature="0"
         id="path3438"
         style="font-style:normal;font-variant:normal;font-weight:normal;font-stretch:normal;font-size:90px;line-height:125%;font-family:Ranchers;-inkscape-font-specification:Ranchers;letter-spacing:0px;word-spacing:0px;display:inline;fill:#241c1c;fill-opacity:1;stroke:none;stroke-width:1px;stroke-linecap:butt;stroke-linejoin:miter;stroke-opacity:1"
         d="m 922.34277,787.76 -33.0787,0 0,-11.83106 q -8.6922,7.00206 -18.3502,10.86526 -9.65803,3.62176 -18.83314,3.62176 -10.86526,0 -20.04036,-5.31191 -9.17511,-5.3119 -15.93572,-14.72846 -6.51915,-9.65801 -10.38236,-22.93777 -3.8632,-13.27976 -3.8632,-28.97402 0,-16.41861 4.10465,-30.66417 4.10466,-14.24557 11.10671,-24.62792 7.24351,-10.62381 16.90152,-16.41862 9.89945,-6.03625 21.24761,-6.03625 9.89946,0 18.83309,4.3461 8.9337,4.10466 15.2114,10.38236 l 0,-12.07251 34.2859,0 -1.2072,144.38721 z m -74.36669,-87.16351 q 0,9.89945 5.3119,15.93571 5.55336,6.03625 14.00411,6.03625 9.17508,0 15.45278,-6.51915 6.5192,-6.51916 6.5192,-16.66007 0,-4.58755 -1.6902,-8.6922 -1.4487,-4.10466 -4.3461,-7.00206 -2.8974,-3.13885 -6.7606,-4.829 -3.8632,-1.69015 -8.20928,-1.69015 -8.6922,0 -14.48701,6.51915 -5.7948,6.51916 -5.7948,16.90152 z" />
      <path
         d="m 213.29045,653.89967 q 3.46004,0.49428 5.68436,0.49428 2.22432,0 4.6958,0 13.34592,0 21.25459,-4.94292 7.9087,-4.94294 7.9087,-13.09878 0,-7.4144 -6.92009,-11.36873 -6.67296,-3.95437 -19.77174,-3.95437 -4.2015,0 -7.66154,0.4943 -3.21292,0.24709 -5.19008,0.98858 l 0,31.38764 z m -38.80201,136.67205 q 0.24709,-11.36874 0.24709,-21.99603 0.24708,-10.87446 0.24708,-21.25462 0.24708,-10.6273 0.24708,-21.25459 0,-10.62733 0,-21.99606 0,-32.37619 -0.4943,-62.03379 -0.24708,-29.65759 -1.23574,-52.88937 13.84022,-1.97718 28.42185,-2.71862 14.58166,-0.98858 26.19756,-0.98858 68.70675,0 68.70675,39.79059 0,15.57024 -9.14442,26.69184 -8.89728,10.87446 -23.72608,13.34592 23.97322,4.44864 35.09482,18.53599 11.12159,13.8402 11.12159,39.29632 0,35.83625 -22.24319,53.1365 -22.2432,17.05312 -69.20105,17.05312 -9.14441,0 -20.51318,-0.74144 -11.12157,-0.4943 -23.72605,-1.97718 z m 38.80201,-66.48243 q 2.47146,0.74144 7.4144,1.23575 4.94292,0.49427 9.63872,0.49427 15.57024,0 23.47891,-4.94291 8.15584,-4.94294 8.15584,-14.08736 0,-9.39158 -8.65011,-14.33452 -8.40301,-4.94292 -23.47894,-4.94292 -3.2129,0 -7.16726,0.24709 -3.7072,0.24708 -9.39156,0.74144 l 0,35.58911 z"
         style="font-style:normal;font-variant:normal;font-weight:normal;font-stretch:normal;font-size:90px;line-height:125%;font-family:Ranchers;-inkscape-font-specification:Ranchers;letter-spacing:0px;word-spacing:0px;display:inline;fill:#241c1c;fill-opacity:1;stroke:none;stroke-width:1px;stroke-linecap:butt;stroke-linejoin:miter;stroke-opacity:1"
         id="path3440"
         inkscape:connector-curvature="0" />
      <path
         d="m 223.6847,646.11666 q 3.3803,0.4829 5.55335,0.4829 2.17305,0 4.58755,0 13.03831,0 20.76472,-4.82901 7.72641,-4.829 7.72641,-12.79686 0,-7.2435 -6.76061,-11.1067 -6.51915,-3.86321 -19.31601,-3.86321 -4.10466,0 -7.48496,0.4829 -3.13885,0.24145 -5.07045,0.9658 l 0,30.66418 z m -37.90768,133.52195 q 0.24145,-11.10671 0.24145,-21.48906 0.24145,-10.62381 0.24145,-20.76472 0.24145,-10.38236 0.24145,-20.76472 0,-10.38236 0,-21.48906 0,-31.62998 -0.4829,-60.604 -0.24145,-28.97402 -1.20725,-51.67034 13.52121,-1.9316 27.76677,-2.65595 14.24556,-0.9658 25.59372,-0.9658 67.12315,0 67.12315,38.87348 0,15.21136 -8.93366,26.07662 -8.6922,10.6238 -23.17922,13.03831 23.42067,4.3461 34.28593,18.10876 10.86526,13.52121 10.86526,38.39058 0,35.01028 -21.73052,51.91179 -21.73051,16.66006 -67.60605,16.66006 -8.93366,0 -20.04037,-0.72435 -10.86525,-0.4829 -23.17921,-1.9316 z m 37.90768,-64.9501 q 2.4145,0.72435 7.2435,1.20725 4.82901,0.4829 9.41656,0.4829 15.21136,0 22.93777,-4.829 7.96785,-4.82901 7.96785,-13.76266 0,-9.17511 -8.45075,-14.00411 -8.20931,-4.82901 -22.93777,-4.82901 -3.13885,0 -7.00206,0.24145 -3.62175,0.24145 -9.1751,0.72435 l 0,34.76883 z"
         style="font-style:normal;font-variant:normal;font-weight:normal;font-stretch:normal;font-size:90px;line-height:125%;font-family:Ranchers;-inkscape-font-specification:Ranchers;letter-spacing:0px;word-spacing:0px;display:inline;opacity:1;fill:#ffdd55;fill-opacity:1;stroke:none;stroke-width:1px;stroke-linecap:butt;stroke-linejoin:miter;stroke-opacity:1"
         id="path3341"
         inkscape:connector-curvature="0" />
      <path
         d="m 326.29724,639.1146 35.49318,0 0,140.52401 -35.49318,0 0,-140.52401 z m 18.59167,-59.87964 q 5.7948,0 10.38236,2.4145 4.829,2.17305 7.96785,5.7948 3.13885,3.62175 4.82901,8.20931 1.69015,4.3461 1.69015,8.45075 0,5.55336 -2.17305,10.38236 -1.93161,4.58756 -5.55336,8.20931 -3.3803,3.3803 -7.96785,5.55335 -4.34611,1.93161 -9.41656,1.93161 -6.27771,0 -11.10671,-1.93161 -4.829,-2.17305 -8.20931,-5.3119 -3.13885,-3.3803 -4.829,-7.72641 -1.4487,-4.3461 -1.4487,-8.93365 0,-4.58756 1.69015,-9.41656 1.9316,-4.829 5.07045,-8.69221 3.38031,-4.10465 8.20931,-6.51915 4.829,-2.4145 10.86526,-2.4145 z"
         style="font-style:normal;font-variant:normal;font-weight:normal;font-stretch:normal;font-size:90px;line-height:125%;font-family:Ranchers;-inkscape-font-specification:Ranchers;letter-spacing:0px;word-spacing:0px;display:inline;opacity:1;fill:#ffdd55;fill-opacity:1;stroke:none;stroke-width:1px;stroke-linecap:butt;stroke-linejoin:miter;stroke-opacity:1"
         id="path3343"
         inkscape:connector-curvature="0" />
      <path
         d="m 426.069,632.59545 q 29.45692,0 42.01233,19.31601 12.79686,19.31602 12.79686,55.53355 0,36.45897 -12.79686,55.77499 -12.55541,19.07456 -42.01233,19.07456 -29.69838,0 -42.49524,-19.07456 -12.55541,-19.31602 -12.55541,-55.77499 0,-36.21753 12.55541,-55.53355 12.79686,-19.31601 42.49524,-19.31601 z m 0,92.95832 q 4.829,0 8.45075,-1.9316 3.86321,-1.9316 6.27771,-5.07046 2.4145,-3.13885 3.62175,-7.00205 1.20725,-4.10465 1.20725,-8.45076 0,-4.3461 -1.20725,-8.45075 -1.20725,-4.10466 -3.62175,-7.24351 -2.4145,-3.13885 -6.27771,-5.07045 -3.62175,-1.93161 -8.45075,-1.93161 -9.89946,0 -14.96992,7.00206 -4.829,7.00206 -4.829,15.69426 0,4.34611 1.20725,8.45076 1.20725,3.8632 3.62175,7.00205 2.65596,3.13886 6.27771,5.07046 3.62175,1.9316 8.69221,1.9316 z"
         style="font-style:normal;font-variant:normal;font-weight:normal;font-stretch:normal;font-size:90px;line-height:125%;font-family:Ranchers;-inkscape-font-specification:Ranchers;letter-spacing:0px;word-spacing:0px;display:inline;opacity:1;fill:#ffdd55;fill-opacity:1;stroke:none;stroke-width:1px;stroke-linecap:butt;stroke-linejoin:miter;stroke-opacity:1"
         id="path3345"
         inkscape:connector-curvature="0" />
      <path
         d="m 568.64909,676.29793 q 0,17.14296 -0.24145,28.49112 0,11.34816 -0.24145,18.59167 -0.24145,7.2435 -0.72435,11.34816 -0.4829,4.10465 -0.9658,7.2435 -3.13886,18.10877 -15.69427,29.21548 -12.31396,11.1067 -35.01027,11.1067 -5.79481,0 -14.24556,-0.9658 -8.20931,-0.72435 -16.17717,-2.8974 -0.4829,-8.20931 -0.72435,-16.66006 -0.24145,-8.69221 -0.24145,-17.14297 0,-8.6922 0.24145,-17.38441 0.24145,-8.69221 0.72435,-17.38441 6.03626,2.65595 10.86526,3.8632 4.82901,1.20725 10.14091,1.20725 7.48496,0 12.07251,-2.4145 4.829,-2.65595 7.48495,-7.96786 2.89741,-5.3119 3.86321,-13.76266 0.9658,-8.45075 0.9658,-20.04036 l 0,-47.32424 -33.56158,0 0,-41.28798 71.46926,0 0,94.16557 z"
         style="font-style:normal;font-variant:normal;font-weight:normal;font-stretch:normal;font-size:90px;line-height:125%;font-family:Ranchers;-inkscape-font-specification:Ranchers;letter-spacing:0px;word-spacing:0px;display:inline;opacity:1;fill:#ffdd55;fill-opacity:1;stroke:none;stroke-width:1px;stroke-linecap:butt;stroke-linejoin:miter;stroke-opacity:1"
         id="path3347"
         inkscape:connector-curvature="0" />
      <path
         d="m 698.04383,779.63861 -33.07873,0 0,-11.83106 q -8.69221,7.00206 -18.35022,10.86526 -9.658,3.62175 -18.83311,3.62175 -10.86526,0 -20.04037,-5.3119 -9.1751,-5.3119 -15.93571,-14.72846 -6.51915,-9.65801 -10.38236,-22.93777 -3.8632,-13.27976 -3.8632,-28.97402 0,-16.41862 4.10465,-30.66418 4.10466,-14.24556 11.10671,-24.62792 7.24351,-10.6238 16.90151,-16.41861 9.89946,-6.03625 21.24762,-6.03625 9.89946,0 18.83312,4.3461 8.93365,4.10465 15.21136,10.38236 l 0,-12.07251 34.28598,0 -1.20725,144.38721 z m -74.36671,-87.16352 q 0,9.89946 5.3119,15.93572 5.55335,6.03625 14.00411,6.03625 9.17511,0 15.45281,-6.51915 6.51916,-6.51916 6.51916,-16.66007 0,-4.58755 -1.69015,-8.6922 -1.44871,-4.10466 -4.34611,-7.00206 -2.8974,-3.13885 -6.7606,-4.829 -3.86321,-1.69015 -8.20931,-1.69015 -8.69221,0 -14.48701,6.51915 -5.7948,6.51916 -5.7948,16.90151 z"
         style="font-style:normal;font-variant:normal;font-weight:normal;font-stretch:normal;font-size:90px;line-height:125%;font-family:Ranchers;-inkscape-font-specification:Ranchers;letter-spacing:0px;word-spacing:0px;display:inline;opacity:1;fill:#ffdd55;fill-opacity:1;stroke:none;stroke-width:1px;stroke-linecap:butt;stroke-linejoin:miter;stroke-opacity:1"
         id="path3349"
         inkscape:connector-curvature="0" />
      <path
         d="m 815.41491,635.2514 -32.59578,144.38721 -45.63408,0 -33.07868,-144.38721 35.97608,0 c 11.67948,51.26025 11.64166,51.09555 20.28182,86.92207 7.44632,-35.69503 7.32077,-35.66182 19.07456,-86.92207 z"
         style="font-style:normal;font-variant:normal;font-weight:normal;font-stretch:normal;font-size:90px;line-height:125%;font-family:Ranchers;-inkscape-font-specification:Ranchers;letter-spacing:0px;word-spacing:0px;display:inline;opacity:1;fill:#ffdd55;fill-opacity:1;stroke:none;stroke-width:1px;stroke-linecap:butt;stroke-linejoin:miter;stroke-opacity:1"
         id="path3351"
         inkscape:connector-curvature="0"
         sodipodi:nodetypes="cccccccc" />
      <path
         d="m 932.42037,779.63861 -33.0787,0 0,-11.83106 q -8.6922,7.00206 -18.3502,10.86526 -9.658,3.62175 -18.83314,3.62175 -10.86526,0 -20.04037,-5.3119 -9.17511,-5.3119 -15.93571,-14.72846 -6.51916,-9.65801 -10.38236,-22.93777 -3.8632,-13.27976 -3.8632,-28.97402 0,-16.41862 4.10465,-30.66418 4.10465,-14.24556 11.10671,-24.62792 7.2435,-10.6238 16.90151,-16.41861 9.89946,-6.03625 21.24762,-6.03625 9.89949,0 18.83309,4.3461 8.9337,4.10465 15.2114,10.38236 l 0,-12.07251 34.2859,0 -1.2072,144.38721 z m -74.3667,-87.16352 q 0,9.89946 5.31191,15.93572 5.55335,6.03625 14.00409,6.03625 9.1751,0 15.4528,-6.51915 6.5192,-6.51916 6.5192,-16.66007 0,-4.58755 -1.6902,-8.6922 -1.4487,-4.10466 -4.3461,-7.00206 -2.8974,-3.13885 -6.7606,-4.829 -3.8632,-1.69015 -8.2093,-1.69015 -8.69219,0 -14.48699,6.51915 -5.79481,6.51916 -5.79481,16.90151 z"
         style="font-style:normal;font-variant:normal;font-weight:normal;font-stretch:normal;font-size:90px;line-height:125%;font-family:Ranchers;-inkscape-font-specification:Ranchers;letter-spacing:0px;word-spacing:0px;display:inline;opacity:1;fill:#ffdd55;fill-opacity:1;stroke:none;stroke-width:1px;stroke-linecap:butt;stroke-linejoin:miter;stroke-opacity:1"
         id="path3353"
         inkscape:connector-curvature="0" />
      <path
         inkscape:connector-curvature="0"
         id="path3404"
         style="font-style:normal;font-variant:normal;font-weight:normal;font-stretch:normal;font-size:90px;line-height:125%;font-family:Ranchers;-inkscape-font-specification:Ranchers;letter-spacing:0px;word-spacing:0px;display:inline;opacity:1;fill:#ffdd55;fill-opacity:1;stroke:none;stroke-width:1px;stroke-linecap:butt;stroke-linejoin:miter;stroke-opacity:1"
         d="m 221.45171,642.90389 q 3.46004,0.49428 5.68436,0.49428 2.22432,0 4.6958,0 13.34592,0 21.25459,-4.94291 7.9087,-4.94295 7.9087,-13.09878 0,-7.4144 -6.92009,-11.36874 -6.67296,-3.95436 -19.77174,-3.95436 -4.2015,0 -7.66154,0.4943 -3.21292,0.24708 -5.19008,0.98858 l 0,31.38763 z M 182.6497,779.57594 q 0.24708,-11.36873 0.24708,-21.99603 0.24709,-10.87446 0.24709,-21.25462 0.24708,-10.62729 0.24708,-21.25459 0,-10.62732 0,-21.99606 0,-32.37619 -0.4943,-62.03378 -0.24708,-29.6576 -1.23574,-52.88937 13.84022,-1.97718 28.42185,-2.71862 14.58166,-0.98858 26.19756,-0.98858 68.70674,0 68.70674,39.79059 0,15.57023 -9.14441,26.69183 -8.89728,10.87446 -23.72608,13.34592 23.97322,4.44864 35.09481,18.536 11.1216,13.84019 11.1216,39.29631 0,35.83625 -22.24319,53.13651 -22.2432,17.05311 -69.20105,17.05311 -9.14442,0 -20.51318,-0.74144 -11.12157,-0.4943 -23.72605,-1.97718 z m 38.80201,-66.48242 q 2.47146,0.74144 7.4144,1.23574 4.94291,0.49428 9.63872,0.49428 15.57024,0 23.47891,-4.94292 8.15584,-4.94294 8.15584,-14.08736 0,-9.39158 -8.65012,-14.33452 -8.403,-4.94291 -23.47893,-4.94291 -3.2129,0 -7.16727,0.24708 -3.70719,0.24708 -9.39155,0.74144 l 0,35.58911 z" />
    </g>
  </g>
</svg>
