<?xml version="1.0" encoding="UTF-8" standalone="no"?>
<!-- Created with Inkscape (http://www.inkscape.org/) -->

<svg
   xmlns:dc="http://purl.org/dc/elements/1.1/"
   xmlns:cc="http://creativecommons.org/ns#"
   xmlns:rdf="http://www.w3.org/1999/02/22-rdf-syntax-ns#"
   xmlns:svg="http://www.w3.org/2000/svg"
   xmlns="http://www.w3.org/2000/svg"
   xmlns:sodipodi="http://sodipodi.sourceforge.net/DTD/sodipodi-0.dtd"
   xmlns:inkscape="http://www.inkscape.org/namespaces/inkscape"
   width="500"
   height="500"
   viewBox="0 0 500 500"
   id="svg4440"
   version="1.1"
   inkscape:version="0.91 r13725"
   sodipodi:docname="logo_favicon.svg"
   inkscape:export-filename="/home/kinow/Pictures/logos/biojava/v3/logo_favicon.png"
   inkscape:export-xdpi="90"
   inkscape:export-ydpi="90">
  <defs
     id="defs4442" />
  <sodipodi:namedview
     id="base"
     pagecolor="#ffffff"
     bordercolor="#666666"
     borderopacity="1.0"
     inkscape:pageopacity="0.0"
     inkscape:pageshadow="2"
     inkscape:zoom="0.98994949"
     inkscape:cx="219.72917"
     inkscape:cy="242.55803"
     inkscape:document-units="px"
     inkscape:current-layer="layer1"
     showgrid="false"
     units="px"
     inkscape:window-width="1600"
     inkscape:window-height="851"
     inkscape:window-x="0"
     inkscape:window-y="25"
     inkscape:window-maximized="1" />
  <metadata
     id="metadata4445">
    <rdf:RDF>
      <cc:Work
         rdf:about="">
        <dc:format>image/svg+xml</dc:format>
        <dc:type
           rdf:resource="http://purl.org/dc/dcmitype/StillImage" />
        <dc:title></dc:title>
      </cc:Work>
    </rdf:RDF>
  </metadata>
  <g
     inkscape:label="Layer 1"
     inkscape:groupmode="layer"
     id="layer1"
     transform="translate(0,-552.3622)">
    <g
       id="g9623"
       transform="matrix(9.74728,0,0,10.014832,2110.9394,-4365.0026)">
      <rect
         style="display:inline;opacity:1;fill:#ececec;stroke:#808080;stroke-width:0.1;stroke-miterlimit:4;stroke-dasharray:0.80000001, 0.80000001;stroke-dashoffset:0;stroke-opacity:1"
         id="rect4894"
         width="48"
         height="48"
         x="-214.91884"
         y="491.97119" />
      <g
         transform="matrix(0.77087516,0,0,0.770324,-849.97323,681.04255)"
         id="g9277"
         style="display:inline">
        <path
           sodipodi:nodetypes="csssscsccccccssccccsscccscsccccsscscscccc"
           inkscape:connector-curvature="0"
           id="path9117"
           style="font-style:normal;font-variant:normal;font-weight:normal;font-stretch:normal;font-size:90px;line-height:125%;font-family:Ranchers;-inkscape-font-specification:Ranchers;letter-spacing:0px;word-spacing:0px;display:inline;fill:#241c1c;fill-opacity:1;stroke:none;stroke-width:1px;stroke-linecap:butt;stroke-linejoin:miter;stroke-opacity:1"
           d="m 847.59483,-220.7584 c 0.51131,0.073 0.93132,0.10957 1.26003,0.10957 l 1.0409,0 c 1.97222,0 3.54269,-0.36522 4.71141,-1.09568 1.16873,-0.73045 1.75309,-1.6983 1.75309,-2.90355 0,-1.09568 -0.51132,-1.9357 -1.53395,-2.52006 -0.98611,-0.58436 -2.44701,-0.87655 -4.38272,-0.87655 -0.62088,0 -1.18699,0.0365 -1.6983,0.10957 -0.4748,0.0365 -0.85828,0.10956 -1.15046,0.21914 z m -8.60108,30.29552 c 0.0365,-1.68003 0.0548,-3.30529 0.0548,-4.87576 0.0365,-1.607 0.0548,-3.17748 0.0548,-4.71143 0.0365,-1.57047 0.0548,-3.14094 0.0548,-4.71141 l 0,-4.87578 c 0,-4.78446 -0.0783,-9.40986 -0.15138,-13.79258 -0.0365,-4.38272 -0.12782,-8.29064 -0.27392,-11.72376 0.72074,-1.25378 0.75277,-1.22005 1.59284,-2.62434 1.47637,-0.05 3.57336,2.07937 4.70731,2.02171 2.15484,-0.14609 4.09054,-0.21913 5.8071,-0.21913 10.15329,0 15.27175,2.98188 15.27175,8.86202 0,2.30093 -1.95219,3.44716 -3.30353,5.09068 -1.31481,1.607 -7.19784,1.76713 -9.38919,2.13235 3.54269,0.65741 11.54226,3.67898 13.18578,5.76077 1.64352,2.04527 2.16793,7.62488 2.16793,11.38671 0,5.29578 -1.34617,6.5459 -4.63321,9.10249 -3.28704,2.52006 -8.40021,3.78009 -15.33951,3.78009 -1.35133,0 -2.86702,-0.0548 -4.54707,-0.16435 -1.64351,-0.073 -3.3966,-0.21914 -5.25925,-0.43828 z m 8.60108,-14.73688 c 0.36522,0.10957 0.91307,0.20088 1.64352,0.27393 0.73045,0.073 1.44264,0.10956 2.13657,0.10956 2.30093,0 4.03575,-0.36522 5.20447,-1.09568 1.20525,-0.73045 1.80788,-1.77135 1.80788,-3.12268 0,-1.38786 -0.63915,-2.44702 -1.91744,-3.17747 -1.24177,-0.73046 -2.9766,-1.09568 -5.20448,-1.09568 -0.47479,0 -1.00437,0.0183 -1.58873,0.0548 -0.54784,0.0365 -1.24177,0.0913 -2.08179,0.16435 l 0,7.88889 z" />
        <path
           transform="translate(0,-308.26772)"
           sodipodi:nodetypes="ccccssccccscscscscccsccccccssssccccccccscssccccc"
           inkscape:connector-curvature="0"
           id="path9119"
           d="m 852.66719,69.848961 c -1.71657,0 -3.6526,0.07227 -5.80743,0.218355 -2.15483,0.10957 -4.1803,0.384966 -6.22557,0.677145 0.14611,3.433126 0.16327,7.266984 0.19978,11.649703 0.073,4.382713 0.10918,8.966362 0.10918,13.750823 l 0,4.875913 c 0,1.57048 -0.0181,3.14052 -0.0546,4.71099 0,1.53395 -0.0181,3.10515 -0.0546,4.71215 0,1.57047 -0.0181,3.19471 -0.0546,4.87475 1.86266,0.21914 3.6157,0.36599 5.25921,0.43904 1.68004,0.10957 3.19588,0.16377 4.54722,0.16377 0.10036,0 0.19658,-0.003 0.29617,-0.004 0.0542,1.8e-4 0.1171,0.004 0.17074,0.004 6.77936,0 11.77537,-1.23038 14.98665,-3.69236 3.21127,-2.49766 4.81668,-6.33312 4.81668,-11.50684 0,-0.051 -0.004,-0.098 -0.005,-0.14867 6e-4,-0.0707 0.005,-0.13899 0.005,-0.21022 0,-3.761838 -0.82231,-6.665884 -2.46583,-8.711145 -1.39876,-1.771749 -3.49185,-3.022012 -6.26622,-3.76205 1.55413,-0.482494 2.84362,-1.338793 3.86078,-2.581984 1.32019,-1.605638 1.98033,-3.532819 1.98033,-5.780712 0,-0.40358 -0.0265,-0.792067 -0.0755,-1.167292 -0.17714,-5.673128 -5.24947,-8.511366 -15.22243,-8.511366 z m -0.008,8.769213 c 1.89108,0 3.31785,0.28512 4.28124,0.856013 0.51778,0.295878 0.89927,0.659418 1.14871,1.089473 0.034,0.182704 0.0569,0.370605 0.0569,0.570293 0,1.205245 -0.58396,2.17326 -1.75269,2.903712 -1.16872,0.730452 -2.73992,1.095282 -4.71215,1.095282 l -1.04069,0 c -0.2124,0 -0.47675,-0.02058 -0.76542,-0.05108 l 0,-6.143097 c 0.28545,-0.107043 0.66047,-0.17803 1.12432,-0.213711 0.49954,-0.07136 1.05319,-0.106858 1.65976,-0.106858 z m 0.80259,14.39661 c 2.17653,0 3.87067,0.357273 5.08382,1.070889 0.5977,0.341543 1.04846,0.758777 1.3601,1.247438 0.17761,0.425981 0.26714,0.897373 0.26714,1.414691 0,1.351335 -0.60202,2.391615 -1.80727,3.122073 -1.16872,0.730445 -2.90369,1.096445 -5.20462,1.096445 -0.69393,0 -1.40668,-0.0373 -2.13713,-0.11035 -0.46673,-0.0467 -0.83109,-0.10334 -1.14871,-0.16492 l 0,-7.462549 c 0.82066,-0.07136 1.49855,-0.124604 2.03376,-0.160285 0.5709,-0.03568 1.08906,-0.0534 1.55291,-0.0534 z"
           style="font-style:normal;font-variant:normal;font-weight:normal;font-stretch:normal;font-size:90px;line-height:125%;font-family:Ranchers;-inkscape-font-specification:Ranchers;letter-spacing:0px;word-spacing:0px;display:inline;opacity:1;fill:#ffdd55;fill-opacity:1;stroke:#241c1c;stroke-width:0.59468055px;stroke-linecap:butt;stroke-linejoin:miter;stroke-opacity:1" />
        <g
           style="display:inline"
           transform="matrix(0.59468057,0,0,0.59468057,768.29596,-504.5552)"
           id="g9121">
          <path
             sodipodi:nodetypes="ssssssss"
             inkscape:connector-curvature="0"
             id="path9123"
             d="m 150.79382,510.83798 c -0.58121,0.90216 -2.56724,1.28436 -4.24376,1.31186 -1.37916,0.0226 -2.9837,-0.34622 -4.68087,-0.8182 -2.15369,-0.59889 -3.91664,-1.61855 -5.28978,-2.34465 -0.6015,-0.31807 -1.15696,-0.84152 -1.52475,-1.33362 -0.40833,-0.54636 -0.60372,-1.0456 -0.47367,-1.49617 0.45177,-1.56521 1.778,-2.37995 8.92463,-0.49366 4.53605,1.19726 7.96874,4.1181 7.2882,5.17444 z"
             style="fill:#ff5555;fill-rule:evenodd;stroke:none;stroke-width:0.1;stroke-linecap:butt;stroke-linejoin:miter;stroke-miterlimit:4;stroke-dasharray:none;stroke-opacity:1" />
          <g
             id="g9125">
            <path
               sodipodi:nodetypes="ssssssss"
               inkscape:connector-curvature="0"
               id="path9127"
               d="m 150.37102,510.68328 c -0.55097,0.85521 -2.43364,1.21753 -4.02291,1.24359 -1.30739,0.0214 -2.82842,-0.3282 -4.43727,-0.77562 -2.04159,-0.56777 -3.71281,-1.53431 -5.01449,-2.22263 -0.5702,-0.30151 -1.09675,-0.79773 -1.4454,-1.26421 -0.38708,-0.51793 -0.5723,-0.99118 -0.44902,-1.41832 0.42826,-1.48375 1.68547,-2.25608 8.46018,-0.46795 4.29998,1.13494 7.55404,3.90378 6.90891,4.90514 z"
               style="fill:none;fill-rule:evenodd;stroke:#000000;stroke-width:0.1;stroke-linecap:butt;stroke-linejoin:miter;stroke-miterlimit:4;stroke-dasharray:none;stroke-opacity:1" />
            <path
               style="fill:none;fill-rule:evenodd;stroke:#000000;stroke-width:0.2;stroke-linecap:butt;stroke-linejoin:miter;stroke-miterlimit:4;stroke-dasharray:none;stroke-opacity:1"
               d="m 136.74195,506.71071 c -0.0375,0.3661 -0.0737,0.80251 0.13043,1.08165 0.12869,0.17602 0.38827,0.32597 0.58706,0.2334 0.23557,-0.10969 0.10649,-0.62517 0.33372,-0.75591 0.33818,-0.19463 0.89261,-0.12169 1.09443,0.20945 0.2595,0.42576 -0.48735,1.08662 -0.29507,1.55537 0.16086,0.39214 0.63718,0.71481 1.03417,0.61818 0.54184,-0.1319 0.50315,-1.44245 1.05192,-1.44341 0.31807,-6e-4 0.45307,0.50245 0.52899,0.83452 0.0878,0.38394 -0.31734,0.87853 -0.11612,1.20223 0.18007,0.28967 0.64511,0.44568 0.94167,0.27187 0.33615,-0.19701 0.0818,-0.92301 0.394,-1.16462 0.24198,-0.18731 0.65361,-0.20473 0.86766,-0.005 0.32684,0.3047 -0.10293,1.07199 0.18739,1.4177 0.27774,0.33072 0.84102,0.53721 1.21955,0.30942 0.39566,-0.23807 0.0757,-1.14396 0.47423,-1.37582 0.22977,-0.13369 0.55198,0.0206 0.72846,0.21031 0.22088,0.23746 0.0186,0.76808 0.25333,0.98931 0.25819,0.24331 0.71079,0.31548 1.03472,0.14959 0.52668,-0.26974 1.06806,-0.99374 0.96161,-1.59733 -0.0569,-0.32258 -0.46304,-0.62728 -0.75557,-0.51642 -0.13176,0.0499 -0.0309,0.36498 -0.16046,0.42241 -0.22652,0.10046 -0.5044,-0.12127 -0.63541,-0.33259 -0.20841,-0.33625 0.13006,-0.90796 -0.085,-1.23899 -0.30036,-0.46231 -0.93153,-0.87144 -1.44208,-0.67202 -0.40834,0.15951 -0.24607,1.05746 -0.64693,1.24075 -0.19277,0.0881 -0.45424,-0.0204 -0.58064,-0.18898 -0.29157,-0.38873 0.16164,-1.14701 -0.13556,-1.53057 -0.25756,-0.33238 -0.79116,-0.52557 -1.17264,-0.33855 -0.44208,0.21676 -0.24052,1.2101 -0.69235,1.39808 -0.19638,0.0817 -0.42668,-0.0876 -0.56361,-0.24796 -0.27772,-0.32528 -0.0546,-1.01422 -0.38063,-1.28174 -0.18304,-0.15016 -0.50629,-0.18489 -0.70281,-0.0325 -0.26998,0.20946 -0.0106,0.8391 -0.29525,1.02267 -0.15339,0.0989 -0.38712,0.0105 -0.50317,-0.12393 -0.27417,-0.31775 0.10717,-1.03185 -0.19802,-1.31423 -0.33772,-0.31249 -0.97734,-0.29539 -1.36368,-0.0102 -0.31232,0.23051 -0.11121,0.90472 -0.42387,1.13469 -0.0653,0.0481 -0.17795,0.0557 -0.23025,-0.003 -0.17253,-0.19221 0.23307,-0.71391 0.008,-0.82856 -0.1102,-0.0562 -0.22852,0.14117 -0.30406,0.25311 -0.087,0.12885 -0.13245,0.2915 -0.14837,0.44722 z"
               id="path9129"
               inkscape:connector-curvature="0"
               sodipodi:nodetypes="ssssssssssssssssssssssssssssssssssssssssss" />
          </g>
        </g>
        <g
           style="display:inline"
           transform="matrix(0.46189628,-0.10115074,0.06812267,0.4264728,755.46542,-409.31721)"
           id="g9131">
          <path
             style="fill:#ff5555;fill-rule:evenodd;stroke:none;stroke-width:1px;stroke-linecap:butt;stroke-linejoin:miter;stroke-opacity:1"
             d="m 155.0625,479.50073 c -0.30817,1.02798 -2.11025,1.94607 -3.71336,2.43752 -1.31877,0.40428 -2.96265,0.49498 -4.72414,0.51228 -2.2353,0.022 -4.21191,-0.46864 -5.73257,-0.78537 -0.66613,-0.13874 -1.34499,-0.48758 -1.83484,-0.85835 -0.54386,-0.41166 -0.87006,-0.83711 -0.87009,-1.30608 -1.2e-4,-1.6291 1.04808,-2.77974 8.4375,-2.94979 4.69015,-0.10793 8.79833,1.74614 8.4375,2.94979 z"
             id="path9133"
             inkscape:connector-curvature="0"
             sodipodi:nodetypes="ssssssss" />
          <path
             sodipodi:nodetypes="ssssssss"
             inkscape:connector-curvature="0"
             id="path9135"
             d="m 154.61338,479.46938 c -0.29214,0.97448 -2.00043,1.8448 -3.52011,2.31067 -1.25014,0.38324 -2.80847,0.46922 -4.47829,0.48562 -2.11897,0.0208 -3.99271,-0.44425 -5.43424,-0.7445 -0.63146,-0.13152 -1.27499,-0.46221 -1.73935,-0.81368 -0.51555,-0.39024 -0.82478,-0.79354 -0.82481,-1.23811 -1.1e-4,-1.54432 0.99354,-2.63507 7.9984,-2.79627 4.44606,-0.10232 8.34046,1.65526 7.9984,2.79627 z"
             style="fill:none;fill-rule:evenodd;stroke:#000000;stroke-width:0.09479585;stroke-linecap:butt;stroke-linejoin:miter;stroke-miterlimit:4;stroke-dasharray:none;stroke-opacity:1" />
          <path
             style="fill:none;fill-rule:evenodd;stroke:#000000;stroke-width:0.18799999;stroke-linecap:butt;stroke-linejoin:miter;stroke-miterlimit:4;stroke-dasharray:none;stroke-opacity:1"
             d="m 140.4172,479.43312 c 0.0655,0.36214 0.15184,0.79145 0.42534,1.00303 0.17246,0.13341 0.46345,0.20548 0.62876,0.0614 0.1959,-0.17073 -0.0711,-0.63018 0.11095,-0.81882 0.27092,-0.28079 0.82383,-0.3645 1.10958,-0.10234 0.36742,0.33708 -0.16682,1.17917 0.14794,1.57619 0.26332,0.33213 0.81045,0.51002 1.16506,0.30706 0.48399,-0.27702 0.0833,-1.52541 0.61027,-1.67855 0.30542,-0.0888 0.57466,0.35706 0.73971,0.65504 0.19085,0.34452 -0.0612,0.93208 0.22191,1.18727 0.25335,0.22835 0.74342,0.24925 0.98013,0 0.26832,-0.28252 -0.17739,-0.90949 0.0555,-1.22821 0.18053,-0.24708 0.57118,-0.37799 0.83218,-0.24564 0.39853,0.20209 0.19846,1.05848 0.57328,1.31009 0.35857,0.24071 0.95703,0.28285 1.25752,-0.041 0.3141,-0.33847 -0.24458,-1.12006 0.074,-1.45337 0.18367,-0.19218 0.53602,-0.13334 0.75821,0 0.27808,0.16687 0.2309,0.73278 0.5178,0.88022 0.31555,0.16214 0.77041,0.10594 1.03561,-0.14329 0.43119,-0.40525 0.75051,-1.25101 0.48081,-1.80138 -0.14414,-0.29414 -0.61886,-0.47423 -0.86916,-0.28658 -0.11275,0.0845 0.0715,0.35924 -0.037,0.45034 -0.18977,0.15935 -0.51824,0.0234 -0.70273,-0.14329 -0.2935,-0.26524 -0.12689,-0.90841 -0.42534,-1.16679 -0.41681,-0.36086 -1.1367,-0.57886 -1.5719,-0.24565 -0.34807,0.26652 0.0569,1.08422 -0.27739,1.37151 -0.16076,0.13814 -0.44208,0.10637 -0.61027,-0.0205 -0.38796,-0.2926 -0.16286,-1.14684 -0.55479,-1.43291 -0.33965,-0.2479 -0.9059,-0.2855 -1.22053,0 -0.36461,0.33088 0.10457,1.22933 -0.27739,1.53526 -0.16601,0.13296 -0.43423,0.0342 -0.61027,-0.0819 -0.35705,-0.23548 -0.33381,-0.95927 -0.72122,-1.12586 -0.21751,-0.0935 -0.53771,-0.0372 -0.68424,0.16376 -0.20129,0.27613 0.22258,0.80911 0,1.06444 -0.11993,0.13758 -0.369,0.1175 -0.5178,0.0205 -0.35155,-0.22923 -0.18325,-1.02109 -0.55479,-1.20774 -0.41115,-0.20655 -1.02092,-0.0127 -1.313,0.36846 -0.23612,0.3081 0.14411,0.90007 -0.0925,1.20774 -0.0494,0.0643 -0.15551,0.10289 -0.22192,0.0614 -0.21908,-0.13681 0.0259,-0.75055 -0.22191,-0.79834 -0.12146,-0.0234 -0.1804,0.19902 -0.22192,0.32752 -0.0478,0.14791 -0.0464,0.3168 -0.0185,0.47083 z"
             id="path9137"
             inkscape:connector-curvature="0"
             sodipodi:nodetypes="ssssssssssssssssssssssssssssssssssssssssss" />
        </g>
        <path
           style="display:inline;fill:#8787de;stroke:none;stroke-width:0.2;stroke-miterlimit:4;stroke-dasharray:none;stroke-dashoffset:0;stroke-opacity:1"
           d="m 844.46467,-207.46354 c 1.34878,-0.008 2.22903,0.75811 2.69711,1.55981 -0.763,0.85266 -2.18079,1.16873 -3.06158,1.10465 -0.33744,-0.68902 -0.11937,-2.04474 0.36447,-2.66446 z"
           id="path9139"
           inkscape:connector-curvature="0"
           sodipodi:nodetypes="cccc" />
        <path
           sodipodi:nodetypes="cccc"
           inkscape:connector-curvature="0"
           id="path9141"
           d="m 857.32633,-234.16255 c 1.07297,0.81732 0.8926,1.516 0.77336,2.43666 -1.12499,0.20885 -2.03166,0.0388 -2.68979,-0.55001 0.15383,-0.75163 1.15477,-1.69166 1.91643,-1.88665 z"
           style="display:inline;fill:#8787de;stroke:none;stroke-width:0.2;stroke-miterlimit:4;stroke-dasharray:none;stroke-dashoffset:0;stroke-opacity:1" />
        <circle
           style="display:inline;fill:#ff7f2a;stroke:#c83737;stroke-width:0.11893611;stroke-miterlimit:4;stroke-dasharray:none;stroke-dashoffset:0;stroke-opacity:1"
           id="circle9143"
           cx="845.09027"
           cy="-234.35764"
           r="1.6820107" />
        <circle
           r="1.2504833"
           cy="-227.81355"
           cx="862.56744"
           id="circle9145"
           style="display:inline;fill:#ff7f2a;stroke:#c83737;stroke-width:0.08842253;stroke-miterlimit:4;stroke-dasharray:none;stroke-dashoffset:0;stroke-opacity:1" />
        <circle
           style="display:inline;fill:#ff7f2a;stroke:#c83737;stroke-width:0.07047337;stroke-miterlimit:4;stroke-dasharray:none;stroke-dashoffset:0;stroke-opacity:1"
           id="circle9147"
           cx="845.16913"
           cy="-212.72801"
           r="0.99664372" />
        <circle
           r="1.4027871"
           cy="-211.36136"
           cx="865.51093"
           id="circle9149"
           style="display:inline;fill:#ff7f2a;stroke:#c83737;stroke-width:0.09919204;stroke-miterlimit:4;stroke-dasharray:none;stroke-dashoffset:0;stroke-opacity:1" />
        <circle
           style="display:inline;fill:#ff7f2a;stroke:#c83737;stroke-width:0.124576;stroke-miterlimit:4;stroke-dasharray:none;stroke-dashoffset:0;stroke-opacity:1"
           id="circle9151"
           cx="848.9342"
           cy="-197.16338"
           r="1.7617705" />
        <circle
           r="0.90021038"
           cy="-201.47481"
           cx="860.82782"
           id="circle9153"
           style="display:inline;fill:#ff7f2a;stroke:#c83737;stroke-width:0.0636545;stroke-miterlimit:4;stroke-dasharray:none;stroke-dashoffset:0;stroke-opacity:1" />
        <g
           style="display:inline"
           transform="matrix(0.59468057,0,0,0.59468057,768.29596,-504.5552)"
           id="g9155">
          <circle
             r="4.8613591"
             cy="478.13394"
             cx="129.84248"
             id="circle9157"
             style="fill:#672178;stroke:#53536c;stroke-width:0.30000001;stroke-linecap:round;stroke-linejoin:round;stroke-miterlimit:4;stroke-dasharray:none;stroke-opacity:1" />
          <ellipse
             ry="1.6130873"
             rx="1.6572815"
             cy="478.81897"
             cx="132.11848"
             id="ellipse9159"
             style="fill:#c8ab37;stroke:#447821;stroke-width:0.30000001;stroke-linecap:round;stroke-linejoin:round;stroke-miterlimit:4;stroke-dasharray:none;stroke-opacity:1" />
        </g>
        <g
           style="display:inline"
           id="g9161"
           transform="matrix(0.59468057,0,0,0.59468057,792.60353,-482.99803)">
          <ellipse
             transform="matrix(0.874638,-0.48477662,0.48477662,0.874638,0,0)"
             ry="0.34375"
             rx="0.65625"
             cy="470.5614"
             cx="-117.78978"
             id="ellipse9163"
             style="fill:#c8b7b7;stroke:#483737;stroke-width:0.1;stroke-linecap:round;stroke-linejoin:round;stroke-miterlimit:4;stroke-dasharray:none;stroke-opacity:1" />
          <ellipse
             style="fill:#c8b7b7;stroke:#483737;stroke-width:0.0772841;stroke-linecap:round;stroke-linejoin:round;stroke-miterlimit:4;stroke-dasharray:none;stroke-opacity:1"
             id="ellipse9165"
             cx="-10.113874"
             cy="486.43735"
             rx="0.50717688"
             ry="0.26566407"
             transform="matrix(0.96073727,-0.27745973,0.27745973,0.96073727,0,0)" />
          <ellipse
             transform="matrix(0.93461505,-0.35566094,0.21409127,0.97681366,0,0)"
             ry="0.3406215"
             rx="0.51578605"
             cy="488.70169"
             cx="22.601"
             id="ellipse9167"
             style="fill:#c8b7b7;stroke:#483737;stroke-width:0.08825003;stroke-linecap:round;stroke-linejoin:round;stroke-miterlimit:4;stroke-dasharray:none;stroke-opacity:1" />
          <ellipse
             style="fill:#c8b7b7;stroke:#483737;stroke-width:0.08825003;stroke-linecap:round;stroke-linejoin:round;stroke-miterlimit:4;stroke-dasharray:none;stroke-opacity:1"
             id="ellipse9169"
             cx="309.4025"
             cy="424.00363"
             rx="0.51578605"
             ry="0.3406215"
             transform="matrix(0.96422767,0.26507546,-0.40423464,0.91465532,0,0)" />
          <ellipse
             transform="matrix(0.76718275,-0.64142858,0.64142858,0.76718275,0,0)"
             ry="0.26566407"
             rx="0.50717688"
             cy="442.09879"
             cx="-205.06822"
             id="ellipse9171"
             style="fill:#c8b7b7;stroke:#483737;stroke-width:0.0772841;stroke-linecap:round;stroke-linejoin:round;stroke-miterlimit:4;stroke-dasharray:none;stroke-opacity:1" />
          <ellipse
             inkscape:transform-center-y="-0.31251221"
             inkscape:transform-center-x="0.62499397"
             style="fill:#c8b7b7;stroke:#483737;stroke-width:0.08477594;stroke-linecap:round;stroke-linejoin:round;stroke-miterlimit:4;stroke-dasharray:none;stroke-opacity:1"
             id="ellipse9173"
             cx="-370.26978"
             cy="581.95868"
             rx="0.39428997"
             ry="0.41118899"
             transform="matrix(-0.98683044,0.16175812,-0.414419,0.9100862,0,0)" />
          <ellipse
             transform="matrix(0.96529991,0.26114379,-0.40968614,0.91222654,0,0)"
             ry="0.38303283"
             rx="0.58717644"
             cy="427.29742"
             cx="310.14813"
             id="ellipse9175"
             style="fill:#c8b7b7;stroke:#483737;stroke-width:0.0998496;stroke-linecap:round;stroke-linejoin:round;stroke-miterlimit:4;stroke-dasharray:none;stroke-opacity:1" />
          <ellipse
             style="fill:#c8b7b7;stroke:#483737;stroke-width:0.0772841;stroke-linecap:round;stroke-linejoin:round;stroke-miterlimit:4;stroke-dasharray:none;stroke-opacity:1"
             id="ellipse9177"
             cx="-205.94778"
             cy="439.20453"
             rx="0.50717688"
             ry="0.26566407"
             transform="matrix(0.76718275,-0.64142858,0.64142858,0.76718275,0,0)" />
          <ellipse
             transform="matrix(0.64045329,0.76799712,-0.85396981,0.52032256,0,0)"
             ry="0.3406215"
             rx="0.51578605"
             cy="205.05881"
             cx="471.08472"
             id="ellipse9179"
             style="fill:#c8b7b7;stroke:#483737;stroke-width:0.08825003;stroke-linecap:round;stroke-linejoin:round;stroke-miterlimit:4;stroke-dasharray:none;stroke-opacity:1" />
        </g>
        <g
           style="display:inline"
           transform="matrix(0.59468057,0,0,0.59468057,771.47327,-508.43844)"
           id="g9181">
          <ellipse
             style="fill:#c8b7b7;stroke:#483737;stroke-width:0.1;stroke-linecap:round;stroke-linejoin:round;stroke-miterlimit:4;stroke-dasharray:none;stroke-opacity:1"
             id="ellipse9183"
             cx="-117.78978"
             cy="470.5614"
             rx="0.65625"
             ry="0.34375"
             transform="matrix(0.874638,-0.48477662,0.48477662,0.874638,0,0)" />
          <ellipse
             transform="matrix(0.96073727,-0.27745973,0.27745973,0.96073727,0,0)"
             ry="0.26566407"
             rx="0.50717688"
             cy="486.43735"
             cx="-10.113874"
             id="ellipse9185"
             style="fill:#c8b7b7;stroke:#483737;stroke-width:0.0772841;stroke-linecap:round;stroke-linejoin:round;stroke-miterlimit:4;stroke-dasharray:none;stroke-opacity:1" />
          <ellipse
             style="fill:#c8b7b7;stroke:#483737;stroke-width:0.08825003;stroke-linecap:round;stroke-linejoin:round;stroke-miterlimit:4;stroke-dasharray:none;stroke-opacity:1"
             id="ellipse9187"
             cx="22.601"
             cy="488.70169"
             rx="0.51578605"
             ry="0.3406215"
             transform="matrix(0.93461505,-0.35566094,0.21409127,0.97681366,0,0)" />
          <ellipse
             transform="matrix(0.96422767,0.26507546,-0.40423464,0.91465532,0,0)"
             ry="0.3406215"
             rx="0.51578605"
             cy="424.00363"
             cx="309.4025"
             id="ellipse9189"
             style="fill:#c8b7b7;stroke:#483737;stroke-width:0.08825003;stroke-linecap:round;stroke-linejoin:round;stroke-miterlimit:4;stroke-dasharray:none;stroke-opacity:1" />
          <ellipse
             style="fill:#c8b7b7;stroke:#483737;stroke-width:0.0772841;stroke-linecap:round;stroke-linejoin:round;stroke-miterlimit:4;stroke-dasharray:none;stroke-opacity:1"
             id="ellipse9191"
             cx="-205.06822"
             cy="442.09879"
             rx="0.50717688"
             ry="0.26566407"
             transform="matrix(0.76718275,-0.64142858,0.64142858,0.76718275,0,0)" />
          <ellipse
             transform="matrix(-0.98683044,0.16175812,-0.414419,0.9100862,0,0)"
             ry="0.41118899"
             rx="0.39428997"
             cy="581.95868"
             cx="-370.26978"
             id="ellipse9193"
             style="fill:#c8b7b7;stroke:#483737;stroke-width:0.08477594;stroke-linecap:round;stroke-linejoin:round;stroke-miterlimit:4;stroke-dasharray:none;stroke-opacity:1"
             inkscape:transform-center-x="0.62499397"
             inkscape:transform-center-y="-0.31251221" />
          <ellipse
             style="fill:#c8b7b7;stroke:#483737;stroke-width:0.0998496;stroke-linecap:round;stroke-linejoin:round;stroke-miterlimit:4;stroke-dasharray:none;stroke-opacity:1"
             id="ellipse9195"
             cx="310.14813"
             cy="427.29742"
             rx="0.58717644"
             ry="0.38303283"
             transform="matrix(0.96529991,0.26114379,-0.40968614,0.91222654,0,0)" />
          <ellipse
             transform="matrix(0.76718275,-0.64142858,0.64142858,0.76718275,0,0)"
             ry="0.26566407"
             rx="0.50717688"
             cy="439.20453"
             cx="-205.94778"
             id="ellipse9197"
             style="fill:#c8b7b7;stroke:#483737;stroke-width:0.0772841;stroke-linecap:round;stroke-linejoin:round;stroke-miterlimit:4;stroke-dasharray:none;stroke-opacity:1" />
          <ellipse
             style="fill:#c8b7b7;stroke:#483737;stroke-width:0.08825003;stroke-linecap:round;stroke-linejoin:round;stroke-miterlimit:4;stroke-dasharray:none;stroke-opacity:1"
             id="ellipse9199"
             cx="471.08472"
             cy="205.05881"
             rx="0.51578605"
             ry="0.3406215"
             transform="matrix(0.64045329,0.76799712,-0.85396981,0.52032256,0,0)" />
        </g>
        <g
           style="display:inline"
           id="g9201"
           transform="matrix(0.59468057,0,0,0.59468057,779.14744,-474.58797)">
          <ellipse
             transform="matrix(0.874638,-0.48477662,0.48477662,0.874638,0,0)"
             ry="0.34375"
             rx="0.65625"
             cy="470.5614"
             cx="-117.78978"
             id="ellipse9203"
             style="fill:#c8b7b7;stroke:#483737;stroke-width:0.1;stroke-linecap:round;stroke-linejoin:round;stroke-miterlimit:4;stroke-dasharray:none;stroke-opacity:1" />
          <ellipse
             style="fill:#c8b7b7;stroke:#483737;stroke-width:0.0772841;stroke-linecap:round;stroke-linejoin:round;stroke-miterlimit:4;stroke-dasharray:none;stroke-opacity:1"
             id="ellipse9205"
             cx="-10.113874"
             cy="486.43735"
             rx="0.50717688"
             ry="0.26566407"
             transform="matrix(0.96073727,-0.27745973,0.27745973,0.96073727,0,0)" />
          <ellipse
             transform="matrix(0.93461505,-0.35566094,0.21409127,0.97681366,0,0)"
             ry="0.3406215"
             rx="0.51578605"
             cy="488.70169"
             cx="22.601"
             id="ellipse9207"
             style="fill:#c8b7b7;stroke:#483737;stroke-width:0.08825003;stroke-linecap:round;stroke-linejoin:round;stroke-miterlimit:4;stroke-dasharray:none;stroke-opacity:1" />
          <ellipse
             style="fill:#c8b7b7;stroke:#483737;stroke-width:0.08825003;stroke-linecap:round;stroke-linejoin:round;stroke-miterlimit:4;stroke-dasharray:none;stroke-opacity:1"
             id="ellipse9209"
             cx="309.4025"
             cy="424.00363"
             rx="0.51578605"
             ry="0.3406215"
             transform="matrix(0.96422767,0.26507546,-0.40423464,0.91465532,0,0)" />
          <ellipse
             transform="matrix(0.76718275,-0.64142858,0.64142858,0.76718275,0,0)"
             ry="0.26566407"
             rx="0.50717688"
             cy="442.09879"
             cx="-205.06822"
             id="ellipse9211"
             style="fill:#c8b7b7;stroke:#483737;stroke-width:0.0772841;stroke-linecap:round;stroke-linejoin:round;stroke-miterlimit:4;stroke-dasharray:none;stroke-opacity:1" />
          <ellipse
             inkscape:transform-center-y="-0.31251221"
             inkscape:transform-center-x="0.62499397"
             style="fill:#c8b7b7;stroke:#483737;stroke-width:0.08477594;stroke-linecap:round;stroke-linejoin:round;stroke-miterlimit:4;stroke-dasharray:none;stroke-opacity:1"
             id="ellipse9213"
             cx="-370.26978"
             cy="581.95868"
             rx="0.39428997"
             ry="0.41118899"
             transform="matrix(-0.98683044,0.16175812,-0.414419,0.9100862,0,0)" />
          <ellipse
             transform="matrix(0.96529991,0.26114379,-0.40968614,0.91222654,0,0)"
             ry="0.38303283"
             rx="0.58717644"
             cy="427.29742"
             cx="310.14813"
             id="ellipse9215"
             style="fill:#c8b7b7;stroke:#483737;stroke-width:0.0998496;stroke-linecap:round;stroke-linejoin:round;stroke-miterlimit:4;stroke-dasharray:none;stroke-opacity:1" />
          <ellipse
             style="fill:#c8b7b7;stroke:#483737;stroke-width:0.0772841;stroke-linecap:round;stroke-linejoin:round;stroke-miterlimit:4;stroke-dasharray:none;stroke-opacity:1"
             id="ellipse9217"
             cx="-205.94778"
             cy="439.20453"
             rx="0.50717688"
             ry="0.26566407"
             transform="matrix(0.76718275,-0.64142858,0.64142858,0.76718275,0,0)" />
          <ellipse
             transform="matrix(0.64045329,0.76799712,-0.85396981,0.52032256,0,0)"
             ry="0.3406215"
             rx="0.51578605"
             cy="205.05881"
             cx="471.08472"
             id="ellipse9219"
             style="fill:#c8b7b7;stroke:#483737;stroke-width:0.08825003;stroke-linecap:round;stroke-linejoin:round;stroke-miterlimit:4;stroke-dasharray:none;stroke-opacity:1" />
        </g>
        <path
           style="fill:#ff7f2a;stroke:#ff7f2a;stroke-width:0.17840418;stroke-linecap:round;stroke-linejoin:round;stroke-miterlimit:4;stroke-dasharray:none;stroke-opacity:1"
           id="path9221"
           d="m 858.31243,-204.78954 c 0.0989,-0.13266 0.51811,-0.68877 0.57348,-0.79427 0.0959,-0.18272 0.1272,-0.39463 0.22216,-0.57785 0.10351,-0.1997 0.25558,-0.37066 0.36987,-0.56439 0.55613,-0.94259 0.01,-0.19846 0.60456,-0.95392 0.14462,-0.28071 0.14084,-0.23227 0.21266,-0.49786 0.015,-0.0556 0.015,-0.11568 0.0375,-0.16868 0.0167,-0.0393 0.0418,-0.12512 0.0776,-0.10186 0.49776,0.32364 0.37396,0.33189 0.22449,0.74325 -0.17408,1.32165 0.0868,-0.33705 -0.26611,0.99733 -0.0416,0.1572 -0.0293,0.32438 -0.0592,0.48421 -0.13921,0.74381 -0.0767,0.11909 -0.21559,0.80402 -0.0193,0.0949 -0.0205,0.19262 -0.0308,0.28892 -0.15589,0.5083 -0.0338,0.0243 -0.09,0.55631 -0.006,0.0541 -0.0243,0.10607 -0.0396,0.15828 -0.0177,0.0604 -0.0165,0.13291 -0.059,0.17936 -0.0688,0.0752 -0.17203,0.22261 -0.2567,0.16594 -0.1226,-0.0821 -0.0855,-0.2824 -0.12826,-0.4236 0.10562,-0.49889 -0.0403,0.0404 0.29835,-0.60025 0.43897,-0.83059 -0.12449,-0.0122 0.37222,-0.82231 0.0736,-0.12008 0.16712,-0.22679 0.24917,-0.34128 0.0796,-0.11111 0.15724,-0.22365 0.23586,-0.33547 0.0537,-0.0863 0.11833,-0.16666 0.16115,-0.25883 0.052,-0.11203 0.24799,-1.10836 0.63395,-0.75963 0.0982,0.0887 0.0128,0.26431 0.0192,0.39646 0.0297,0.27461 -0.16961,0.49798 -0.19839,0.75736 -0.0183,0.16465 0.0323,0.32988 0.04,0.49536 0.007,0.15872 0.011,0.31784 0.005,0.47664 -0.005,0.14799 -0.0453,0.29487 -0.0368,0.4427 0.008,0.13962 0.0572,0.2738 0.0857,0.41069 -0.0386,0.25689 0.0141,0.50467 0.0446,0.75737 0.004,0.0279 0.0106,0.0558 0.009,0.0838 -0.002,0.0393 -0.0295,0.0234 -0.007,0.0337 -0.12104,-0.0652 -0.25168,-0.11509 -0.3631,-0.19563 -0.0152,-0.011 0.0323,-0.0204 0.0438,-0.0351 0.0177,-0.0227 0.0247,-0.0525 0.0423,-0.0753 0.0485,-0.0625 0.10421,-0.11908 0.15516,-0.1796 0.21309,-0.25317 0.13586,-0.15501 0.32713,-0.46713 0.29416,-0.61648 0.0242,-0.10147 0.42156,-0.7132 0.0824,-0.12687 0.15533,-0.25968 0.23348,-0.38923 0.0738,-0.12235 0.15984,-0.238 0.22239,-0.36647 0.0514,-0.10558 0.073,-0.22344 0.11769,-0.33205 0.0375,-0.0911 0.0855,-0.17753 0.12821,-0.2663 0.008,-0.0916 0.005,-0.18477 0.0237,-0.27492 0.0332,-0.16435 0.2545,-0.75134 0.58176,-0.29126 0.0902,0.12682 -0.0505,0.30714 -0.0745,0.46091 -0.0296,0.18961 -0.0575,0.37947 -0.0862,0.56921 0.006,0.23084 0.0114,0.46168 0.0171,0.69251 -0.0184,0.23173 -0.0549,0.46273 -0.0553,0.69519 -3.4e-4,0.21377 0.0509,0.42535 0.0532,0.63912 0.002,0.21132 -0.045,0.42149 -0.0396,0.63275 0.0593,2.33861 0.10572,-1.11593 0.0588,1.12446 0.007,0.0739 0.0169,0.40501 0.0714,0.538 0.006,0.0159 0.0551,0.0342 0.038,0.0346 -0.16761,0.004 -0.33915,0.0151 -0.50248,-0.0228 -0.0297,-0.007 0.003,-0.0619 0.0134,-0.0906 0.0288,-0.0805 0.0686,-0.15653 0.10291,-0.2348 0.17446,-0.54877 -0.0276,-0.009 0.27448,-0.54183 0.22445,-0.39564 0.0827,-0.32287 0.39151,-0.67991 0.95765,-1.1073 -0.3316,0.55071 0.56773,-0.63284 0.40319,-0.78131 0.0489,-0.0325 0.34034,-0.84078 0.17138,-0.47531 0.17924,-0.3343 0.29002,-0.77246 0.0927,-0.36665 -0.0424,-0.1498 0.1708,-0.40877 0.0732,-0.12175 0.0872,-0.16969 0.19096,-0.25914 0.0159,-0.0137 -0.0218,0.0363 -0.0365,0.0511 -0.004,0.004 0.004,-0.0124 -1.1e-4,-0.0142 -0.0122,-0.005 -0.0263,-0.001 -0.0394,-0.002 0.0148,-0.32704 0.47735,-0.30606 0.46251,0.021 l 0,0 c 0.004,0.0429 0.0255,0.17019 -0.005,0.21358 -0.13684,0.19189 -0.15634,0.0249 -0.22605,0.20206 -0.0213,0.046 -0.0379,0.0944 -0.0639,0.13799 -0.0929,0.15587 -0.24719,0.31084 -0.31551,0.47608 -0.0606,0.14642 -0.0708,0.30945 -0.12195,0.45941 -0.043,0.12629 -0.33796,0.79516 -0.39064,0.91588 -0.2613,0.39666 -0.20901,0.34861 -0.50244,0.6836 -0.0811,0.0925 -0.1803,0.17004 -0.25024,0.27123 -0.0673,0.0974 -0.10112,0.21417 -0.15731,0.31835 -0.21729,0.40289 -0.11997,0.11653 -0.22015,0.50608 -0.004,0.0434 -0.0161,0.0869 -0.0117,0.13021 0.003,0.0284 0.0611,0.0727 0.0332,0.0791 -0.14568,0.0337 -0.29872,0.0181 -0.44822,0.0168 -0.0102,-9e-5 -0.0251,-0.0113 -0.0222,-0.0211 0.0148,-0.0507 0.056,-0.0913 0.0699,-0.14225 0.0351,-0.12822 0.0507,-0.26099 0.076,-0.39148 -0.0193,-0.26281 -0.0686,-0.86486 -0.067,-1.12343 0.001,-0.21162 0.0312,-0.42235 0.034,-0.63396 0.003,-0.2139 -0.0242,-0.42773 -0.0172,-0.64154 0.008,-0.23335 0.0636,-0.4643 0.0611,-0.69777 -0.002,-0.23348 -0.0505,-0.46424 -0.0757,-0.69636 -0.004,-0.18888 -0.005,-0.37786 -0.0124,-0.56662 -0.003,-0.0703 -0.0751,-0.16799 -0.0188,-0.21024 0.0955,-0.0718 0.23641,-0.045 0.35587,-0.0429 0.0233,4.1e-4 -0.0382,0.0285 -0.0507,0.0482 -0.0939,0.14779 -0.0956,0.24334 -0.14094,0.42746 -0.056,0.12044 -0.24857,0.54243 -0.31276,0.64683 -0.0738,0.12006 -0.17543,0.22153 -0.24871,0.34192 -0.0789,0.12959 -0.13577,0.27137 -0.20633,0.40567 -0.22166,0.42197 -0.17111,0.32576 -0.41653,0.70656 -0.0502,0.10122 -0.0937,0.20609 -0.15069,0.30365 -0.22704,0.38842 -0.095,0.0408 -0.21532,0.39725 -0.0221,0.0653 -0.0376,0.13309 -0.0646,0.19652 -0.0143,0.0335 -0.0226,0.0981 -0.0586,0.0923 -0.15093,-0.0243 -0.28388,-0.11353 -0.42583,-0.1703 -0.002,-0.01 -5.9e-4,-0.0213 -0.006,-0.03 -0.008,-0.0133 -0.033,-0.018 -0.0322,-0.0334 0.001,-0.0286 0.0289,-0.0499 0.0372,-0.0773 0.0146,-0.0481 0.0259,-0.0976 0.0309,-0.14767 0.0129,-0.12589 0.009,-0.49118 0.009,-0.58818 0.0316,-0.8138 0.009,-3.4e-4 0.005,-0.85902 -5.9e-4,-0.21055 0.0138,-0.79598 0.0203,-1.00133 0.005,-0.15707 0.006,-0.31441 0.0178,-0.4711 0.008,-0.10995 0.0288,-0.21866 0.0432,-0.32798 0.2029,0.12446 -0.076,-0.0132 0.29969,-0.0873 0.0378,-0.007 -0.0366,0.068 -0.0503,0.10404 -0.11731,0.30854 -0.19702,0.63043 -0.41454,0.8913 -0.0849,0.0933 -0.18047,0.178 -0.25475,0.28001 -0.078,0.10708 -0.13327,0.22898 -0.19943,0.34374 -0.11708,0.20309 -0.33133,0.56433 -0.42019,0.77997 -0.0183,0.0444 -0.15245,0.52213 -0.17394,0.59797 -0.3968,-0.2764 -0.0361,-0.12573 -0.39521,-0.004 -0.0315,0.0106 0.0226,-0.0625 0.0346,-0.0935 0.0229,-0.0596 0.0544,-0.11648 0.0701,-0.17842 0.0478,-0.18848 0.0483,-0.38691 0.10247,-0.5743 0.0291,-0.10256 0.0517,-0.20722 0.0875,-0.30767 0.10724,-0.30139 0.21394,-0.42563 0.28408,-0.75462 0.0345,-0.1617 0.0181,-0.33135 0.0511,-0.49336 0.0652,-0.32 0.22548,-0.6159 0.26615,-0.94287 -0.086,-0.66422 -0.15564,-0.22331 0.33183,-0.36699 0.0411,-0.0121 0.049,-0.15151 0.0133,-0.12787 -0.0548,0.0363 -0.0641,0.11534 -0.0873,0.17686 -0.17905,0.47482 0.0722,0.0409 -0.2935,0.57043 -0.12147,0.10757 -0.25884,0.19951 -0.3644,0.32273 -0.13165,0.15368 -0.23588,0.32929 -0.34184,0.50169 -0.39882,0.64879 -0.67312,1.35623 -0.96336,2.05688 -0.14268,0.24969 -0.49581,0.0479 -0.35312,-0.20179 z"
           inkscape:connector-curvature="0" />
        <path
           style="fill:#ff7f2a;stroke:#ff7f2a;stroke-width:0.17840418;stroke-linecap:round;stroke-linejoin:round;stroke-miterlimit:4;stroke-dasharray:none;stroke-opacity:1"
           id="path9223"
           d="m 843.60952,-225.44496 c 0.14221,0.22489 0.30296,0.43705 0.48842,0.62823 0.0519,0.0535 0.10797,0.10282 0.16088,0.15532 0.0451,0.0448 0.0888,0.091 0.13323,0.13654 0.24967,0.27155 -0.001,0.0186 0.19675,0.17881 0.012,0.01 0.0413,0.0263 0.0291,0.0357 -0.17964,0.13806 -0.18249,-0.02 -0.20154,-0.14264 0.0149,-0.22006 0.0396,-0.44362 0.002,-0.66334 -0.0143,-0.0846 -0.0435,-0.16607 -0.0662,-0.24882 -0.10197,-0.37072 -0.0389,-0.10972 -0.11712,-0.45604 -0.0152,-0.0641 -0.0329,-0.12761 -0.0455,-0.19226 -0.009,-0.0481 -0.0181,-0.0967 -0.0199,-0.14563 -0.002,-0.0396 0.008,-0.0789 0.01,-0.11841 0.002,-0.0283 0.002,-0.0567 0.002,-0.085 10e-4,-0.0521 0.004,-0.0338 -0.005,-0.0668 0.01,0.0248 0.004,0.0702 0.03,0.0743 0.0447,0.007 0.0857,-0.0702 0.12614,-0.05 0.0447,0.0222 0.0282,0.0969 0.0538,0.13973 0.0415,0.0693 0.0984,0.12804 0.14582,0.19341 0.45619,0.62946 -0.12067,-0.14435 0.3719,0.5114 0.49208,0.41236 0.007,0.0136 0.47641,0.37915 0.0578,0.045 0.11219,0.0944 0.1702,0.13919 0.0271,0.0209 0.0542,0.0427 0.0849,0.0577 0.0106,0.005 0.042,-0.009 0.0354,0.001 -0.0272,0.0403 -0.0698,0.0678 -0.1047,0.1017 -0.0186,-0.0163 -0.0416,-0.0286 -0.0556,-0.0488 -0.071,-0.10205 -0.0394,-0.25157 -0.0703,-0.36289 -0.0197,-0.071 -0.0586,-0.13518 -0.0853,-0.20384 -0.0285,-0.0733 -0.0533,-0.14795 -0.08,-0.22193 -0.11944,-0.25536 -0.0647,-0.12398 -0.15778,-0.37664 -0.0205,-0.0557 -0.044,-0.11033 -0.0617,-0.16695 -0.0158,-0.0503 -0.026,-0.10218 -0.0385,-0.1534 -0.0384,-0.15747 -0.0273,-0.0974 -0.0442,-0.23764 -2.7e-4,-0.0322 -0.0109,-0.087 0.0303,-0.10748 0.0891,-0.0443 0.15204,0.0322 0.2107,0.0873 0.0691,0.0649 0.13269,0.13547 0.1958,0.2062 0.0873,0.0978 0.17015,0.19952 0.25523,0.29928 0.25612,0.28712 0.53874,0.54814 0.81614,0.81402 0.14411,0.13813 0.17084,0.19098 0.33981,0.27764 0.0316,0.0162 0.0679,0.021 0.1019,0.0315 0.0113,-0.002 0.0431,-0.0141 0.0338,-0.007 -0.0275,0.0202 -0.0562,0.0444 -0.09,0.0486 -0.0134,0.002 -0.0149,-0.0226 -0.0205,-0.0349 -0.098,-0.215 0.0134,0.0333 -0.0401,-0.15731 -0.006,-0.0212 -0.0204,-0.039 -0.0306,-0.0585 -0.0124,-0.022 -0.0478,-0.0764 -0.0508,-0.10793 -0.002,-0.0234 0.008,-0.0472 0.004,-0.0704 -0.005,-0.0338 -0.0223,-0.0648 -0.0306,-0.0979 -0.12887,-0.51489 0.077,0.24313 -0.0718,-0.29566 -0.11749,-0.46474 0.0346,0.16083 -0.057,-0.29532 -0.009,-0.0464 -0.0222,-0.0923 -0.0375,-0.13713 -0.0133,-0.0391 -0.038,-0.0742 -0.0482,-0.11423 -0.01,-0.0377 -0.006,-0.0775 -0.0106,-0.11605 -0.004,-0.0306 -0.01,-0.061 -0.0143,-0.0914 -0.01,-0.0261 -0.0246,-0.0508 -0.0288,-0.0782 -0.004,-0.0253 0.004,-0.051 0.005,-0.0766 0.003,-0.0478 0.002,-0.0381 0.002,-0.0791 0.0372,-0.11111 0.19438,-0.0584 0.15713,0.0527 l 0,0 c -0.004,-0.002 -0.0104,-0.01 -0.0117,-0.005 -0.003,0.009 0.005,0.0193 0.004,0.0291 -0.009,0.11782 -0.0221,-0.002 0.003,0.13199 0.003,0.0329 0.007,0.0657 0.008,0.0986 0.002,0.0345 -0.005,0.0699 0.002,0.10353 0.01,0.0414 0.035,0.0776 0.0491,0.11765 0.0155,0.0439 0.0302,0.0883 0.0397,0.13393 0.0205,0.0986 0.0167,0.20124 0.0459,0.29845 0.008,0.0515 0.008,0.10474 0.0237,0.15454 0.014,0.0454 0.0463,0.0832 0.0632,0.12754 0.014,0.0364 0.0133,0.0776 0.0291,0.11326 0.009,0.0204 0.0338,0.0307 0.0434,0.0508 0.0107,0.0222 -10e-4,0.0873 -0.004,0.1058 0.0362,0.0616 0.0442,0.0661 0.0638,0.13331 0.007,0.0242 0.008,0.0501 0.0165,0.0738 0.0323,0.0911 0.10107,0.11386 -0.0483,0.2008 -0.0201,0.0117 -0.0408,-0.0223 -0.0613,-0.0335 -0.0321,-0.0277 -0.0639,-0.0557 -0.0961,-0.0832 -0.0491,-0.0418 -0.10135,-0.08 -0.14814,-0.12436 -0.28408,-0.26928 -0.078,-0.1039 -0.37952,-0.4433 -0.18185,-0.20467 -0.39674,-0.37839 -0.57197,-0.58946 -0.0998,-0.0842 -0.19653,-0.17202 -0.29929,-0.25252 -0.0718,-0.0563 -0.15045,-0.1031 -0.22377,-0.15729 -0.0199,-0.0147 -0.0487,-0.0253 -0.0555,-0.0491 -0.004,-0.0128 0.0289,-0.004 0.0372,-0.0146 0.007,-0.009 0.01,-0.0269 5.4e-4,-0.033 -0.008,-0.005 -0.0122,0.0141 -0.0183,0.0212 0.003,0.0283 0.009,0.0564 0.009,0.0849 4.3e-4,0.0436 -0.0119,0.0874 -0.007,0.13073 0.006,0.0497 0.0237,0.0973 0.0387,0.14496 0.058,0.18343 0.13959,0.35895 0.19874,0.54203 0.061,0.14351 0.1185,0.28854 0.18097,0.43145 0.11828,0.2706 0.0492,0.0681 0.10353,0.26851 0.0107,0.0395 0.0159,0.0186 0.002,0.0474 -0.0201,0.0387 -0.0376,0.0789 -0.0604,0.11619 -0.002,0.004 0.002,-0.0114 -10e-4,-0.0152 -0.0226,-0.0259 -0.048,-0.0493 -0.0743,-0.0715 -0.0565,-0.0478 -0.11802,-0.0894 -0.17365,-0.13811 -0.20214,-0.17711 -0.24416,-0.2349 -0.4296,-0.43772 -0.50976,-0.56703 0.0569,0.0678 -0.42005,-0.47994 -0.0546,-0.0627 -0.11128,-0.12356 -0.16649,-0.18572 -0.0293,-0.0329 -0.0862,-0.0555 -0.0869,-0.0996 -10e-4,-0.0596 0.0298,-0.13093 0.0826,-0.15854 0.0305,-0.0159 0.0231,0.0649 0.0346,0.0973 -0.0576,-0.002 -0.0112,-0.01 -0.0169,0.0394 -0.003,0.0236 -0.0192,0.0436 -0.0246,0.0666 -0.0333,0.14203 -0.0145,0.2885 0.0137,0.42928 0.057,0.19002 0.0804,0.25928 0.1283,0.45874 0.0205,0.0854 0.042,0.1707 0.0562,0.25733 0.10291,0.62436 -0.0218,-0.0688 0.0191,0.49358 0.004,0.0532 0.0258,0.10356 0.0386,0.15533 -6e-4,0.0281 -0.009,0.0569 -0.003,0.0842 0.004,0.0145 0.038,0.019 0.0309,0.032 -0.0249,0.0466 -0.0751,0.0745 -0.1094,0.11463 -0.004,0.004 0.0171,6e-4 0.0151,-0.004 -0.013,-0.03 -0.0323,-0.0572 -0.0528,-0.0827 -0.0347,-0.0431 -0.0748,-0.0815 -0.11224,-0.12227 -0.0392,-0.0516 -0.0754,-0.10569 -0.11771,-0.15487 -0.0592,-0.0689 -0.25575,-0.26296 -0.31771,-0.32431 -0.052,-0.0516 -0.11001,-0.0977 -0.15673,-0.1541 -0.0406,-0.0491 -0.0644,-0.11034 -0.10365,-0.16047 -0.0345,-0.044 -0.0777,-0.0805 -0.11655,-0.12069 -0.0539,-0.0718 0.0477,-0.14796 0.10154,-0.0762 z"
           inkscape:connector-curvature="0" />
      </g>
    </g>
  </g>
</svg>
