<?xml version="1.0" encoding="UTF-8" standalone="no"?>
<!-- Created with Inkscape (http://www.inkscape.org/) -->

<svg
   xmlns:dc="http://purl.org/dc/elements/1.1/"
   xmlns:cc="http://creativecommons.org/ns#"
   xmlns:rdf="http://www.w3.org/1999/02/22-rdf-syntax-ns#"
   xmlns:svg="http://www.w3.org/2000/svg"
   xmlns="http://www.w3.org/2000/svg"
   xmlns:sodipodi="http://sodipodi.sourceforge.net/DTD/sodipodi-0.dtd"
   xmlns:inkscape="http://www.inkscape.org/namespaces/inkscape"
   width="1052.3622"
   height="400"
   viewBox="0 0 1052.3622 400"
   id="svg4239"
   version="1.1"
   inkscape:version="0.91 r13725"
   sodipodi:docname="logo.svg"
   inkscape:export-filename="/home/kinow/Pictures/logos/biojava/v4/logo.png"
   inkscape:export-xdpi="90"
   inkscape:export-ydpi="90">
  <defs
     id="defs4241" />
  <sodipodi:namedview
     id="base"
     pagecolor="#ffffff"
     bordercolor="#666666"
     borderopacity="1.0"
     inkscape:pageopacity="0.0"
     inkscape:pageshadow="2"
     inkscape:zoom="0.98994949"
     inkscape:cx="248.5641"
     inkscape:cy="359.3407"
     inkscape:document-units="px"
     inkscape:current-layer="layer1"
     showgrid="false"
     units="px"
     inkscape:window-width="1600"
     inkscape:window-height="851"
     inkscape:window-x="0"
     inkscape:window-y="25"
     inkscape:window-maximized="1" />
  <metadata
     id="metadata4244">
    <rdf:RDF>
      <cc:Work
         rdf:about="">
        <dc:format>image/svg+xml</dc:format>
        <dc:type
           rdf:resource="http://purl.org/dc/dcmitype/StillImage" />
        <dc:title></dc:title>
      </cc:Work>
    </rdf:RDF>
  </metadata>
  <g
     inkscape:label="Layer 1"
     inkscape:groupmode="layer"
     id="layer1"
     transform="translate(0,-652.3622)">
    <path
       inkscape:connector-curvature="0"
       id="path4822"
       style="font-style:normal;font-variant:normal;font-weight:normal;font-stretch:normal;font-size:90px;line-height:125%;font-family:Ranchers;-inkscape-font-specification:Ranchers;letter-spacing:0px;word-spacing:0px;display:inline;fill:#241c1c;fill-opacity:1;stroke:none;stroke-width:1px;stroke-linecap:butt;stroke-linejoin:miter;stroke-opacity:1"
       d="m 243.37191,827.03876 8.22797,-11.27584 34.52064,11.27584 11.80449,144.32702 -11.70328,7.88826 -42.84982,0 z m 26.80873,-70.86798 c 4.66393,0 8.84203,0.8718 12.5343,2.61539 3.88661,1.56923 7.09306,3.66153 9.61935,6.27692 2.5263,2.61538 4.4696,5.57948 5.82991,8.8923 1.36031,3.13846 2.04047,6.18974 2.04047,9.15384 0,4.01025 -0.87449,7.75897 -2.62346,11.24614 -1.55464,3.31282 -3.78944,6.27692 -6.70439,8.8923 -2.72063,2.44103 -5.92708,4.44615 -9.61935,6.01538 -3.49795,1.39487 -7.28739,2.09231 -11.36832,2.09231 -5.05259,0 -9.52219,-0.69744 -13.40879,-2.09231 -3.88661,-1.56923 -7.19022,-3.48717 -9.91085,-5.75384 -2.52629,-2.44102 -4.46959,-5.23076 -5.82991,-8.36922 -1.16598,-3.13846 -1.74897,-6.3641 -1.74897,-9.67692 0,-3.31282 0.68016,-6.71281 2.04047,-10.19999 1.55464,-3.48718 3.59511,-6.62564 6.1214,-9.41538 2.72063,-2.9641 6.02424,-5.31794 9.91085,-7.06153 3.8866,-1.74359 8.25903,-2.61539 13.11729,-2.61539 z"
       sodipodi:nodetypes="cccccccscscscscscccsccss" />
    <path
       inkscape:connector-curvature="0"
       id="path4824"
       style="font-style:normal;font-variant:normal;font-weight:normal;font-stretch:normal;font-size:90px;line-height:125%;font-family:Ranchers;-inkscape-font-specification:Ranchers;letter-spacing:0px;word-spacing:0px;display:inline;fill:#241c1c;fill-opacity:1;stroke:none;stroke-width:1px;stroke-linecap:butt;stroke-linejoin:miter;stroke-opacity:1"
       d="m 360.98376,812.02513 c 23.7083,0 44.6229,13.90945 54.72808,27.85816 10.2995,13.9487 15.44925,33.99997 15.44925,60.1538 0,26.32818 -5.14975,46.46663 -15.44925,60.41534 -10.10518,13.77435 -27.01191,20.66152 -50.72021,20.66152 -23.90262,0 -41.00369,-6.88717 -51.30319,-20.66152 -10.10518,-13.94871 -15.15776,-34.08716 -15.15776,-60.41534 0,-26.15383 5.62515,-50.57162 15.73032,-64.52033 10.29951,-13.94871 22.82014,-23.49163 46.72276,-23.49163 z m 4.00787,107.62733 c 3.88661,0 7.28739,-0.69744 10.20234,-2.09231 3.10929,-1.39487 5.63558,-3.22564 7.57888,-5.4923 1.94331,-2.26667 3.40078,-4.79487 4.37243,-7.58461 0.97166,-2.9641 1.45748,-6.01538 1.45748,-9.15384 0,-3.13846 -0.48582,-6.18974 -1.45748,-9.15384 -0.97165,-2.9641 -2.42912,-5.57948 -4.37243,-7.84615 -1.9433,-2.26666 -4.46959,-4.09743 -7.57888,-5.4923 -2.91495,-1.39487 -6.31573,-2.09231 -10.20234,-2.09231 -7.96754,0 -13.99178,2.52821 -18.07271,7.58461 -3.88661,5.05641 -5.82991,10.72307 -5.82991,16.99999 0,3.13846 0.48582,6.18974 1.45748,9.15384 0.97165,2.78974 2.42912,5.31794 4.37243,7.58461 2.13763,2.26666 4.66392,4.09743 7.57888,5.4923 2.91495,1.39487 6.4129,2.09231 10.49383,2.09231 z"
       sodipodi:nodetypes="scscscscsscscssscscsccss" />
    <path
       inkscape:connector-curvature="0"
       id="path4826"
       style="font-style:normal;font-variant:normal;font-weight:normal;font-stretch:normal;font-size:90px;line-height:125%;font-family:Ranchers;-inkscape-font-specification:Ranchers;letter-spacing:0px;word-spacing:0px;display:inline;fill:#241c1c;fill-opacity:1;stroke:none;stroke-width:1px;stroke-linecap:butt;stroke-linejoin:miter;stroke-opacity:1"
       d="m 534.79912,868.3535 c 0,12.37948 -0.0972,22.66665 -0.2915,30.86152 0,8.19486 -0.0972,14.90768 -0.2915,20.13844 -0.19433,5.23077 -0.48582,9.3282 -0.87448,12.2923 -0.38866,2.9641 4.9482,5.06577 4.55954,7.33243 -2.5263,13.07691 -7.69694,20.02968 -17.80211,28.05018 -9.91085,8.02051 -30.87041,16.14043 -49.13745,16.14043 -4.66393,0 -10.39667,-0.34872 -17.19823,-1.04615 -6.60723,-0.52308 -13.1173,-1.56923 -19.53019,-3.13846 -0.38867,-5.9282 -0.68016,-11.94358 -0.87449,-18.04614 -0.19433,-6.27692 -0.2915,-12.46666 -0.2915,-18.56922 0,-6.27692 0.0972,-12.55384 0.2915,-18.83076 0.19433,-6.27691 0.48582,-12.55383 0.87449,-18.83075 5.43415,-4.733 3.49538,-6.87328 9.47939,-13.02353 4.57425,3.66011 13.60027,18.51583 15.88071,18.51583 6.02424,0 10.88249,-0.87179 14.57477,-2.61538 3.8866,-1.91795 6.89872,-4.79487 9.03636,-8.63076 2.33196,-3.8359 3.8866,-8.80512 4.66392,-14.90768 0.77732,-6.10256 1.16598,-13.33846 1.16598,-21.70768 l 0,-51.2615 -40.51786,0 0,-44.72305 9.28232,-12.30499 77.00033,12.30499 z"
       sodipodi:nodetypes="scssccscccssccsccsscccccs" />
    <path
       inkscape:connector-curvature="0"
       id="path4828"
       style="font-style:normal;font-variant:normal;font-weight:normal;font-stretch:normal;font-size:90px;line-height:125%;font-family:Ranchers;-inkscape-font-specification:Ranchers;letter-spacing:0px;word-spacing:0px;display:inline;fill:#241c1c;fill-opacity:1;stroke:none;stroke-width:1px;stroke-linecap:butt;stroke-linejoin:miter;stroke-opacity:1"
       d="m 694.48353,981.32972 -39.93487,0 0,-12.81537 c -6.99589,5.0564 -14.38044,8.97948 -22.15366,11.76922 -7.77321,2.61538 -15.35209,3.92307 -22.73662,3.92307 -8.74486,0 -16.80957,-1.91794 -24.19412,-5.75384 -7.38455,-3.83589 -13.79745,-9.15384 -19.2387,-15.95383 -5.24692,-6.97436 -9.42502,-15.2564 -12.5343,-24.84614 -3.10929,-9.58974 -4.66393,-20.05127 -4.66393,-31.38459 0,-11.8564 1.65181,-22.92819 4.95542,-33.21536 3.30362,-10.28717 9.99992,-26.08118 15.63549,-33.57861 5.82991,-7.67179 12.22662,-10.33076 19.99983,-14.51537 7.96754,-4.35898 14.69623,-2.90599 23.82975,-2.90599 7.96752,0 15.5464,1.56923 22.73663,4.70769 7.19022,2.9641 13.31162,6.71282 18.36421,11.24615 l 0.14315,-13.20533 5.75341,-13.21312 35.49582,13.34154 7.68754,146.02675 z m -89.78057,-94.41531 c 0,7.14871 2.13763,12.90255 6.4129,17.26152 4.46958,4.35897 10.10515,6.53846 16.90671,6.53846 7.38455,0 13.60312,-2.35385 18.65571,-7.06153 5.24692,-4.70769 7.87038,-10.72307 7.87038,-18.04615 0,-3.31281 -0.68016,-6.45127 -2.04047,-9.41537 -1.16598,-2.9641 -2.91496,-5.49231 -5.24692,-7.58461 -2.33196,-2.26667 -5.05259,-4.01026 -8.16187,-5.23077 -3.10929,-1.22051 -6.4129,-1.83077 -9.91085,-1.83077 -6.99589,0 -12.82579,2.35385 -17.4897,7.06154 -4.66393,4.70769 -6.99589,10.81025 -6.99589,18.30768 z"
       sodipodi:nodetypes="ccccsscsssccscccccccscscsccssss" />
    <path
       sodipodi:nodetypes="ccccccccccc"
       inkscape:connector-curvature="0"
       id="path4830"
       style="font-style:normal;font-variant:normal;font-weight:normal;font-stretch:normal;font-size:90px;line-height:125%;font-family:Ranchers;-inkscape-font-specification:Ranchers;letter-spacing:0px;word-spacing:0px;display:inline;fill:#241c1c;fill-opacity:1;stroke:none;stroke-width:1px;stroke-linecap:butt;stroke-linejoin:miter;stroke-opacity:1"
       d="m 831.85943,819.51582 -26.17827,151.32253 -13.17362,10.70769 -55.26976,-0.12495 -40.23903,-161.80548 10.27696,-8.05096 33.15585,8.05096 c 14.10016,55.52498 14.05471,55.34658 24.48562,94.15378 8.98969,-38.66477 9.01537,-38.50393 23.20527,-94.02891 l 10.85713,-8.15276 z" />
    <path
       d="m 116.7951,833.21897 c 2.78479,0.35694 5.07232,0.5354 6.86255,0.5354 l 5.6691,0 c 10.74141,0 19.29476,-1.78471 25.66002,-5.35415 6.36529,-3.56945 9.54793,-8.29899 9.54793,-14.18857 0,-5.35418 -2.78482,-9.45903 -8.35442,-12.31459 -5.3707,-2.85556 -13.3273,-4.28336 -23.86981,-4.28336 -3.38158,0 -6.46476,0.17843 -9.24954,0.53543 -2.58592,0.17843 -4.67452,0.53537 -6.26583,1.07082 z M 69.950624,981.26181 c 0.198865,-8.20972 0.298297,-16.15173 0.298297,-23.82605 0.198865,-7.8528 0.298297,-15.52712 0.298297,-23.02295 0.198865,-7.67432 0.298297,-15.34861 0.298297,-23.02293 l 0,-23.82607 c 0,-23.37987 -0.426587,-45.98247 -0.824479,-67.39917 -0.198864,-21.4167 -0.696155,-40.51324 -1.491873,-57.28964 3.925439,-6.12674 4.099883,-5.96194 8.675195,-12.82415 8.040804,-0.2444 19.461757,10.16111 25.637642,9.87934 11.73599,-0.71388 22.2785,-1.07082 31.62751,-1.07082 55.29836,0 83.17527,14.57134 83.17527,43.30539 0,11.24376 -10.63233,16.84498 -17.99217,24.87624 -7.16094,7.8528 -39.20195,8.63527 -51.13684,10.41998 19.29476,3.2125 62.86319,17.97779 71.81436,28.15073 8.95118,9.99445 11.80735,37.2599 11.80735,55.64258 0,25.87849 -7.33176,31.98735 -25.23411,44.48043 -17.90236,12.31459 -45.75047,18.47189 -83.54431,18.47189 -7.35984,0 -15.61482,-0.26764 -24.76493,-0.80312 -8.951144,-0.35694 -18.499077,-1.07086 -28.643733,-2.14168 z M 116.7951,909.2482 c 1.98914,0.53543 4.97288,0.98162 8.95118,1.33856 3.9783,0.35694 7.85713,0.5354 11.63653,0.5354 12.53165,0 21.98012,-1.78471 28.34537,-5.35416 6.56419,-3.56944 9.8463,-8.65593 9.8463,-15.25939 0,-6.78195 -3.48101,-11.95768 -10.44302,-15.52712 -6.76312,-3.56945 -16.21158,-5.35415 -28.34541,-5.35415 -2.58588,0 -5.47017,0.0892 -8.65281,0.26764 -2.98372,0.17842 -6.76312,0.44612 -11.33814,0.80312 l 0,38.55005 z"
       style="font-style:normal;font-variant:normal;font-weight:normal;font-stretch:normal;font-size:90px;line-height:125%;font-family:Ranchers;-inkscape-font-specification:Ranchers;letter-spacing:0px;word-spacing:0px;display:inline;fill:#241c1c;fill-opacity:1;stroke:none;stroke-width:1px;stroke-linecap:butt;stroke-linejoin:miter;stroke-opacity:1"
       id="path4832"
       inkscape:connector-curvature="0"
       sodipodi:nodetypes="csssscsccccccssccccsscccscsccccsscscscccc" />
    <path
       sodipodi:nodetypes="ccccsscsssccscccccccscscsccssss"
       d="m 973.20313,981.32972 -39.93488,0 0,-12.81537 c -6.99589,5.0564 -14.38044,8.97948 -22.15365,11.76922 -7.77321,2.61538 -15.35209,3.92307 -22.73664,3.92307 -8.74486,0 -16.80957,-1.91794 -24.19412,-5.75384 -7.38455,-3.83589 -13.79745,-9.15384 -19.2387,-15.95383 -5.24692,-6.97436 -9.42502,-15.2564 -12.5343,-24.84614 -3.10929,-9.58974 -4.66393,-20.05127 -4.66393,-31.38459 0,-11.8564 1.65181,-22.92819 4.95542,-33.21536 3.30362,-10.28717 9.99992,-26.08118 15.63549,-33.57861 5.82991,-7.67179 12.22662,-10.33076 19.99983,-14.51537 7.96754,-4.35898 14.69623,-2.90599 23.82975,-2.90599 7.96754,0 15.54642,1.56923 22.73664,4.70769 7.19022,2.9641 13.31163,6.71282 18.36421,11.24615 l 0.14316,-13.20533 5.75341,-13.21312 35.49582,13.34154 7.68754,146.02675 z m -89.78059,-94.41531 c 0,7.14871 2.13763,12.90255 6.4129,17.26152 4.46959,4.35897 10.10517,6.53846 16.90673,6.53846 7.38455,0 13.60312,-2.35385 18.65571,-7.06153 5.24692,-4.70769 7.87037,-10.72307 7.87037,-18.04615 0,-3.31281 -0.68015,-6.45127 -2.04046,-9.41537 -1.16599,-2.9641 -2.91496,-5.49231 -5.24692,-7.58461 -2.33196,-2.26667 -5.05259,-4.01026 -8.16187,-5.23077 -3.10929,-1.22051 -6.4129,-1.83077 -9.91085,-1.83077 -6.99589,0 -12.8258,2.35385 -17.48972,7.06154 -4.66393,4.70769 -6.99589,10.81025 -6.99589,18.30768 z"
       style="font-style:normal;font-variant:normal;font-weight:normal;font-stretch:normal;font-size:90px;line-height:125%;font-family:Ranchers;-inkscape-font-specification:Ranchers;letter-spacing:0px;word-spacing:0px;display:inline;fill:#241c1c;fill-opacity:1;stroke:none;stroke-width:1px;stroke-linecap:butt;stroke-linejoin:miter;stroke-opacity:1"
       id="path5603"
       inkscape:connector-curvature="0" />
    <path
       d="m 253.22474,817.20382 42.84983,0 0,152.21527 -42.84983,0 z m 22.44515,-64.86149 c 4.66393,0 8.84203,0.87179 12.5343,2.61538 3.88661,1.56923 7.09306,3.66154 9.61935,6.27692 2.52629,2.61538 4.4696,5.57948 5.82991,8.8923 1.36031,3.13846 2.04047,6.18974 2.04047,9.15384 0,4.01025 -0.87449,7.75897 -2.62346,11.24615 -1.55464,3.31281 -3.78944,6.27692 -6.7044,8.8923 -2.72062,2.44102 -5.92707,4.44615 -9.61934,6.01538 -3.49795,1.39487 -7.28739,2.0923 -11.36833,2.0923 -5.05258,0 -9.52218,-0.69743 -13.40879,-2.0923 -3.8866,-1.56923 -7.19022,-3.48718 -9.91084,-5.75384 -2.52629,-2.44103 -4.4696,-5.23077 -5.82991,-8.36923 -1.16598,-3.13846 -1.74897,-6.3641 -1.74897,-9.67691 0,-3.31282 0.68016,-6.71282 2.04047,-10.2 1.55464,-3.48717 3.59511,-6.62563 6.1214,-9.41537 2.72063,-2.96411 6.02424,-5.31795 9.91085,-7.06154 3.8866,-1.74359 8.25903,-2.61538 13.11729,-2.61538 z"
       style="font-style:normal;font-variant:normal;font-weight:normal;font-stretch:normal;font-size:90px;line-height:125%;font-family:Ranchers;-inkscape-font-specification:Ranchers;letter-spacing:0px;word-spacing:0px;display:inline;opacity:1;fill:#ffdd55;fill-opacity:1;stroke:#241c1c;stroke-width:3.06789851px;stroke-linecap:butt;stroke-linejoin:miter;stroke-opacity:1"
       id="path4838"
       inkscape:connector-curvature="0"
       sodipodi:nodetypes="cccccscscscscscccsccss" />
    <path
       d="m 373.67612,810.14229 q 35.56244,0 50.72021,20.92306 15.44925,20.92306 15.44925,60.1538 0,39.49228 -15.44925,60.41534 -15.15777,20.66153 -50.72021,20.66153 -35.85393,0 -51.30319,-20.66153 -15.15776,-20.92306 -15.15776,-60.41534 0,-39.23074 15.15776,-60.1538 15.44926,-20.92306 51.30319,-20.92306 z m 0,100.69223 q 5.82991,0 10.20234,-2.0923 4.66393,-2.09231 7.57888,-5.49231 2.91496,-3.4 4.37244,-7.58461 1.45747,-4.44615 1.45747,-9.15384 0,-4.70769 -1.45747,-9.15384 -1.45748,-4.44615 -4.37244,-7.84615 -2.91495,-3.39999 -7.57888,-5.4923 -4.37243,-2.09231 -10.20234,-2.09231 -11.95131,0 -18.07271,7.58461 -5.82991,7.58461 -5.82991,16.99999 0,4.70769 1.45748,9.15384 1.45747,4.18461 4.37243,7.58461 3.20645,3.4 7.57888,5.49231 4.37243,2.0923 10.49383,2.0923 z"
       style="font-style:normal;font-variant:normal;font-weight:normal;font-stretch:normal;font-size:90px;line-height:125%;font-family:Ranchers;-inkscape-font-specification:Ranchers;letter-spacing:0px;word-spacing:0px;display:inline;opacity:1;fill:#ffdd55;fill-opacity:1;stroke:#241c1c;stroke-width:3.06789851px;stroke-linecap:butt;stroke-linejoin:miter;stroke-opacity:1"
       id="path4840"
       inkscape:connector-curvature="0" />
    <path
       d="m 545.8087,857.48071 q 0,18.56922 -0.29149,30.86152 0,12.2923 -0.2915,20.13845 -0.29149,7.84615 -0.87448,12.2923 -0.58299,4.44615 -1.16599,7.84614 -3.78944,19.61537 -18.9472,31.64614 -14.86626,12.03076 -42.26683,12.03076 -6.99589,0 -17.19823,-1.04616 -9.91085,-0.78461 -19.5302,-3.13846 -0.58299,-8.8923 -0.87448,-18.04614 -0.2915,-9.41538 -0.2915,-18.56921 0,-9.41538 0.2915,-18.83076 0.29149,-9.41538 0.87448,-18.83076 7.28739,2.87693 13.1173,4.18462 5.82991,1.30769 12.2428,1.30769 9.03636,0 14.57478,-2.61538 5.8299,-2.87693 9.03635,-8.63077 3.49795,-5.75384 4.66393,-14.90768 1.16598,-9.15384 1.16598,-21.70768 l 0,-51.2615 -40.51786,0 0,-44.72304 86.28264,0 0,101.99992 z"
       style="font-style:normal;font-variant:normal;font-weight:normal;font-stretch:normal;font-size:90px;line-height:125%;font-family:Ranchers;-inkscape-font-specification:Ranchers;letter-spacing:0px;word-spacing:0px;display:inline;opacity:1;fill:#ffdd55;fill-opacity:1;stroke:#241c1c;stroke-width:3.06789851px;stroke-linecap:butt;stroke-linejoin:miter;stroke-opacity:1"
       id="path4842"
       inkscape:connector-curvature="0" />
    <path
       d="m 702.02293,969.41909 -39.93487,0 0,-12.81537 q -10.49384,7.58461 -22.15366,11.76922 -11.65981,3.92308 -22.73664,3.92308 -13.11728,0 -24.1941,-5.75385 -11.07683,-5.75384 -19.2387,-15.95383 -7.87038,-10.46153 -12.5343,-24.84614 -4.66393,-14.3846 -4.66393,-31.38459 0,-17.7846 4.95542,-33.21536 4.95542,-15.43076 13.40879,-26.6769 8.74486,-11.50769 20.40468,-17.78461 11.95131,-6.53845 25.65158,-6.53845 11.95131,0 22.73664,4.70769 10.78534,4.44615 18.36422,11.24614 l 0,-13.07691 41.39235,0 -1.45748,156.39988 z m -89.78057,-94.41531 q 0,10.72307 6.41288,17.26152 6.70439,6.53846 16.90673,6.53846 11.07683,0 18.65571,-7.06153 7.87038,-7.06154 7.87038,-18.04614 0,-4.96923 -2.04047,-9.41538 -1.74897,-4.44615 -5.24692,-7.58461 -3.49794,-3.4 -8.16187,-5.23077 -4.66393,-1.83076 -9.91085,-1.83076 -10.49383,0 -17.48972,7.06153 -6.99587,7.06153 -6.99587,18.30768 z"
       style="font-style:normal;font-variant:normal;font-weight:normal;font-stretch:normal;font-size:90px;line-height:125%;font-family:Ranchers;-inkscape-font-specification:Ranchers;letter-spacing:0px;word-spacing:0px;display:inline;opacity:1;fill:#ffdd55;fill-opacity:1;stroke:#241c1c;stroke-width:3.06789851px;stroke-linecap:butt;stroke-linejoin:miter;stroke-opacity:1"
       id="path4844"
       inkscape:connector-curvature="0" />
    <path
       d="m 843.72157,813.01921 -39.35188,156.39988 -55.09263,0 -39.93488,-156.39988 43.43282,0 c 14.10015,55.52498 14.05471,55.34658 24.48562,94.15378 8.98968,-38.66478 8.83824,-38.6288 23.02814,-94.15378 z"
       style="font-style:normal;font-variant:normal;font-weight:normal;font-stretch:normal;font-size:90px;line-height:125%;font-family:Ranchers;-inkscape-font-specification:Ranchers;letter-spacing:0px;word-spacing:0px;display:inline;opacity:1;fill:#ffdd55;fill-opacity:1;stroke:#241c1c;stroke-width:3.06789851px;stroke-linecap:butt;stroke-linejoin:miter;stroke-opacity:1"
       id="path4846"
       inkscape:connector-curvature="0"
       sodipodi:nodetypes="cccccccc" />
    <path
       style="font-style:normal;font-variant:normal;font-weight:normal;font-stretch:normal;font-size:90px;line-height:125%;font-family:Ranchers;-inkscape-font-specification:Ranchers;letter-spacing:0px;word-spacing:0px;display:inline;opacity:1;fill:#ffdd55;fill-opacity:1;stroke:#241c1c;stroke-width:3.06789851px;stroke-linecap:butt;stroke-linejoin:miter;stroke-opacity:1"
       d="m 144.42093,746.91939 c -9.34903,0 -19.89329,0.35314 -31.62929,1.06702 -11.73596,0.53543 -22.767346,1.88119 -33.906584,3.30895 0.795718,16.7764 0.889191,35.51103 1.088055,56.92773 0.397827,21.41667 0.594618,43.81525 0.594618,67.19511 l 0,23.82678 c 0,7.67431 -0.09846,15.34651 -0.297325,23.02083 0,7.49583 -0.09846,15.17369 -0.297325,23.0265 0,7.67428 -0.09846,15.61136 -0.297326,23.82108 10.144656,1.07085 19.69233,1.78848 28.643477,2.14542 9.1501,0.53543 17.40587,0.80028 24.76574,0.80028 0.54659,0 1.07066,-0.0145 1.61307,-0.0174 0.29506,8.7e-4 0.63776,0.0174 0.9299,0.0174 36.92276,0 64.13278,-6.01242 81.62251,-18.04318 17.48973,-12.20511 26.23332,-30.94756 26.23332,-56.22959 0,-0.24933 -0.0227,-0.47885 -0.0259,-0.7265 0.003,-0.34569 0.0259,-0.67918 0.0259,-1.02729 0,-18.38268 -4.4786,-32.57366 -13.42977,-42.56808 -7.61811,-8.65788 -19.01784,-14.76744 -34.12799,-18.38373 8.46431,-2.35777 15.48734,-6.54218 21.02715,-12.61719 7.19022,-7.84615 10.78555,-17.26356 10.78555,-28.24817 0,-1.97214 -0.14445,-3.87053 -0.41117,-5.70412 -0.96472,-27.72245 -28.59045,-41.59185 -82.90664,-41.59185 z m -0.0444,42.85186 c 10.29951,0 18.07019,1.39327 23.31711,4.18301 2.82006,1.44584 4.89777,3.22233 6.25627,5.32384 0.18494,0.89281 0.30996,1.81101 0.30996,2.78681 0,5.88958 -3.18045,10.61991 -9.54573,14.18935 -6.36526,3.56945 -14.92259,5.35224 -25.66401,5.35224 l -5.66796,0 c -1.15685,0 -2.59658,-0.10055 -4.16874,-0.24963 l 0,-30.01901 c 1.55464,-0.52308 3.59715,-0.86996 6.12344,-1.04432 2.72062,-0.34872 5.73602,-0.52218 9.03963,-0.52218 z m 4.37117,70.35083 c 11.85415,0 21.08105,1.74585 27.68828,5.23303 3.25529,1.66899 5.71029,3.70786 7.40758,6.09576 0.96731,2.08161 1.45495,4.38512 1.45495,6.91307 0,6.60346 -3.27884,11.68692 -9.84303,15.25639 -6.36529,3.56942 -15.81453,5.35791 -28.34618,5.35791 -3.7794,0 -7.66127,-0.18221 -11.63957,-0.53921 -2.54197,-0.22812 -4.52641,-0.50503 -6.25627,-0.80594 l 0,-36.46666 c 4.4696,-0.34872 8.16164,-0.60889 11.07657,-0.78325 3.10931,-0.17436 5.93138,-0.26096 8.45767,-0.26096 z"
       id="path4902"
       inkscape:connector-curvature="0"
       sodipodi:nodetypes="ccccssccccscscscscccsccccccssssccccccccscssccccc" />
    <path
       inkscape:connector-curvature="0"
       id="path5605"
       style="font-style:normal;font-variant:normal;font-weight:normal;font-stretch:normal;font-size:90px;line-height:125%;font-family:Ranchers;-inkscape-font-specification:Ranchers;letter-spacing:0px;word-spacing:0px;display:inline;opacity:1;fill:#ffdd55;fill-opacity:1;stroke:#241c1c;stroke-width:3.06789851px;stroke-linecap:butt;stroke-linejoin:miter;stroke-opacity:1"
       d="m 980.74253,969.41909 -39.93488,0 0,-12.81537 q -10.49383,7.58461 -22.15365,11.76922 -11.65981,3.92308 -22.73664,3.92308 -13.1173,0 -24.19412,-5.75385 -11.07683,-5.75384 -19.2387,-15.95383 -7.87038,-10.46153 -12.5343,-24.84614 -4.66393,-14.3846 -4.66393,-31.38459 0,-17.7846 4.95542,-33.21536 4.95543,-15.43076 13.40879,-26.6769 8.74486,-11.50769 20.40468,-17.78461 11.95131,-6.53845 25.6516,-6.53845 11.95131,0 22.73664,4.70769 10.78533,4.44615 18.36421,11.24614 l 0,-13.07691 41.39235,0 -1.45747,156.39988 z m -89.78059,-94.41531 q 0,10.72307 6.4129,17.26152 6.70439,6.53846 16.90673,6.53846 11.07683,0 18.65571,-7.06153 7.87037,-7.06154 7.87037,-18.04614 0,-4.96923 -2.04046,-9.41538 -1.74898,-4.44615 -5.24692,-7.58461 -3.49795,-3.4 -8.16187,-5.23077 -4.66393,-1.83076 -9.91085,-1.83076 -10.49383,0 -17.48972,7.06153 -6.99589,7.06153 -6.99589,18.30768 z" />
    <g
       style="display:inline"
       id="g4908"
       transform="matrix(3.238838,0,0,2.9059808,-315.09423,-553.58953)">
      <path
         style="fill:#ff5555;fill-rule:evenodd;stroke:none;stroke-width:0.1;stroke-linecap:butt;stroke-linejoin:miter;stroke-miterlimit:4;stroke-dasharray:none;stroke-opacity:1"
         d="m 150.79382,510.83798 c -0.58121,0.90216 -2.56724,1.28436 -4.24376,1.31186 -1.37916,0.0226 -2.9837,-0.34622 -4.68087,-0.8182 -2.15369,-0.59889 -3.91664,-1.61855 -5.28978,-2.34465 -0.6015,-0.31807 -1.15696,-0.84152 -1.52475,-1.33362 -0.40833,-0.54636 -0.60372,-1.0456 -0.47367,-1.49617 0.45177,-1.56521 1.778,-2.37995 8.92463,-0.49366 4.53605,1.19726 7.96874,4.1181 7.2882,5.17444 z"
         id="path4910"
         inkscape:connector-curvature="0"
         sodipodi:nodetypes="ssssssss" />
      <g
         id="g4912">
        <path
           style="fill:none;fill-rule:evenodd;stroke:#000000;stroke-width:0.1;stroke-linecap:butt;stroke-linejoin:miter;stroke-miterlimit:4;stroke-dasharray:none;stroke-opacity:1"
           d="m 150.37102,510.68328 c -0.55097,0.85521 -2.43364,1.21753 -4.02291,1.24359 -1.30739,0.0214 -2.82842,-0.3282 -4.43727,-0.77562 -2.04159,-0.56777 -3.71281,-1.53431 -5.01449,-2.22263 -0.5702,-0.30151 -1.09675,-0.79773 -1.4454,-1.26421 -0.38708,-0.51793 -0.5723,-0.99118 -0.44902,-1.41832 0.42826,-1.48375 1.68547,-2.25608 8.46018,-0.46795 4.29998,1.13494 7.55404,3.90378 6.90891,4.90514 z"
           id="path4914"
           inkscape:connector-curvature="0"
           sodipodi:nodetypes="ssssssss" />
        <path
           sodipodi:nodetypes="ssssssssssssssssssssssssssssssssssssssssss"
           inkscape:connector-curvature="0"
           id="path4916"
           d="m 136.74195,506.71071 c -0.0375,0.3661 -0.0737,0.80251 0.13043,1.08165 0.12869,0.17602 0.38827,0.32597 0.58706,0.2334 0.23557,-0.10969 0.10649,-0.62517 0.33372,-0.75591 0.33818,-0.19463 0.89261,-0.12169 1.09443,0.20945 0.2595,0.42576 -0.48735,1.08662 -0.29507,1.55537 0.16086,0.39214 0.63718,0.71481 1.03417,0.61818 0.54184,-0.1319 0.50315,-1.44245 1.05192,-1.44341 0.31807,-6e-4 0.45307,0.50245 0.52899,0.83452 0.0878,0.38394 -0.31734,0.87853 -0.11612,1.20223 0.18007,0.28967 0.64511,0.44568 0.94167,0.27187 0.33615,-0.19701 0.0818,-0.92301 0.394,-1.16462 0.24198,-0.18731 0.65361,-0.20473 0.86766,-0.005 0.32684,0.3047 -0.10293,1.07199 0.18739,1.4177 0.27774,0.33072 0.84102,0.53721 1.21955,0.30942 0.39566,-0.23807 0.0757,-1.14396 0.47423,-1.37582 0.22977,-0.13369 0.55198,0.0206 0.72846,0.21031 0.22088,0.23746 0.0186,0.76808 0.25333,0.98931 0.25819,0.24331 0.71079,0.31548 1.03472,0.14959 0.52668,-0.26974 1.06806,-0.99374 0.96161,-1.59733 -0.0569,-0.32258 -0.46304,-0.62728 -0.75557,-0.51642 -0.13176,0.0499 -0.0309,0.36498 -0.16046,0.42241 -0.22652,0.10046 -0.5044,-0.12127 -0.63541,-0.33259 -0.20841,-0.33625 0.13006,-0.90796 -0.085,-1.23899 -0.30036,-0.46231 -0.93153,-0.87144 -1.44208,-0.67202 -0.40834,0.15951 -0.24607,1.05746 -0.64693,1.24075 -0.19277,0.0881 -0.45424,-0.0204 -0.58064,-0.18898 -0.29157,-0.38873 0.16164,-1.14701 -0.13556,-1.53057 -0.25756,-0.33238 -0.79116,-0.52557 -1.17264,-0.33855 -0.44208,0.21676 -0.24052,1.2101 -0.69235,1.39808 -0.19638,0.0817 -0.42668,-0.0876 -0.56361,-0.24796 -0.27772,-0.32528 -0.0546,-1.01422 -0.38063,-1.28174 -0.18304,-0.15016 -0.50629,-0.18489 -0.70281,-0.0325 -0.26998,0.20946 -0.0106,0.8391 -0.29525,1.02267 -0.15339,0.0989 -0.38712,0.0105 -0.50317,-0.12393 -0.27417,-0.31775 0.10717,-1.03185 -0.19802,-1.31423 -0.33772,-0.31249 -0.97734,-0.29539 -1.36368,-0.0102 -0.31232,0.23051 -0.11121,0.90472 -0.42387,1.13469 -0.0653,0.0481 -0.17795,0.0557 -0.23025,-0.003 -0.17253,-0.19221 0.23307,-0.71391 0.008,-0.82856 -0.1102,-0.0562 -0.22852,0.14117 -0.30406,0.25311 -0.087,0.12885 -0.13245,0.2915 -0.14837,0.44722 z"
           style="fill:none;fill-rule:evenodd;stroke:#000000;stroke-width:0.2;stroke-linecap:butt;stroke-linejoin:miter;stroke-miterlimit:4;stroke-dasharray:none;stroke-opacity:1" />
      </g>
    </g>
    <g
       style="display:inline"
       id="g4918"
       transform="matrix(2.5156484,-0.49428571,0.37101984,2.0840125,-384.97384,-88.197201)">
      <path
         sodipodi:nodetypes="ssssssss"
         inkscape:connector-curvature="0"
         id="path4920"
         d="m 155.0625,479.50073 c -0.30817,1.02798 -2.11025,1.94607 -3.71336,2.43752 -1.31877,0.40428 -2.96265,0.49498 -4.72414,0.51228 -2.2353,0.022 -4.21191,-0.46864 -5.73257,-0.78537 -0.66613,-0.13874 -1.34499,-0.48758 -1.83484,-0.85835 -0.54386,-0.41166 -0.87006,-0.83711 -0.87009,-1.30608 -1.2e-4,-1.6291 1.04808,-2.77974 8.4375,-2.94979 4.69015,-0.10793 8.79833,1.74614 8.4375,2.94979 z"
         style="fill:#ff5555;fill-rule:evenodd;stroke:none;stroke-width:1px;stroke-linecap:butt;stroke-linejoin:miter;stroke-opacity:1" />
      <path
         style="fill:none;fill-rule:evenodd;stroke:#000000;stroke-width:0.09479585;stroke-linecap:butt;stroke-linejoin:miter;stroke-miterlimit:4;stroke-dasharray:none;stroke-opacity:1"
         d="m 154.61338,479.46938 c -0.29214,0.97448 -2.00043,1.8448 -3.52011,2.31067 -1.25014,0.38324 -2.80847,0.46922 -4.47829,0.48562 -2.11897,0.0208 -3.99271,-0.44425 -5.43424,-0.7445 -0.63146,-0.13152 -1.27499,-0.46221 -1.73935,-0.81368 -0.51555,-0.39024 -0.82478,-0.79354 -0.82481,-1.23811 -1.1e-4,-1.54432 0.99354,-2.63507 7.9984,-2.79627 4.44606,-0.10232 8.34046,1.65526 7.9984,2.79627 z"
         id="path4922"
         inkscape:connector-curvature="0"
         sodipodi:nodetypes="ssssssss" />
      <path
         sodipodi:nodetypes="ssssssssssssssssssssssssssssssssssssssssss"
         inkscape:connector-curvature="0"
         id="path4924"
         d="m 140.4172,479.43312 c 0.0655,0.36214 0.15184,0.79145 0.42534,1.00303 0.17246,0.13341 0.46345,0.20548 0.62876,0.0614 0.1959,-0.17073 -0.0711,-0.63018 0.11095,-0.81882 0.27092,-0.28079 0.82383,-0.3645 1.10958,-0.10234 0.36742,0.33708 -0.16682,1.17917 0.14794,1.57619 0.26332,0.33213 0.81045,0.51002 1.16506,0.30706 0.48399,-0.27702 0.0833,-1.52541 0.61027,-1.67855 0.30542,-0.0888 0.57466,0.35706 0.73971,0.65504 0.19085,0.34452 -0.0612,0.93208 0.22191,1.18727 0.25335,0.22835 0.74342,0.24925 0.98013,0 0.26832,-0.28252 -0.17739,-0.90949 0.0555,-1.22821 0.18053,-0.24708 0.57118,-0.37799 0.83218,-0.24564 0.39853,0.20209 0.19846,1.05848 0.57328,1.31009 0.35857,0.24071 0.95703,0.28285 1.25752,-0.041 0.3141,-0.33847 -0.24458,-1.12006 0.074,-1.45337 0.18367,-0.19218 0.53602,-0.13334 0.75821,0 0.27808,0.16687 0.2309,0.73278 0.5178,0.88022 0.31555,0.16214 0.77041,0.10594 1.03561,-0.14329 0.43119,-0.40525 0.75051,-1.25101 0.48081,-1.80138 -0.14414,-0.29414 -0.61886,-0.47423 -0.86916,-0.28658 -0.11275,0.0845 0.0715,0.35924 -0.037,0.45034 -0.18977,0.15935 -0.51824,0.0234 -0.70273,-0.14329 -0.2935,-0.26524 -0.12689,-0.90841 -0.42534,-1.16679 -0.41681,-0.36086 -1.1367,-0.57886 -1.5719,-0.24565 -0.34807,0.26652 0.0569,1.08422 -0.27739,1.37151 -0.16076,0.13814 -0.44208,0.10637 -0.61027,-0.0205 -0.38796,-0.2926 -0.16286,-1.14684 -0.55479,-1.43291 -0.33965,-0.2479 -0.9059,-0.2855 -1.22053,0 -0.36461,0.33088 0.10457,1.22933 -0.27739,1.53526 -0.16601,0.13296 -0.43423,0.0342 -0.61027,-0.0819 -0.35705,-0.23548 -0.33381,-0.95927 -0.72122,-1.12586 -0.21751,-0.0935 -0.53771,-0.0372 -0.68424,0.16376 -0.20129,0.27613 0.22258,0.80911 0,1.06444 -0.11993,0.13758 -0.369,0.1175 -0.5178,0.0205 -0.35155,-0.22923 -0.18325,-1.02109 -0.55479,-1.20774 -0.41115,-0.20655 -1.02092,-0.0127 -1.313,0.36846 -0.23612,0.3081 0.14411,0.90007 -0.0925,1.20774 -0.0494,0.0643 -0.15551,0.10289 -0.22192,0.0614 -0.21908,-0.13681 0.0259,-0.75055 -0.22191,-0.79834 -0.12146,-0.0234 -0.1804,0.19902 -0.22192,0.32752 -0.0478,0.14791 -0.0464,0.3168 -0.0185,0.47083 z"
         style="fill:none;fill-rule:evenodd;stroke:#000000;stroke-width:0.18799999;stroke-linecap:butt;stroke-linejoin:miter;stroke-miterlimit:4;stroke-dasharray:none;stroke-opacity:1" />
    </g>
    <g
       style="display:inline"
       transform="matrix(2.1057807,0,0,1.8893684,176.49013,-26.766118)"
       id="g4926">
      <path
         sodipodi:nodetypes="ssssssss"
         inkscape:connector-curvature="0"
         id="path4928"
         d="m 150.79382,510.83798 c -0.58121,0.90216 -2.56724,1.28436 -4.24376,1.31186 -1.37916,0.0226 -2.9837,-0.34622 -4.68087,-0.8182 -2.15369,-0.59889 -3.91664,-1.61855 -5.28978,-2.34465 -0.6015,-0.31807 -1.15696,-0.84152 -1.52475,-1.33362 -0.40833,-0.54636 -0.60372,-1.0456 -0.47367,-1.49617 0.45177,-1.56521 1.778,-2.37995 8.92463,-0.49366 4.53605,1.19726 7.96874,4.1181 7.2882,5.17444 z"
         style="fill:#ff5555;fill-rule:evenodd;stroke:none;stroke-width:0.1;stroke-linecap:butt;stroke-linejoin:miter;stroke-miterlimit:4;stroke-dasharray:none;stroke-opacity:1" />
      <g
         id="g4930">
        <path
           sodipodi:nodetypes="ssssssss"
           inkscape:connector-curvature="0"
           id="path4932"
           d="m 150.37102,510.68328 c -0.55097,0.85521 -2.43364,1.21753 -4.02291,1.24359 -1.30739,0.0214 -2.82842,-0.3282 -4.43727,-0.77562 -2.04159,-0.56777 -3.71281,-1.53431 -5.01449,-2.22263 -0.5702,-0.30151 -1.09675,-0.79773 -1.4454,-1.26421 -0.38708,-0.51793 -0.5723,-0.99118 -0.44902,-1.41832 0.42826,-1.48375 1.68547,-2.25608 8.46018,-0.46795 4.29998,1.13494 7.55404,3.90378 6.90891,4.90514 z"
           style="fill:none;fill-rule:evenodd;stroke:#000000;stroke-width:0.1;stroke-linecap:butt;stroke-linejoin:miter;stroke-miterlimit:4;stroke-dasharray:none;stroke-opacity:1" />
        <path
           style="fill:none;fill-rule:evenodd;stroke:#000000;stroke-width:0.2;stroke-linecap:butt;stroke-linejoin:miter;stroke-miterlimit:4;stroke-dasharray:none;stroke-opacity:1"
           d="m 136.74195,506.71071 c -0.0375,0.3661 -0.0737,0.80251 0.13043,1.08165 0.12869,0.17602 0.38827,0.32597 0.58706,0.2334 0.23557,-0.10969 0.10649,-0.62517 0.33372,-0.75591 0.33818,-0.19463 0.89261,-0.12169 1.09443,0.20945 0.2595,0.42576 -0.48735,1.08662 -0.29507,1.55537 0.16086,0.39214 0.63718,0.71481 1.03417,0.61818 0.54184,-0.1319 0.50315,-1.44245 1.05192,-1.44341 0.31807,-6e-4 0.45307,0.50245 0.52899,0.83452 0.0878,0.38394 -0.31734,0.87853 -0.11612,1.20223 0.18007,0.28967 0.64511,0.44568 0.94167,0.27187 0.33615,-0.19701 0.0818,-0.92301 0.394,-1.16462 0.24198,-0.18731 0.65361,-0.20473 0.86766,-0.005 0.32684,0.3047 -0.10293,1.07199 0.18739,1.4177 0.27774,0.33072 0.84102,0.53721 1.21955,0.30942 0.39566,-0.23807 0.0757,-1.14396 0.47423,-1.37582 0.22977,-0.13369 0.55198,0.0206 0.72846,0.21031 0.22088,0.23746 0.0186,0.76808 0.25333,0.98931 0.25819,0.24331 0.71079,0.31548 1.03472,0.14959 0.52668,-0.26974 1.06806,-0.99374 0.96161,-1.59733 -0.0569,-0.32258 -0.46304,-0.62728 -0.75557,-0.51642 -0.13176,0.0499 -0.0309,0.36498 -0.16046,0.42241 -0.22652,0.10046 -0.5044,-0.12127 -0.63541,-0.33259 -0.20841,-0.33625 0.13006,-0.90796 -0.085,-1.23899 -0.30036,-0.46231 -0.93153,-0.87144 -1.44208,-0.67202 -0.40834,0.15951 -0.24607,1.05746 -0.64693,1.24075 -0.19277,0.0881 -0.45424,-0.0204 -0.58064,-0.18898 -0.29157,-0.38873 0.16164,-1.14701 -0.13556,-1.53057 -0.25756,-0.33238 -0.79116,-0.52557 -1.17264,-0.33855 -0.44208,0.21676 -0.24052,1.2101 -0.69235,1.39808 -0.19638,0.0817 -0.42668,-0.0876 -0.56361,-0.24796 -0.27772,-0.32528 -0.0546,-1.01422 -0.38063,-1.28174 -0.18304,-0.15016 -0.50629,-0.18489 -0.70281,-0.0325 -0.26998,0.20946 -0.0106,0.8391 -0.29525,1.02267 -0.15339,0.0989 -0.38712,0.0105 -0.50317,-0.12393 -0.27417,-0.31775 0.10717,-1.03185 -0.19802,-1.31423 -0.33772,-0.31249 -0.97734,-0.29539 -1.36368,-0.0102 -0.31232,0.23051 -0.11121,0.90472 -0.42387,1.13469 -0.0653,0.0481 -0.17795,0.0557 -0.23025,-0.003 -0.17253,-0.19221 0.23307,-0.71391 0.008,-0.82856 -0.1102,-0.0562 -0.22852,0.14117 -0.30406,0.25311 -0.087,0.12885 -0.13245,0.2915 -0.14837,0.44722 z"
           id="path4934"
           inkscape:connector-curvature="0"
           sodipodi:nodetypes="ssssssssssssssssssssssssssssssssssssssssss" />
      </g>
    </g>
    <g
       style="display:inline"
       transform="matrix(1.8427187,0.91442597,-1.0191663,1.6533415,739.00677,-193.44523)"
       id="g4936">
      <path
         sodipodi:nodetypes="ssssssss"
         inkscape:connector-curvature="0"
         id="path4938"
         d="m 150.79382,510.83798 c -0.58121,0.90216 -2.56724,1.28436 -4.24376,1.31186 -1.37916,0.0226 -2.9837,-0.34622 -4.68087,-0.8182 -2.15369,-0.59889 -3.91664,-1.61855 -5.28978,-2.34465 -0.6015,-0.31807 -1.15696,-0.84152 -1.52475,-1.33362 -0.40833,-0.54636 -0.60372,-1.0456 -0.47367,-1.49617 0.45177,-1.56521 1.778,-2.37995 8.92463,-0.49366 4.53605,1.19726 7.96874,4.1181 7.2882,5.17444 z"
         style="fill:#ff5555;fill-rule:evenodd;stroke:none;stroke-width:0.1;stroke-linecap:butt;stroke-linejoin:miter;stroke-miterlimit:4;stroke-dasharray:none;stroke-opacity:1" />
      <g
         id="g4940">
        <path
           sodipodi:nodetypes="ssssssss"
           inkscape:connector-curvature="0"
           id="path4942"
           d="m 150.37102,510.68328 c -0.55097,0.85521 -2.43364,1.21753 -4.02291,1.24359 -1.30739,0.0214 -2.82842,-0.3282 -4.43727,-0.77562 -2.04159,-0.56777 -3.71281,-1.53431 -5.01449,-2.22263 -0.5702,-0.30151 -1.09675,-0.79773 -1.4454,-1.26421 -0.38708,-0.51793 -0.5723,-0.99118 -0.44902,-1.41832 0.42826,-1.48375 1.68547,-2.25608 8.46018,-0.46795 4.29998,1.13494 7.55404,3.90378 6.90891,4.90514 z"
           style="fill:none;fill-rule:evenodd;stroke:#000000;stroke-width:0.1;stroke-linecap:butt;stroke-linejoin:miter;stroke-miterlimit:4;stroke-dasharray:none;stroke-opacity:1" />
        <path
           style="fill:none;fill-rule:evenodd;stroke:#000000;stroke-width:0.2;stroke-linecap:butt;stroke-linejoin:miter;stroke-miterlimit:4;stroke-dasharray:none;stroke-opacity:1"
           d="m 136.74195,506.71071 c -0.0375,0.3661 -0.0737,0.80251 0.13043,1.08165 0.12869,0.17602 0.38827,0.32597 0.58706,0.2334 0.23557,-0.10969 0.10649,-0.62517 0.33372,-0.75591 0.33818,-0.19463 0.89261,-0.12169 1.09443,0.20945 0.2595,0.42576 -0.48735,1.08662 -0.29507,1.55537 0.16086,0.39214 0.63718,0.71481 1.03417,0.61818 0.54184,-0.1319 0.50315,-1.44245 1.05192,-1.44341 0.31807,-6e-4 0.45307,0.50245 0.52899,0.83452 0.0878,0.38394 -0.31734,0.87853 -0.11612,1.20223 0.18007,0.28967 0.64511,0.44568 0.94167,0.27187 0.33615,-0.19701 0.0818,-0.92301 0.394,-1.16462 0.24198,-0.18731 0.65361,-0.20473 0.86766,-0.005 0.32684,0.3047 -0.10293,1.07199 0.18739,1.4177 0.27774,0.33072 0.84102,0.53721 1.21955,0.30942 0.39566,-0.23807 0.0757,-1.14396 0.47423,-1.37582 0.22977,-0.13369 0.55198,0.0206 0.72846,0.21031 0.22088,0.23746 0.0186,0.76808 0.25333,0.98931 0.25819,0.24331 0.71079,0.31548 1.03472,0.14959 0.52668,-0.26974 1.06806,-0.99374 0.96161,-1.59733 -0.0569,-0.32258 -0.46304,-0.62728 -0.75557,-0.51642 -0.13176,0.0499 -0.0309,0.36498 -0.16046,0.42241 -0.22652,0.10046 -0.5044,-0.12127 -0.63541,-0.33259 -0.20841,-0.33625 0.13006,-0.90796 -0.085,-1.23899 -0.30036,-0.46231 -0.93153,-0.87144 -1.44208,-0.67202 -0.40834,0.15951 -0.24607,1.05746 -0.64693,1.24075 -0.19277,0.0881 -0.45424,-0.0204 -0.58064,-0.18898 -0.29157,-0.38873 0.16164,-1.14701 -0.13556,-1.53057 -0.25756,-0.33238 -0.79116,-0.52557 -1.17264,-0.33855 -0.44208,0.21676 -0.24052,1.2101 -0.69235,1.39808 -0.19638,0.0817 -0.42668,-0.0876 -0.56361,-0.24796 -0.27772,-0.32528 -0.0546,-1.01422 -0.38063,-1.28174 -0.18304,-0.15016 -0.50629,-0.18489 -0.70281,-0.0325 -0.26998,0.20946 -0.0106,0.8391 -0.29525,1.02267 -0.15339,0.0989 -0.38712,0.0105 -0.50317,-0.12393 -0.27417,-0.31775 0.10717,-1.03185 -0.19802,-1.31423 -0.33772,-0.31249 -0.97734,-0.29539 -1.36368,-0.0102 -0.31232,0.23051 -0.11121,0.90472 -0.42387,1.13469 -0.0653,0.0481 -0.17795,0.0557 -0.23025,-0.003 -0.17253,-0.19221 0.23307,-0.71391 0.008,-0.82856 -0.1102,-0.0562 -0.22852,0.14117 -0.30406,0.25311 -0.087,0.12885 -0.13245,0.2915 -0.14837,0.44722 z"
           id="path4944"
           inkscape:connector-curvature="0"
           sodipodi:nodetypes="ssssssssssssssssssssssssssssssssssssssssss" />
      </g>
    </g>
    <path
       sodipodi:nodetypes="cccc"
       inkscape:connector-curvature="0"
       id="path4968"
       d="m 99.747189,898.18595 c 7.345881,-0.0416 12.140041,3.70457 14.689391,7.62218 -4.15559,4.16666 -11.87737,5.71119 -16.674475,5.39801 -1.837814,-3.36696 -0.6501,-9.99187 1.985084,-13.02019 z"
       style="display:inline;fill:#8787de;stroke:none;stroke-width:0.2;stroke-miterlimit:4;stroke-dasharray:none;stroke-dashoffset:0;stroke-opacity:1" />
    <path
       style="display:inline;fill:#8787de;stroke:none;stroke-width:0.2;stroke-miterlimit:4;stroke-dasharray:none;stroke-dashoffset:0;stroke-opacity:1"
       d="m 169.79626,767.7179 c 5.84374,3.99392 4.86143,7.40813 4.21198,11.90703 -6.12707,1.02058 -11.06514,0.18976 -14.64953,-2.68769 0.83779,-3.67292 6.28928,-8.2665 10.43755,-9.21934 z"
       id="path4970"
       inkscape:connector-curvature="0"
       sodipodi:nodetypes="cccc" />
    <path
       style="display:inline;fill:#8787de;stroke:none;stroke-width:0.2;stroke-miterlimit:4;stroke-dasharray:none;stroke-dashoffset:0;stroke-opacity:1"
       d="m 510.83887,940.31015 c 7.34588,-0.0416 12.14004,3.70457 14.6894,7.62218 -4.1556,4.16665 -11.87737,5.71118 -16.67448,5.39801 -1.83782,-3.36696 -0.6501,-9.99187 1.98508,-13.02019 z"
       id="path4972"
       inkscape:connector-curvature="0"
       sodipodi:nodetypes="cccc" />
    <path
       sodipodi:nodetypes="cccc"
       inkscape:connector-curvature="0"
       id="path4974"
       d="m 528.21323,802.13646 c 5.84374,3.99392 4.86143,7.40812 4.21198,11.90702 -6.12707,1.02058 -11.06513,0.18976 -14.64952,-2.68768 0.83779,-3.67293 6.28927,-8.2665 10.43754,-9.21934 z"
       style="display:inline;fill:#8787de;stroke:none;stroke-width:0.2;stroke-miterlimit:4;stroke-dasharray:none;stroke-dashoffset:0;stroke-opacity:1" />
    <ellipse
       cy="766.76465"
       cx="103.15427"
       id="circle4982"
       style="display:inline;fill:#ff7f2a;stroke:#c83737;stroke-width:0.61357969;stroke-miterlimit:4;stroke-dasharray:none;stroke-dashoffset:0;stroke-opacity:1"
       rx="9.1608171"
       ry="8.2193546" />
    <ellipse
       style="display:inline;fill:#ff7f2a;stroke:#c83737;stroke-width:0.45616314;stroke-miterlimit:4;stroke-dasharray:none;stroke-dashoffset:0;stroke-opacity:1"
       id="circle4984"
       cx="198.34105"
       cy="798.74304"
       rx="6.8105688"
       ry="6.1106429" />
    <ellipse
       cy="872.46051"
       cx="103.58364"
       id="circle4986"
       style="display:inline;fill:#ff7f2a;stroke:#c83737;stroke-width:0.36356515;stroke-miterlimit:4;stroke-dasharray:none;stroke-dashoffset:0;stroke-opacity:1"
       rx="5.4280696"
       ry="4.870224" />
    <ellipse
       style="display:inline;fill:#ff7f2a;stroke:#c83737;stroke-width:0.51172197;stroke-miterlimit:4;stroke-dasharray:none;stroke-dashoffset:0;stroke-opacity:1"
       id="circle4988"
       cx="214.37236"
       cy="879.13873"
       rx="7.6400681"
       ry="6.8548942" />
    <ellipse
       cy="948.51898"
       cx="124.08974"
       id="circle4990"
       style="display:inline;fill:#ff7f2a;stroke:#c83737;stroke-width:0.64267534;stroke-miterlimit:4;stroke-dasharray:none;stroke-dashoffset:0;stroke-opacity:1"
       rx="9.5952168"
       ry="8.6091108" />
    <ellipse
       style="display:inline;fill:#ff7f2a;stroke:#c83737;stroke-width:0.32838726;stroke-miterlimit:4;stroke-dasharray:none;stroke-dashoffset:0;stroke-opacity:1"
       id="circle4992"
       cx="188.8665"
       cy="927.45062"
       rx="4.9028602"
       ry="4.3989902" />
    <ellipse
       style="display:inline;fill:#ff7f2a;stroke:#c83737;stroke-width:0.61357969;stroke-miterlimit:4;stroke-dasharray:none;stroke-dashoffset:0;stroke-opacity:1"
       id="circle4994"
       cx="526.26941"
       cy="839.19763"
       rx="9.1608171"
       ry="8.2193546" />
    <ellipse
       cy="956.4519"
       cx="470.87527"
       id="circle4996"
       style="display:inline;fill:#ff7f2a;stroke:#c83737;stroke-width:0.45616314;stroke-miterlimit:4;stroke-dasharray:none;stroke-dashoffset:0;stroke-opacity:1"
       rx="6.8105688"
       ry="6.1106429" />
    <ellipse
       cy="868.88763"
       cx="512.35791"
       id="circle4998"
       style="display:inline;fill:#ff7f2a;stroke:#c83737;stroke-width:0.32838726;stroke-miterlimit:4;stroke-dasharray:none;stroke-dashoffset:0;stroke-opacity:1"
       rx="4.9028602"
       ry="4.3989902" />
    <g
       style="display:inline"
       id="g5014"
       transform="matrix(3.238838,0,0,2.9059808,-315.09423,-553.58953)">
      <circle
         style="fill:#672178;stroke:#53536c;stroke-width:0.30000001;stroke-linecap:round;stroke-linejoin:round;stroke-miterlimit:4;stroke-dasharray:none;stroke-opacity:1"
         id="circle5016"
         cx="129.84248"
         cy="478.13394"
         r="4.8613591" />
      <ellipse
         style="fill:#c8ab37;stroke:#447821;stroke-width:0.30000001;stroke-linecap:round;stroke-linejoin:round;stroke-miterlimit:4;stroke-dasharray:none;stroke-opacity:1"
         id="ellipse5018"
         cx="132.11848"
         cy="478.81897"
         rx="1.6572815"
         ry="1.6130873" />
    </g>
    <g
       style="display:inline"
       transform="matrix(2.6104594,0,0,2.342181,183.02691,-345.91975)"
       id="g5020">
      <circle
         r="4.8613591"
         cy="478.13394"
         cx="129.84248"
         id="circle5022"
         style="fill:#672178;stroke:#53536c;stroke-width:0.30000001;stroke-linecap:round;stroke-linejoin:round;stroke-miterlimit:4;stroke-dasharray:none;stroke-opacity:1" />
      <ellipse
         ry="1.6130873"
         rx="1.6572815"
         cy="478.81897"
         cx="132.11848"
         id="ellipse5024"
         style="fill:#c8ab37;stroke:#447821;stroke-width:0.30000001;stroke-linecap:round;stroke-linejoin:round;stroke-miterlimit:4;stroke-dasharray:none;stroke-opacity:1" />
    </g>
    <g
       style="display:inline"
       transform="matrix(3.238838,0,0,2.9059808,-182.70672,-448.24773)"
       id="g5034">
      <ellipse
         style="fill:#c8b7b7;stroke:#483737;stroke-width:0.1;stroke-linecap:round;stroke-linejoin:round;stroke-miterlimit:4;stroke-dasharray:none;stroke-opacity:1"
         id="ellipse5036"
         cx="-117.78978"
         cy="470.5614"
         rx="0.65625"
         ry="0.34375"
         transform="matrix(0.874638,-0.48477662,0.48477662,0.874638,0,0)" />
      <ellipse
         transform="matrix(0.96073727,-0.27745973,0.27745973,0.96073727,0,0)"
         ry="0.26566407"
         rx="0.50717688"
         cy="486.43735"
         cx="-10.113874"
         id="ellipse5038"
         style="fill:#c8b7b7;stroke:#483737;stroke-width:0.0772841;stroke-linecap:round;stroke-linejoin:round;stroke-miterlimit:4;stroke-dasharray:none;stroke-opacity:1" />
      <ellipse
         style="fill:#c8b7b7;stroke:#483737;stroke-width:0.08825003;stroke-linecap:round;stroke-linejoin:round;stroke-miterlimit:4;stroke-dasharray:none;stroke-opacity:1"
         id="ellipse5040"
         cx="22.601"
         cy="488.70169"
         rx="0.51578605"
         ry="0.3406215"
         transform="matrix(0.93461505,-0.35566094,0.21409127,0.97681366,0,0)" />
      <ellipse
         transform="matrix(0.96422767,0.26507546,-0.40423464,0.91465532,0,0)"
         ry="0.3406215"
         rx="0.51578605"
         cy="424.00363"
         cx="309.4025"
         id="ellipse5042"
         style="fill:#c8b7b7;stroke:#483737;stroke-width:0.08825003;stroke-linecap:round;stroke-linejoin:round;stroke-miterlimit:4;stroke-dasharray:none;stroke-opacity:1" />
      <ellipse
         style="fill:#c8b7b7;stroke:#483737;stroke-width:0.0772841;stroke-linecap:round;stroke-linejoin:round;stroke-miterlimit:4;stroke-dasharray:none;stroke-opacity:1"
         id="ellipse5044"
         cx="-205.06822"
         cy="442.09879"
         rx="0.50717688"
         ry="0.26566407"
         transform="matrix(0.76718275,-0.64142858,0.64142858,0.76718275,0,0)" />
      <ellipse
         transform="matrix(-0.98683044,0.16175812,-0.414419,0.9100862,0,0)"
         ry="0.41118899"
         rx="0.39428997"
         cy="581.95868"
         cx="-370.26978"
         id="ellipse5046"
         style="fill:#c8b7b7;stroke:#483737;stroke-width:0.08477594;stroke-linecap:round;stroke-linejoin:round;stroke-miterlimit:4;stroke-dasharray:none;stroke-opacity:1"
         inkscape:transform-center-x="0.62499397"
         inkscape:transform-center-y="-0.31251221" />
      <ellipse
         style="fill:#c8b7b7;stroke:#483737;stroke-width:0.0998496;stroke-linecap:round;stroke-linejoin:round;stroke-miterlimit:4;stroke-dasharray:none;stroke-opacity:1"
         id="ellipse5048"
         cx="310.14813"
         cy="427.29742"
         rx="0.58717644"
         ry="0.38303283"
         transform="matrix(0.96529991,0.26114379,-0.40968614,0.91222654,0,0)" />
      <ellipse
         transform="matrix(0.76718275,-0.64142858,0.64142858,0.76718275,0,0)"
         ry="0.26566407"
         rx="0.50717688"
         cy="439.20453"
         cx="-205.94778"
         id="ellipse5050"
         style="fill:#c8b7b7;stroke:#483737;stroke-width:0.0772841;stroke-linecap:round;stroke-linejoin:round;stroke-miterlimit:4;stroke-dasharray:none;stroke-opacity:1" />
      <ellipse
         style="fill:#c8b7b7;stroke:#483737;stroke-width:0.08825003;stroke-linecap:round;stroke-linejoin:round;stroke-miterlimit:4;stroke-dasharray:none;stroke-opacity:1"
         id="ellipse5052"
         cx="471.08472"
         cy="205.05881"
         rx="0.51578605"
         ry="0.3406215"
         transform="matrix(0.64045329,0.76799712,-0.85396981,0.52032256,0,0)" />
    </g>
    <g
       style="display:inline"
       id="g5054"
       transform="matrix(3.238838,0,0,2.9059808,-297.7895,-572.56547)">
      <ellipse
         transform="matrix(0.874638,-0.48477662,0.48477662,0.874638,0,0)"
         ry="0.34375"
         rx="0.65625"
         cy="470.5614"
         cx="-117.78978"
         id="ellipse5056"
         style="fill:#c8b7b7;stroke:#483737;stroke-width:0.1;stroke-linecap:round;stroke-linejoin:round;stroke-miterlimit:4;stroke-dasharray:none;stroke-opacity:1" />
      <ellipse
         style="fill:#c8b7b7;stroke:#483737;stroke-width:0.0772841;stroke-linecap:round;stroke-linejoin:round;stroke-miterlimit:4;stroke-dasharray:none;stroke-opacity:1"
         id="ellipse5058"
         cx="-10.113874"
         cy="486.43735"
         rx="0.50717688"
         ry="0.26566407"
         transform="matrix(0.96073727,-0.27745973,0.27745973,0.96073727,0,0)" />
      <ellipse
         transform="matrix(0.93461505,-0.35566094,0.21409127,0.97681366,0,0)"
         ry="0.3406215"
         rx="0.51578605"
         cy="488.70169"
         cx="22.601"
         id="ellipse5060"
         style="fill:#c8b7b7;stroke:#483737;stroke-width:0.08825003;stroke-linecap:round;stroke-linejoin:round;stroke-miterlimit:4;stroke-dasharray:none;stroke-opacity:1" />
      <ellipse
         style="fill:#c8b7b7;stroke:#483737;stroke-width:0.08825003;stroke-linecap:round;stroke-linejoin:round;stroke-miterlimit:4;stroke-dasharray:none;stroke-opacity:1"
         id="ellipse5062"
         cx="309.4025"
         cy="424.00363"
         rx="0.51578605"
         ry="0.3406215"
         transform="matrix(0.96422767,0.26507546,-0.40423464,0.91465532,0,0)" />
      <ellipse
         transform="matrix(0.76718275,-0.64142858,0.64142858,0.76718275,0,0)"
         ry="0.26566407"
         rx="0.50717688"
         cy="442.09879"
         cx="-205.06822"
         id="ellipse5064"
         style="fill:#c8b7b7;stroke:#483737;stroke-width:0.0772841;stroke-linecap:round;stroke-linejoin:round;stroke-miterlimit:4;stroke-dasharray:none;stroke-opacity:1" />
      <ellipse
         inkscape:transform-center-y="-0.31251221"
         inkscape:transform-center-x="0.62499397"
         style="fill:#c8b7b7;stroke:#483737;stroke-width:0.08477594;stroke-linecap:round;stroke-linejoin:round;stroke-miterlimit:4;stroke-dasharray:none;stroke-opacity:1"
         id="ellipse5066"
         cx="-370.26978"
         cy="581.95868"
         rx="0.39428997"
         ry="0.41118899"
         transform="matrix(-0.98683044,0.16175812,-0.414419,0.9100862,0,0)" />
      <ellipse
         transform="matrix(0.96529991,0.26114379,-0.40968614,0.91222654,0,0)"
         ry="0.38303283"
         rx="0.58717644"
         cy="427.29742"
         cx="310.14813"
         id="ellipse5068"
         style="fill:#c8b7b7;stroke:#483737;stroke-width:0.0998496;stroke-linecap:round;stroke-linejoin:round;stroke-miterlimit:4;stroke-dasharray:none;stroke-opacity:1" />
      <ellipse
         style="fill:#c8b7b7;stroke:#483737;stroke-width:0.0772841;stroke-linecap:round;stroke-linejoin:round;stroke-miterlimit:4;stroke-dasharray:none;stroke-opacity:1"
         id="ellipse5070"
         cx="-205.94778"
         cy="439.20453"
         rx="0.50717688"
         ry="0.26566407"
         transform="matrix(0.76718275,-0.64142858,0.64142858,0.76718275,0,0)" />
      <ellipse
         transform="matrix(0.64045329,0.76799712,-0.85396981,0.52032256,0,0)"
         ry="0.3406215"
         rx="0.51578605"
         cy="205.05881"
         cx="471.08472"
         id="ellipse5072"
         style="fill:#c8b7b7;stroke:#483737;stroke-width:0.08825003;stroke-linecap:round;stroke-linejoin:round;stroke-miterlimit:4;stroke-dasharray:none;stroke-opacity:1" />
    </g>
    <g
       style="display:inline"
       transform="matrix(3.238838,0,0,2.9059808,-255.99327,-407.15094)"
       id="g5074">
      <ellipse
         style="fill:#c8b7b7;stroke:#483737;stroke-width:0.1;stroke-linecap:round;stroke-linejoin:round;stroke-miterlimit:4;stroke-dasharray:none;stroke-opacity:1"
         id="ellipse5076"
         cx="-117.78978"
         cy="470.5614"
         rx="0.65625"
         ry="0.34375"
         transform="matrix(0.874638,-0.48477662,0.48477662,0.874638,0,0)" />
      <ellipse
         transform="matrix(0.96073727,-0.27745973,0.27745973,0.96073727,0,0)"
         ry="0.26566407"
         rx="0.50717688"
         cy="486.43735"
         cx="-10.113874"
         id="ellipse5078"
         style="fill:#c8b7b7;stroke:#483737;stroke-width:0.0772841;stroke-linecap:round;stroke-linejoin:round;stroke-miterlimit:4;stroke-dasharray:none;stroke-opacity:1" />
      <ellipse
         style="fill:#c8b7b7;stroke:#483737;stroke-width:0.08825003;stroke-linecap:round;stroke-linejoin:round;stroke-miterlimit:4;stroke-dasharray:none;stroke-opacity:1"
         id="ellipse5080"
         cx="22.601"
         cy="488.70169"
         rx="0.51578605"
         ry="0.3406215"
         transform="matrix(0.93461505,-0.35566094,0.21409127,0.97681366,0,0)" />
      <ellipse
         transform="matrix(0.96422767,0.26507546,-0.40423464,0.91465532,0,0)"
         ry="0.3406215"
         rx="0.51578605"
         cy="424.00363"
         cx="309.4025"
         id="ellipse5082"
         style="fill:#c8b7b7;stroke:#483737;stroke-width:0.08825003;stroke-linecap:round;stroke-linejoin:round;stroke-miterlimit:4;stroke-dasharray:none;stroke-opacity:1" />
      <ellipse
         style="fill:#c8b7b7;stroke:#483737;stroke-width:0.0772841;stroke-linecap:round;stroke-linejoin:round;stroke-miterlimit:4;stroke-dasharray:none;stroke-opacity:1"
         id="ellipse5084"
         cx="-205.06822"
         cy="442.09879"
         rx="0.50717688"
         ry="0.26566407"
         transform="matrix(0.76718275,-0.64142858,0.64142858,0.76718275,0,0)" />
      <ellipse
         transform="matrix(-0.98683044,0.16175812,-0.414419,0.9100862,0,0)"
         ry="0.41118899"
         rx="0.39428997"
         cy="581.95868"
         cx="-370.26978"
         id="ellipse5086"
         style="fill:#c8b7b7;stroke:#483737;stroke-width:0.08477594;stroke-linecap:round;stroke-linejoin:round;stroke-miterlimit:4;stroke-dasharray:none;stroke-opacity:1"
         inkscape:transform-center-x="0.62499397"
         inkscape:transform-center-y="-0.31251221" />
      <ellipse
         style="fill:#c8b7b7;stroke:#483737;stroke-width:0.0998496;stroke-linecap:round;stroke-linejoin:round;stroke-miterlimit:4;stroke-dasharray:none;stroke-opacity:1"
         id="ellipse5088"
         cx="310.14813"
         cy="427.29742"
         rx="0.58717644"
         ry="0.38303283"
         transform="matrix(0.96529991,0.26114379,-0.40968614,0.91222654,0,0)" />
      <ellipse
         transform="matrix(0.76718275,-0.64142858,0.64142858,0.76718275,0,0)"
         ry="0.26566407"
         rx="0.50717688"
         cy="439.20453"
         cx="-205.94778"
         id="ellipse5090"
         style="fill:#c8b7b7;stroke:#483737;stroke-width:0.0772841;stroke-linecap:round;stroke-linejoin:round;stroke-miterlimit:4;stroke-dasharray:none;stroke-opacity:1" />
      <ellipse
         style="fill:#c8b7b7;stroke:#483737;stroke-width:0.08825003;stroke-linecap:round;stroke-linejoin:round;stroke-miterlimit:4;stroke-dasharray:none;stroke-opacity:1"
         id="ellipse5092"
         cx="471.08472"
         cy="205.05881"
         rx="0.51578605"
         ry="0.3406215"
         transform="matrix(0.64045329,0.76799712,-0.85396981,0.52032256,0,0)" />
    </g>
    <g
       style="display:inline"
       id="g5094"
       transform="matrix(3.238838,0,0,2.9059808,54.53816,-454.05969)">
      <ellipse
         transform="matrix(0.874638,-0.48477662,0.48477662,0.874638,0,0)"
         ry="0.34375"
         rx="0.65625"
         cy="470.5614"
         cx="-117.78978"
         id="ellipse5096"
         style="fill:#c8b7b7;stroke:#483737;stroke-width:0.1;stroke-linecap:round;stroke-linejoin:round;stroke-miterlimit:4;stroke-dasharray:none;stroke-opacity:1" />
      <ellipse
         style="fill:#c8b7b7;stroke:#483737;stroke-width:0.0772841;stroke-linecap:round;stroke-linejoin:round;stroke-miterlimit:4;stroke-dasharray:none;stroke-opacity:1"
         id="ellipse5098"
         cx="-10.113874"
         cy="486.43735"
         rx="0.50717688"
         ry="0.26566407"
         transform="matrix(0.96073727,-0.27745973,0.27745973,0.96073727,0,0)" />
      <ellipse
         transform="matrix(0.93461505,-0.35566094,0.21409127,0.97681366,0,0)"
         ry="0.3406215"
         rx="0.51578605"
         cy="488.70169"
         cx="22.601"
         id="ellipse5100"
         style="fill:#c8b7b7;stroke:#483737;stroke-width:0.08825003;stroke-linecap:round;stroke-linejoin:round;stroke-miterlimit:4;stroke-dasharray:none;stroke-opacity:1" />
      <ellipse
         style="fill:#c8b7b7;stroke:#483737;stroke-width:0.08825003;stroke-linecap:round;stroke-linejoin:round;stroke-miterlimit:4;stroke-dasharray:none;stroke-opacity:1"
         id="ellipse5102"
         cx="309.4025"
         cy="424.00363"
         rx="0.51578605"
         ry="0.3406215"
         transform="matrix(0.96422767,0.26507546,-0.40423464,0.91465532,0,0)" />
      <ellipse
         transform="matrix(0.76718275,-0.64142858,0.64142858,0.76718275,0,0)"
         ry="0.26566407"
         rx="0.50717688"
         cy="442.09879"
         cx="-205.06822"
         id="ellipse5104"
         style="fill:#c8b7b7;stroke:#483737;stroke-width:0.0772841;stroke-linecap:round;stroke-linejoin:round;stroke-miterlimit:4;stroke-dasharray:none;stroke-opacity:1" />
      <ellipse
         inkscape:transform-center-y="-0.31251221"
         inkscape:transform-center-x="0.62499397"
         style="fill:#c8b7b7;stroke:#483737;stroke-width:0.08477594;stroke-linecap:round;stroke-linejoin:round;stroke-miterlimit:4;stroke-dasharray:none;stroke-opacity:1"
         id="ellipse5106"
         cx="-370.26978"
         cy="581.95868"
         rx="0.39428997"
         ry="0.41118899"
         transform="matrix(-0.98683044,0.16175812,-0.414419,0.9100862,0,0)" />
      <ellipse
         transform="matrix(0.96529991,0.26114379,-0.40968614,0.91222654,0,0)"
         ry="0.38303283"
         rx="0.58717644"
         cy="427.29742"
         cx="310.14813"
         id="ellipse5108"
         style="fill:#c8b7b7;stroke:#483737;stroke-width:0.0998496;stroke-linecap:round;stroke-linejoin:round;stroke-miterlimit:4;stroke-dasharray:none;stroke-opacity:1" />
      <ellipse
         style="fill:#c8b7b7;stroke:#483737;stroke-width:0.0772841;stroke-linecap:round;stroke-linejoin:round;stroke-miterlimit:4;stroke-dasharray:none;stroke-opacity:1"
         id="ellipse5110"
         cx="-205.94778"
         cy="439.20453"
         rx="0.50717688"
         ry="0.26566407"
         transform="matrix(0.76718275,-0.64142858,0.64142858,0.76718275,0,0)" />
      <ellipse
         transform="matrix(0.64045329,0.76799712,-0.85396981,0.52032256,0,0)"
         ry="0.3406215"
         rx="0.51578605"
         cy="205.05881"
         cx="471.08472"
         id="ellipse5112"
         style="fill:#c8b7b7;stroke:#483737;stroke-width:0.08825003;stroke-linecap:round;stroke-linejoin:round;stroke-miterlimit:4;stroke-dasharray:none;stroke-opacity:1" />
    </g>
    <g
       style="display:inline"
       transform="matrix(3.238838,0,0,2.9059808,125.89831,-483.69369)"
       id="g5114">
      <ellipse
         style="fill:#c8b7b7;stroke:#483737;stroke-width:0.1;stroke-linecap:round;stroke-linejoin:round;stroke-miterlimit:4;stroke-dasharray:none;stroke-opacity:1"
         id="ellipse5116"
         cx="-117.78978"
         cy="470.5614"
         rx="0.65625"
         ry="0.34375"
         transform="matrix(0.874638,-0.48477662,0.48477662,0.874638,0,0)" />
      <ellipse
         transform="matrix(0.96073727,-0.27745973,0.27745973,0.96073727,0,0)"
         ry="0.26566407"
         rx="0.50717688"
         cy="486.43735"
         cx="-10.113874"
         id="ellipse5118"
         style="fill:#c8b7b7;stroke:#483737;stroke-width:0.0772841;stroke-linecap:round;stroke-linejoin:round;stroke-miterlimit:4;stroke-dasharray:none;stroke-opacity:1" />
      <ellipse
         style="fill:#c8b7b7;stroke:#483737;stroke-width:0.08825003;stroke-linecap:round;stroke-linejoin:round;stroke-miterlimit:4;stroke-dasharray:none;stroke-opacity:1"
         id="ellipse5120"
         cx="22.601"
         cy="488.70169"
         rx="0.51578605"
         ry="0.3406215"
         transform="matrix(0.93461505,-0.35566094,0.21409127,0.97681366,0,0)" />
      <ellipse
         transform="matrix(0.96422767,0.26507546,-0.40423464,0.91465532,0,0)"
         ry="0.3406215"
         rx="0.51578605"
         cy="424.00363"
         cx="309.4025"
         id="ellipse5122"
         style="fill:#c8b7b7;stroke:#483737;stroke-width:0.08825003;stroke-linecap:round;stroke-linejoin:round;stroke-miterlimit:4;stroke-dasharray:none;stroke-opacity:1" />
      <ellipse
         style="fill:#c8b7b7;stroke:#483737;stroke-width:0.0772841;stroke-linecap:round;stroke-linejoin:round;stroke-miterlimit:4;stroke-dasharray:none;stroke-opacity:1"
         id="ellipse5124"
         cx="-205.06822"
         cy="442.09879"
         rx="0.50717688"
         ry="0.26566407"
         transform="matrix(0.76718275,-0.64142858,0.64142858,0.76718275,0,0)" />
      <ellipse
         transform="matrix(-0.98683044,0.16175812,-0.414419,0.9100862,0,0)"
         ry="0.41118899"
         rx="0.39428997"
         cy="581.95868"
         cx="-370.26978"
         id="ellipse5126"
         style="fill:#c8b7b7;stroke:#483737;stroke-width:0.08477594;stroke-linecap:round;stroke-linejoin:round;stroke-miterlimit:4;stroke-dasharray:none;stroke-opacity:1"
         inkscape:transform-center-x="0.62499397"
         inkscape:transform-center-y="-0.31251221" />
      <ellipse
         style="fill:#c8b7b7;stroke:#483737;stroke-width:0.0998496;stroke-linecap:round;stroke-linejoin:round;stroke-miterlimit:4;stroke-dasharray:none;stroke-opacity:1"
         id="ellipse5128"
         cx="310.14813"
         cy="427.29742"
         rx="0.58717644"
         ry="0.38303283"
         transform="matrix(0.96529991,0.26114379,-0.40968614,0.91222654,0,0)" />
      <ellipse
         transform="matrix(0.76718275,-0.64142858,0.64142858,0.76718275,0,0)"
         ry="0.26566407"
         rx="0.50717688"
         cy="439.20453"
         cx="-205.94778"
         id="ellipse5130"
         style="fill:#c8b7b7;stroke:#483737;stroke-width:0.0772841;stroke-linecap:round;stroke-linejoin:round;stroke-miterlimit:4;stroke-dasharray:none;stroke-opacity:1" />
      <ellipse
         style="fill:#c8b7b7;stroke:#483737;stroke-width:0.08825003;stroke-linecap:round;stroke-linejoin:round;stroke-miterlimit:4;stroke-dasharray:none;stroke-opacity:1"
         id="ellipse5132"
         cx="471.08472"
         cy="205.05881"
         rx="0.51578605"
         ry="0.3406215"
         transform="matrix(0.64045329,0.76799712,-0.85396981,0.52032256,0,0)" />
    </g>
    <path
       inkscape:connector-curvature="0"
       d="m 175.1669,911.25278 c 0.53849,-0.64827 2.82181,-3.36577 3.12337,-3.88129 0.52233,-0.89289 0.69279,-1.92843 1.20997,-2.82374 0.56375,-0.97588 1.39195,-1.8113 2.01446,-2.75798 3.02883,-4.60606 0.0538,-0.96978 3.2926,-4.66142 0.78769,-1.37174 0.76706,-1.13502 1.15824,-2.43286 0.0819,-0.27171 0.0816,-0.5653 0.20437,-0.82431 0.091,-0.1918 0.22769,-0.61139 0.42254,-0.49771 2.71097,1.58146 2.03671,1.6218 1.22266,3.63198 -0.94807,6.4584 0.47278,-1.64705 -1.44931,4.87354 -0.2264,0.76819 -0.15968,1.58512 -0.32259,2.36616 -0.75821,3.63472 -0.41794,0.58198 -1.17421,3.92898 -0.10494,0.46382 -0.11141,0.94121 -0.16745,1.41181 -0.84906,2.48386 -0.18396,0.11885 -0.48994,2.71848 -0.0324,0.26445 -0.13246,0.51834 -0.2157,0.77346 -0.0962,0.29522 -0.09,0.64949 -0.3213,0.87647 -0.3744,0.36746 -0.93689,1.0878 -1.39804,0.81086 -0.66772,-0.401 -0.46571,-1.37996 -0.69855,-2.06996 0.57522,-2.43786 -0.21927,0.19761 1.62492,-2.93321 2.39075,-4.05878 -0.67805,-0.0596 2.02726,-4.0183 0.40096,-0.58678 0.91014,-1.10826 1.35704,-1.66772 0.43368,-0.54292 0.85638,-1.09288 1.28459,-1.63932 0.29246,-0.4216 0.64446,-0.8144 0.87769,-1.2648 0.2834,-0.54743 1.35059,-5.41611 3.4527,-3.71201 0.5347,0.43346 0.0696,1.29156 0.10461,1.93736 0.16162,1.34189 -0.92375,2.43344 -1.08051,3.70091 -0.0994,0.80458 0.17587,1.61204 0.21798,2.42065 0.0405,0.77558 0.0599,1.55316 0.0292,2.32915 -0.0259,0.72318 -0.24648,1.44093 -0.20049,2.16333 0.0437,0.68226 0.31125,1.33794 0.46691,2.0069 -0.21052,1.25532 0.0768,2.4661 0.24291,3.70097 0.0194,0.13629 0.0577,0.27258 0.0489,0.40951 -0.0129,0.19208 -0.16064,0.1142 -0.0389,0.16477 -0.65921,-0.31865 -1.37075,-0.5624 -1.97757,-0.95598 -0.0826,-0.0538 0.17586,-0.0997 0.2387,-0.17175 0.0965,-0.11101 0.13441,-0.2566 0.23028,-0.36781 0.26396,-0.30562 0.56761,-0.58186 0.84508,-0.87763 1.16054,-1.23711 0.73994,-0.75745 1.78165,-2.28268 1.60212,-3.01249 0.13182,-0.49585 2.29598,-3.48511 0.44887,-0.62 0.84598,-1.26896 1.27163,-1.90203 0.40197,-0.5979 0.87054,-1.16303 1.2112,-1.79084 0.27983,-0.51592 0.39786,-1.09183 0.64096,-1.62258 0.20405,-0.44528 0.46552,-0.86752 0.6983,-1.3013 0.0431,-0.44781 0.0292,-0.90289 0.12923,-1.34346 0.18105,-0.8031 1.38609,-3.67148 3.16845,-1.42324 0.4913,0.61971 -0.27497,1.50086 -0.40566,2.25229 -0.16097,0.92654 -0.3132,1.85433 -0.46953,2.78151 0.0324,1.12802 0.0619,2.25603 0.093,3.38405 -0.1004,1.13237 -0.29894,2.26117 -0.30121,3.39712 -0.002,1.04461 0.27724,2.07853 0.28955,3.12311 0.013,1.03264 -0.24486,2.05967 -0.21571,3.09202 0.32292,11.42792 0.57577,-5.45313 0.32,5.49481 0.0366,0.36098 0.0923,1.97914 0.38902,2.62901 0.0353,0.0776 0.30024,0.16709 0.20696,0.16913 -0.9129,0.0203 -1.84714,0.0738 -2.73672,-0.1113 -0.16194,-0.0337 0.0162,-0.30237 0.0732,-0.4429 0.15676,-0.39318 0.37366,-0.76489 0.56048,-1.14734 0.95018,-2.68164 -0.15028,-0.0456 1.49495,-2.64773 1.2224,-1.93338 0.45049,-1.57774 2.13225,-3.32249 5.21573,-5.41097 -1.806,2.69111 3.09209,-3.09243 2.1959,-3.81797 0.26656,-0.15896 1.85362,-4.10856 0.9334,-2.3227 0.97619,-1.6336 1.57952,-3.77473 0.50487,-1.79168 -0.23093,-0.73204 0.93026,-1.99751 0.39886,-0.59494 0.47481,-0.82922 1.04005,-1.26634 0.0865,-0.0668 -0.11854,0.17726 -0.19886,0.24991 -0.0194,0.0174 0.0227,-0.0607 -5.9e-4,-0.0692 -0.0664,-0.0232 -0.14315,-0.006 -0.21441,-0.009 0.0807,-1.59814 2.59982,-1.49562 2.51901,0.10258 l 0,0 c 0.0227,0.20953 0.13895,0.83167 -0.0292,1.04372 -0.74529,0.93767 -0.85149,0.12176 -1.23111,0.98739 -0.11596,0.22463 -0.20664,0.4615 -0.34808,0.6743 -0.50584,0.76166 -1.34629,1.51896 -1.7184,2.32642 -0.32975,0.71548 -0.38571,1.51215 -0.66416,2.24495 -0.23449,0.61715 -1.84066,3.88568 -2.12756,4.47556 -1.42317,1.93832 -1.13835,1.70355 -2.73649,3.34052 -0.44146,0.45219 -0.98195,0.83093 -1.3629,1.32541 -0.36658,0.4758 -0.5507,1.04656 -0.85674,1.55563 -1.18347,1.96878 -0.65344,0.56943 -1.19905,2.47305 -0.0227,0.21214 -0.0878,0.42445 -0.0635,0.63627 0.0162,0.1389 0.33272,0.35505 0.18105,0.38649 -0.79342,0.16448 -1.62694,0.0886 -2.44118,0.082 -0.0557,-4.7e-4 -0.13668,-0.0552 -0.12113,-0.10316 0.0806,-0.24788 0.3051,-0.44604 0.38098,-0.69511 0.19109,-0.62659 0.27595,-1.27538 0.4138,-1.91304 -0.10527,-1.28424 -0.37341,-4.22626 -0.36499,-5.48978 0.006,-1.03409 0.16972,-2.06388 0.18494,-3.09792 0.0162,-1.04525 -0.13182,-2.09015 -0.0936,-3.13494 0.0418,-1.14031 0.3461,-2.26887 0.33272,-3.40976 -0.0129,-1.14092 -0.27497,-2.26858 -0.41256,-3.40288 -0.0227,-0.92293 -0.0259,-1.84643 -0.0677,-2.76884 -0.0162,-0.34355 -0.40894,-0.82088 -0.10235,-1.02735 0.52035,-0.35061 1.28754,-0.2197 1.93815,-0.20953 0.12697,0.002 -0.20825,0.13949 -0.27627,0.23568 -0.51148,0.72216 -0.5209,1.1891 -0.7676,2.08882 -0.3051,0.58855 -1.35381,2.65066 -1.70341,3.16083 -0.40203,0.58669 -0.95545,1.08254 -1.35457,1.67083 -0.42957,0.63327 -0.73946,1.32605 -1.12372,1.98237 -1.20724,2.062 -0.93191,1.59184 -2.26858,3.45268 -0.27368,0.4946 -0.51018,1.0071 -0.82072,1.4838 -1.23652,1.89807 -0.5176,0.19935 -1.17272,1.94122 -0.12016,0.31928 -0.20469,0.65039 -0.35203,0.96031 -0.078,0.1639 -0.12307,0.4794 -0.31935,0.4511 -0.82201,-0.11886 -1.54615,-0.55478 -2.31923,-0.83219 -0.01,-0.0488 -0.003,-0.10403 -0.033,-0.14675 -0.0437,-0.0648 -0.17943,-0.0878 -0.17554,-0.16332 0.006,-0.13948 0.1574,-0.24381 0.20275,-0.37766 0.0794,-0.23509 0.14089,-0.4771 0.16842,-0.72161 0.07,-0.61517 0.0502,-2.40023 0.0508,-2.87422 0.1723,-3.97672 0.0466,-0.002 0.0292,-4.19772 -0.003,-1.02886 0.0751,-3.88965 0.11044,-4.89312 0.0259,-0.76753 0.0324,-1.53639 0.0972,-2.30209 0.0457,-0.53728 0.15708,-1.0685 0.23546,-1.60273 1.10509,0.60822 -0.41415,-0.0645 1.63224,-0.42654 0.20599,-0.0363 -0.19918,0.3325 -0.27368,0.50843 -0.63889,1.50768 -1.07306,3.08066 -2.25773,4.35542 -0.46247,0.4561 -0.98292,0.86982 -1.38745,1.36831 -0.42468,0.52328 -0.72586,1.11892 -1.08618,1.67972 -0.63766,0.99245 -1.80455,2.75769 -2.28849,3.81145 -0.0998,0.21708 -0.83031,2.55143 -0.94737,2.92205 -2.16108,-1.35069 -0.19659,-0.61441 -2.15243,-0.0203 -0.17133,0.052 0.12308,-0.3053 0.18818,-0.45676 0.12502,-0.29141 0.29635,-0.56919 0.38186,-0.87185 0.2604,-0.92105 0.26331,-1.89072 0.55808,-2.80639 0.1587,-0.50117 0.28178,-1.01262 0.4765,-1.5035 0.58406,-1.47278 1.1652,-2.0799 1.54719,-3.68752 0.18785,-0.79019 0.0988,-1.61921 0.27854,-2.41088 0.35504,-1.56371 1.22801,-3.00967 1.44951,-4.60744 -0.46856,-3.2458 -0.84764,-1.09122 1.80727,-1.79337 0.22381,-0.0593 0.26688,-0.74035 0.0726,-0.62481 -0.29862,0.17726 -0.34931,0.56359 -0.47565,0.86421 -0.97522,2.32028 0.39342,0.19993 -1.59853,2.78747 -0.66157,0.5257 -1.40974,0.97496 -1.98466,1.57711 -0.71702,0.75096 -1.28466,1.6091 -1.86179,2.45154 -2.17209,3.1704 -3.66604,6.62738 -5.24675,10.05121 -0.77713,1.22016 -2.70035,0.23422 -1.92326,-0.98606 z"
       id="path5196"
       style="display:inline;fill:#ff7f2a;stroke:#ff7f2a;stroke-width:0.92036957;stroke-linecap:round;stroke-linejoin:round;stroke-miterlimit:4;stroke-dasharray:none;stroke-opacity:1" />
    <path
       inkscape:connector-curvature="0"
       d="m 95.08974,810.31749 c 0.774503,1.09895 1.649993,2.13572 2.660057,3.06991 0.282751,0.26153 0.588044,0.50244 0.876236,0.75901 0.245827,0.21882 0.483752,0.44482 0.725629,0.66721 1.359758,1.32699 -0.0065,0.091 1.071568,0.87377 0.0651,0.0474 0.2251,0.12874 0.1587,0.17436 -0.978384,0.67465 -0.99393,-0.0976 -1.09767,-0.697 0.08097,-1.07539 0.215707,-2.16783 0.01295,-3.2415 -0.07773,-0.41355 -0.236759,-0.81153 -0.360677,-1.21592 -0.555363,-1.81153 -0.212144,-0.53613 -0.637921,-2.22848 -0.08259,-0.31318 -0.179432,-0.62357 -0.247771,-0.93951 -0.05053,-0.23509 -0.09846,-0.47239 -0.108501,-0.71164 -0.0097,-0.19354 0.04113,-0.38545 0.05409,-0.57864 0.0097,-0.13833 0.0097,-0.27694 0.01296,-0.41556 0.0065,-0.25456 0.02267,-0.16506 -0.02591,-0.32654 0.05441,0.12118 0.01943,0.34319 0.163237,0.36327 0.243561,0.034 0.46649,-0.34311 0.68699,-0.24439 0.243237,0.10868 0.153521,0.47362 0.293115,0.68282 0.226071,0.33843 0.536125,0.62566 0.794158,0.94511 2.48458,3.07595 -0.657188,-0.70537 2.02551,2.49903 2.68004,2.01506 0.0392,0.0662 2.59473,1.85274 0.31481,0.21998 0.61097,0.46135 0.92695,0.68017 0.14769,0.102 0.29506,0.20865 0.46248,0.28188 0.0576,0.0262 0.22866,-0.043 0.19271,0.006 -0.14834,0.19703 -0.38014,0.33131 -0.57023,0.49695 -0.10105,-0.0796 -0.2264,-0.13977 -0.30283,-0.23858 -0.38666,-0.49869 -0.21474,-1.22934 -0.3829,-1.77334 -0.1072,-0.34686 -0.31935,-0.66053 -0.46471,-0.99606 -0.15514,-0.35819 -0.29052,-0.72298 -0.43552,-1.08448 -0.65056,-1.24786 -0.35242,-0.60584 -0.85933,-1.84053 -0.11174,-0.272 -0.23968,-0.53912 -0.33597,-0.8158 -0.0858,-0.24584 -0.14153,-0.4993 -0.20955,-0.7496 -0.20923,-0.76953 -0.14866,-0.476 -0.24065,-1.16126 -0.001,-0.15721 -0.0593,-0.42523 0.16486,-0.52522 0.48511,-0.2165 0.82811,0.15721 1.14759,0.42662 0.37616,0.31722 0.72268,0.66202 1.06635,1.00762 0.47543,0.47807 0.92673,0.97499 1.39011,1.4625 1.3949,1.40306 2.93416,2.67853 4.44498,3.97782 0.78487,0.67497 0.93042,0.93323 1.85074,1.35672 0.17231,0.0793 0.36997,0.10258 0.55494,0.15372 0.0615,-0.0116 0.23482,-0.0689 0.18397,-0.0357 -0.14964,0.0988 -0.30607,0.21708 -0.49033,0.23742 -0.0729,0.009 -0.0813,-0.11043 -0.11174,-0.17029 -0.53376,-1.05063 0.0732,0.16273 -0.21862,-0.76872 -0.0324,-0.10346 -0.11109,-0.19063 -0.1668,-0.28595 -0.0674,-0.10752 -0.26008,-0.37319 -0.27692,-0.52741 -0.013,-0.1142 0.0431,-0.23044 0.0227,-0.34386 -0.0292,-0.16506 -0.12146,-0.31641 -0.1668,-0.4785 -0.70189,-2.51609 0.41927,1.18808 -0.39116,-1.44477 -0.63989,-2.27099 0.18818,0.78593 -0.3106,-1.44314 -0.0508,-0.22695 -0.12113,-0.45092 -0.20437,-0.67009 -0.0726,-0.19121 -0.20696,-0.36255 -0.26267,-0.55821 -0.0525,-0.18395 -0.0327,-0.37862 -0.0577,-0.5671 -0.0194,-0.14966 -0.0521,-0.29786 -0.0781,-0.44679 -0.0521,-0.12758 -0.13376,-0.24817 -0.15676,-0.38231 -0.0194,-0.12351 0.0194,-0.24934 0.0292,-0.37421 0.0162,-0.23364 0.013,-0.18598 0.01,-0.38646 0.20275,-0.54296 1.05868,-0.28566 0.8558,0.25747 l 0,0 c -0.0227,-0.009 -0.0564,-0.0471 -0.0635,-0.0262 -0.0162,0.0456 0.0259,0.0945 0.0227,0.14211 -0.0476,0.57576 -0.12016,-0.009 0.0162,0.64498 0.0162,0.1607 0.0363,0.32096 0.0457,0.48198 0.01,0.16855 -0.0292,0.3416 0.0129,0.50591 0.0525,0.20225 0.19045,0.37908 0.26753,0.57491 0.0845,0.21447 0.16454,0.43169 0.21603,0.65446 0.11142,0.48155 0.091,0.98338 0.25004,1.45843 0.0431,0.25165 0.0453,0.5118 0.12891,0.75517 0.0761,0.22173 0.25198,0.40672 0.34442,0.62322 0.0761,0.17785 0.0726,0.37923 0.15837,0.55347 0.0489,0.0997 0.18397,0.15024 0.23644,0.24817 0.0583,0.10869 -0.006,0.42646 -0.0194,0.51704 0.19724,0.30097 0.24064,0.32305 0.34739,0.65143 0.0386,0.11827 0.0437,0.24468 0.0897,0.36075 0.17587,0.44499 0.55047,0.55641 -0.26299,0.98126 -0.10948,0.0572 -0.22251,-0.10897 -0.33383,-0.16361 -0.17457,-0.13542 -0.34775,-0.27229 -0.52362,-0.40637 -0.26753,-0.204 -0.552,-0.39097 -0.80686,-0.6077 -1.5472,-1.31588 -0.42458,-0.50773 -2.067,-2.16626 -0.9904,-1.00012 -2.16076,-1.84902 -3.11511,-2.88044 -0.54335,-0.41131 -1.0704,-0.84061 -1.63004,-1.23399 -0.39087,-0.27491 -0.81943,-0.50378 -1.21878,-0.76861 -0.10818,-0.0718 -0.26494,-0.12379 -0.30218,-0.23974 -0.0194,-0.0625 0.15741,-0.0203 0.20243,-0.0712 0.0372,-0.0421 0.0528,-0.13135 0.003,-0.16128 -0.0421,-0.0262 -0.0664,0.0689 -0.0998,0.10345 0.0162,0.13833 0.0479,0.27578 0.0492,0.41507 0.002,0.21329 -0.0651,0.42697 -0.0379,0.63879 0.0324,0.24294 0.12891,0.47533 0.21085,0.70836 0.31611,0.89638 0.76029,1.75408 1.08242,2.64871 0.33237,0.7013 0.6454,1.41002 0.98561,2.10832 0.64421,1.32234 0.26818,0.33268 0.56385,1.31211 0.0583,0.19296 0.0865,0.0907 0.01,0.23161 -0.10948,0.18918 -0.20502,0.38556 -0.32871,0.56774 -0.013,0.0203 0.0129,-0.0555 -0.006,-0.0741 -0.12308,-0.1267 -0.2617,-0.24091 -0.40479,-0.3493 -0.30769,-0.23335 -0.64281,-0.43671 -0.94577,-0.67489 -1.10092,-0.86546 -1.32981,-1.14786 -2.33977,-2.13897 -2.7763,-2.77086 0.30995,0.33142 -2.287753,-2.3453 -0.297326,-0.30638 -0.606052,-0.60378 -0.906746,-0.90754 -0.15935,-0.16099 -0.469501,-0.27142 -0.473518,-0.48678 -0.0065,-0.29118 0.162266,-0.63984 0.449972,-0.77474 0.166153,-0.0779 0.125667,0.31696 0.188177,0.47542 -0.31352,-0.009 -0.06121,-0.0465 -0.09198,0.19238 -0.01619,0.11507 -0.104615,0.21301 -0.134088,0.32564 -0.181051,0.69404 -0.07903,1.40981 0.07449,2.09771 0.310281,0.92858 0.437794,1.26704 0.698779,2.24173 0.11174,0.41722 0.228662,0.83414 0.306394,1.25748 0.560483,3.05099 -0.118865,-0.33605 0.103963,2.41193 0.0227,0.26009 0.14024,0.50602 0.2102,0.75905 -0.003,0.13716 -0.0508,0.2781 -0.0162,0.41143 0.0194,0.0706 0.20664,0.0927 0.16842,0.15663 -0.13571,0.22754 -0.409,0.36389 -0.595817,0.56016 -0.01943,0.0203 0.09328,0.003 0.08194,-0.0204 -0.07093,-0.14646 -0.175869,-0.27955 -0.287609,-0.40413 -0.188824,-0.21069 -0.40751,-0.39832 -0.611266,-0.5975 -0.213763,-0.25224 -0.410943,-0.51645 -0.641095,-0.75675 -0.322265,-0.33651 -1.392927,-1.28499 -1.730382,-1.5848 -0.283398,-0.25195 -0.599153,-0.47725 -0.853596,-0.75303 -0.221212,-0.23974 -0.350669,-0.5392 -0.564529,-0.78418 -0.187853,-0.21504 -0.423187,-0.39318 -0.63478,-0.58974 -0.293439,-0.3509 0.259755,-0.72303 0.553064,-0.37217 z"
       id="path5198"
       style="display:inline;fill:#ff7f2a;stroke:#ff7f2a;stroke-width:0.92036957;stroke-linecap:round;stroke-linejoin:round;stroke-miterlimit:4;stroke-dasharray:none;stroke-opacity:1" />
    <path
       style="display:inline;fill:#ff7f2a;stroke:#ff7f2a;stroke-width:1.31250405;stroke-linecap:round;stroke-linejoin:round;stroke-miterlimit:4;stroke-dasharray:none;stroke-opacity:1"
       id="path5200"
       d="m 496.92434,914.99388 c 1.10447,1.5672 2.35298,3.04567 3.79339,4.37789 0.40324,0.37295 0.8386,0.7165 1.24958,1.08239 0.35057,0.31205 0.68987,0.63435 1.03477,0.95151 1.93913,1.89234 -0.01,0.1296 1.52815,1.24602 0.093,0.0677 0.32097,0.18366 0.2264,0.24875 -1.39523,0.96209 -1.41742,-0.13919 -1.56533,-0.99396 0.11562,-1.53357 0.30768,-3.09147 0.0194,-4.6226 -0.11077,-0.58974 -0.33762,-1.15728 -0.51433,-1.73397 -0.79199,-2.58336 -0.30251,-0.76456 -0.90972,-3.17795 -0.1179,-0.44662 -0.25587,-0.88926 -0.35336,-1.3398 -0.0719,-0.33527 -0.14057,-0.67367 -0.15482,-1.01486 -0.0129,-0.27607 0.0586,-0.54966 0.0771,-0.82515 0.0129,-0.19732 0.0129,-0.39495 0.0194,-0.59262 0.01,-0.36301 0.0324,-0.23538 -0.0369,-0.46568 0.0777,0.1729 0.0292,0.48942 0.23287,0.51808 0.34733,0.0485 0.66522,-0.48931 0.97968,-0.34855 0.34688,0.15489 0.21895,0.67541 0.41801,0.97377 0.32226,0.48259 0.76453,0.89222 1.13252,1.34776 3.54316,4.38652 -0.93722,-1.00587 2.88849,3.56378 3.8219,2.87361 0.0557,0.0945 3.70025,2.64212 0.44893,0.3137 0.87128,0.65791 1.3219,0.96996 0.21052,0.14559 0.42075,0.29757 0.65952,0.40198 0.0823,0.0372 0.32609,-0.0613 0.27466,0.009 -0.2115,0.28101 -0.54212,0.47248 -0.81321,0.70868 -0.14413,-0.11362 -0.32291,-0.19935 -0.43184,-0.3402 -0.55141,-0.71118 -0.30607,-1.75315 -0.54603,-2.5289 -0.15288,-0.49466 -0.45542,-0.94198 -0.6627,-1.42045 -0.22121,-0.51081 -0.41431,-1.03101 -0.62111,-1.54653 -0.92774,-1.77953 -0.50257,-0.86398 -1.22545,-2.62471 -0.15935,-0.38789 -0.34179,-0.76884 -0.47909,-1.16338 -0.12243,-0.35061 -0.20178,-0.71205 -0.29894,-1.06899 -0.2983,-1.09739 -0.21215,-0.67878 -0.34319,-1.65601 -0.002,-0.22434 -0.0845,-0.60642 0.23514,-0.74901 0.69178,-0.30873 1.18091,0.22405 1.63652,0.60839 0.53642,0.45238 1.0306,0.94407 1.5207,1.43692 0.67798,0.68175 1.32157,1.3904 1.98236,2.08563 1.98923,2.00085 4.18432,3.81973 6.33883,5.67262 1.11928,0.96254 1.32685,1.33082 2.63926,1.93474 0.24583,0.11304 0.52761,0.14617 0.79138,0.21911 0.0878,-0.0174 0.33486,-0.0982 0.26235,-0.0508 -0.21344,0.14094 -0.43647,0.30957 -0.69924,0.33857 -0.10396,0.0116 -0.11595,-0.1575 -0.15935,-0.24294 -0.76116,-1.49826 0.10429,0.23219 -0.3119,-1.09622 -0.0463,-0.14763 -0.15838,-0.272 -0.23773,-0.4078 -0.0962,-0.15343 -0.37088,-0.53217 -0.39491,-0.7521 -0.0194,-0.16273 0.0615,-0.32863 0.0324,-0.49038 -0.0415,-0.23538 -0.17328,-0.45121 -0.23773,-0.68238 -1.00093,-3.58807 0.59792,1.6943 -0.55779,-2.06031 -0.91255,-3.23857 0.2685,1.12078 -0.44295,-2.05802 -0.0726,-0.32364 -0.17263,-0.64303 -0.29149,-0.95557 -0.10332,-0.27258 -0.29506,-0.51703 -0.37457,-0.79604 -0.0748,-0.26241 -0.0466,-0.53996 -0.0823,-0.80873 -0.0292,-0.2133 -0.0745,-0.42477 -0.11142,-0.63717 -0.0745,-0.18191 -0.19076,-0.35389 -0.22348,-0.54519 -0.0291,-0.1761 0.0292,-0.35557 0.0415,-0.53362 0.0227,-0.3332 0.0194,-0.26532 0.013,-0.55115 0.28922,-0.77427 1.50975,-0.40736 1.22042,0.36717 l 0,0 c -0.0324,-0.0116 -0.0803,-0.0671 -0.0907,-0.0372 -0.0227,0.0651 0.0369,0.13455 0.0324,0.20255 -0.068,0.82108 -0.17133,-0.0116 0.0227,0.9198 0.0227,0.22928 0.0518,0.45772 0.0651,0.68732 0.0129,0.24033 -0.0415,0.48716 0.0194,0.72147 0.0748,0.28827 0.27174,0.5406 0.3815,0.81986 0.12049,0.30583 0.23482,0.61561 0.30801,0.93329 0.15903,0.68671 0.12988,1.40237 0.35657,2.07981 0.0615,0.35889 0.0648,0.72987 0.18396,1.07693 0.10851,0.3162 0.35935,0.58 0.49117,0.88873 0.1085,0.2537 0.10332,0.54081 0.22575,0.7893 0.0696,0.1421 0.26235,0.21417 0.3372,0.35392 0.0832,0.15489 -0.01,0.60813 -0.0292,0.7373 0.28113,0.42922 0.34318,0.46072 0.49541,0.92899 0.0551,0.16854 0.0622,0.34895 0.12793,0.51444 0.25069,0.63461 0.78503,0.79348 -0.37502,1.39935 -0.15611,0.0817 -0.31741,-0.15547 -0.47608,-0.23335 -0.24906,-0.19296 -0.49593,-0.3883 -0.74671,-0.57951 -0.38151,-0.29092 -0.78717,-0.55754 -1.15063,-0.8666 -2.2064,-1.87653 -0.60547,-0.72408 -2.94767,-3.08923 -1.41236,-1.42625 -3.08136,-2.63683 -4.44236,-4.10769 -0.77482,-0.58654 -1.52646,-1.19877 -2.32451,-1.75974 -0.5574,-0.39205 -1.16857,-0.71842 -1.73806,-1.09608 -0.15417,-0.10229 -0.37781,-0.1764 -0.43093,-0.34189 -0.0291,-0.0892 0.22446,-0.0291 0.28859,-0.10142 0.0531,-0.0602 0.0751,-0.18744 0.003,-0.23015 -0.0599,-0.0372 -0.0946,0.0982 -0.14218,0.14762 0.0227,0.19732 0.0683,0.3933 0.0703,0.59192 0.003,0.30417 -0.0929,0.60889 -0.0541,0.91094 0.0463,0.34645 0.18397,0.67785 0.30057,1.01017 0.45078,1.27829 1.0842,2.50144 1.5436,3.77723 0.47397,1.00009 0.92038,2.01076 1.40552,3.00661 0.9187,1.88572 0.38244,0.4744 0.80411,1.87113 0.0832,0.2752 0.1234,0.12932 0.013,0.3303 -0.15611,0.26967 -0.29246,0.54984 -0.46875,0.80963 -0.0194,0.0291 0.0194,-0.079 -0.01,-0.10577 -0.17555,-0.18076 -0.37318,-0.34355 -0.57726,-0.49812 -0.43876,-0.33276 -0.91669,-0.62278 -1.34872,-0.96243 -1.56996,-1.2342 -1.89637,-1.63691 -3.33665,-3.05032 -3.95918,-3.95141 0.44201,0.47266 -3.26248,-3.34452 -0.42399,-0.43692 -0.86428,-0.86105 -1.29307,-1.29421 -0.22737,-0.22957 -0.66953,-0.38708 -0.67527,-0.69418 -0.01,-0.41524 0.23126,-0.91245 0.64168,-1.10483 0.23708,-0.11101 0.17911,0.452 0.2685,0.67797 -0.44709,-0.0116 -0.0871,-0.0663 -0.13117,0.27432 -0.0227,0.16419 -0.14931,0.30377 -0.19109,0.46438 -0.25814,0.98975 -0.11271,2.01047 0.10623,2.99147 0.44249,1.3242 0.62435,1.80688 0.99653,3.19684 0.15935,0.59497 0.32608,1.18954 0.43692,1.79326 0.79928,4.35089 -0.1694,-0.47923 0.14833,3.43957 0.0324,0.37089 0.19984,0.72162 0.2996,1.08242 -0.003,0.19557 -0.0726,0.39661 -0.0227,0.58675 0.0291,0.10055 0.29473,0.13222 0.24032,0.22347 -0.19369,0.32448 -0.58329,0.51892 -0.84968,0.79882 -0.0291,0.0291 0.13312,0.003 0.11692,-0.0291 -0.10105,-0.20894 -0.25068,-0.39867 -0.41016,-0.57634 -0.26915,-0.30045 -0.58112,-0.56803 -0.87171,-0.85206 -0.30477,-0.3597 -0.58603,-0.73649 -0.91422,-1.07917 -0.45959,-0.47989 -1.98641,-1.83248 -2.46764,-2.26004 -0.40414,-0.35929 -0.85444,-0.68058 -1.21729,-1.07384 -0.31546,-0.34189 -0.50007,-0.76895 -0.80504,-1.11831 -0.26785,-0.30664 -0.60349,-0.56068 -0.90526,-0.84099 -0.41845,-0.50041 0.37043,-1.0311 0.78873,-0.53075 z"
       inkscape:connector-curvature="0" />
  </g>
</svg>
