<?xml version="1.0" encoding="UTF-8" standalone="no"?>
<!-- Created with Inkscape (http://www.inkscape.org/) -->

<svg
   xmlns:dc="http://purl.org/dc/elements/1.1/"
   xmlns:cc="http://creativecommons.org/ns#"
   xmlns:rdf="http://www.w3.org/1999/02/22-rdf-syntax-ns#"
   xmlns:svg="http://www.w3.org/2000/svg"
   xmlns="http://www.w3.org/2000/svg"
   xmlns:sodipodi="http://sodipodi.sourceforge.net/DTD/sodipodi-0.dtd"
   xmlns:inkscape="http://www.inkscape.org/namespaces/inkscape"
   width="1052.3622"
   height="400"
   viewBox="0 0 1052.3622 400"
   id="svg4239"
   version="1.1"
   inkscape:version="0.91 r13725"
   sodipodi:docname="logo.svg"
   inkscape:export-filename="/home/kinow/Pictures/logos/biojava/v4/logo.png"
   inkscape:export-xdpi="90"
   inkscape:export-ydpi="90">
  <defs
     id="defs4241" />
  <sodipodi:namedview
     id="base"
     pagecolor="#ffffff"
     bordercolor="#666666"
     borderopacity="1.0"
     inkscape:pageopacity="0.0"
     inkscape:pageshadow="2"
     inkscape:zoom="0.7"
     inkscape:cx="301.0842"
     inkscape:cy="303.81286"
     inkscape:document-units="px"
     inkscape:current-layer="layer1"
     showgrid="false"
     units="px"
     inkscape:window-width="1600"
     inkscape:window-height="851"
     inkscape:window-x="0"
     inkscape:window-y="25"
     inkscape:window-maximized="1" />
  <metadata
     id="metadata4244">
    <rdf:RDF>
      <cc:Work
         rdf:about="">
        <dc:format>image/svg+xml</dc:format>
        <dc:type
           rdf:resource="http://purl.org/dc/dcmitype/StillImage" />
        <dc:title></dc:title>
      </cc:Work>
    </rdf:RDF>
  </metadata>
  <g
     inkscape:label="Layer 1"
     inkscape:groupmode="layer"
     id="layer1"
     transform="translate(0,-652.3622)">
    <g
       id="g6819"
       transform="translate(630.29661,304.3187)">
      <path
         inkscape:connector-curvature="0"
         id="path5667"
         style="font-style:normal;font-variant:normal;font-weight:normal;font-stretch:normal;font-size:90px;line-height:125%;font-family:Ranchers;-inkscape-font-specification:Ranchers;letter-spacing:0px;word-spacing:0px;display:inline;fill:#241c1c;fill-opacity:1;stroke:none;stroke-width:1px;stroke-linecap:butt;stroke-linejoin:miter;stroke-opacity:1"
         d="m -386.76374,513.00708 8.22532,-10.47127 34.50951,10.47127 11.80069,134.02876 -11.69951,7.3254 -42.83601,0 z m 26.80009,-65.81129 c 4.66243,0 8.83918,0.80959 12.53026,2.42876 3.88536,1.45726 7.09077,3.40027 9.61625,5.82904 2.52548,2.42877 4.46816,5.18137 5.82803,8.2578 1.35987,2.91452 2.03981,5.74808 2.03981,8.50068 0,3.72411 -0.8742,7.20534 -2.62261,10.4437 -1.55414,3.07643 -3.78822,5.82903 -6.70223,8.2578 -2.71975,2.26685 -5.92517,4.1289 -9.61625,5.58616 -3.49682,1.29534 -7.28504,1.94301 -11.36466,1.94301 -5.05096,0 -9.51911,-0.64767 -13.40447,-1.94301 -3.88535,-1.45726 -7.1879,-3.23835 -9.90765,-5.34329 -2.52547,-2.26684 -4.46815,-4.85753 -5.82802,-7.77205 -1.16561,-2.91451 -1.74841,-5.90999 -1.74841,-8.98643 0,-3.07643 0.67993,-6.23383 2.03981,-9.47218 1.55414,-3.23836 3.59395,-6.15288 6.11943,-8.74356 2.71974,-2.7526 6.02229,-4.93849 9.90765,-6.55767 3.88535,-1.61917 8.25637,-2.42876 13.11306,-2.42876 z"
         sodipodi:nodetypes="cccccccscscscscscccsccss" />
      <path
         inkscape:connector-curvature="0"
         id="path5669"
         style="font-style:normal;font-variant:normal;font-weight:normal;font-stretch:normal;font-size:90px;line-height:125%;font-family:Ranchers;-inkscape-font-specification:Ranchers;letter-spacing:0px;word-spacing:0px;display:inline;fill:#241c1c;fill-opacity:1;stroke:none;stroke-width:1px;stroke-linecap:butt;stroke-linejoin:miter;stroke-opacity:1"
         d="m -269.1898,499.06472 c 23.70065,0 44.60851,12.91696 54.71043,25.87038 10.29619,12.95341 15.44428,31.57395 15.44428,55.86161 0,24.44957 -5.14809,43.15107 -15.44428,56.10448 -10.10192,12.7915 -27.0032,19.18725 -50.70385,19.18725 -23.89492,0 -40.99047,-6.39575 -51.28666,-19.18725 -10.10191,-12.95341 -15.15287,-31.65491 -15.15287,-56.10448 0,-24.28766 5.62333,-46.96316 15.72525,-59.91657 10.29619,-12.95342 22.81278,-21.81542 46.7077,-21.81542 z m 4.00658,99.94773 c 3.88535,0 7.28503,-0.64767 10.19905,-1.94301 3.10828,-1.29535 5.63376,-2.99548 7.57644,-5.10041 1.94267,-2.10493 3.39968,-4.45274 4.37102,-7.04342 0.97134,-2.7526 1.45701,-5.58616 1.45701,-8.50068 0,-2.91452 -0.48567,-5.74808 -1.45701,-8.50068 -0.97134,-2.7526 -2.42835,-5.18137 -4.37102,-7.2863 -1.94268,-2.10493 -4.46816,-3.80506 -7.57644,-5.10041 -2.91402,-1.29534 -6.3137,-1.94301 -10.19905,-1.94301 -7.96497,0 -13.98727,2.34781 -18.06689,7.04342 -3.88535,4.69562 -5.82803,9.95794 -5.82803,15.78698 0,2.91452 0.48567,5.74808 1.45701,8.50068 0.97134,2.59068 2.42834,4.93849 4.37102,7.04342 2.13694,2.10493 4.66242,3.80506 7.57644,5.10041 2.91401,1.29534 6.41083,1.94301 10.49045,1.94301 z"
         sodipodi:nodetypes="scscscscsscscssscscsccss" />
      <path
         inkscape:connector-curvature="0"
         id="path5671"
         style="font-style:normal;font-variant:normal;font-weight:normal;font-stretch:normal;font-size:90px;line-height:125%;font-family:Ranchers;-inkscape-font-specification:Ranchers;letter-spacing:0px;word-spacing:0px;display:inline;fill:#241c1c;fill-opacity:1;stroke:none;stroke-width:1px;stroke-linecap:butt;stroke-linejoin:miter;stroke-opacity:1"
         d="m -95.430479,551.37386 c 0,11.49615 -0.09713,21.0493 -0.291402,28.65943 0,7.61013 -0.09713,13.84397 -0.291401,18.7015 -0.194268,4.85753 -0.485669,8.66259 -0.874204,11.4152 -0.388536,2.7526 4.946604,4.7043 4.558069,6.80923 -2.525479,12.14383 -7.694453,18.60049 -17.796373,26.0487 -9.90765,7.44821 -30.86045,14.98875 -49.12161,14.98875 -4.66242,0 -10.39332,-0.32384 -17.19268,-0.97151 -6.6051,-0.48575 -13.11307,-1.45726 -19.5239,-2.91452 -0.38853,-5.5052 -0.67994,-11.09136 -0.8742,-16.75848 -0.19427,-5.82904 -0.29141,-11.57712 -0.29141,-17.24424 0,-5.82903 0.0971,-11.65807 0.29141,-17.48711 0.19426,-5.82904 0.48567,-11.65807 0.8742,-17.48711 5.4324,-4.39528 3.49426,-6.38285 9.47634,-12.09425 4.57277,3.39894 13.59589,17.19466 15.87559,17.19466 6.02229,0 10.87898,-0.80959 14.57007,-2.42877 3.88535,-1.78109 6.8965,-4.45274 9.03344,-8.01492 2.33122,-3.56219 3.88536,-8.17685 4.66243,-13.84397 0.77707,-5.66712 1.1656,-12.3867 1.1656,-20.15875 l 0,-47.60381 -40.5048,0 0,-41.53189 9.27932,-11.42699 76.975511,11.42699 z"
         sodipodi:nodetypes="scssccscccssccsccsscccccs" />
      <path
         inkscape:connector-curvature="0"
         id="path5673"
         style="font-style:normal;font-variant:normal;font-weight:normal;font-stretch:normal;font-size:90px;line-height:125%;font-family:Ranchers;-inkscape-font-specification:Ranchers;letter-spacing:0px;word-spacing:0px;display:inline;fill:#241c1c;fill-opacity:1;stroke:none;stroke-width:1px;stroke-linecap:butt;stroke-linejoin:miter;stroke-opacity:1"
         d="m 64.202474,656.28882 -39.921999,0 0,-11.90096 c -6.993635,4.69562 -14.3758051,8.33877 -22.1465105,10.92945 -7.7707054,2.42876 -15.3471435,3.64315 -22.7293135,3.64315 -8.742043,0 -16.80415,-1.7811 -24.18632,-5.34329 -7.38217,-3.56219 -13.793002,-8.50068 -19.232496,-14.81547 -5.245226,-6.47671 -9.42198,-14.1678 -12.530262,-23.07327 -3.108282,-8.90548 -4.662423,-18.62054 -4.662423,-29.14519 0,-11.0104 1.651274,-21.29218 4.953824,-30.84532 3.30255,-9.55315 9.996689,-24.22019 15.63045,-31.18266 5.828029,-7.12437 12.222672,-9.59362 19.993378,-13.47964 7.964973,-4.04795 14.691489,-2.69863 23.822068,-2.69863 7.9649732,0 15.5414109,1.45726 22.7293134,4.37178 7.1879026,2.7526 13.3073326,6.23383 18.3582916,10.44369 l 0.14311,-12.26308 5.751553,-12.27032 35.484375,12.38957 7.685066,135.60721 z m -89.751647,-87.67844 c 0,6.63862 2.136944,11.98191 6.410832,16.02985 4.468155,4.04794 10.1019166,6.07191 16.9012837,6.07191 7.3821701,0 13.5987343,-2.18589 18.6496933,-6.55766 5.245226,-4.37178 7.867839,-9.95794 7.867839,-16.75849 0,-3.07643 -0.679937,-5.99095 -2.03981,-8.74355 -1.165606,-2.75261 -2.914015,-5.10041 -5.245226,-7.04342 -2.331212,-2.10493 -5.050959,-3.72411 -8.1592411,-4.85754 -3.1082822,-1.13342 -6.4108319,-1.70013 -9.9076494,-1.70013 -6.9936348,0 -12.8216635,2.18589 -17.4840875,6.55767 -4.662423,4.37177 -6.993634,10.03889 -6.993634,17.00136 z"
         sodipodi:nodetypes="ccccsscsssccscccccccscscsccssss" />
      <path
         sodipodi:nodetypes="ccccccccccc"
         inkscape:connector-curvature="0"
         id="path5675"
         style="font-style:normal;font-variant:normal;font-weight:normal;font-stretch:normal;font-size:90px;line-height:125%;font-family:Ranchers;-inkscape-font-specification:Ranchers;letter-spacing:0px;word-spacing:0px;display:inline;fill:#241c1c;fill-opacity:1;stroke:none;stroke-width:1px;stroke-linecap:butt;stroke-linejoin:miter;stroke-opacity:1"
         d="m 201.53408,506.02092 -26.16982,140.52512 -13.16937,9.94366 -55.25195,-0.11604 -40.22606,-150.26007 10.273649,-7.47649 33.145171,7.47649 c 14.0956,51.56308 14.05018,51.39741 24.47772,87.43557 8.98679,-35.9059 9.01246,-35.75653 23.19779,-87.31961 l 10.85363,-7.57103 z" />
      <path
         d="m -513.29974,518.74631 c 2.78389,0.33147 5.07068,0.49719 6.86034,0.49719 l 5.66727,0 c 10.73795,0 19.28854,-1.65736 25.65174,-4.97211 6.36324,-3.31476 9.54486,-7.70683 9.54486,-13.17617 0,-4.97214 -2.78392,-8.78409 -8.35173,-11.43589 -5.36897,-2.65181 -13.323,-3.97773 -23.86212,-3.97773 -3.38048,0 -6.46267,0.1657 -9.24656,0.49722 -2.58508,0.1657 -4.67301,0.49717 -6.2638,0.99442 z m -46.82938,137.47944 c 0.1988,-7.62392 0.2982,-14.99925 0.2982,-22.12598 0.1988,-7.29247 0.2982,-14.4192 0.2982,-21.38018 0.1988,-7.12672 0.2982,-14.25342 0.2982,-21.38015 l 0,-22.126 c 0,-21.71163 -0.42645,-42.70145 -0.82421,-62.58999 -0.1988,-19.88855 -0.69593,-37.62248 -1.49139,-53.20182 3.92417,-5.68957 4.09856,-5.53653 8.6724,-11.9091 8.03821,-0.22696 19.45548,9.43608 25.62937,9.17442 11.73221,-0.66295 22.27133,-0.99442 31.61732,-0.99442 55.28054,0 83.14845,13.53163 83.14845,40.21539 0,10.44148 -10.6289,15.64304 -17.98636,23.10124 -7.15863,7.29247 -39.18932,8.01911 -51.12036,9.67647 19.28854,2.98328 62.84292,16.69501 71.79121,26.14207 8.94829,9.28131 11.80354,34.60128 11.80354,51.67229 0,24.03196 -7.32939,29.70493 -25.22597,41.30658 -17.89659,11.4359 -45.73572,17.15386 -83.51738,17.15386 -7.35746,0 -15.60979,-0.24854 -24.75695,-0.74582 -8.94825,-0.33147 -18.49311,-0.99444 -28.63449,-1.98886 z m 46.82938,-66.87517 c 1.98849,0.49722 4.97128,0.91157 8.94829,1.24304 3.97702,0.33147 7.8546,0.49719 11.63278,0.49719 12.52761,0 21.97303,-1.65736 28.33623,-4.97211 6.56207,-3.31475 9.84312,-8.0383 9.84312,-14.17058 0,-6.29803 -3.47988,-11.10445 -10.43965,-14.4192 -6.76093,-3.31476 -16.20635,-4.97212 -28.33626,-4.97212 -2.58506,0 -5.46841,0.0829 -8.65003,0.24854 -2.98275,0.1657 -6.76093,0.4143 -11.33448,0.74582 l 0,35.79936 z"
         style="font-style:normal;font-variant:normal;font-weight:normal;font-stretch:normal;font-size:90px;line-height:125%;font-family:Ranchers;-inkscape-font-specification:Ranchers;letter-spacing:0px;word-spacing:0px;display:inline;fill:#241c1c;fill-opacity:1;stroke:none;stroke-width:1px;stroke-linecap:butt;stroke-linejoin:miter;stroke-opacity:1"
         id="path5677"
         inkscape:connector-curvature="0"
         sodipodi:nodetypes="csssscsccccccssccccsscccscsccccsscscscccc" />
      <path
         sodipodi:nodetypes="ccccsscsssccscccccccscscsccssss"
         d="m 342.83222,656.28882 -39.922,0 0,-11.90096 c -6.99363,4.69562 -14.3758,8.33877 -22.14651,10.92945 -7.7707,2.42876 -15.34714,3.64315 -22.72931,3.64315 -8.74205,0 -16.80415,-1.7811 -24.18632,-5.34329 -7.38217,-3.56219 -13.793,-8.50068 -19.2325,-14.81547 -5.24522,-6.47671 -9.42198,-14.1678 -12.53026,-23.07327 -3.10828,-8.90548 -4.66242,-18.62054 -4.66242,-29.14519 0,-11.0104 1.65127,-21.29218 4.95382,-30.84532 3.30255,-9.55315 9.99669,-24.22019 15.63045,-31.18266 5.82803,-7.12437 12.22267,-9.59362 19.99338,-13.47964 7.96497,-4.04795 14.69149,-2.69863 23.82207,-2.69863 7.96497,0 15.54141,1.45726 22.72931,4.37178 7.1879,2.7526 13.30733,6.23383 18.35829,10.44369 l 0.14311,-12.26308 5.75155,-12.27032 35.48438,12.38957 7.68507,135.60721 z m -89.75165,-87.67844 c 0,6.63862 2.13695,11.98191 6.41083,16.02985 4.46816,4.04794 10.10192,6.07191 16.90129,6.07191 7.38217,0 13.59873,-2.18589 18.64969,-6.55766 5.24523,-4.37178 7.86784,-9.95794 7.86784,-16.75849 0,-3.07643 -0.67994,-5.99095 -2.03981,-8.74355 -1.1656,-2.75261 -2.91401,-5.10041 -5.24523,-7.04342 -2.33121,-2.10493 -5.05095,-3.72411 -8.15924,-4.85754 -3.10828,-1.13342 -6.41083,-1.70013 -9.90765,-1.70013 -6.99363,0 -12.82166,2.18589 -17.48408,6.55767 -4.66243,4.37177 -6.99364,10.03889 -6.99364,17.00136 z"
         style="font-style:normal;font-variant:normal;font-weight:normal;font-stretch:normal;font-size:90px;line-height:125%;font-family:Ranchers;-inkscape-font-specification:Ranchers;letter-spacing:0px;word-spacing:0px;display:inline;fill:#241c1c;fill-opacity:1;stroke:none;stroke-width:1px;stroke-linecap:butt;stroke-linejoin:miter;stroke-opacity:1"
         id="path5679"
         inkscape:connector-curvature="0" />
      <path
         d="m -376.91408,503.87389 42.83601,0 0,141.35416 -42.83601,0 z m 22.43791,-60.23338 c 4.66242,0 8.83918,0.80958 12.53026,2.42876 3.88536,1.45726 7.09077,3.40027 9.61625,5.82904 2.52548,2.42876 4.46816,5.18137 5.82803,8.2578 1.35987,2.91452 2.03981,5.74808 2.03981,8.50068 0,3.72411 -0.8742,7.20534 -2.62261,10.44369 -1.55414,3.07644 -3.78822,5.82904 -6.70224,8.25781 -2.71974,2.26685 -5.92516,4.1289 -9.61624,5.58616 -3.49682,1.29534 -7.28504,1.94301 -11.36466,1.94301 -5.05096,0 -9.51912,-0.64767 -13.40447,-1.94301 -3.88535,-1.45726 -7.1879,-3.23836 -9.90765,-5.34329 -2.52548,-2.26684 -4.46815,-4.85753 -5.82803,-7.77205 -1.1656,-2.91452 -1.74841,-5.90999 -1.74841,-8.98643 0,-3.07644 0.67994,-6.23383 2.03981,-9.47219 1.55415,-3.23835 3.59396,-6.15287 6.11944,-8.74355 2.71974,-2.7526 6.02229,-4.93849 9.90764,-6.55767 3.88536,-1.61918 8.25638,-2.42876 13.11307,-2.42876 z"
         style="font-style:normal;font-variant:normal;font-weight:normal;font-stretch:normal;font-size:90px;line-height:125%;font-family:Ranchers;-inkscape-font-specification:Ranchers;letter-spacing:0px;word-spacing:0px;display:inline;opacity:1;fill:#ffdd55;fill-opacity:1;stroke:#241c1c;stroke-width:2.95594358px;stroke-linecap:butt;stroke-linejoin:miter;stroke-opacity:1"
         id="path5683"
         inkscape:connector-curvature="0"
         sodipodi:nodetypes="cccccscscscscscccsccss" />
      <path
         d="m -256.50153,497.31623 q 35.55098,0 50.70385,19.43012 15.44428,19.43013 15.44428,55.86161 0,36.67436 -15.44428,56.10449 -15.15287,19.18725 -50.70385,19.18725 -35.84238,0 -51.28666,-19.18725 -15.15287,-19.43013 -15.15287,-56.10449 0,-36.43148 15.15287,-55.86161 15.44428,-19.43012 51.28666,-19.43012 z m 0,93.50747 q 5.82803,0 10.19905,-1.94301 4.66242,-1.94301 7.57644,-5.10041 2.91401,-3.15739 4.37102,-7.04342 1.45701,-4.1289 1.45701,-8.50068 0,-4.37177 -1.45701,-8.50068 -1.45701,-4.1289 -4.37102,-7.28629 -2.91402,-3.1574 -7.57644,-5.10041 -4.37102,-1.94301 -10.19905,-1.94301 -11.94746,0 -18.06689,7.04342 -5.82803,7.04342 -5.82803,15.78697 0,4.37178 1.45701,8.50068 1.45701,3.88603 4.37102,7.04342 3.20542,3.1574 7.57644,5.10041 4.37102,1.94301 10.49045,1.94301 z"
         style="font-style:normal;font-variant:normal;font-weight:normal;font-stretch:normal;font-size:90px;line-height:125%;font-family:Ranchers;-inkscape-font-specification:Ranchers;letter-spacing:0px;word-spacing:0px;display:inline;opacity:1;fill:#ffdd55;fill-opacity:1;stroke:#241c1c;stroke-width:2.95594358px;stroke-linecap:butt;stroke-linejoin:miter;stroke-opacity:1"
         id="path5685"
         inkscape:connector-curvature="0" />
      <path
         d="m -84.424441,541.27688 q 0,17.24424 -0.291401,28.65944 0,11.4152 -0.291401,18.70149 -0.291402,7.2863 -0.874205,11.4152 -0.582803,4.1289 -1.165606,7.2863 -3.788218,18.21574 -18.941096,29.38806 -14.86147,11.17233 -42.25321,11.17233 -6.99363,0 -17.19268,-0.97151 -9.90765,-0.72863 -19.5239,-2.91452 -0.5828,-8.2578 -0.87421,-16.75848 -0.2914,-8.74356 -0.2914,-17.24424 0,-8.74355 0.2914,-17.48711 0.29141,-8.74356 0.87421,-17.48711 7.28504,2.67164 13.11306,3.88602 5.82803,1.21438 12.23887,1.21438 9.03344,0 14.57007,-2.42876 5.82803,-2.67164 9.03344,-8.01493 3.49682,-5.34328 4.66243,-13.84396 1.1656,-8.50068 1.1656,-20.15876 l 0,-47.6038 -40.5048,0 0,-41.5319 86.254829,0 0,94.72186 z"
         style="font-style:normal;font-variant:normal;font-weight:normal;font-stretch:normal;font-size:90px;line-height:125%;font-family:Ranchers;-inkscape-font-specification:Ranchers;letter-spacing:0px;word-spacing:0px;display:inline;opacity:1;fill:#ffdd55;fill-opacity:1;stroke:#241c1c;stroke-width:2.95594358px;stroke-linecap:butt;stroke-linejoin:miter;stroke-opacity:1"
         id="path5687"
         inkscape:connector-curvature="0" />
      <path
         d="m 71.739443,645.22805 -39.921999,0 0,-11.90095 q -10.490452,7.04342 -22.1465105,10.92945 -11.656058,3.64315 -22.7293135,3.64315 -13.113065,0 -24.18632,-5.34329 -11.073255,-5.34328 -19.232496,-14.81547 -7.867839,-9.71506 -12.530262,-23.07327 -4.662423,-13.35821 -4.662423,-29.14519 0,-16.51561 4.953824,-30.84532 4.953825,-14.32972 13.404467,-24.77341 8.742043,-10.68657 20.398102,-16.51561 11.947459,-6.07191 25.6433272,-6.07191 11.9474595,0 22.7293128,4.37177 10.781854,4.12891 18.358292,10.4437 l 0,-12.14383 41.379006,0 -1.457007,145.24018 z m -89.751647,-87.67844 q 0,9.95794 6.410832,16.02986 6.702233,6.07191 16.9012838,6.07191 11.0732552,0 18.6496932,-6.55767 7.867839,-6.55766 7.867839,-16.75848 0,-4.61465 -2.03981,-8.74355 -1.748409,-4.12891 -5.245226,-7.04343 -3.496818,-3.15739 -8.159241,-4.85753 -4.662423,-1.70013 -9.9076494,-1.70013 -10.4904523,0 -17.4840866,6.55766 -6.993635,6.55767 -6.993635,17.00136 z"
         style="font-style:normal;font-variant:normal;font-weight:normal;font-stretch:normal;font-size:90px;line-height:125%;font-family:Ranchers;-inkscape-font-specification:Ranchers;letter-spacing:0px;word-spacing:0px;display:inline;opacity:1;fill:#ffdd55;fill-opacity:1;stroke:#241c1c;stroke-width:2.95594358px;stroke-linecap:butt;stroke-linejoin:miter;stroke-opacity:1"
         id="path5689"
         inkscape:connector-curvature="0" />
      <path
         d="m 213.39241,499.98787 -39.3392,145.24018 -55.07487,0 -39.922001,-145.24018 43.418811,0 c 14.09561,51.56307 14.05018,51.3974 24.47773,87.43556 8.98679,-35.9059 8.83539,-35.87249 23.02071,-87.43556 z"
         style="font-style:normal;font-variant:normal;font-weight:normal;font-stretch:normal;font-size:90px;line-height:125%;font-family:Ranchers;-inkscape-font-specification:Ranchers;letter-spacing:0px;word-spacing:0px;display:inline;opacity:1;fill:#ffdd55;fill-opacity:1;stroke:#241c1c;stroke-width:2.95594358px;stroke-linecap:butt;stroke-linejoin:miter;stroke-opacity:1"
         id="path5691"
         inkscape:connector-curvature="0"
         sodipodi:nodetypes="cccccccc" />
      <path
         style="font-style:normal;font-variant:normal;font-weight:normal;font-stretch:normal;font-size:90px;line-height:125%;font-family:Ranchers;-inkscape-font-specification:Ranchers;letter-spacing:0px;word-spacing:0px;display:inline;opacity:1;fill:#ffdd55;fill-opacity:1;stroke:#241c1c;stroke-width:2.95594358px;stroke-linecap:butt;stroke-linejoin:miter;stroke-opacity:1"
         d="m -485.68281,438.60451 c -9.34603,0 -19.88689,0.32794 -31.6191,0.99089 -11.73218,0.49722 -22.76001,1.74695 -33.89566,3.07284 0.79547,15.57935 0.88891,32.97719 1.08771,52.86573 0.3977,19.88852 0.59442,40.68887 0.59442,62.4005 l 0,22.12664 c 0,7.12673 -0.0984,14.25149 -0.29722,21.37822 0,6.96097 -0.0984,14.09099 -0.29723,21.38347 0,7.1267 -0.0984,14.49744 -0.29723,22.12136 10.14138,0.99444 19.68598,1.66087 28.63424,1.99234 9.14715,0.49722 17.40026,0.74318 24.75776,0.74318 0.54641,0 1.07031,-0.0135 1.61255,-0.0162 0.29496,8.1e-4 0.63755,0.0162 0.9296,0.0162 36.91085,0 64.11211,-5.58341 81.59619,-16.75573 17.48409,-11.33424 26.22487,-28.73934 26.22487,-52.21741 0,-0.23154 -0.0227,-0.44468 -0.0259,-0.67466 0.003,-0.32103 0.0259,-0.63072 0.0259,-0.95399 0,-17.07101 -4.47716,-30.24941 -13.42545,-39.5307 -7.61564,-8.0401 -19.01171,-13.71373 -34.11699,-17.07198 8.46159,-2.18953 15.48236,-6.07537 21.02038,-11.71691 7.1879,-7.28629 10.78208,-16.03174 10.78208,-26.23255 0,-1.83143 -0.14441,-3.59436 -0.41104,-5.29712 -0.96441,-25.74434 -28.58124,-38.62412 -82.87992,-38.62412 z m -0.0444,39.79422 c 10.29618,0 18.06436,1.29386 23.30959,3.88454 2.81915,1.34268 4.89619,2.9924 6.25425,4.94397 0.18488,0.8291 0.30986,1.68179 0.30986,2.58796 0,5.46934 -3.17942,9.86214 -9.54265,13.17689 -6.36321,3.31475 -14.91778,4.97033 -25.65573,4.97033 l -5.66614,0 c -1.15648,0 -2.59574,-0.0934 -4.1674,-0.23181 l 0,-27.87705 c 1.55414,-0.48575 3.59599,-0.80789 6.12147,-0.9698 2.71975,-0.32384 5.73417,-0.48492 9.03672,-0.48492 z m 4.36976,65.33105 c 11.85032,0 21.07425,1.62128 27.67935,4.85963 3.25424,1.54991 5.70845,3.44329 7.40519,5.66081 0.967,1.93308 1.45448,4.07223 1.45448,6.41979 0,6.13228 -3.27778,10.85302 -9.83985,14.1678 -6.36324,3.31473 -15.80944,4.9756 -28.33704,4.9756 -3.77818,0 -7.65881,-0.16921 -11.63582,-0.50073 -2.54116,-0.21185 -4.52495,-0.469 -6.25426,-0.74844 l 0,-33.86463 c 4.46816,-0.32384 8.15902,-0.56544 11.073,-0.72736 3.10831,-0.16192 5.92947,-0.24234 8.45495,-0.24234 z"
         id="path5737"
         inkscape:connector-curvature="0"
         sodipodi:nodetypes="ccccssccccscscscscccsccccccssssccccccccscssccccc" />
      <path
         inkscape:connector-curvature="0"
         id="path5739"
         style="font-style:normal;font-variant:normal;font-weight:normal;font-stretch:normal;font-size:90px;line-height:125%;font-family:Ranchers;-inkscape-font-specification:Ranchers;letter-spacing:0px;word-spacing:0px;display:inline;opacity:1;fill:#ffdd55;fill-opacity:1;stroke:#241c1c;stroke-width:2.95594358px;stroke-linecap:butt;stroke-linejoin:miter;stroke-opacity:1"
         d="m 350.36919,645.22805 -39.922,0 0,-11.90095 q -10.49045,7.04342 -22.14651,10.92945 -11.65606,3.64315 -22.72931,3.64315 -13.11307,0 -24.18632,-5.34329 -11.07326,-5.34328 -19.2325,-14.81547 -7.86784,-9.71506 -12.53026,-23.07327 -4.66243,-13.35821 -4.66243,-29.14519 0,-16.51561 4.95383,-30.84532 4.95382,-14.32972 13.40447,-24.77341 8.74204,-10.68657 20.3981,-16.51561 11.94746,-6.07191 25.64333,-6.07191 11.94746,0 22.72931,4.37177 10.78185,4.12891 18.35829,10.4437 l 0,-12.14383 41.37901,0 -1.45701,145.24018 z m -89.75165,-87.67844 q 0,9.95794 6.41083,16.02986 6.70224,6.07191 16.90129,6.07191 11.07325,0 18.64969,-6.55767 7.86784,-6.55766 7.86784,-16.75848 0,-4.61465 -2.03981,-8.74355 -1.74841,-4.12891 -5.24523,-7.04343 -3.49681,-3.15739 -8.15924,-4.85753 -4.66242,-1.70013 -9.90765,-1.70013 -10.49045,0 -17.48408,6.55766 -6.99364,6.55767 -6.99364,17.00136 z" />
      <g
         style="display:inline;stroke:none"
         id="g5745"
         transform="matrix(3.2377939,0,0,2.6986285,-945.04984,-769.10835)">
        <path
           style="fill:#ff5555;fill-rule:evenodd;stroke:none;stroke-width:0.1;stroke-linecap:butt;stroke-linejoin:miter;stroke-miterlimit:4;stroke-dasharray:none;stroke-opacity:1"
           d="m 150.79382,510.83798 c -0.58121,0.90216 -2.56724,1.28436 -4.24376,1.31186 -1.37916,0.0226 -2.9837,-0.34622 -4.68087,-0.8182 -2.15369,-0.59889 -3.91664,-1.61855 -5.28978,-2.34465 -0.6015,-0.31807 -1.15696,-0.84152 -1.52475,-1.33362 -0.40833,-0.54636 -0.60372,-1.0456 -0.47367,-1.49617 0.45177,-1.56521 1.778,-2.37995 8.92463,-0.49366 4.53605,1.19726 7.96874,4.1181 7.2882,5.17444 z"
           id="path5747"
           inkscape:connector-curvature="0"
           sodipodi:nodetypes="ssssssss" />
        <g
           style="stroke:none"
           id="g5749">
          <path
             style="fill:none;fill-rule:evenodd;stroke:none;stroke-width:0.1;stroke-linecap:butt;stroke-linejoin:miter;stroke-miterlimit:4;stroke-dasharray:none;stroke-opacity:1"
             d="m 150.37102,510.68328 c -0.55097,0.85521 -2.43364,1.21753 -4.02291,1.24359 -1.30739,0.0214 -2.82842,-0.3282 -4.43727,-0.77562 -2.04159,-0.56777 -3.71281,-1.53431 -5.01449,-2.22263 -0.5702,-0.30151 -1.09675,-0.79773 -1.4454,-1.26421 -0.38708,-0.51793 -0.5723,-0.99118 -0.44902,-1.41832 0.42826,-1.48375 1.68547,-2.25608 8.46018,-0.46795 4.29998,1.13494 7.55404,3.90378 6.90891,4.90514 z"
             id="path5751"
             inkscape:connector-curvature="0"
             sodipodi:nodetypes="ssssssss" />
          <path
             sodipodi:nodetypes="ssssssssssssssssssssssssssssssssssssssssss"
             inkscape:connector-curvature="0"
             id="path5753"
             d="m 136.74195,506.71071 c -0.0375,0.3661 -0.0737,0.80251 0.13043,1.08165 0.12869,0.17602 0.38827,0.32597 0.58706,0.2334 0.23557,-0.10969 0.10649,-0.62517 0.33372,-0.75591 0.33818,-0.19463 0.89261,-0.12169 1.09443,0.20945 0.2595,0.42576 -0.48735,1.08662 -0.29507,1.55537 0.16086,0.39214 0.63718,0.71481 1.03417,0.61818 0.54184,-0.1319 0.50315,-1.44245 1.05192,-1.44341 0.31807,-6e-4 0.45307,0.50245 0.52899,0.83452 0.0878,0.38394 -0.31734,0.87853 -0.11612,1.20223 0.18007,0.28967 0.64511,0.44568 0.94167,0.27187 0.33615,-0.19701 0.0818,-0.92301 0.394,-1.16462 0.24198,-0.18731 0.65361,-0.20473 0.86766,-0.005 0.32684,0.3047 -0.10293,1.07199 0.18739,1.4177 0.27774,0.33072 0.84102,0.53721 1.21955,0.30942 0.39566,-0.23807 0.0757,-1.14396 0.47423,-1.37582 0.22977,-0.13369 0.55198,0.0206 0.72846,0.21031 0.22088,0.23746 0.0186,0.76808 0.25333,0.98931 0.25819,0.24331 0.71079,0.31548 1.03472,0.14959 0.52668,-0.26974 1.06806,-0.99374 0.96161,-1.59733 -0.0569,-0.32258 -0.46304,-0.62728 -0.75557,-0.51642 -0.13176,0.0499 -0.0309,0.36498 -0.16046,0.42241 -0.22652,0.10046 -0.5044,-0.12127 -0.63541,-0.33259 -0.20841,-0.33625 0.13006,-0.90796 -0.085,-1.23899 -0.30036,-0.46231 -0.93153,-0.87144 -1.44208,-0.67202 -0.40834,0.15951 -0.24607,1.05746 -0.64693,1.24075 -0.19277,0.0881 -0.45424,-0.0204 -0.58064,-0.18898 -0.29157,-0.38873 0.16164,-1.14701 -0.13556,-1.53057 -0.25756,-0.33238 -0.79116,-0.52557 -1.17264,-0.33855 -0.44208,0.21676 -0.24052,1.2101 -0.69235,1.39808 -0.19638,0.0817 -0.42668,-0.0876 -0.56361,-0.24796 -0.27772,-0.32528 -0.0546,-1.01422 -0.38063,-1.28174 -0.18304,-0.15016 -0.50629,-0.18489 -0.70281,-0.0325 -0.26998,0.20946 -0.0106,0.8391 -0.29525,1.02267 -0.15339,0.0989 -0.38712,0.0105 -0.50317,-0.12393 -0.27417,-0.31775 0.10717,-1.03185 -0.19802,-1.31423 -0.33772,-0.31249 -0.97734,-0.29539 -1.36368,-0.0102 -0.31232,0.23051 -0.11121,0.90472 -0.42387,1.13469 -0.0653,0.0481 -0.17795,0.0557 -0.23025,-0.003 -0.17253,-0.19221 0.23307,-0.71391 0.008,-0.82856 -0.1102,-0.0562 -0.22852,0.14117 -0.30406,0.25311 -0.087,0.12885 -0.13245,0.2915 -0.14837,0.44722 z"
             style="fill:none;fill-rule:evenodd;stroke:none;stroke-width:0.2;stroke-linecap:butt;stroke-linejoin:miter;stroke-miterlimit:4;stroke-dasharray:none;stroke-opacity:1" />
        </g>
      </g>
      <g
         style="display:inline;stroke:none"
         id="g5755"
         transform="matrix(2.5148374,-0.45901663,0.37090023,1.9353107,-1014.9069,-336.92346)">
        <path
           sodipodi:nodetypes="ssssssss"
           inkscape:connector-curvature="0"
           id="path5757"
           d="m 155.0625,479.50073 c -0.30817,1.02798 -2.11025,1.94607 -3.71336,2.43752 -1.31877,0.40428 -2.96265,0.49498 -4.72414,0.51228 -2.2353,0.022 -4.21191,-0.46864 -5.73257,-0.78537 -0.66613,-0.13874 -1.34499,-0.48758 -1.83484,-0.85835 -0.54386,-0.41166 -0.87006,-0.83711 -0.87009,-1.30608 -1.2e-4,-1.6291 1.04808,-2.77974 8.4375,-2.94979 4.69015,-0.10793 8.79833,1.74614 8.4375,2.94979 z"
           style="fill:#ff5555;fill-rule:evenodd;stroke:none;stroke-width:1px;stroke-linecap:butt;stroke-linejoin:miter;stroke-opacity:1" />
        <path
           style="fill:none;fill-rule:evenodd;stroke:none;stroke-width:0.09479585;stroke-linecap:butt;stroke-linejoin:miter;stroke-miterlimit:4;stroke-dasharray:none;stroke-opacity:1"
           d="m 154.61338,479.46938 c -0.29214,0.97448 -2.00043,1.8448 -3.52011,2.31067 -1.25014,0.38324 -2.80847,0.46922 -4.47829,0.48562 -2.11897,0.0208 -3.99271,-0.44425 -5.43424,-0.7445 -0.63146,-0.13152 -1.27499,-0.46221 -1.73935,-0.81368 -0.51555,-0.39024 -0.82478,-0.79354 -0.82481,-1.23811 -1.1e-4,-1.54432 0.99354,-2.63507 7.9984,-2.79627 4.44606,-0.10232 8.34046,1.65526 7.9984,2.79627 z"
           id="path5759"
           inkscape:connector-curvature="0"
           sodipodi:nodetypes="ssssssss" />
        <path
           sodipodi:nodetypes="ssssssssssssssssssssssssssssssssssssssssss"
           inkscape:connector-curvature="0"
           id="path5761"
           d="m 140.4172,479.43312 c 0.0655,0.36214 0.15184,0.79145 0.42534,1.00303 0.17246,0.13341 0.46345,0.20548 0.62876,0.0614 0.1959,-0.17073 -0.0711,-0.63018 0.11095,-0.81882 0.27092,-0.28079 0.82383,-0.3645 1.10958,-0.10234 0.36742,0.33708 -0.16682,1.17917 0.14794,1.57619 0.26332,0.33213 0.81045,0.51002 1.16506,0.30706 0.48399,-0.27702 0.0833,-1.52541 0.61027,-1.67855 0.30542,-0.0888 0.57466,0.35706 0.73971,0.65504 0.19085,0.34452 -0.0612,0.93208 0.22191,1.18727 0.25335,0.22835 0.74342,0.24925 0.98013,0 0.26832,-0.28252 -0.17739,-0.90949 0.0555,-1.22821 0.18053,-0.24708 0.57118,-0.37799 0.83218,-0.24564 0.39853,0.20209 0.19846,1.05848 0.57328,1.31009 0.35857,0.24071 0.95703,0.28285 1.25752,-0.041 0.3141,-0.33847 -0.24458,-1.12006 0.074,-1.45337 0.18367,-0.19218 0.53602,-0.13334 0.75821,0 0.27808,0.16687 0.2309,0.73278 0.5178,0.88022 0.31555,0.16214 0.77041,0.10594 1.03561,-0.14329 0.43119,-0.40525 0.75051,-1.25101 0.48081,-1.80138 -0.14414,-0.29414 -0.61886,-0.47423 -0.86916,-0.28658 -0.11275,0.0845 0.0715,0.35924 -0.037,0.45034 -0.18977,0.15935 -0.51824,0.0234 -0.70273,-0.14329 -0.2935,-0.26524 -0.12689,-0.90841 -0.42534,-1.16679 -0.41681,-0.36086 -1.1367,-0.57886 -1.5719,-0.24565 -0.34807,0.26652 0.0569,1.08422 -0.27739,1.37151 -0.16076,0.13814 -0.44208,0.10637 -0.61027,-0.0205 -0.38796,-0.2926 -0.16286,-1.14684 -0.55479,-1.43291 -0.33965,-0.2479 -0.9059,-0.2855 -1.22053,0 -0.36461,0.33088 0.10457,1.22933 -0.27739,1.53526 -0.16601,0.13296 -0.43423,0.0342 -0.61027,-0.0819 -0.35705,-0.23548 -0.33381,-0.95927 -0.72122,-1.12586 -0.21751,-0.0935 -0.53771,-0.0372 -0.68424,0.16376 -0.20129,0.27613 0.22258,0.80911 0,1.06444 -0.11993,0.13758 -0.369,0.1175 -0.5178,0.0205 -0.35155,-0.22923 -0.18325,-1.02109 -0.55479,-1.20774 -0.41115,-0.20655 -1.02092,-0.0127 -1.313,0.36846 -0.23612,0.3081 0.14411,0.90007 -0.0925,1.20774 -0.0494,0.0643 -0.15551,0.10289 -0.22192,0.0614 -0.21908,-0.13681 0.0259,-0.75055 -0.22191,-0.79834 -0.12146,-0.0234 -0.1804,0.19902 -0.22192,0.32752 -0.0478,0.14791 -0.0464,0.3168 -0.0185,0.47083 z"
           style="fill:none;fill-rule:evenodd;stroke:none;stroke-width:0.18799999;stroke-linecap:butt;stroke-linejoin:miter;stroke-miterlimit:4;stroke-dasharray:none;stroke-opacity:1" />
      </g>
      <g
         style="display:inline;stroke:none"
         transform="matrix(2.1051018,0,0,1.7545551,-453.62396,-279.87572)"
         id="g5763">
        <path
           sodipodi:nodetypes="ssssssss"
           inkscape:connector-curvature="0"
           id="path5765"
           d="m 150.79382,510.83798 c -0.58121,0.90216 -2.56724,1.28436 -4.24376,1.31186 -1.37916,0.0226 -2.9837,-0.34622 -4.68087,-0.8182 -2.15369,-0.59889 -3.91664,-1.61855 -5.28978,-2.34465 -0.6015,-0.31807 -1.15696,-0.84152 -1.52475,-1.33362 -0.40833,-0.54636 -0.60372,-1.0456 -0.47367,-1.49617 0.45177,-1.56521 1.778,-2.37995 8.92463,-0.49366 4.53605,1.19726 7.96874,4.1181 7.2882,5.17444 z"
           style="fill:#ff5555;fill-rule:evenodd;stroke:none;stroke-width:0.1;stroke-linecap:butt;stroke-linejoin:miter;stroke-miterlimit:4;stroke-dasharray:none;stroke-opacity:1" />
        <g
           style="stroke:none"
           id="g5767">
          <path
             sodipodi:nodetypes="ssssssss"
             inkscape:connector-curvature="0"
             id="path5769"
             d="m 150.37102,510.68328 c -0.55097,0.85521 -2.43364,1.21753 -4.02291,1.24359 -1.30739,0.0214 -2.82842,-0.3282 -4.43727,-0.77562 -2.04159,-0.56777 -3.71281,-1.53431 -5.01449,-2.22263 -0.5702,-0.30151 -1.09675,-0.79773 -1.4454,-1.26421 -0.38708,-0.51793 -0.5723,-0.99118 -0.44902,-1.41832 0.42826,-1.48375 1.68547,-2.25608 8.46018,-0.46795 4.29998,1.13494 7.55404,3.90378 6.90891,4.90514 z"
             style="fill:none;fill-rule:evenodd;stroke:none;stroke-width:0.1;stroke-linecap:butt;stroke-linejoin:miter;stroke-miterlimit:4;stroke-dasharray:none;stroke-opacity:1" />
          <path
             style="fill:none;fill-rule:evenodd;stroke:none;stroke-width:0.2;stroke-linecap:butt;stroke-linejoin:miter;stroke-miterlimit:4;stroke-dasharray:none;stroke-opacity:1"
             d="m 136.74195,506.71071 c -0.0375,0.3661 -0.0737,0.80251 0.13043,1.08165 0.12869,0.17602 0.38827,0.32597 0.58706,0.2334 0.23557,-0.10969 0.10649,-0.62517 0.33372,-0.75591 0.33818,-0.19463 0.89261,-0.12169 1.09443,0.20945 0.2595,0.42576 -0.48735,1.08662 -0.29507,1.55537 0.16086,0.39214 0.63718,0.71481 1.03417,0.61818 0.54184,-0.1319 0.50315,-1.44245 1.05192,-1.44341 0.31807,-6e-4 0.45307,0.50245 0.52899,0.83452 0.0878,0.38394 -0.31734,0.87853 -0.11612,1.20223 0.18007,0.28967 0.64511,0.44568 0.94167,0.27187 0.33615,-0.19701 0.0818,-0.92301 0.394,-1.16462 0.24198,-0.18731 0.65361,-0.20473 0.86766,-0.005 0.32684,0.3047 -0.10293,1.07199 0.18739,1.4177 0.27774,0.33072 0.84102,0.53721 1.21955,0.30942 0.39566,-0.23807 0.0757,-1.14396 0.47423,-1.37582 0.22977,-0.13369 0.55198,0.0206 0.72846,0.21031 0.22088,0.23746 0.0186,0.76808 0.25333,0.98931 0.25819,0.24331 0.71079,0.31548 1.03472,0.14959 0.52668,-0.26974 1.06806,-0.99374 0.96161,-1.59733 -0.0569,-0.32258 -0.46304,-0.62728 -0.75557,-0.51642 -0.13176,0.0499 -0.0309,0.36498 -0.16046,0.42241 -0.22652,0.10046 -0.5044,-0.12127 -0.63541,-0.33259 -0.20841,-0.33625 0.13006,-0.90796 -0.085,-1.23899 -0.30036,-0.46231 -0.93153,-0.87144 -1.44208,-0.67202 -0.40834,0.15951 -0.24607,1.05746 -0.64693,1.24075 -0.19277,0.0881 -0.45424,-0.0204 -0.58064,-0.18898 -0.29157,-0.38873 0.16164,-1.14701 -0.13556,-1.53057 -0.25756,-0.33238 -0.79116,-0.52557 -1.17264,-0.33855 -0.44208,0.21676 -0.24052,1.2101 -0.69235,1.39808 -0.19638,0.0817 -0.42668,-0.0876 -0.56361,-0.24796 -0.27772,-0.32528 -0.0546,-1.01422 -0.38063,-1.28174 -0.18304,-0.15016 -0.50629,-0.18489 -0.70281,-0.0325 -0.26998,0.20946 -0.0106,0.8391 -0.29525,1.02267 -0.15339,0.0989 -0.38712,0.0105 -0.50317,-0.12393 -0.27417,-0.31775 0.10717,-1.03185 -0.19802,-1.31423 -0.33772,-0.31249 -0.97734,-0.29539 -1.36368,-0.0102 -0.31232,0.23051 -0.11121,0.90472 -0.42387,1.13469 -0.0653,0.0481 -0.17795,0.0557 -0.23025,-0.003 -0.17253,-0.19221 0.23307,-0.71391 0.008,-0.82856 -0.1102,-0.0562 -0.22852,0.14117 -0.30406,0.25311 -0.087,0.12885 -0.13245,0.2915 -0.14837,0.44722 z"
             id="path5771"
             inkscape:connector-curvature="0"
             sodipodi:nodetypes="ssssssssssssssssssssssssssssssssssssssssss" />
        </g>
      </g>
      <g
         style="display:inline;stroke:none"
         transform="matrix(1.8421247,0.84917835,-1.0188377,1.5353696,108.71136,-434.66166)"
         id="g5773">
        <path
           sodipodi:nodetypes="ssssssss"
           inkscape:connector-curvature="0"
           id="path5775"
           d="m 150.79382,510.83798 c -0.58121,0.90216 -2.56724,1.28436 -4.24376,1.31186 -1.37916,0.0226 -2.9837,-0.34622 -4.68087,-0.8182 -2.15369,-0.59889 -3.91664,-1.61855 -5.28978,-2.34465 -0.6015,-0.31807 -1.15696,-0.84152 -1.52475,-1.33362 -0.40833,-0.54636 -0.60372,-1.0456 -0.47367,-1.49617 0.45177,-1.56521 1.778,-2.37995 8.92463,-0.49366 4.53605,1.19726 7.96874,4.1181 7.2882,5.17444 z"
           style="fill:#ff5555;fill-rule:evenodd;stroke:none;stroke-width:0.1;stroke-linecap:butt;stroke-linejoin:miter;stroke-miterlimit:4;stroke-dasharray:none;stroke-opacity:1" />
        <g
           style="stroke:none"
           id="g5777">
          <path
             sodipodi:nodetypes="ssssssss"
             inkscape:connector-curvature="0"
             id="path5779"
             d="m 150.37102,510.68328 c -0.55097,0.85521 -2.43364,1.21753 -4.02291,1.24359 -1.30739,0.0214 -2.82842,-0.3282 -4.43727,-0.77562 -2.04159,-0.56777 -3.71281,-1.53431 -5.01449,-2.22263 -0.5702,-0.30151 -1.09675,-0.79773 -1.4454,-1.26421 -0.38708,-0.51793 -0.5723,-0.99118 -0.44902,-1.41832 0.42826,-1.48375 1.68547,-2.25608 8.46018,-0.46795 4.29998,1.13494 7.55404,3.90378 6.90891,4.90514 z"
             style="fill:none;fill-rule:evenodd;stroke:none;stroke-width:0.1;stroke-linecap:butt;stroke-linejoin:miter;stroke-miterlimit:4;stroke-dasharray:none;stroke-opacity:1" />
          <path
             style="fill:none;fill-rule:evenodd;stroke:none;stroke-width:0.2;stroke-linecap:butt;stroke-linejoin:miter;stroke-miterlimit:4;stroke-dasharray:none;stroke-opacity:1"
             d="m 136.74195,506.71071 c -0.0375,0.3661 -0.0737,0.80251 0.13043,1.08165 0.12869,0.17602 0.38827,0.32597 0.58706,0.2334 0.23557,-0.10969 0.10649,-0.62517 0.33372,-0.75591 0.33818,-0.19463 0.89261,-0.12169 1.09443,0.20945 0.2595,0.42576 -0.48735,1.08662 -0.29507,1.55537 0.16086,0.39214 0.63718,0.71481 1.03417,0.61818 0.54184,-0.1319 0.50315,-1.44245 1.05192,-1.44341 0.31807,-6e-4 0.45307,0.50245 0.52899,0.83452 0.0878,0.38394 -0.31734,0.87853 -0.11612,1.20223 0.18007,0.28967 0.64511,0.44568 0.94167,0.27187 0.33615,-0.19701 0.0818,-0.92301 0.394,-1.16462 0.24198,-0.18731 0.65361,-0.20473 0.86766,-0.005 0.32684,0.3047 -0.10293,1.07199 0.18739,1.4177 0.27774,0.33072 0.84102,0.53721 1.21955,0.30942 0.39566,-0.23807 0.0757,-1.14396 0.47423,-1.37582 0.22977,-0.13369 0.55198,0.0206 0.72846,0.21031 0.22088,0.23746 0.0186,0.76808 0.25333,0.98931 0.25819,0.24331 0.71079,0.31548 1.03472,0.14959 0.52668,-0.26974 1.06806,-0.99374 0.96161,-1.59733 -0.0569,-0.32258 -0.46304,-0.62728 -0.75557,-0.51642 -0.13176,0.0499 -0.0309,0.36498 -0.16046,0.42241 -0.22652,0.10046 -0.5044,-0.12127 -0.63541,-0.33259 -0.20841,-0.33625 0.13006,-0.90796 -0.085,-1.23899 -0.30036,-0.46231 -0.93153,-0.87144 -1.44208,-0.67202 -0.40834,0.15951 -0.24607,1.05746 -0.64693,1.24075 -0.19277,0.0881 -0.45424,-0.0204 -0.58064,-0.18898 -0.29157,-0.38873 0.16164,-1.14701 -0.13556,-1.53057 -0.25756,-0.33238 -0.79116,-0.52557 -1.17264,-0.33855 -0.44208,0.21676 -0.24052,1.2101 -0.69235,1.39808 -0.19638,0.0817 -0.42668,-0.0876 -0.56361,-0.24796 -0.27772,-0.32528 -0.0546,-1.01422 -0.38063,-1.28174 -0.18304,-0.15016 -0.50629,-0.18489 -0.70281,-0.0325 -0.26998,0.20946 -0.0106,0.8391 -0.29525,1.02267 -0.15339,0.0989 -0.38712,0.0105 -0.50317,-0.12393 -0.27417,-0.31775 0.10717,-1.03185 -0.19802,-1.31423 -0.33772,-0.31249 -0.97734,-0.29539 -1.36368,-0.0102 -0.31232,0.23051 -0.11121,0.90472 -0.42387,1.13469 -0.0653,0.0481 -0.17795,0.0557 -0.23025,-0.003 -0.17253,-0.19221 0.23307,-0.71391 0.008,-0.82856 -0.1102,-0.0562 -0.22852,0.14117 -0.30406,0.25311 -0.087,0.12885 -0.13245,0.2915 -0.14837,0.44722 z"
             id="path5781"
             inkscape:connector-curvature="0"
             sodipodi:nodetypes="ssssssssssssssssssssssssssssssssssssssssss" />
        </g>
      </g>
      <path
         sodipodi:nodetypes="cccc"
         inkscape:connector-curvature="0"
         id="path5809"
         d="m -530.34216,579.07765 c 7.34351,-0.0386 12.13613,3.44024 14.68466,7.07832 -4.15425,3.86934 -11.87354,5.30367 -16.6691,5.01283 -1.83722,-3.12671 -0.64989,-9.27891 1.98444,-12.09115 z"
         style="display:inline;fill:#8787de;stroke:none;stroke-width:0.2;stroke-miterlimit:4;stroke-dasharray:none;stroke-dashoffset:0;stroke-opacity:1" />
      <path
         style="display:inline;fill:#8787de;stroke:none;stroke-width:0.2;stroke-miterlimit:4;stroke-dasharray:none;stroke-dashoffset:0;stroke-opacity:1"
         d="m -460.31567,457.91898 c 5.84185,3.70894 4.85986,6.87953 4.21062,11.05741 -6.1251,0.94776 -11.06157,0.17622 -14.6448,-2.49591 0.83752,-3.41085 6.28725,-7.67665 10.43418,-8.5615 z"
         id="path5811"
         inkscape:connector-curvature="0"
         sodipodi:nodetypes="cccc" />
      <path
         style="display:inline;fill:#8787de;stroke:none;stroke-width:0.2;stroke-miterlimit:4;stroke-dasharray:none;stroke-dashoffset:0;stroke-opacity:1"
         d="m -119.383,618.19614 c 7.34351,-0.0386 12.13613,3.44023 14.68466,7.07831 -4.15425,3.86935 -11.87354,5.30367 -16.6691,5.01284 -1.83722,-3.12672 -0.64989,-9.27891 1.98444,-12.09115 z"
         id="path5813"
         inkscape:connector-curvature="0"
         sodipodi:nodetypes="cccc" />
      <path
         sodipodi:nodetypes="cccc"
         inkscape:connector-curvature="0"
         id="path5815"
         d="m -102.01424,489.88164 c 5.841853,3.70894 4.859862,6.87953 4.21062,11.05741 -6.1251,0.94776 -11.06157,0.17622 -14.6448,-2.4959 0.83752,-3.41085 6.28724,-7.67666 10.43418,-8.56151 z"
         style="display:inline;fill:#8787de;stroke:none;stroke-width:0.2;stroke-miterlimit:4;stroke-dasharray:none;stroke-dashoffset:0;stroke-opacity:1" />
      <ellipse
         ry="7.632874"
         rx="9.1578636"
         cy="457.03372"
         cx="-526.93604"
         id="circle5823"
         style="display:inline;fill:#ff7f2a;stroke:none;stroke-width:0.2;stroke-miterlimit:4;stroke-dasharray:none;stroke-dashoffset:0;stroke-opacity:1" />
      <ellipse
         ry="5.6746264"
         rx="6.8083735"
         style="display:inline;fill:#ff7f2a;stroke:none;stroke-width:0.14868912;stroke-miterlimit:4;stroke-dasharray:none;stroke-dashoffset:0;stroke-opacity:1"
         id="circle5825"
         cx="-431.78"
         cy="486.73032" />
      <ellipse
         ry="4.5227156"
         rx="5.4263201"
         cy="555.18768"
         cx="-526.50677"
         id="circle5827"
         style="display:inline;fill:#ff7f2a;stroke:none;stroke-width:0.11850625;stroke-miterlimit:4;stroke-dasharray:none;stroke-dashoffset:0;stroke-opacity:1" />
      <ellipse
         ry="6.3657722"
         rx="7.6376052"
         style="display:inline;fill:#ff7f2a;stroke:none;stroke-width:0.16679886;stroke-miterlimit:4;stroke-dasharray:none;stroke-dashoffset:0;stroke-opacity:1"
         id="circle5829"
         cx="-415.75394"
         cy="561.3894" />
      <ellipse
         ry="7.9948196"
         rx="9.592124"
         cy="625.81915"
         cx="-506.00735"
         id="circle5831"
         style="display:inline;fill:#ff7f2a;stroke:none;stroke-width:0.20948389;stroke-miterlimit:4;stroke-dasharray:none;stroke-dashoffset:0;stroke-opacity:1" />
      <ellipse
         ry="4.0851064"
         rx="4.9012794"
         style="display:inline;fill:#ff7f2a;stroke:none;stroke-width:0.10703981;stroke-miterlimit:4;stroke-dasharray:none;stroke-dashoffset:0;stroke-opacity:1"
         id="circle5833"
         cx="-441.25146"
         cy="606.25409" />
      <ellipse
         ry="7.632874"
         rx="9.1578636"
         style="display:inline;fill:#ff7f2a;stroke:none;stroke-width:0.2;stroke-miterlimit:4;stroke-dasharray:none;stroke-dashoffset:0;stroke-opacity:1"
         id="circle5835"
         cx="-103.95741"
         cy="524.29822" />
      <ellipse
         ry="5.6746264"
         rx="6.8083735"
         cy="633.18604"
         cx="-159.33368"
         id="circle5837"
         style="display:inline;fill:#ff7f2a;stroke:none;stroke-width:0.14868912;stroke-miterlimit:4;stroke-dasharray:none;stroke-dashoffset:0;stroke-opacity:1" />
      <ellipse
         ry="4.0851064"
         rx="4.9012794"
         cy="551.86975"
         cx="-117.86446"
         id="circle5839"
         style="display:inline;fill:#ff7f2a;stroke:none;stroke-width:0.10703981;stroke-miterlimit:4;stroke-dasharray:none;stroke-dashoffset:0;stroke-opacity:1" />
      <g
         style="display:inline;fill:#916f6f;stroke:none"
         id="g5855"
         transform="matrix(3.2377939,0,0,2.6986285,-945.04984,-769.10835)">
        <circle
           style="fill:#916f6f;stroke:none;stroke-width:0.30000001;stroke-linecap:round;stroke-linejoin:round;stroke-miterlimit:4;stroke-dasharray:none;stroke-opacity:1"
           id="circle5857"
           cx="129.84248"
           cy="478.13394"
           r="4.8613591" />
        <ellipse
           style="fill:#916f6f;stroke:none;stroke-width:0.30000001;stroke-linecap:round;stroke-linejoin:round;stroke-miterlimit:4;stroke-dasharray:none;stroke-opacity:1"
           id="ellipse5859"
           cx="132.11848"
           cy="478.81897"
           rx="1.6572815"
           ry="1.6130873" />
      </g>
      <g
         style="display:inline;fill:#916f6f;stroke:none"
         transform="matrix(2.6096178,0,0,2.1750579,-447.08928,-576.25656)"
         id="g5861">
        <circle
           r="4.8613591"
           cy="478.13394"
           cx="129.84248"
           id="circle5863"
           style="fill:#916f6f;stroke:none;stroke-width:0.30000001;stroke-linecap:round;stroke-linejoin:round;stroke-miterlimit:4;stroke-dasharray:none;stroke-opacity:1" />
        <ellipse
           ry="1.6130873"
           rx="1.6572815"
           cy="478.81897"
           cx="132.11848"
           id="ellipse5865"
           style="fill:#916f6f;stroke:none;stroke-width:0.30000001;stroke-linecap:round;stroke-linejoin:round;stroke-miterlimit:4;stroke-dasharray:none;stroke-opacity:1" />
      </g>
      <g
         style="display:inline;fill:#808080;stroke:none"
         transform="matrix(3.2377939,0,0,2.6986285,-812.70502,-671.28307)"
         id="g5875">
        <ellipse
           style="fill:#808080;stroke:none;stroke-width:0.1;stroke-linecap:round;stroke-linejoin:round;stroke-miterlimit:4;stroke-dasharray:none;stroke-opacity:1"
           id="ellipse5877"
           cx="-117.78978"
           cy="470.5614"
           rx="0.65625"
           ry="0.34375"
           transform="matrix(0.874638,-0.48477662,0.48477662,0.874638,0,0)" />
        <ellipse
           transform="matrix(0.96073727,-0.27745973,0.27745973,0.96073727,0,0)"
           ry="0.26566407"
           rx="0.50717688"
           cy="486.43735"
           cx="-10.113874"
           id="ellipse5879"
           style="fill:#808080;stroke:none;stroke-width:0.0772841;stroke-linecap:round;stroke-linejoin:round;stroke-miterlimit:4;stroke-dasharray:none;stroke-opacity:1" />
        <ellipse
           style="fill:#808080;stroke:none;stroke-width:0.08825003;stroke-linecap:round;stroke-linejoin:round;stroke-miterlimit:4;stroke-dasharray:none;stroke-opacity:1"
           id="ellipse5881"
           cx="22.601"
           cy="488.70169"
           rx="0.51578605"
           ry="0.3406215"
           transform="matrix(0.93461505,-0.35566094,0.21409127,0.97681366,0,0)" />
        <ellipse
           transform="matrix(0.96422767,0.26507546,-0.40423464,0.91465532,0,0)"
           ry="0.3406215"
           rx="0.51578605"
           cy="424.00363"
           cx="309.4025"
           id="ellipse5883"
           style="fill:#808080;stroke:none;stroke-width:0.08825003;stroke-linecap:round;stroke-linejoin:round;stroke-miterlimit:4;stroke-dasharray:none;stroke-opacity:1" />
        <ellipse
           style="fill:#808080;stroke:none;stroke-width:0.0772841;stroke-linecap:round;stroke-linejoin:round;stroke-miterlimit:4;stroke-dasharray:none;stroke-opacity:1"
           id="ellipse5885"
           cx="-205.06822"
           cy="442.09879"
           rx="0.50717688"
           ry="0.26566407"
           transform="matrix(0.76718275,-0.64142858,0.64142858,0.76718275,0,0)" />
        <ellipse
           transform="matrix(-0.98683044,0.16175812,-0.414419,0.9100862,0,0)"
           ry="0.41118899"
           rx="0.39428997"
           cy="581.95868"
           cx="-370.26978"
           id="ellipse5887"
           style="fill:#808080;stroke:none;stroke-width:0.08477594;stroke-linecap:round;stroke-linejoin:round;stroke-miterlimit:4;stroke-dasharray:none;stroke-opacity:1"
           inkscape:transform-center-x="0.62499397"
           inkscape:transform-center-y="-0.31251221" />
        <ellipse
           style="fill:#808080;stroke:none;stroke-width:0.0998496;stroke-linecap:round;stroke-linejoin:round;stroke-miterlimit:4;stroke-dasharray:none;stroke-opacity:1"
           id="ellipse5889"
           cx="310.14813"
           cy="427.29742"
           rx="0.58717644"
           ry="0.38303283"
           transform="matrix(0.96529991,0.26114379,-0.40968614,0.91222654,0,0)" />
        <ellipse
           transform="matrix(0.76718275,-0.64142858,0.64142858,0.76718275,0,0)"
           ry="0.26566407"
           rx="0.50717688"
           cy="439.20453"
           cx="-205.94778"
           id="ellipse5891"
           style="fill:#808080;stroke:none;stroke-width:0.0772841;stroke-linecap:round;stroke-linejoin:round;stroke-miterlimit:4;stroke-dasharray:none;stroke-opacity:1" />
        <ellipse
           style="fill:#808080;stroke:none;stroke-width:0.08825003;stroke-linecap:round;stroke-linejoin:round;stroke-miterlimit:4;stroke-dasharray:none;stroke-opacity:1"
           id="ellipse5893"
           cx="471.08472"
           cy="205.05881"
           rx="0.51578605"
           ry="0.3406215"
           transform="matrix(0.64045329,0.76799712,-0.85396981,0.52032256,0,0)" />
      </g>
      <g
         style="display:inline;fill:#808080;stroke:none"
         id="g5895"
         transform="matrix(3.2377939,0,0,2.6986285,-927.7507,-786.73029)">
        <ellipse
           transform="matrix(0.874638,-0.48477662,0.48477662,0.874638,0,0)"
           ry="0.34375"
           rx="0.65625"
           cy="470.5614"
           cx="-117.78978"
           id="ellipse5897"
           style="fill:#808080;stroke:none;stroke-width:0.1;stroke-linecap:round;stroke-linejoin:round;stroke-miterlimit:4;stroke-dasharray:none;stroke-opacity:1" />
        <ellipse
           style="fill:#808080;stroke:none;stroke-width:0.0772841;stroke-linecap:round;stroke-linejoin:round;stroke-miterlimit:4;stroke-dasharray:none;stroke-opacity:1"
           id="ellipse5899"
           cx="-10.113874"
           cy="486.43735"
           rx="0.50717688"
           ry="0.26566407"
           transform="matrix(0.96073727,-0.27745973,0.27745973,0.96073727,0,0)" />
        <ellipse
           transform="matrix(0.93461505,-0.35566094,0.21409127,0.97681366,0,0)"
           ry="0.3406215"
           rx="0.51578605"
           cy="488.70169"
           cx="22.601"
           id="ellipse5901"
           style="fill:#808080;stroke:none;stroke-width:0.08825003;stroke-linecap:round;stroke-linejoin:round;stroke-miterlimit:4;stroke-dasharray:none;stroke-opacity:1" />
        <ellipse
           style="fill:#808080;stroke:none;stroke-width:0.08825003;stroke-linecap:round;stroke-linejoin:round;stroke-miterlimit:4;stroke-dasharray:none;stroke-opacity:1"
           id="ellipse5903"
           cx="309.4025"
           cy="424.00363"
           rx="0.51578605"
           ry="0.3406215"
           transform="matrix(0.96422767,0.26507546,-0.40423464,0.91465532,0,0)" />
        <ellipse
           transform="matrix(0.76718275,-0.64142858,0.64142858,0.76718275,0,0)"
           ry="0.26566407"
           rx="0.50717688"
           cy="442.09879"
           cx="-205.06822"
           id="ellipse5905"
           style="fill:#808080;stroke:none;stroke-width:0.0772841;stroke-linecap:round;stroke-linejoin:round;stroke-miterlimit:4;stroke-dasharray:none;stroke-opacity:1" />
        <ellipse
           inkscape:transform-center-y="-0.31251221"
           inkscape:transform-center-x="0.62499397"
           style="fill:#808080;stroke:none;stroke-width:0.08477594;stroke-linecap:round;stroke-linejoin:round;stroke-miterlimit:4;stroke-dasharray:none;stroke-opacity:1"
           id="ellipse5907"
           cx="-370.26978"
           cy="581.95868"
           rx="0.39428997"
           ry="0.41118899"
           transform="matrix(-0.98683044,0.16175812,-0.414419,0.9100862,0,0)" />
        <ellipse
           transform="matrix(0.96529991,0.26114379,-0.40968614,0.91222654,0,0)"
           ry="0.38303283"
           rx="0.58717644"
           cy="427.29742"
           cx="310.14813"
           id="ellipse5909"
           style="fill:#808080;stroke:none;stroke-width:0.0998496;stroke-linecap:round;stroke-linejoin:round;stroke-miterlimit:4;stroke-dasharray:none;stroke-opacity:1" />
        <ellipse
           style="fill:#808080;stroke:none;stroke-width:0.0772841;stroke-linecap:round;stroke-linejoin:round;stroke-miterlimit:4;stroke-dasharray:none;stroke-opacity:1"
           id="ellipse5911"
           cx="-205.94778"
           cy="439.20453"
           rx="0.50717688"
           ry="0.26566407"
           transform="matrix(0.76718275,-0.64142858,0.64142858,0.76718275,0,0)" />
        <ellipse
           transform="matrix(0.64045329,0.76799712,-0.85396981,0.52032256,0,0)"
           ry="0.3406215"
           rx="0.51578605"
           cy="205.05881"
           cx="471.08472"
           id="ellipse5913"
           style="fill:#808080;stroke:none;stroke-width:0.08825003;stroke-linecap:round;stroke-linejoin:round;stroke-miterlimit:4;stroke-dasharray:none;stroke-opacity:1" />
      </g>
      <g
         style="display:inline;fill:#808080;stroke:none"
         transform="matrix(3.2377939,0,0,2.6986285,-885.96794,-633.11869)"
         id="g5915">
        <ellipse
           style="fill:#808080;stroke:none;stroke-width:0.1;stroke-linecap:round;stroke-linejoin:round;stroke-miterlimit:4;stroke-dasharray:none;stroke-opacity:1"
           id="ellipse5917"
           cx="-117.78978"
           cy="470.5614"
           rx="0.65625"
           ry="0.34375"
           transform="matrix(0.874638,-0.48477662,0.48477662,0.874638,0,0)" />
        <ellipse
           transform="matrix(0.96073727,-0.27745973,0.27745973,0.96073727,0,0)"
           ry="0.26566407"
           rx="0.50717688"
           cy="486.43735"
           cx="-10.113874"
           id="ellipse5919"
           style="fill:#808080;stroke:none;stroke-width:0.0772841;stroke-linecap:round;stroke-linejoin:round;stroke-miterlimit:4;stroke-dasharray:none;stroke-opacity:1" />
        <ellipse
           style="fill:#808080;stroke:none;stroke-width:0.08825003;stroke-linecap:round;stroke-linejoin:round;stroke-miterlimit:4;stroke-dasharray:none;stroke-opacity:1"
           id="ellipse5921"
           cx="22.601"
           cy="488.70169"
           rx="0.51578605"
           ry="0.3406215"
           transform="matrix(0.93461505,-0.35566094,0.21409127,0.97681366,0,0)" />
        <ellipse
           transform="matrix(0.96422767,0.26507546,-0.40423464,0.91465532,0,0)"
           ry="0.3406215"
           rx="0.51578605"
           cy="424.00363"
           cx="309.4025"
           id="ellipse5923"
           style="fill:#808080;stroke:none;stroke-width:0.08825003;stroke-linecap:round;stroke-linejoin:round;stroke-miterlimit:4;stroke-dasharray:none;stroke-opacity:1" />
        <ellipse
           style="fill:#808080;stroke:none;stroke-width:0.0772841;stroke-linecap:round;stroke-linejoin:round;stroke-miterlimit:4;stroke-dasharray:none;stroke-opacity:1"
           id="ellipse5925"
           cx="-205.06822"
           cy="442.09879"
           rx="0.50717688"
           ry="0.26566407"
           transform="matrix(0.76718275,-0.64142858,0.64142858,0.76718275,0,0)" />
        <ellipse
           transform="matrix(-0.98683044,0.16175812,-0.414419,0.9100862,0,0)"
           ry="0.41118899"
           rx="0.39428997"
           cy="581.95868"
           cx="-370.26978"
           id="ellipse5927"
           style="fill:#808080;stroke:none;stroke-width:0.08477594;stroke-linecap:round;stroke-linejoin:round;stroke-miterlimit:4;stroke-dasharray:none;stroke-opacity:1"
           inkscape:transform-center-x="0.62499397"
           inkscape:transform-center-y="-0.31251221" />
        <ellipse
           style="fill:#808080;stroke:none;stroke-width:0.0998496;stroke-linecap:round;stroke-linejoin:round;stroke-miterlimit:4;stroke-dasharray:none;stroke-opacity:1"
           id="ellipse5929"
           cx="310.14813"
           cy="427.29742"
           rx="0.58717644"
           ry="0.38303283"
           transform="matrix(0.96529991,0.26114379,-0.40968614,0.91222654,0,0)" />
        <ellipse
           transform="matrix(0.76718275,-0.64142858,0.64142858,0.76718275,0,0)"
           ry="0.26566407"
           rx="0.50717688"
           cy="439.20453"
           cx="-205.94778"
           id="ellipse5931"
           style="fill:#808080;stroke:none;stroke-width:0.0772841;stroke-linecap:round;stroke-linejoin:round;stroke-miterlimit:4;stroke-dasharray:none;stroke-opacity:1" />
        <ellipse
           style="fill:#808080;stroke:none;stroke-width:0.08825003;stroke-linecap:round;stroke-linejoin:round;stroke-miterlimit:4;stroke-dasharray:none;stroke-opacity:1"
           id="ellipse5933"
           cx="471.08472"
           cy="205.05881"
           rx="0.51578605"
           ry="0.3406215"
           transform="matrix(0.64045329,0.76799712,-0.85396981,0.52032256,0,0)" />
      </g>
      <g
         style="display:inline;fill:#808080;stroke:none"
         id="g5935"
         transform="matrix(3.2377939,0,0,2.6986285,-575.53661,-676.68033)">
        <ellipse
           transform="matrix(0.874638,-0.48477662,0.48477662,0.874638,0,0)"
           ry="0.34375"
           rx="0.65625"
           cy="470.5614"
           cx="-117.78978"
           id="ellipse5937"
           style="fill:#808080;stroke:none;stroke-width:0.1;stroke-linecap:round;stroke-linejoin:round;stroke-miterlimit:4;stroke-dasharray:none;stroke-opacity:1" />
        <ellipse
           style="fill:#808080;stroke:none;stroke-width:0.0772841;stroke-linecap:round;stroke-linejoin:round;stroke-miterlimit:4;stroke-dasharray:none;stroke-opacity:1"
           id="ellipse5939"
           cx="-10.113874"
           cy="486.43735"
           rx="0.50717688"
           ry="0.26566407"
           transform="matrix(0.96073727,-0.27745973,0.27745973,0.96073727,0,0)" />
        <ellipse
           transform="matrix(0.93461505,-0.35566094,0.21409127,0.97681366,0,0)"
           ry="0.3406215"
           rx="0.51578605"
           cy="488.70169"
           cx="22.601"
           id="ellipse5941"
           style="fill:#808080;stroke:none;stroke-width:0.08825003;stroke-linecap:round;stroke-linejoin:round;stroke-miterlimit:4;stroke-dasharray:none;stroke-opacity:1" />
        <ellipse
           style="fill:#808080;stroke:none;stroke-width:0.08825003;stroke-linecap:round;stroke-linejoin:round;stroke-miterlimit:4;stroke-dasharray:none;stroke-opacity:1"
           id="ellipse5943"
           cx="309.4025"
           cy="424.00363"
           rx="0.51578605"
           ry="0.3406215"
           transform="matrix(0.96422767,0.26507546,-0.40423464,0.91465532,0,0)" />
        <ellipse
           transform="matrix(0.76718275,-0.64142858,0.64142858,0.76718275,0,0)"
           ry="0.26566407"
           rx="0.50717688"
           cy="442.09879"
           cx="-205.06822"
           id="ellipse5945"
           style="fill:#808080;stroke:none;stroke-width:0.0772841;stroke-linecap:round;stroke-linejoin:round;stroke-miterlimit:4;stroke-dasharray:none;stroke-opacity:1" />
        <ellipse
           inkscape:transform-center-y="-0.31251221"
           inkscape:transform-center-x="0.62499397"
           style="fill:#808080;stroke:none;stroke-width:0.08477594;stroke-linecap:round;stroke-linejoin:round;stroke-miterlimit:4;stroke-dasharray:none;stroke-opacity:1"
           id="ellipse5947"
           cx="-370.26978"
           cy="581.95868"
           rx="0.39428997"
           ry="0.41118899"
           transform="matrix(-0.98683044,0.16175812,-0.414419,0.9100862,0,0)" />
        <ellipse
           transform="matrix(0.96529991,0.26114379,-0.40968614,0.91222654,0,0)"
           ry="0.38303283"
           rx="0.58717644"
           cy="427.29742"
           cx="310.14813"
           id="ellipse5949"
           style="fill:#808080;stroke:none;stroke-width:0.0998496;stroke-linecap:round;stroke-linejoin:round;stroke-miterlimit:4;stroke-dasharray:none;stroke-opacity:1" />
        <ellipse
           style="fill:#808080;stroke:none;stroke-width:0.0772841;stroke-linecap:round;stroke-linejoin:round;stroke-miterlimit:4;stroke-dasharray:none;stroke-opacity:1"
           id="ellipse5951"
           cx="-205.94778"
           cy="439.20453"
           rx="0.50717688"
           ry="0.26566407"
           transform="matrix(0.76718275,-0.64142858,0.64142858,0.76718275,0,0)" />
        <ellipse
           transform="matrix(0.64045329,0.76799712,-0.85396981,0.52032256,0,0)"
           ry="0.3406215"
           rx="0.51578605"
           cy="205.05881"
           cx="471.08472"
           id="ellipse5953"
           style="fill:#808080;stroke:none;stroke-width:0.08825003;stroke-linecap:round;stroke-linejoin:round;stroke-miterlimit:4;stroke-dasharray:none;stroke-opacity:1" />
      </g>
      <g
         style="display:inline;fill:#808080;stroke:none"
         transform="matrix(3.2377939,0,0,2.6986285,-504.19947,-704.19983)"
         id="g5955">
        <ellipse
           style="fill:#808080;stroke:none;stroke-width:0.1;stroke-linecap:round;stroke-linejoin:round;stroke-miterlimit:4;stroke-dasharray:none;stroke-opacity:1"
           id="ellipse5957"
           cx="-117.78978"
           cy="470.5614"
           rx="0.65625"
           ry="0.34375"
           transform="matrix(0.874638,-0.48477662,0.48477662,0.874638,0,0)" />
        <ellipse
           transform="matrix(0.96073727,-0.27745973,0.27745973,0.96073727,0,0)"
           ry="0.26566407"
           rx="0.50717688"
           cy="486.43735"
           cx="-10.113874"
           id="ellipse5959"
           style="fill:#808080;stroke:none;stroke-width:0.0772841;stroke-linecap:round;stroke-linejoin:round;stroke-miterlimit:4;stroke-dasharray:none;stroke-opacity:1" />
        <ellipse
           style="fill:#808080;stroke:none;stroke-width:0.08825003;stroke-linecap:round;stroke-linejoin:round;stroke-miterlimit:4;stroke-dasharray:none;stroke-opacity:1"
           id="ellipse5961"
           cx="22.601"
           cy="488.70169"
           rx="0.51578605"
           ry="0.3406215"
           transform="matrix(0.93461505,-0.35566094,0.21409127,0.97681366,0,0)" />
        <ellipse
           transform="matrix(0.96422767,0.26507546,-0.40423464,0.91465532,0,0)"
           ry="0.3406215"
           rx="0.51578605"
           cy="424.00363"
           cx="309.4025"
           id="ellipse5963"
           style="fill:#808080;stroke:none;stroke-width:0.08825003;stroke-linecap:round;stroke-linejoin:round;stroke-miterlimit:4;stroke-dasharray:none;stroke-opacity:1" />
        <ellipse
           style="fill:#808080;stroke:none;stroke-width:0.0772841;stroke-linecap:round;stroke-linejoin:round;stroke-miterlimit:4;stroke-dasharray:none;stroke-opacity:1"
           id="ellipse5965"
           cx="-205.06822"
           cy="442.09879"
           rx="0.50717688"
           ry="0.26566407"
           transform="matrix(0.76718275,-0.64142858,0.64142858,0.76718275,0,0)" />
        <ellipse
           transform="matrix(-0.98683044,0.16175812,-0.414419,0.9100862,0,0)"
           ry="0.41118899"
           rx="0.39428997"
           cy="581.95868"
           cx="-370.26978"
           id="ellipse5967"
           style="fill:#808080;stroke:none;stroke-width:0.08477594;stroke-linecap:round;stroke-linejoin:round;stroke-miterlimit:4;stroke-dasharray:none;stroke-opacity:1"
           inkscape:transform-center-x="0.62499397"
           inkscape:transform-center-y="-0.31251221" />
        <ellipse
           style="fill:#808080;stroke:none;stroke-width:0.0998496;stroke-linecap:round;stroke-linejoin:round;stroke-miterlimit:4;stroke-dasharray:none;stroke-opacity:1"
           id="ellipse5969"
           cx="310.14813"
           cy="427.29742"
           rx="0.58717644"
           ry="0.38303283"
           transform="matrix(0.96529991,0.26114379,-0.40968614,0.91222654,0,0)" />
        <ellipse
           transform="matrix(0.76718275,-0.64142858,0.64142858,0.76718275,0,0)"
           ry="0.26566407"
           rx="0.50717688"
           cy="439.20453"
           cx="-205.94778"
           id="ellipse5971"
           style="fill:#808080;stroke:none;stroke-width:0.0772841;stroke-linecap:round;stroke-linejoin:round;stroke-miterlimit:4;stroke-dasharray:none;stroke-opacity:1" />
        <ellipse
           style="fill:#808080;stroke:none;stroke-width:0.08825003;stroke-linecap:round;stroke-linejoin:round;stroke-miterlimit:4;stroke-dasharray:none;stroke-opacity:1"
           id="ellipse5973"
           cx="471.08472"
           cy="205.05881"
           rx="0.51578605"
           ry="0.3406215"
           transform="matrix(0.64045329,0.76799712,-0.85396981,0.52032256,0,0)" />
      </g>
      <path
         inkscape:connector-curvature="0"
         d="m -454.94676,591.21212 c 0.53832,-0.60201 2.8209,-3.12561 3.12237,-3.60434 0.52216,-0.82919 0.69256,-1.79084 1.20957,-2.62226 0.56357,-0.90626 1.39151,-1.68206 2.01381,-2.56119 3.02786,-4.27741 0.0537,-0.90059 3.29154,-4.32882 0.78743,-1.27386 0.76681,-1.05403 1.15787,-2.25926 0.0819,-0.25232 0.0816,-0.52496 0.20431,-0.76549 0.091,-0.17811 0.22761,-0.56777 0.4224,-0.4622 2.7101,1.46862 2.03605,1.50608 1.22227,3.37283 -0.94777,5.99757 0.47262,-1.52953 -1.44885,4.52579 -0.22632,0.71338 -0.15963,1.47202 -0.32249,2.19733 -0.75796,3.37536 -0.4178,0.54045 -1.17383,3.64863 -0.1049,0.43072 -0.11138,0.87406 -0.16739,1.31107 -0.84879,2.30663 -0.18391,0.11037 -0.48978,2.52451 -0.0324,0.24558 -0.13243,0.48136 -0.21564,0.71827 -0.0962,0.27415 -0.09,0.60314 -0.32119,0.81393 -0.37429,0.34125 -0.93659,1.01018 -1.39759,0.753 -0.66751,-0.37238 -0.46556,-1.2815 -0.69833,-1.92226 0.57503,-2.2639 -0.2192,0.18351 1.6244,-2.72391 2.38998,-3.76918 -0.67783,-0.0553 2.0266,-3.73158 0.40084,-0.54491 0.90985,-1.02918 1.35661,-1.54872 0.43354,-0.50419 0.8561,-1.0149 1.28417,-1.52235 0.29237,-0.39152 0.64426,-0.75629 0.87741,-1.17455 0.28331,-0.50837 1.35016,-5.02965 3.45158,-3.44715 0.53453,0.40253 0.0696,1.19941 0.10459,1.79912 0.16156,1.24615 -0.92346,2.25981 -1.08017,3.43684 -0.0994,0.74717 0.17582,1.49701 0.21791,2.24793 0.0405,0.72024 0.0599,1.44234 0.0291,2.16295 -0.0259,0.67158 -0.2464,1.33812 -0.20042,2.00897 0.0437,0.63358 0.31115,1.24247 0.46676,1.8637 -0.21046,1.16575 0.0767,2.29014 0.24283,3.43689 0.0194,0.12657 0.0576,0.25313 0.0489,0.38029 -0.013,0.17838 -0.16059,0.10606 -0.0389,0.15301 -0.65899,-0.2959 -1.3703,-0.52226 -1.97693,-0.88776 -0.0826,-0.0499 0.17581,-0.0926 0.23862,-0.15949 0.0965,-0.10309 0.13437,-0.23829 0.23021,-0.34157 0.26388,-0.28381 0.56742,-0.54034 0.84481,-0.81501 1.16016,-1.14883 0.7397,-0.7034 1.78107,-2.1198 1.60161,-2.79753 0.13178,-0.46047 2.29524,-3.23644 0.44873,-0.57575 0.84572,-1.17841 1.27123,-1.7663 0.40184,-0.55525 0.87025,-1.08005 1.2108,-1.66306 0.27975,-0.47912 0.39773,-1.01393 0.64076,-1.50681 0.20398,-0.41351 0.46537,-0.80562 0.69807,-1.20844 0.0431,-0.41586 0.0291,-0.83847 0.12919,-1.24761 0.18099,-0.74579 1.38564,-3.4095 3.16743,-1.32168 0.49115,0.57549 -0.27488,1.39376 -0.40553,2.09158 -0.16092,0.86043 -0.31309,1.72202 -0.46938,2.58304 0.0324,1.04753 0.0618,2.09505 0.0929,3.14258 -0.10037,1.05158 -0.29885,2.09983 -0.30111,3.15473 -0.002,0.97007 0.27715,1.93022 0.28946,2.90027 0.013,0.95895 -0.24478,1.9127 -0.21564,2.87139 0.32281,10.61249 0.57558,-5.06403 0.31989,5.10273 0.0366,0.33522 0.0923,1.83793 0.3889,2.44142 0.0353,0.072 0.30014,0.15517 0.20689,0.15706 -0.9126,0.0189 -1.84655,0.0685 -2.73584,-0.10336 -0.16189,-0.0313 0.0162,-0.28079 0.0732,-0.41129 0.1567,-0.36513 0.37354,-0.71031 0.5603,-1.06548 0.94987,-2.49029 -0.15024,-0.0424 1.49446,-2.4588 1.22201,-1.79542 0.45035,-1.46516 2.13157,-3.08542 5.21405,-5.02487 -1.80542,2.49909 3.09109,-2.87177 2.19519,-3.54554 0.26647,-0.14762 1.85302,-3.81541 0.9331,-2.15696 0.97588,-1.51703 1.57901,-3.50538 0.50471,-1.66384 -0.23085,-0.67981 0.92996,-1.85498 0.39874,-0.55249 0.47466,-0.77006 1.03972,-1.17598 0.0865,-0.0621 -0.1185,0.16461 -0.1988,0.23208 -0.0194,0.0162 0.0227,-0.0564 -5.8e-4,-0.0642 -0.0664,-0.0216 -0.14311,-0.005 -0.21434,-0.008 0.0806,-1.48411 2.59897,-1.3889 2.51819,0.0953 l 0,0 c 0.0227,0.19457 0.1389,0.77232 -0.0291,0.96924 -0.74505,0.87076 -0.85122,0.11307 -1.23072,0.91694 -0.11591,0.2086 -0.20657,0.42857 -0.34796,0.62619 -0.50568,0.70731 -1.34586,1.41057 -1.71785,2.16041 -0.32964,0.66443 -0.38559,1.40426 -0.66394,2.08477 -0.23442,0.57311 -1.84007,3.60842 -2.12687,4.15621 -1.42272,1.80002 -1.13799,1.58199 -2.73562,3.10216 -0.44131,0.41993 -0.98163,0.77164 -1.36246,1.23084 -0.36645,0.44185 -0.55052,0.97189 -0.85646,1.44463 -1.18309,1.8283 -0.65323,0.5288 -1.19866,2.29659 -0.0227,0.197 -0.0878,0.39416 -0.0635,0.59086 0.0162,0.129 0.33261,0.32972 0.18099,0.35892 -0.79316,0.15274 -1.62641,0.0823 -2.44039,0.0761 -0.0557,-4.3e-4 -0.13664,-0.0513 -0.1211,-0.0958 0.0806,-0.23019 0.305,-0.41421 0.38087,-0.64551 0.19103,-0.58188 0.27586,-1.18438 0.41366,-1.77654 -0.10523,-1.1926 -0.37329,-3.92469 -0.36487,-5.09806 0.006,-0.9603 0.16966,-1.91662 0.18488,-2.87687 0.0162,-0.97067 -0.13178,-1.94101 -0.0936,-2.91125 0.0418,-1.05894 0.34599,-2.10698 0.33261,-3.16646 -0.013,-1.05951 -0.27488,-2.10672 -0.41243,-3.16007 -0.0227,-0.85709 -0.0259,-1.71468 -0.0677,-2.57128 -0.0162,-0.31903 -0.4088,-0.76231 -0.10231,-0.95405 0.52018,-0.32559 1.28712,-0.20401 1.93753,-0.19457 0.12692,0.002 -0.20819,0.12954 -0.27619,0.21886 -0.51131,0.67064 -0.52073,1.10425 -0.76735,1.93977 -0.305,0.54656 -1.35337,2.46153 -1.70286,2.9353 -0.4019,0.54483 -0.95515,1.0053 -1.35414,1.55161 -0.42943,0.58808 -0.73922,1.23143 -1.12335,1.84092 -1.20686,1.91486 -0.93161,1.47825 -2.26785,3.20632 -0.27359,0.45931 -0.51002,0.93524 -0.82046,1.37792 -1.23612,1.76264 -0.51743,0.18513 -1.17234,1.80271 -0.12012,0.2965 -0.20463,0.60398 -0.35191,0.89179 -0.078,0.1522 -0.12304,0.44519 -0.31925,0.41891 -0.82175,-0.11038 -1.54566,-0.5152 -2.31849,-0.77281 -0.01,-0.0453 -0.003,-0.0966 -0.033,-0.13628 -0.0437,-0.0602 -0.17938,-0.0815 -0.17549,-0.15166 0.006,-0.12954 0.15736,-0.22642 0.20269,-0.35072 0.0793,-0.21831 0.14084,-0.44306 0.16836,-0.67012 0.0699,-0.57127 0.0502,-2.22896 0.0508,-2.66913 0.17226,-3.69297 0.0466,-0.002 0.0291,-3.8982 -0.003,-0.95545 0.0751,-3.61211 0.11041,-4.54398 0.0259,-0.71276 0.0324,-1.42676 0.0971,-2.13782 0.0456,-0.49895 0.15703,-0.99226 0.23538,-1.48838 1.10474,0.56483 -0.41401,-0.0599 1.63172,-0.3961 0.20593,-0.0337 -0.19912,0.30878 -0.27359,0.47215 -0.63869,1.4001 -1.07271,2.86084 -2.257,4.04465 -0.46233,0.42355 -0.98261,0.80775 -1.38701,1.27068 -0.42454,0.48594 -0.72562,1.03908 -1.08582,1.55986 -0.63746,0.92163 -1.80397,2.56092 -2.28776,3.53949 -0.0997,0.20159 -0.83005,2.36937 -0.94706,2.71356 -2.16038,-1.25433 -0.19653,-0.57058 -2.15174,-0.0189 -0.17128,0.0483 0.12304,-0.28351 0.18812,-0.42417 0.12497,-0.27061 0.29625,-0.52858 0.38173,-0.80964 0.26032,-0.85533 0.26323,-1.75581 0.55791,-2.60614 0.15865,-0.46541 0.28168,-0.94037 0.47634,-1.39622 0.58387,-1.36769 1.16483,-1.93149 1.54669,-3.4244 0.1878,-0.73381 0.0988,-1.50367 0.27845,-2.23886 0.35493,-1.45213 1.22761,-2.79492 1.44905,-4.27868 -0.46841,-3.0142 -0.84737,-1.01336 1.80669,-1.6654 0.22373,-0.055 0.26679,-0.68753 0.0725,-0.58023 -0.29852,0.16461 -0.34919,0.52337 -0.4755,0.80254 -0.9749,2.15472 0.39329,0.18567 -1.59801,2.58858 -0.66135,0.48818 -1.40929,0.90539 -1.98403,1.46457 -0.71678,0.69738 -1.28423,1.49429 -1.86118,2.27662 -2.17139,2.94418 -3.66486,6.15449 -5.24506,9.33402 -0.77688,1.1331 -2.69948,0.2175 -1.92264,-0.9157 z"
         id="path6037"
         style="display:inline;fill:#ff7f2a;stroke:#ff7f2a;stroke-width:0.88678312;stroke-linecap:round;stroke-linejoin:round;stroke-miterlimit:4;stroke-dasharray:none;stroke-opacity:1" />
      <path
         inkscape:connector-curvature="0"
         d="m -534.99811,497.47893 c 0.77426,1.02054 1.64947,1.98333 2.6592,2.85085 0.28266,0.24288 0.58786,0.4666 0.87596,0.70486 0.24575,0.20321 0.48359,0.41308 0.72539,0.6196 1.35933,1.23231 -0.006,0.0845 1.07123,0.81143 0.0651,0.044 0.22502,0.11955 0.15865,0.16192 -0.97807,0.62651 -0.99362,-0.0907 -1.09732,-0.64727 0.0809,-0.99865 0.21563,-2.01315 0.013,-3.01021 -0.0777,-0.38404 -0.23668,-0.75362 -0.36056,-1.12916 -0.55519,-1.68227 -0.21208,-0.49787 -0.63772,-2.06947 -0.0826,-0.29083 -0.17937,-0.57907 -0.24769,-0.87247 -0.0505,-0.21832 -0.0984,-0.43869 -0.10847,-0.66087 -0.01,-0.17973 0.0411,-0.35794 0.0541,-0.53735 0.01,-0.12845 0.01,-0.25718 0.013,-0.3859 0.006,-0.2364 0.0227,-0.15328 -0.0259,-0.30325 0.0544,0.11254 0.0194,0.31871 0.16319,0.33736 0.24348,0.0316 0.46634,-0.31863 0.68677,-0.22696 0.24316,0.10093 0.15347,0.43983 0.29302,0.6341 0.226,0.31428 0.53595,0.58102 0.79391,0.87768 2.48377,2.85647 -0.65699,-0.65504 2.02485,2.32071 2.67917,1.87128 0.0392,0.0615 2.59389,1.72054 0.31471,0.20428 0.61078,0.42843 0.92666,0.63164 0.14764,0.0947 0.29496,0.19376 0.46232,0.26176 0.0576,0.0243 0.22859,-0.0399 0.19265,0.005 -0.14829,0.18297 -0.38002,0.30767 -0.57005,0.46149 -0.10101,-0.0739 -0.22632,-0.1298 -0.30273,-0.22155 -0.38653,-0.46311 -0.21466,-1.14163 -0.38277,-1.64681 -0.10717,-0.32211 -0.31925,-0.6134 -0.46456,-0.92499 -0.15509,-0.33263 -0.29043,-0.67139 -0.43539,-1.0071 -0.65034,-1.15882 -0.3523,-0.56261 -0.85905,-1.7092 -0.1117,-0.25259 -0.23959,-0.50065 -0.33585,-0.75759 -0.0858,-0.2283 -0.1415,-0.46367 -0.20949,-0.69611 -0.20916,-0.71462 -0.14861,-0.44203 -0.24057,-1.0784 -10e-4,-0.14599 -0.0593,-0.39489 0.16481,-0.48775 0.48495,-0.20104 0.82784,0.146 1.14721,0.39619 0.37604,0.29458 0.72245,0.61477 1.06601,0.93572 0.47528,0.44395 0.92643,0.90542 1.38966,1.35814 1.39446,1.30295 2.93322,2.48741 4.44355,3.69399 0.78462,0.62681 0.93012,0.86664 1.85014,1.25991 0.17225,0.0737 0.36986,0.0953 0.55477,0.14276 0.0615,-0.0108 0.23474,-0.064 0.1839,-0.0332 -0.14958,0.0918 -0.30597,0.20159 -0.49017,0.22048 -0.0729,0.008 -0.0813,-0.10255 -0.1117,-0.15814 -0.53359,-0.97566 0.0732,0.15113 -0.21855,-0.71387 -0.0324,-0.0961 -0.11106,-0.17703 -0.16675,-0.26554 -0.0673,-0.0999 -0.25999,-0.34656 -0.27683,-0.48978 -0.013,-0.10605 0.0431,-0.214 0.0227,-0.31932 -0.0291,-0.15329 -0.12142,-0.29383 -0.16675,-0.44436 -0.70166,-2.33655 0.41913,1.10331 -0.39103,-1.34168 -0.63969,-2.10895 0.18812,0.72985 -0.3105,-1.34016 -0.0508,-0.21077 -0.1211,-0.41875 -0.20431,-0.62228 -0.0725,-0.17757 -0.20689,-0.33668 -0.26258,-0.51838 -0.0525,-0.17082 -0.0327,-0.3516 -0.0576,-0.52664 -0.0194,-0.13898 -0.0521,-0.27661 -0.078,-0.41491 -0.0521,-0.11847 -0.13372,-0.23046 -0.15671,-0.35503 -0.0194,-0.11469 0.0194,-0.23154 0.0291,-0.3475 0.0162,-0.21697 0.0129,-0.17272 0.01,-0.3589 0.20268,-0.50421 1.05833,-0.26527 0.85552,0.2391 l 0,0 c -0.0227,-0.008 -0.0563,-0.0437 -0.0635,-0.0243 -0.0162,0.0424 0.0259,0.0877 0.0227,0.13196 -0.0476,0.53468 -0.12012,-0.008 0.0162,0.59896 0.0162,0.14923 0.0363,0.29806 0.0457,0.44759 0.01,0.15652 -0.0291,0.31723 0.013,0.46981 0.0525,0.18782 0.19038,0.35203 0.26744,0.53389 0.0845,0.19916 0.16448,0.40089 0.21596,0.60776 0.11138,0.44719 0.091,0.91322 0.24996,1.35436 0.0431,0.2337 0.0453,0.47529 0.12886,0.7013 0.0761,0.2059 0.2519,0.3777 0.34431,0.57874 0.0761,0.16516 0.0725,0.35217 0.15833,0.51398 0.0489,0.0926 0.1839,0.13952 0.23635,0.23047 0.0583,0.10093 -0.006,0.39602 -0.0194,0.48014 0.19718,0.27949 0.24057,0.3 0.34728,0.60495 0.0385,0.10983 0.0437,0.22722 0.0897,0.33501 0.17581,0.41324 0.5503,0.5167 -0.26291,0.91124 -0.10944,0.0532 -0.22243,-0.1012 -0.33372,-0.15193 -0.17451,-0.12576 -0.34764,-0.25286 -0.52345,-0.37738 -0.26744,-0.18944 -0.55182,-0.36307 -0.8066,-0.56433 -1.5467,-1.222 -0.42444,-0.47151 -2.06633,-2.0117 -0.99008,-0.92876 -2.16006,-1.71708 -3.11411,-2.6749 -0.54317,-0.38197 -1.07006,-0.78064 -1.62952,-1.14595 -0.39073,-0.25529 -0.81916,-0.46783 -1.21838,-0.71376 -0.10814,-0.0667 -0.26485,-0.11496 -0.30208,-0.22264 -0.0194,-0.058 0.15735,-0.0189 0.20236,-0.0661 0.0372,-0.0391 0.0528,-0.12198 0.003,-0.14978 -0.0421,-0.0243 -0.0664,0.064 -0.0997,0.0961 0.0162,0.12846 0.0479,0.2561 0.0492,0.38545 0.002,0.19808 -0.0651,0.39651 -0.0379,0.59321 0.0324,0.22561 0.12887,0.44142 0.21078,0.65782 0.31601,0.83242 0.76004,1.62892 1.08207,2.45972 0.33227,0.65126 0.6452,1.3094 0.9853,1.95788 0.64399,1.22798 0.26809,0.30894 0.56366,1.21849 0.0583,0.17918 0.0865,0.0842 0.01,0.21508 -0.10944,0.17568 -0.20495,0.35805 -0.32861,0.52723 -0.0129,0.0189 0.013,-0.0516 -0.006,-0.0688 -0.12304,-0.11766 -0.26162,-0.22371 -0.40466,-0.32437 -0.30759,-0.2167 -0.64261,-0.40555 -0.94547,-0.62673 -1.10056,-0.80371 -1.32937,-1.06596 -2.33901,-1.98636 -2.77541,-2.57314 0.30985,0.30778 -2.28702,-2.17795 -0.29723,-0.28452 -0.60586,-0.56069 -0.90645,-0.84278 -0.1593,-0.14951 -0.46935,-0.25205 -0.47337,-0.45205 -0.006,-0.2704 0.16222,-0.59418 0.44983,-0.71945 0.1661,-0.0723 0.12563,0.29434 0.18811,0.44149 -0.31341,-0.008 -0.0612,-0.0432 -0.0919,0.17865 -0.0162,0.10687 -0.10458,0.19781 -0.13404,0.30241 -0.181,0.64451 -0.079,1.30921 0.0745,1.94803 0.31018,0.86232 0.43765,1.17663 0.69855,2.08178 0.1117,0.38744 0.22859,0.77461 0.3063,1.16775 0.5603,2.83329 -0.11883,-0.31207 0.10393,2.23983 0.0227,0.24153 0.14019,0.46991 0.21013,0.70488 -0.003,0.12738 -0.0508,0.25826 -0.0162,0.38208 0.0194,0.0656 0.20657,0.0861 0.16837,0.14545 -0.13567,0.2113 -0.40887,0.33792 -0.59563,0.52019 -0.0194,0.0189 0.0933,0.003 0.0819,-0.0189 -0.0709,-0.13601 -0.17581,-0.25961 -0.28752,-0.3753 -0.18876,-0.19565 -0.40738,-0.3699 -0.61107,-0.55486 -0.21369,-0.23424 -0.41081,-0.4796 -0.64088,-0.70275 -0.32217,-0.3125 -1.39248,-1.19331 -1.72983,-1.47173 -0.28331,-0.23397 -0.59896,-0.44319 -0.85332,-0.69929 -0.22114,-0.22264 -0.35055,-0.50073 -0.56435,-0.72823 -0.18779,-0.1997 -0.42305,-0.36512 -0.63457,-0.54766 -0.29335,-0.32586 0.25967,-0.67144 0.55288,-0.34561 z"
         id="path6039"
         style="display:inline;fill:#ff7f2a;stroke:#ff7f2a;stroke-width:0.88678312;stroke-linecap:round;stroke-linejoin:round;stroke-miterlimit:4;stroke-dasharray:none;stroke-opacity:1" />
      <path
         style="display:inline;fill:#ff7f2a;stroke:#ff7f2a;stroke-width:1.26460779;stroke-linecap:round;stroke-linejoin:round;stroke-miterlimit:4;stroke-dasharray:none;stroke-opacity:1"
         id="path6041"
         d="m -133.29305,594.68628 c 1.10412,1.45537 2.35223,2.82835 3.79217,4.06551 0.40311,0.34634 0.83833,0.66537 1.24918,1.00516 0.35045,0.28978 0.68965,0.58908 1.03444,0.88361 1.9385,1.75732 -0.01,0.12036 1.52765,1.15712 0.0929,0.0629 0.32087,0.17055 0.22633,0.231 -1.39478,0.89343 -1.41696,-0.12927 -1.56483,-0.92304 0.11559,-1.42415 0.30759,-2.87088 0.0194,-4.29276 -0.11074,-0.54766 -0.33751,-1.0747 -0.51416,-1.61025 -0.79174,-2.39902 -0.30241,-0.71001 -0.90944,-2.95119 -0.11785,-0.41475 -0.25578,-0.82581 -0.35324,-1.2442 -0.0719,-0.31134 -0.14052,-0.6256 -0.15477,-0.94244 -0.0129,-0.25637 0.0586,-0.51045 0.0771,-0.76628 0.0129,-0.18324 0.0129,-0.36677 0.0194,-0.55033 0.01,-0.33711 0.0324,-0.21859 -0.0369,-0.43246 0.0777,0.16057 0.0291,0.45451 0.2328,0.48111 0.34722,0.0451 0.66501,-0.45439 0.97936,-0.32367 0.34677,0.14384 0.21888,0.62722 0.41787,0.90428 0.32216,0.44817 0.76429,0.82856 1.13216,1.2516 3.54202,4.07353 -0.93692,-0.9341 2.88757,3.30949 3.82066,2.66857 0.0557,0.0877 3.69905,2.45359 0.44879,0.29132 0.87099,0.61097 1.32147,0.90075 0.21046,0.1352 0.42062,0.27634 0.65931,0.3733 0.0822,0.0345 0.32598,-0.0569 0.27457,0.008 -0.21143,0.26096 -0.54195,0.43877 -0.81295,0.65811 -0.14408,-0.10551 -0.32281,-0.18512 -0.43169,-0.31592 -0.55124,-0.66044 -0.30598,-1.62806 -0.54586,-2.34846 -0.15283,-0.45936 -0.45527,-0.87476 -0.66249,-1.31909 -0.22114,-0.47436 -0.41418,-0.95744 -0.62091,-1.43618 -0.92743,-1.65256 -0.50241,-0.80233 -1.22505,-2.43743 -0.1593,-0.36021 -0.34169,-0.71398 -0.47894,-1.08037 -0.12239,-0.32559 -0.20171,-0.66124 -0.29885,-0.99272 -0.2982,-1.01908 -0.21207,-0.63034 -0.34307,-1.53784 -0.002,-0.20833 -0.0845,-0.56315 0.23506,-0.69557 0.69156,-0.2867 1.18053,0.20807 1.63599,0.56499 0.53625,0.42009 1.03027,0.8767 1.52021,1.33439 0.67777,0.6331 1.32115,1.29118 1.98173,1.9368 1.98859,1.85809 4.18297,3.54719 6.33678,5.26786 1.11892,0.89387 1.32643,1.23587 2.63841,1.79669 0.24575,0.10498 0.52744,0.13575 0.79113,0.20348 0.0877,-0.0162 0.33475,-0.0912 0.26226,-0.0472 -0.21337,0.13088 -0.43633,0.28748 -0.69901,0.31441 -0.10393,0.0108 -0.11591,-0.14626 -0.1593,-0.2256 -0.76091,-1.39136 0.10426,0.21562 -0.3118,-1.01801 -0.0463,-0.13709 -0.15833,-0.25259 -0.23765,-0.3787 -0.0962,-0.14248 -0.37076,-0.4942 -0.39479,-0.69843 -0.0194,-0.15112 0.0615,-0.30519 0.0324,-0.45539 -0.0414,-0.21859 -0.17322,-0.41902 -0.23765,-0.63369 -1.00061,-3.33205 0.59773,1.57341 -0.55762,-1.9133 -0.91224,-3.00749 0.26842,1.0408 -0.4428,-1.91117 -0.0725,-0.30055 -0.17257,-0.59715 -0.2914,-0.88739 -0.10328,-0.25313 -0.29496,-0.48014 -0.37445,-0.73924 -0.0748,-0.24368 -0.0466,-0.50143 -0.0822,-0.75103 -0.0291,-0.19808 -0.0745,-0.39445 -0.11138,-0.5917 -0.0745,-0.16893 -0.1907,-0.32864 -0.22341,-0.50629 -0.0291,-0.16353 0.0291,-0.3302 0.0414,-0.49555 0.0227,-0.30942 0.0194,-0.24638 0.013,-0.51182 0.28913,-0.71902 1.50926,-0.37829 1.22003,0.34097 l 0,0 c -0.0324,-0.0108 -0.0803,-0.0623 -0.0907,-0.0345 -0.0227,0.0605 0.0369,0.12495 0.0324,0.1881 -0.068,0.76249 -0.17128,-0.0108 0.0227,0.85417 0.0227,0.21292 0.0518,0.42506 0.0651,0.63828 0.013,0.22317 -0.0414,0.45239 0.0194,0.66998 0.0748,0.26771 0.27165,0.50203 0.38138,0.76137 0.12045,0.284 0.23474,0.57168 0.30792,0.86669 0.15897,0.63771 0.12983,1.3023 0.35644,1.93141 0.0615,0.33328 0.0648,0.67779 0.18391,1.00008 0.10847,0.29364 0.35923,0.53862 0.49101,0.82532 0.10847,0.23559 0.10329,0.50222 0.22568,0.73298 0.0696,0.13196 0.26226,0.19889 0.33708,0.32866 0.0832,0.14384 -0.01,0.56475 -0.0291,0.6847 0.28104,0.39859 0.34308,0.42784 0.49526,0.8627 0.055,0.15652 0.0622,0.32405 0.12789,0.47774 0.2506,0.58932 0.78478,0.73686 -0.3749,1.29949 -0.15607,0.0758 -0.31731,-0.14437 -0.47593,-0.2167 -0.24898,-0.17918 -0.49577,-0.36059 -0.74647,-0.53816 -0.38138,-0.27016 -0.78691,-0.51776 -1.15026,-0.80475 -2.20568,-1.74264 -0.60527,-0.67242 -2.94672,-2.86881 -1.4119,-1.32449 -3.08037,-2.44868 -4.44092,-3.81459 -0.77458,-0.54469 -1.52597,-1.11324 -2.32377,-1.63418 -0.55722,-0.36407 -1.16819,-0.66716 -1.73749,-1.01787 -0.15412,-0.095 -0.37769,-0.16381 -0.43079,-0.31749 -0.0291,-0.0829 0.22438,-0.027 0.28849,-0.0942 0.0531,-0.0559 0.0751,-0.17406 0.003,-0.21373 -0.0599,-0.0345 -0.0945,0.0912 -0.14214,0.13709 0.0227,0.18324 0.0683,0.36523 0.0703,0.54969 0.003,0.28246 -0.0929,0.56544 -0.0541,0.84594 0.0463,0.32173 0.18391,0.62948 0.30047,0.93809 0.45064,1.18708 1.08385,2.32295 1.5431,3.50771 0.47382,0.92873 0.92008,1.86729 1.40507,2.79208 0.9184,1.75117 0.38232,0.44055 0.80385,1.73762 0.0832,0.25556 0.12336,0.12009 0.013,0.30672 -0.15606,0.25044 -0.29237,0.51061 -0.4686,0.75187 -0.0194,0.027 0.0194,-0.0734 -0.01,-0.0982 -0.17549,-0.16786 -0.37306,-0.31903 -0.57707,-0.46257 -0.43862,-0.30902 -0.91639,-0.57835 -1.34828,-0.89376 -1.56946,-1.14614 -1.89576,-1.52011 -3.33558,-2.83267 -3.95791,-3.66946 0.44186,0.43893 -3.26143,-3.10588 -0.42386,-0.40574 -0.864,-0.7996 -1.29265,-1.20186 -0.2273,-0.21319 -0.66932,-0.35946 -0.67505,-0.64465 -0.01,-0.38561 0.23118,-0.84734 0.64147,-1.02599 0.23701,-0.10309 0.17905,0.41974 0.26841,0.62959 -0.44694,-0.0108 -0.0871,-0.0615 -0.13113,0.25475 -0.0227,0.15247 -0.14926,0.28209 -0.19103,0.43124 -0.25805,0.91913 -0.11267,1.86702 0.1062,2.77802 0.44235,1.22971 0.62415,1.67796 0.99621,2.96874 0.1593,0.55251 0.32598,1.10465 0.43678,1.66529 0.79902,4.04044 -0.16934,-0.44503 0.14829,3.19415 0.0324,0.34443 0.19977,0.67013 0.29949,1.00519 -0.003,0.18162 -0.0725,0.36831 -0.0227,0.54488 0.0291,0.0934 0.29464,0.12279 0.24024,0.20752 -0.19362,0.30133 -0.58309,0.4819 -0.8494,0.74183 -0.0291,0.027 0.13307,0.003 0.11688,-0.027 -0.10102,-0.19403 -0.2506,-0.37022 -0.41003,-0.53521 -0.26906,-0.27902 -0.58093,-0.52751 -0.87142,-0.79127 -0.30468,-0.33404 -0.58585,-0.68394 -0.91393,-1.00216 -0.45945,-0.44565 -1.98577,-1.70173 -2.46685,-2.09878 -0.40401,-0.33366 -0.85416,-0.63202 -1.21689,-0.99722 -0.31536,-0.3175 -0.49991,-0.71409 -0.80478,-1.03852 -0.26777,-0.28476 -0.6033,-0.52067 -0.90497,-0.78098 -0.41832,-0.4647 0.37031,-0.95753 0.78847,-0.49288 z"
         inkscape:connector-curvature="0" />
    </g>
  </g>
</svg>
